<?xml version="1.0" encoding="utf-8"?>
<!-- Generator: Adobe Illustrator 24.1.2, SVG Export Plug-In . SVG Version: 6.00 Build 0)  -->
<svg version="1.1" id="Layer_1" xmlns="http://www.w3.org/2000/svg" xmlns:xlink="http://www.w3.org/1999/xlink" x="0px" y="0px"
	 viewBox="0 0 611 657" style="enable-background:new 0 0 611 657;" xml:space="preserve">
<style type="text/css">
	.st0{fill:#6C63FF;}
	.st1{opacity:0.1;enable-background:new    ;}
	.st2{opacity:0.3;enable-background:new    ;}
	.st3{fill:#E0E0E0;}
	.st4{fill:#F55F44;}
	.st5{opacity:5.000000e-02;enable-background:new    ;}
	.st6{fill:url(#Rectangle_51_2_);}
	.st7{fill:#F5F5F5;}
	.st8{fill:#DBDBDB;}
	.st9{opacity:0.5;}
	.st10{fill:#47E6B1;}
	.st11{opacity:0.5;fill:#4D8AF0;enable-background:new    ;}
	.st12{opacity:0.5;fill:#47E6B1;enable-background:new    ;}
	.st13{opacity:0.15;enable-background:new    ;}
	.st14{fill:#A31D23;}
	.st15{fill:#FEFDFD;}
</style>
<g>
	<path id="Rectangle_48" class="st0" d="M76.5,350.1h127.7c7.2,0,13,5.8,13,13v45.3c0,7.2-5.8,13-13,13H76.5c-7.2,0-13-5.8-13-13
		v-45.3C63.5,355.9,69.4,350.1,76.5,350.1z"/>
	<rect id="Rectangle_49" x="75.8" y="410.4" class="st1" width="129.1" height="1.3"/>
	<rect id="Rectangle_50" x="75.8" y="361.3" class="st2" width="129.1" height="49"/>
	<circle id="Ellipse_58" class="st1" cx="105.8" cy="386.8" r="17.8"/>
	<circle id="Ellipse_59" class="st1" cx="174.9" cy="386.8" r="17.8"/>
	<rect id="Rectangle_51" x="127" y="421.4" class="st0" width="26.7" height="15.6"/>
	<rect id="Rectangle_52" x="84.7" y="432.5" class="st0" width="111.3" height="89.1"/>
	<rect id="Rectangle_53" x="82.5" y="539.4" class="st0" width="115.8" height="11.1"/>
	<path id="Path_325" class="st0" d="M101.4,577.2v51.2h20v-66.8h-20V577.2z"/>
	<path id="Path_326" class="st0" d="M161.5,561.6v66.8h20v-66.8H161.5z"/>
	<path id="Path_327" class="st0" d="M69.5,452.5v20.6c-5.5,1-10.6,3.4-14.8,7.1c-3.9,3.6-6.9,8-8.8,12.9c-2.5,6.3-3.9,13-4.3,19.7
		c-0.6,8.8-0.2,17.7,1.2,26.5H20.6c-0.9-10.6-0.7-21.3,0.6-31.9c1.1-8.8,3.5-17.3,7.1-25.3c6.5-13.5,15.6-20.9,23.7-24.9
		C57.4,454.5,63.4,452.9,69.5,452.5L69.5,452.5z"/>
	<rect id="Rectangle_54" x="101.4" y="561.6" class="st2" width="20" height="15.6"/>
	<rect id="Rectangle_55" x="101.4" y="590.6" class="st2" width="20" height="20"/>
	<rect id="Rectangle_56" x="101.4" y="621.7" class="st2" width="20" height="6.7"/>
	<rect id="Rectangle_57" x="161.5" y="561.6" class="st2" width="20" height="15.6"/>
	<rect id="Rectangle_58" x="161.5" y="590.6" class="st2" width="20" height="20"/>
	<rect id="Rectangle_59" x="161.5" y="621.7" class="st2" width="20" height="6.7"/>
	<path id="Path_328" class="st2" d="M69.5,452.5v20.6c-5.5,1-10.6,3.4-14.8,7.1l-2.8-23C57.4,454.5,63.4,452.9,69.5,452.5z"/>
	<path id="Path_329" class="st2" d="M45.9,493.2c-2.5,6.3-3.9,13-4.3,19.7l-20.4-5.5c1.1-8.8,3.5-17.3,7.1-25.3L45.9,493.2z"/>
	<path id="Path_330" class="st0" d="M211.2,452.5v20.6c5.5,1,10.6,3.4,14.8,7.1c3.9,3.6,6.9,8,8.8,12.9c2.5,6.3,3.9,13,4.3,19.7
		c0.6,8.8,0.2,17.7-1.2,26.5h22.3c0.9-10.6,0.7-21.3-0.6-31.9c-1.1-8.8-3.5-17.3-7.1-25.3c-6.5-13.5-15.6-20.9-23.7-24.9
		C223.3,454.5,217.3,452.9,211.2,452.5z"/>
	<path id="Path_331" class="st2" d="M211.2,452.5v20.6c5.5,1,10.6,3.4,14.8,7.1l2.8-23C223.3,454.5,217.3,452.9,211.2,452.5z"/>
	<path id="Path_332" class="st2" d="M234.8,493.2c2.5,6.3,3.9,13,4.3,19.7l20.4-5.5c-1.1-8.8-3.5-17.3-7.1-25.3L234.8,493.2z"/>
	<rect id="Rectangle_60" x="127" y="421.4" class="st1" width="26.7" height="1.8"/>
	<path id="Path_333" class="st1" d="M198,448.4v37.3c-1.3-1.4-2.1-3.3-2.1-5.3v-26.7C195.9,451.7,196.7,449.8,198,448.4L198,448.4z"
		/>
	<path id="Path_334" class="st1" d="M85.1,450.8v27.9c-0.1,1.8-0.9,3.4-2.1,4.7V446C84.2,447.4,85,449.1,85.1,450.8L85.1,450.8z"/>
	<rect id="Rectangle_61" x="90.3" y="521.6" class="st1" width="100.2" height="1.3"/>
	<rect id="Rectangle_62" x="88" y="550.5" class="st1" width="49" height="1"/>
	<rect id="Rectangle_63" x="141.5" y="550.5" class="st1" width="49" height="1"/>
	<rect id="Rectangle_64" x="93.5" y="284.2" class="st0" width="7.7" height="65.9"/>
	<rect id="Rectangle_65" x="181.4" y="284.2" class="st0" width="7.7" height="65.9"/>
	<circle id="Ellipse_60" class="st1" cx="97.1" cy="284.7" r="8.7"/>
	<circle id="Ellipse_61" class="st0" cx="97.1" cy="284.2" r="8.7"/>
	<circle id="Ellipse_62" class="st1" cx="185.5" cy="284.7" r="8.7"/>
	<circle id="Ellipse_63" class="st0" cx="185.5" cy="284.2" r="8.7"/>
</g>
<g id="Group_42" transform="translate(-0.005)">
	
		<ellipse id="Ellipse_58_1_" transform="matrix(0.4445 -0.8958 0.8958 0.4445 -111.722 205.1124)" class="st3" cx="109.5" cy="192.6" rx="25.7" ry="3.9"/>
	
		<ellipse id="Ellipse_59_1_" transform="matrix(0.4445 -0.8958 0.8958 0.4445 -76.2067 581.2091)" class="st3" cx="430.5" cy="352" rx="25.7" ry="2.6"/>
	
		<rect id="Rectangle_48_1_" x="213" y="296.1" transform="matrix(0.6367 -0.7711 0.7711 0.6367 -147.5508 294.3911)" class="st4" width="51.4" height="15.4"/>
	
		<rect id="Rectangle_49_1_" x="222.2" y="300" transform="matrix(0.2289 -0.9735 0.9735 0.2289 -109.2558 479.3581)" class="st5" width="51.4" height="17.3"/>
	
		<rect id="Rectangle_50_1_" x="223.2" y="301.2" transform="matrix(0.2289 -0.9735 0.9735 0.2289 -108.7748 480.4956)" class="st4" width="51.4" height="15.4"/>
	
		<linearGradient id="Rectangle_51_2_" gradientUnits="userSpaceOnUse" x1="-939.8483" y1="-188.5021" x2="-939.8483" y2="-188.6127" gradientTransform="matrix(32.7565 -66.0193 438.5572 217.5967 115196.7109 -20028.2969)">
		<stop  offset="0" style="stop-color:#808080;stop-opacity:0.251"/>
		<stop  offset="0.535" style="stop-color:#808080;stop-opacity:0.122"/>
		<stop  offset="1" style="stop-color:#808080;stop-opacity:0.102"/>
	</linearGradient>
	<polygon id="Rectangle_51_1_" class="st6" points="97.5,216.8 121.5,168.4 442.5,327.7 418.6,376 	"/>
	<path id="Path_323" class="st7" d="M419.1,374.9c-6.3-3-325.6-161.6-321-159.3c17.7-27.1,22.8-46,22.8-46l321,159.3
		C442,328.9,430.7,348.7,419.1,374.9z"/>
	
		<rect id="Rectangle_52_1_" x="237.5" y="254.1" transform="matrix(0.4445 -0.8958 0.8958 0.4445 -94.6697 385.0904)" class="st5" width="51.4" height="29.5"/>
	
		<rect id="Rectangle_53_1_" x="237.4" y="255.4" transform="matrix(0.4445 -0.8958 0.8958 0.4445 -94.6743 385.0372)" class="st4" width="51.4" height="27"/>
	
		<rect id="Rectangle_54_1_" x="236.9" y="259.5" transform="matrix(0.4445 -0.8958 0.8958 0.4445 -94.6602 384.341)" class="st5" width="51.4" height="18"/>
	
		<rect id="Rectangle_55_1_" x="236.9" y="260.8" transform="matrix(0.4445 -0.8958 0.8958 0.4445 -94.6605 384.3411)" class="st4" width="51.4" height="15.4"/>
	<circle id="Ellipse_60_1_" class="st8" cx="279" cy="395.2" r="2.1"/>
	<g id="Group_38" class="st9">
		<rect id="Rectangle_56_1_" x="109.3" y="335.3" class="st10" width="2.2" height="12.4"/>
		<rect id="Rectangle_57_1_" x="104.1" y="340.4" class="st10" width="12.4" height="2.2"/>
	</g>
	<g id="Group_40" class="st9">
		<rect id="Rectangle_60_1_" x="122.4" y="25.6" class="st10" width="2.2" height="12.4"/>
		<rect id="Rectangle_61_1_" x="117.3" y="30.8" class="st10" width="12.4" height="2.2"/>
	</g>
	<g id="Group_41" class="st9">
		<rect id="Rectangle_62_1_" x="596.8" y="6.6" class="st10" width="2.2" height="12.4"/>
		<rect id="Rectangle_63_1_" x="591.6" y="11.7" class="st10" width="12.4" height="2.2"/>
	</g>
	<path id="Path_324" class="st11" d="M96.7,168c-1.3-0.5-1.9-1.9-1.5-3.2c0-0.1,0.1-0.2,0.1-0.3l0,0c0-0.7-0.5-1.4-1.3-1.4
		c-0.5,0-0.9,0.2-1.2,0.5l0,0c-0.1,0.1-0.1,0.2-0.1,0.3c-0.5,1.3-1.9,1.9-3.3,1.5c-0.1,0-0.2-0.1-0.3-0.1l0,0
		c-0.7,0-1.4,0.5-1.4,1.3c0,0.5,0.2,0.9,0.5,1.2l0,0c0.1,0.1,0.2,0.1,0.3,0.1c1.3,0.5,1.9,1.9,1.5,3.3c0,0.1-0.1,0.2-0.1,0.3l0,0
		c0,0.7,0.5,1.4,1.3,1.4c0.5,0,0.9-0.2,1.2-0.5l0,0c0.1-0.1,0.1-0.2,0.1-0.3c0.5-1.3,1.9-1.9,3.3-1.5c0.1,0,0.2,0.1,0.3,0.1l0,0
		c0.7,0,1.4-0.5,1.4-1.3c0-0.5-0.2-0.9-0.5-1.2l0,0C96.9,168.1,96.8,168,96.7,168L96.7,168z"/>
	<path id="Path_325_1_" class="st11" d="M222.6,23.8c-1.3-0.5-1.9-1.9-1.5-3.2c0-0.1,0.1-0.2,0.1-0.3l0,0c0-0.7-0.5-1.4-1.3-1.4
		c-0.5,0-0.9,0.2-1.2,0.5l0,0c-0.1,0.1-0.1,0.2-0.1,0.3c-0.5,1.3-1.9,1.9-3.3,1.5c-0.1,0-0.2-0.1-0.3-0.1l0,0
		c-0.7,0-1.4,0.5-1.4,1.3c0,0.5,0.2,0.9,0.5,1.2l0,0c0.1,0.1,0.2,0.1,0.3,0.1c1.3,0.5,1.9,1.9,1.5,3.3c0,0.1-0.1,0.2-0.1,0.3l0,0
		c0,0.7,0.5,1.4,1.3,1.4c0.5,0,0.9-0.2,1.2-0.5l0,0c0.1-0.1,0.1-0.2,0.1-0.3c0.5-1.3,1.9-1.9,3.3-1.5c0.1,0,0.2,0.1,0.3,0.1l0,0
		c0.7,0,1.4-0.5,1.4-1.3c0-0.5-0.2-0.9-0.5-1.2l0,0C222.8,23.9,222.7,23.8,222.6,23.8L222.6,23.8z"/>
	<path id="Path_326_1_" class="st11" d="M376.4,397.8c-1.3-0.5-1.9-1.9-1.5-3.2c0-0.1,0.1-0.2,0.1-0.3l0,0c0-0.7-0.5-1.4-1.3-1.4
		c-0.5,0-0.9,0.2-1.2,0.5l0,0c-0.1,0.1-0.1,0.2-0.1,0.3c-0.5,1.3-1.9,1.9-3.3,1.5c-0.1,0-0.2-0.1-0.3-0.1l0,0
		c-0.7,0-1.4,0.5-1.4,1.3c0,0.5,0.2,0.9,0.5,1.2l0,0c0.1,0.1,0.2,0.1,0.3,0.1c1.3,0.5,1.9,1.9,1.5,3.3c0,0.1-0.1,0.2-0.1,0.3l0,0
		c0,0.7,0.5,1.4,1.3,1.4c0.5,0,0.9-0.2,1.2-0.5l0,0c0.1-0.1,0.1-0.2,0.1-0.3c0.5-1.3,1.9-1.9,3.3-1.5c0.1,0,0.2,0.1,0.3,0.1l0,0
		c0.7,0,1.4-0.5,1.4-1.3c0-0.5-0.2-0.9-0.5-1.2l0,0C376.5,397.9,376.5,397.9,376.4,397.8z"/>
	<circle id="Ellipse_62_1_" class="st11" cx="547" cy="335.3" r="4.4"/>
	<circle id="Ellipse_63_1_" class="st12" cx="163.4" cy="378.5" r="4.4"/>
	<path id="Path_327_1_" class="st0" d="M237.7,244.1l-17.6,26.4c0,0,5.9,27.1,135.4,26.4c129.6-0.7,139.8-26.4,139.8-26.4
		l-24.2-35.1l-73.9-50.5L237.7,244.1z"/>
	<path id="Path_328_1_" class="st13" d="M237.7,244.1l-17.6,26.4c0,0,5.9,27.1,135.4,26.4c129.6-0.7,139.8-26.4,139.8-26.4
		l-24.2-35.1l-73.9-50.5L237.7,244.1z"/>
	<path id="Path_329_1_" class="st0" d="M611.4,146.4L380.8,248.2L99.7,146.4L357.4,29.3l126.5,58.3l4.5,2.1L611.4,146.4z"/>
	<path id="Path_330_1_" class="st13" d="M611.4,146.4L380.8,248.2L99.7,146.4L357.4,29.3l126.5,58.3l4.5,2.1L611.4,146.4z"/>
	<path id="Path_331_1_" class="st7" d="M493.2,170.8l-4.4,0.3l-4.9-83.5l4.5,2.1L493.2,170.8z"/>
	<path id="Path_332_1_" class="st0" d="M240.7,146.1l-20.5,124.4c0,0,147.1-47.6,275.2,0l-19-131.8
		C476.4,138.7,304.3,117.5,240.7,146.1z"/>
	<ellipse id="Ellipse_65" class="st7" cx="492.8" cy="181.6" rx="21.2" ry="14.6"/>
</g>
<g>
	<g id="layer101">
		<path class="st14" d="M360.8,242.6c-0.2-0.2-0.4-0.5-0.4-0.5s0.5-0.1,1.1-0.1c1.5-0.1,2.3-0.4,2.8-1l0.2-0.2h-1.9
			c-1.7,0-1.9,0-2.3-0.2c-0.6-0.3-0.7-0.5-0.7-1.6s0.1-1.3,0.7-1.6c0.4-0.2,0.5-0.2,2.4-0.2s2.1,0.1,2.3,0.2
			c0.6,0.3,0.6,0.6,0.7,1.5c0.1,1.5-0.2,2.3-0.9,3c-0.6,0.6-1.8,1.1-3.2,1.1H361L360.8,242.6z M364.5,239.7c0.2-0.2,0-1-0.2-1.2
			c-0.1-0.2-0.2-0.2-1.5-0.2c-0.8,0-1.5,0-1.6,0c-0.5,0.1-0.5,1.2,0,1.5C361.5,239.9,364.4,239.8,364.5,239.7z"/>
		<path class="st14" d="M369.6,242.5c-0.4-0.1-0.6-0.4-0.7-1.1c-0.1-0.2,0-0.3,0.5-0.5c0.3-0.1,0.6-0.2,0.6-0.2
			c0.1,0,0.1,0.2,0.2,0.3c0,0.2,0.1,0.3,0.2,0.3c0.3,0,3-0.4,3.2-0.5s0.2-0.2,0.2-0.6c-0.1-0.7-0.1-0.8-1.4-0.6
			c-0.9,0.1-1.1,0.1-1.1,0c-0.1-0.2-0.1-0.9,0-0.9c0.2,0,1.9-0.2,2-0.3s0.1-0.6,0-0.9c-0.1-0.3-0.3-0.3-1.9-0.1
			c-1.5,0.2-1.5,0.2-1.5,0.6v0.3h-0.6c-0.3,0-0.6-0.1-0.6-0.1c-0.1-0.1-0.1-0.9,0-1.1c0.1-0.2,0.2-0.2,0.4-0.3
			c0.5-0.2,4-0.6,4.5-0.6c0.4,0.1,0.6,0.4,0.7,1.1c0.1,0.7,0,1.1-0.3,1.3c-0.2,0.2-0.2,0.2,0,0.2c0.6,0,0.9,0.5,1,1.5
			c0.1,0.7-0.1,1.1-0.5,1.3C373.9,242.1,370,242.7,369.6,242.5z"/>
		<path class="st14" d="M353.4,241.7c-0.3-0.1-0.6-0.2-0.6-0.2s0.2-1,0.3-2.2c0.2-1.1,0.4-2.2,0.4-2.3s-0.2-0.2-0.6-0.2
			c-0.3-0.1-0.6-0.1-0.6-0.2c0,0,0-0.2,0-0.4l0.1-0.4h1.1c0.6,0,1.2,0,1.3,0.1c0.1,0.1-0.1,1-0.4,2.8c-0.3,1.5-0.5,2.8-0.6,2.8
			C353.9,241.8,353.6,241.7,353.4,241.7z"/>
		<path class="st14" d="M380.9,240.2c0-0.1-0.3-1-0.6-2.1c-0.3-1.1-0.6-2.1-0.6-2.1s-0.3,0-0.6,0.1c-0.3,0.1-0.6,0.2-0.6,0.2
			c-0.1,0-0.2-0.7-0.2-0.7c0.2-0.2,2.2-1,2.2-1c0.1,0.1,1.7,5.2,1.7,5.3s-0.2,0.2-0.5,0.2C381,240.3,381,240.3,380.9,240.2z"/>
		<path class="st14" d="M337.7,234.9c-0.3-0.3-0.3-0.3-0.8-2.8c-0.2-1.4-0.5-2.6-0.5-2.7c0-0.1-0.3,0.2-0.6,0.7
			c-1.4,1.7-1.5,1.9-1.7,1.9c-0.2-0.2-0.7-0.6-0.7-0.6c0-0.1,3.2-4,3.3-4c0,0,0.2,0.2,0.4,0.3l0.3,0.3l0.5,2.7l0.5,2.7l1.1-1.4
			c1-1.2,1.1-1.4,1.2-1.3c0.6,0.4,0.7,0.6,0.7,0.6c0,0.2-3.2,4-3.3,4C338.1,235.2,337.8,235.1,337.7,234.9z"/>
		<path class="st14" d="M392.9,233.4c0-0.2,0.1-1.1,0.2-1.9l0.2-1.5l-0.3-0.5c-0.2-0.2-0.6-0.6-0.7-1l-0.4-0.5l0.5-0.4
			c0.2-0.2,0.5-0.4,0.5-0.4s0.4,0.4,0.8,0.9c0.6,0.7,0.8,0.9,1.1,0.9c0.2,0,1.1,0.2,1.9,0.3c0.9,0.2,1.7,0.2,1.7,0.2s0,0.1-0.1,0.2
			c-0.1,0.1-0.4,0.3-0.6,0.5l-0.5,0.4l-1.3-0.2c-0.7-0.1-1.3-0.2-1.3-0.2s-0.1,0.6-0.1,1.2s-0.1,1.3-0.2,1.4c-0.1,0.2-1,0.9-1.1,0.9
			C392.8,233.8,392.8,233.7,392.9,233.4z"/>
		<path class="st14" d="M398.5,228.7l-0.3-0.3l0.9-0.9l0.9-0.9l-1.5-1.5c-0.8-0.8-1.5-1.5-1.5-1.5c0-0.2,0.7-0.8,0.9-0.8
			c0.1,0,0.7,0.6,1.5,1.5s1.5,1.5,1.5,1.5c0.1,0,0.5-0.3,0.9-0.8l0.8-0.8l0.3,0.3c0.2,0.2,0.3,0.3,0.3,0.4c0,0-1,1-2.2,2.2l-2.2,2.1
			L398.5,228.7z"/>
		<path class="st14" d="M328.8,227l-0.4-0.4l0.8-2.9c0.4-1.6,0.8-2.9,0.8-2.9s0.2,0.2,0.5,0.5l0.5,0.5l-0.2,0.6l-0.2,0.6l1.1,1.1
			c1.3,1.3,1.1,1.2,2.1,0.9l0.4-0.1l0.4,0.4c0.2,0.2,0.4,0.4,0.4,0.5c-0.1,0.1-5.7,1.6-5.7,1.6C329.3,227.5,329,227.3,328.8,227z
			 M330.9,225.9c0.5-0.1,1-0.2,1-0.2c0-0.1-1.2-1.5-1.3-1.5c-0.1,0-0.8,1.8-0.8,1.9C329.7,226.2,329.8,226.2,330.9,225.9z"/>
		<path class="st14" d="M366.1,225.7c-0.8-1-1.5-2.3-1.9-3.8c-0.2-0.7-0.2-1-0.2-2.9s0-2.4,0.2-4.2c0.2-1.1,0.2-2,0.2-2.1
			c-0.1-0.1-1.9-0.1-2.3,0.1c-0.3,0.1-0.3,0.2-0.3,0.4c0.2,0.6,0.2,4.6,0.1,5.4c-0.4,2.9-1.5,4.9-3.5,5.8c-1.9,1-4.9,1.1-10,0.6
			c-3-0.3-5.7-0.6-5.7-0.7c0,0-0.2-0.5-0.5-1.1c-0.5-1.1-1.4-2.8-2.5-4.9c-2-3.6-2.7-5.5-2.4-7.5c0.2-1.1,0.6-2.4,1.2-3.3
			c1-1.5,3.4-2.9,7.4-4.5c2.3-0.9,2.4-1,2.6-1.5c0.2-0.2,0.5-1.9,0.5-2.2s-0.8,0.1-2,0.6c-2.8,1.4-5.9,2.3-8.3,2.7
			c-2,0.3-4.9-0.1-5-0.6c0-0.1,0.1-0.4,0.2-0.7c1.1-2.3,5.4-3.8,13.8-4.9c0.9-0.2,1.7-0.2,1.8-0.3c0.1-0.1,0.5-1.5,0.6-2.1
			c0.1-0.4,0.1-0.5-0.2-0.5c-0.1,0-1.2,0.2-2.4,0.5c-5,1.1-8,1.5-10.4,1.3c-1.1-0.1-1.1-0.1-2.1-0.6c-2.6-1.3-3.9-2.9-4.5-5.9
			c-0.1-0.5-0.3-1.7-0.5-2.7c-0.4-2.4-0.6-3.7-1.1-4.9c-0.2-0.6-0.4-1.1-0.4-1.1c-0.1-0.1,0.1-0.2,0.5-0.6c0.7-0.6,1.4-1.3,2.3-2.5
			c1.1-1.4,1.9-2.2,2.9-3.2c2.3-2.1,3.7-2.8,5.5-3.1c3.1-0.4,7,1.9,11.8,6.9l1.1,1.1l0.1-0.2c0.1-0.2,0.1-0.4,0.2-0.5
			c0-0.4,0.2-1,0.5-1.2l0.2-0.2l-0.8-0.7c-4-3.4-6.2-6.2-7-8.7c-0.2-0.7-0.3-2.5-0.2-2.8c0.2-0.2,1.3,0,2.1,0.4
			c2.3,1.1,4.3,3.6,7.3,9.5c0.5,0.9,0.8,1.6,0.8,1.6s0.3-0.1,0.7-0.2c0.9-0.3,1.6-0.6,1.6-0.8c0-0.4-0.4-1.1-1.5-2.8
			c-1.5-2.1-2-3.2-2.4-4.5c-1-2.9-0.8-6,0.5-8.1c1.1-1.9,2.8-3.2,7-5.1c0.9-0.4,2.3-1.1,3.2-1.5l1.5-0.7l0.5,0.3
			c1,0.6,1.8,1.1,4.1,2.2c4.3,2,5.7,2.9,6.9,4.4c1,1.2,1.4,2.3,1.4,3.9c0,2.4-1.1,5.3-3.9,10.2l-0.9,1.5l0.2,0.2
			c0.2,0.4,0.6,0.6,1.3,0.6c0.9,0.1,1,0,1.5-1.2c0.6-1.4,1.7-3.6,2.3-4.7c1.7-2.8,3.6-4.5,5.9-5c0.8-0.2,0.8-0.2,0.9,0.3
			c0.5,2.1-1.6,5.6-6.5,10.8c-1.3,1.4-1.4,1.6-1,1.7c0.2,0.1,0.6,0.5,0.6,0.7s0.2,0.6,0.4,0.6c0.1,0,0.4-0.4,0.7-1
			c1.9-2.8,3.8-4.5,5.8-5.6c1.7-0.8,3.1-1.2,5.2-1.3c2.8-0.1,4.4,0.4,6,1.9c0.2,0.2,1.2,1.3,2,2.3c1.7,2,2.8,3.2,3.8,4
			c0.6,0.5,0.6,0.6,0.6,0.8c-0.2,0.9-0.3,1.9-0.5,3.2c-0.1,0.8-0.2,2.2-0.2,3c-0.2,2.8-0.7,4.8-1.5,6c-1.5,2.5-4.4,3.6-8.6,3.3
			c-2.4-0.2-5.7-0.7-9.6-1.7c-0.4-0.1-0.8-0.2-0.8-0.2c-0.1,0,0,0.5,0.2,1.3c0.1,0.3,0.2,0.6,0.2,0.9c0,0.2,0.1,0.3,0.2,0.4
			c0.1,0,1.1,0.2,2.2,0.2c4.2,0.5,5.5,0.7,7.7,1.3c2.3,0.6,4.1,1.7,5.1,3.1c0.5,0.6,0.9,1.5,0.8,1.5c-0.2,0.2-1.9,0.4-3.2,0.4
			c-3.6,0.2-7.5-1-10.9-3c-0.5-0.3-0.9-0.5-1.1-0.5s-0.2,0.1-0.2,0.6c0,0.7,0.2,1.7,0.3,1.9c0.1,0.2,0.5,0.3,2.3,1
			c2.3,0.7,2.8,1,4,1.5c3.4,1.7,4.9,4,4.6,7.1c-0.2,2-0.7,3.2-2.7,6.5c-1.2,2-2,3.9-2.3,5.4c-0.1,0.3-0.2,0.6-0.2,0.7
			c0,0-0.8,0.1-1.8,0.1c-1.9,0.1-2.7,0.1-5.7,0.6c-1.9,0.3-2.4,0.3-3.8,0.3c-1.8,0-2.2-0.1-3.2-0.6c-0.8-0.5-1.9-1.6-2.4-2.5
			c-1.1-1.9-1.8-4-2.3-7.9c-0.1-0.8-0.2-1.5-0.2-1.5c-0.1-0.1-2.4-0.2-2.5-0.2c0,0,0.1,0.8,0.3,1.7c0.6,2.9,0.7,4.5,0.5,6.4
			c-0.2,2.1-0.8,3.4-1.9,4.5l-0.6,0.7L366.1,225.7z"/>
		<path class="st14" d="M324.7,222.5c-0.6-0.8-1.4-1.9-1.8-2.4c-0.4-0.6-0.7-1-0.7-1.1c0,0,0.2-0.2,0.4-0.3l0.4-0.2l0.7,1
			c0.4,0.6,0.7,1,0.7,1s0.6-0.5,1.5-1.1c0.8-0.6,1.5-1.1,1.7-1.2l0.3-0.2l0.4,0.5c0.2,0.2,0.3,0.5,0.3,0.6s-2.8,2-3.4,2.4
			c0,0,0.2,0.4,0.6,1c0.4,0.5,0.6,1,0.6,1.1s-0.6,0.6-0.7,0.6C325.8,224,325.3,223.3,324.7,222.5z"/>
		<path class="st14" d="M402.3,221.4c-1.1-0.9-2-1.6-2.1-1.6c-0.1-0.1,0.6-1.1,0.8-1c0.2,0.2,4,3.2,4,3.2c0,0.1-0.7,1.1-0.7,1
			C404.4,223,403.4,222.3,402.3,221.4z"/>
		<path class="st14" d="M406.3,218.7c-0.2-0.1-0.3-0.2-0.3-0.2c0-0.2,0.2-1.1,0.3-1.1c0,0,0.2,0.1,0.2,0.2c0.2,0.2,0.2,0.2,1.1-1.3
			c0.3-0.6,0.6-1.1,0.7-1.3l0.2-0.3l-0.4-0.2c-0.2-0.2-0.4-0.2-0.5-0.2s-0.5,0.6-1,1.5c-1,1.7-1.3,2-1.7,2s-1.4-0.5-1.8-1
			c-0.6-0.6-0.6-0.5,1.1-3.6c0.6-1.2,1-1.5,1.4-1.5c0.2,0,1,0.2,1,0.3c0,0.2-0.3,1.1-0.3,1.1c-0.1,0-0.2,0-0.3-0.1l-0.2-0.2
			l-0.5,0.8c-1.1,1.9-1.3,2.3-1.3,2.3c0.1,0.1,0.2,0.2,0.5,0.3l0.4,0.2l0.9-1.5c1-1.7,1.3-2.1,1.7-2.1c0.2,0,1.5,0.6,1.8,0.9
			c0.5,0.4,0.4,0.7-0.8,2.9C407.3,218.8,407,219,406.3,218.7z"/>
		<path class="st14" d="M320.9,216.6c-0.2-0.2-0.3-0.5-0.3-0.6s4.4-2.7,4.5-2.7s0.7,1,0.6,1.1s-4.4,2.7-4.5,2.7
			C321.2,217.1,321.1,216.9,320.9,216.6z"/>
		<path class="st14" d="M318.8,212.4c-0.2-0.2-1.7-4.6-1.7-5.1c0-0.6,0.2-0.7,2.3-1.5c2-0.6,2.3-0.6,2.7,0c0.3,0.6,1.5,4.5,1.5,4.9
			c0,0.6-0.2,0.7-2.2,1.4C319.5,212.7,319.1,212.8,318.8,212.4z M321.3,210.8l1.1-0.4l-0.6-1.9c-0.3-1.1-0.6-1.9-0.7-1.9
			s-2.9,0.9-3,1c0,0,1.1,3.6,1.2,3.7C319.4,211.4,319.6,211.3,321.3,210.8z"/>
		<path class="st14" d="M410,210.3c-1.1-0.4-1.4-0.7-1.1-1.6c0.1-0.2,0.1-0.5,0.1-0.5s-0.6,0.3-1.2,0.7s-1.2,0.7-1.2,0.7
			s0.1-0.4,0.2-0.8l0.2-0.8l1.3-0.7l1.3-0.7l0.2-0.5c0.1-0.2,0.2-0.5,0.2-0.6s-0.4-0.2-0.8-0.3c-0.5-0.2-0.9-0.2-0.9-0.3
			c-0.1-0.1,0.2-1.1,0.3-1.1c0.2,0,4.9,1.5,4.9,1.5c0.1,0.1-0.2,1.1-0.7,2.4c-0.6,1.9-0.8,2.3-1.1,2.6
			C411.2,210.6,410.8,210.6,410,210.3z M411.5,207.9c0.2-0.7,0.4-1.4,0.5-1.5c0-0.2-0.1-0.2-0.6-0.4c-0.3-0.1-0.6-0.2-0.6-0.2
			c0,0.1-0.2,0.6-0.5,1.5c-0.3,1-0.4,1.4-0.3,1.5c0.1,0.2,0.6,0.4,1,0.3C411.1,209.2,411.1,209.2,411.5,207.9z"/>
		<path class="st14" d="M315.6,202.8c0-0.2-0.1-0.3-0.1-0.5c0-0.1,0.6-1.2,1.5-2.5c1.3-2,1.5-2.3,1.3-2.3c-0.3,0.1-2.8,0.4-3.2,0.4
			c-0.2,0-0.2-0.2-0.3-0.8v-0.3l2.6-0.3c1.5-0.2,2.7-0.3,2.7-0.3s0.1,0.2,0.1,0.5l0.1,0.4l-1.5,2.3c-0.8,1.2-1.5,2.3-1.5,2.3
			s0.8-0.1,1.7-0.2c1-0.2,1.8-0.2,1.8-0.2s0.1,0.3,0.1,0.6c0,0.4,0,0.6-0.1,0.6s-1.2,0.2-2.6,0.3c-1.4,0.2-2.5,0.3-2.5,0.3
			C315.7,203.2,315.7,203,315.6,202.8z"/>
		<path class="st14" d="M413.5,201.9c-0.2-0.1-0.2-0.1,0-2.3c0.1-1,0.1-1.8,0.1-1.9c0,0-0.2-0.1-0.6-0.1h-0.5l-0.1,1.1
			c-0.1,0.6-0.2,1.2-0.2,1.2c-0.1,0.1-0.2,0.1-0.5,0s-0.4-0.1-0.4-0.3s0.1-0.6,0.1-1.1c0.1-1.1,0.1-1.1-0.7-1.1h-0.4l-0.2,1.9
			c-0.1,1.1-0.2,1.9-0.2,2c0,0.2-0.1,0.2-0.5,0.2c-0.5,0-0.5,0-0.5-0.2c0-0.3,0.4-5.2,0.5-5.3s5.2,0.4,5.3,0.5c0,0-0.1,1.2-0.2,2.7
			l-0.2,2.6H414C413.8,202,413.6,202,413.5,201.9z"/>
		<path class="st14" d="M317.1,192.7l-2.5-1.6v-0.6c0-0.3,0.1-0.6,0.1-0.6c0.1-0.1,5.3-2.7,5.3-2.7s0.1,0.6,0,1.1
			c-0.1,0.2-0.2,0.3-0.6,0.6c-0.6,0.3-0.6,0.2-0.7,2.3l-0.1,1.2l0.5,0.3c0.5,0.3,0.5,0.3,0.6,0.6c0,0.2,0,0.5-0.1,0.6l-0.1,0.2
			L317.1,192.7z M317.8,190.8c0-0.6,0.1-1.1,0-1.1c-0.1-0.1-1.9,0.8-1.9,0.9c0,0.1,1.6,1.2,1.8,1.2
			C317.8,191.8,317.8,191.4,317.8,190.8z"/>
		<path class="st14" d="M414.6,194.2c-0.1-0.1-1.2-0.6-2.4-1.4s-2.3-1.4-2.4-1.4c-0.1-0.1-0.2-0.2-0.2-0.5v-0.4l2.6-1.5
			c1.5-0.8,2.7-1.5,2.8-1.5c0.1,0,0.1,0.2,0.1,0.6v0.7l-1.1,0.6c-0.6,0.3-1.5,0.8-1.9,1.1l-0.8,0.5l1.9,1.1l1.9,1.1v0.6
			C414.9,194.2,414.8,194.3,414.6,194.2z"/>
		<path class="st14" d="M409.1,185.6c0-0.3-0.1-0.6,0-0.6c0-0.1,4.9-0.7,5.1-0.7c0.1,0,0.2,0.2,0.2,0.6c0.1,0.3,0.1,0.6,0,0.6
			c-0.1,0.1-4.7,0.8-5,0.8C409.2,186.2,409.2,186.2,409.1,185.6z"/>
		<path class="st14" d="M317.9,185c-1.4-0.2-2.4-0.4-2.5-0.4c-0.1-0.1,0-1,0.2-1.1c0.1-0.1,0.6,0,2.1,0.2c1.3,0.2,2,0.2,2.1,0.2
			c0-0.1,0.2-0.9,0.3-1.8c0.2-1,0.2-1.8,0.3-1.9c0-0.2,0.1-0.2,0.5-0.1c0.2,0,0.5,0.1,0.5,0.2c0.1,0.1,0,0.8-0.2,2.3
			c-0.4,3-0.4,2.8-0.6,2.8C320.4,185.4,319.2,185.2,317.9,185z"/>
		<path class="st14" d="M408.7,182c0-0.1-0.1-0.2-0.1-0.4c-0.1-0.3,0.1-0.6,1.1-2.8c0.6-1.4,1.1-2.4,1.1-2.5c0,0-0.6,0.2-1.5,0.4
			s-1.6,0.5-1.7,0.5s-0.2-0.1-0.2-0.2c-0.2-0.3-0.2-0.8-0.2-0.8s1.1-0.3,2.5-0.7s2.5-0.7,2.5-0.6c0,0,0.1,0.2,0.2,0.4
			c0.1,0.3,0.1,0.4-1,2.8c-0.6,1.4-1.1,2.5-1.1,2.5s0.2,0,0.3-0.1c0.7-0.2,3-0.9,3.1-0.8c0.2,0.1,0.3,1,0.2,1.1
			c-0.1,0.1-4.7,1.5-4.9,1.5C408.7,182,408.7,182,408.7,182z"/>
		<path class="st14" d="M405.4,173.1c-0.3-0.3-2.2-3.9-2.2-4.3c-0.1-0.6,0.2-0.8,2.3-1.9c1.1-0.6,1.9-1,1.9-1c0.1,0,0.6,0.9,0.6,1.1
			c0,0.1-0.8,0.6-1.9,1.1l-1.9,1l0.7,1.5c0.4,0.8,0.8,1.5,0.8,1.5s0.9-0.4,1.9-0.9c1.5-0.8,1.9-1,1.9-0.8c0.1,0.1,0.2,0.3,0.3,0.6
			c0.2,0.3,0.2,0.4,0.1,0.5s-1,0.5-2,1.1c-1.2,0.6-2,1-2.2,1C405.8,173.3,405.6,173.2,405.4,173.1z"/>
		<path class="st14" d="M324,171.4c-0.7-0.3-2.9-1.6-3.2-1.9c-0.2-0.2-0.3-0.6-0.2-1c0.2-0.5,1.9-3.5,2.2-3.7
			c0.2-0.2,0.3-0.2,0.6-0.2c0.3,0,1.2,0.4,1.2,0.6c0,0.1-0.3,1.1-0.4,1.1c0,0-0.2-0.1-0.5-0.2c-0.2-0.2-0.4-0.2-0.5-0.2
			c0,0-0.4,0.6-0.8,1.4c-0.7,1.2-0.7,1.4-0.6,1.5c0.3,0.2,2.6,1.5,2.7,1.5s1.5-2.6,1.5-2.8c0,0-0.2-0.2-0.5-0.3
			c-0.5-0.3-0.5-0.2,0-0.9l0.3-0.4l0.4,0.2c0.2,0.1,0.5,0.3,0.6,0.5c0.4,0.4,0.3,0.8-0.3,1.9C325,171.5,324.9,171.8,324,171.4z"/>
		<path class="st14" d="M327.2,163.1c-1.1-1-1.9-1.8-1.9-1.9s0.7-0.9,0.8-0.9c0,0,0.4,0.3,0.7,0.6c0.4,0.3,0.7,0.6,0.7,0.6
			c0.1,0,2.4-2.5,2.5-2.7c0,0-0.3-0.4-0.7-0.7l-0.7-0.6l0.4-0.4c0.2-0.2,0.4-0.4,0.5-0.5c0.1,0,3.9,3.4,3.9,3.5s-0.7,0.9-0.8,0.9
			c0,0-0.4-0.3-0.8-0.7s-0.8-0.7-0.8-0.7s-0.6,0.6-1.3,1.4l-1.3,1.4l0.8,0.8l0.8,0.7l-0.4,0.5l-0.4,0.4L327.2,163.1z"/>
		<path class="st14" d="M395.4,159.4c-0.3-0.2-2.9-2.6-3.3-3.1c-0.4-0.4-0.4-0.9-0.2-1.3c0.1-0.2,0.7-0.8,1.4-1.5
			c1.3-1.4,1.5-1.5,2.1-1.2c0.4,0.2,3.3,2.9,3.6,3.3c0.2,0.3,0.2,0.7-0.1,1.1c-0.2,0.2-0.2,0.3-0.2,0.3c-0.1,0-1.1-0.6-1.1-0.7
			c0-0.1,0.1-0.2,0.2-0.2c0.1-0.1,0.2-0.2,0.2-0.2c0-0.1-0.6-0.6-1.4-1.3l-1.4-1.2l-0.3,0.3c-0.2,0.2-0.6,0.7-1.1,1.2l-0.8,0.8
			l0.6,0.5c1.1,1.1,2.2,2,2.2,2s0.2-0.2,0.4-0.4l0.3-0.4l-0.7-0.6l-0.7-0.6l0.3-0.3c0.2-0.2,0.3-0.3,0.4-0.3s2.3,2,2.3,2.2
			c0,0.1-0.4,0.5-0.9,1c-0.7,0.8-0.9,0.9-1.2,0.9C395.7,159.5,395.5,159.5,395.4,159.4z"/>
		<path class="st14" d="M333.9,156.1c-1.4-1.7-1.6-2-1.5-2.1c0.3-0.2,4-3.3,4-3.3c0.1,0,0.6,0.6,0.5,0.7c0,0-0.7,0.6-1.5,1.4
			c-1.7,1.4-1.6,1.3-1.1,1.9l0.2,0.3l0.9-0.7l0.9-0.7l0.3,0.3c0.2,0.2,0.3,0.3,0.3,0.4c0,0-0.4,0.4-0.9,0.8s-0.9,0.7-0.9,0.8
			c0,0,0.2,0.2,0.4,0.5l0.4,0.4l1.5-1.3c0.8-0.7,1.5-1.3,1.6-1.3c0.1-0.1,0.7,0.5,0.7,0.7c0,0.1-4,3.4-4.2,3.5
			C335.6,158,334.8,157.1,333.9,156.1z"/>
		<path class="st14" d="M388.6,154.2c-0.4-0.2-0.3-0.1-1.4-3.1c-0.4-1.2-0.8-2.2-0.8-2.2s-0.4,0.6-0.9,1.5c-0.5,0.8-0.9,1.5-0.9,1.5
			c-0.1,0-0.8-0.4-1-0.5c0,0,2.5-4.5,2.6-4.6c0,0,0.2,0.1,0.4,0.2l0.4,0.2l1,2.6l1,2.6l0.9-1.5l0.9-1.5l0.4,0.2
			c0.2,0.2,0.5,0.2,0.5,0.3c0.1,0.1-2.2,4.2-2.5,4.5C389,154.4,389,154.4,388.6,154.2z"/>
		<path class="st14" d="M341.5,152.8c-0.2-0.4-0.7-1.5-1.2-2.3l-0.9-1.7l0.4-0.2l0.4-0.2l2.5,0.6c1.4,0.3,2.6,0.6,2.7,0.6
			c0.2,0.1,0.1-0.2-0.6-1.5l-0.8-1.5l0.5-0.2c0.2-0.2,0.5-0.2,0.6-0.2c0.1,0.1,2.3,4.5,2.3,4.6c0,0.2-0.6,0.4-0.8,0.4
			c-0.2,0-1.4-0.2-2.8-0.6c-1.4-0.3-2.5-0.6-2.5-0.6s0.3,0.6,0.7,1.5s0.7,1.5,0.7,1.5c0,0.1-0.8,0.6-0.9,0.6
			C341.9,153.5,341.7,153.2,341.5,152.8z"/>
		<path class="st14" d="M378.3,149.4c-1-0.2-1.9-0.5-2.1-0.6c-0.3-0.2-0.6-0.5-0.6-0.8s1-4.4,1.1-4.5s1.2,0.2,1.2,0.3s-0.2,1-0.5,2
			c-0.2,1.1-0.4,1.9-0.4,2s3.2,0.9,3.2,0.8c0,0,0.2-0.9,0.5-2c0.2-1.1,0.5-2,0.5-2c0.1-0.1,1.1,0.2,1.2,0.2c0.1,0.1-0.9,4-1.1,4.4
			C381.2,150,380.7,150,378.3,149.4z"/>
		<path class="st14" d="M350.2,149.4c-0.1-0.1-0.2-0.2-0.3-0.4c-0.2-0.4-1.1-3.5-1.1-3.8c0-0.2,0.2-0.6,0.5-0.7
			c0.5-0.2,4.3-1.3,4.7-1.3s0.7,0.2,0.9,0.6c0.2,0.4,0.2,0.4-0.3,0.6c-0.5,0.2-0.7,0.3-0.7,0.1c0-0.4-0.1-0.4-1.9,0.2l-1.8,0.5
			l0.5,1.5c0.2,0.8,0.5,1.5,0.5,1.5c0.1,0.1,3.3-0.9,3.5-1c0.1-0.1,0.1-0.2-0.1-0.6c-0.1-0.2-0.2-0.5-0.2-0.5c-0.1,0-0.5,0.2-1,0.2
			c-0.5,0.2-0.9,0.2-1,0.2c-0.1-0.1-0.2-0.8-0.2-0.8c0.2-0.1,3-0.9,3.1-0.8c0.1,0.1,0.6,2,0.6,2.3s-0.2,0.6-0.6,0.8
			c-0.6,0.2-4.2,1.3-4.5,1.3C350.5,149.5,350.3,149.4,350.2,149.4z"/>
		<path class="st14" d="M372.8,147.9l-0.8-0.1l-1.4-1.2c-0.7-0.6-1.4-1.2-1.5-1.2c0,0-0.1,0.5-0.2,1.1s-0.1,1.1-0.2,1.1
			c0,0-0.3,0-0.6,0c-0.6,0-0.6-0.1-0.6-0.2c0-0.4,0.4-5,0.5-5.1c0,0,0.3,0,0.6,0l0.6,0.1v0.4c0,0.2,0,0.6-0.1,1.1
			c0,0.4-0.1,0.6-0.1,0.7c0,0,0.7-0.4,1.5-0.9l1.5-1l0.8,0.1c0.5,0,0.8,0.1,0.9,0.2s-0.2,0.2-2.5,1.6c-0.6,0.3-1,0.6-1,0.6
			s0.8,0.7,1.8,1.5s1.8,1.5,1.8,1.5C373.9,148,373.9,148,372.8,147.9z"/>
	</g>
	<g id="layer102">
		<path class="st15" d="M348.5,213.6c0-0.1,0.1-0.4,0.2-0.7c0.5-2.4,1.2-6.3,2.6-14.5c1.3-7.6,1.9-11.4,2.6-14.6
			c0.2-1.4,0.6-2.8,0.6-3c0.1-0.2,0.1-0.5,0.2-0.5c0,0,0.9,0.5,1.9,1c3.2,1.6,5.4,2.3,8.2,2.6c1.1,0.2,3.2,0.1,4.5-0.2
			c2.4-0.4,5.5-1.4,8.4-2.8c0.5-0.2,0.8-0.3,0.9-0.3c0.1,0.1,2.3,11.6,3.8,20.2c0.3,1.6,1,5.1,1.5,7.7c0.5,2.6,0.9,4.8,0.9,4.9
			s-0.2,0-1-0.2c-3.1-1.2-7.4-2.1-12.4-2.5c-1.7-0.2-8-0.2-9.7,0c-4.9,0.5-9.1,1.4-12.1,2.7C348.9,213.5,348.5,213.7,348.5,213.6z
			 M357.7,207.1c0.9-0.4,1.6-0.9,2.7-1.9c1.1-1.1,1.6-1.8,2.8-4c1.5-2.4,1.8-2.9,2.3-2.9c0.1,0,0.2,0.1,0.1,0.3
			c-0.2,1.5-1.7,5.8-2.3,6.6c-0.2,0.2-0.2,0.8-0.2,0.8s0.2-0.1,0.4-0.2c0.6-0.3,1.5-1.1,2.3-2.2c1.4-1.6,2.1-2.8,2.3-4
			c0.1-0.4,0.2-0.8,0.2-0.9c0.1-0.2,0.2-0.2,0.5-0.2s0.3,0,0.5,0.5c0.2,0.7,0.4,1.9,0.5,3.5c0.2,1.9,0.3,3.2,0.5,3.3
			c0.2,0.2,0.6,0.2,0.6-0.1c0.2-0.3,0.5-1.9,0.5-2.8c0-0.5,0-2-0.1-3.6c-0.2-2.8-0.2-2.8,0.2-2.8c0.2,0,1.1,1.7,1.5,3.2
			c0.2,0.6,0.7,2.4,1.1,4l0.6,2.8l0.4,0.1c0.2,0,0.4,0,0.5,0c0.2-0.2,0.1-2.6-0.2-4.3c-0.2-1.6-0.3-4-0.1-4.5
			c0.1-0.2,0.2-0.2,0.4-0.3c0.3,0,0.3,0,0.6,0.3c0.7,1.1,1.1,2.2,1.7,4.6c0.6,2.2,0.9,3.2,1.3,4.1c0.3,0.6,0.4,0.6,0.7,0.8
			c0.4,0.2,0.5,0.1,0.6-0.6c0.2-0.6,0.2-3-0.1-3.9c-0.7-3.6-1.8-6.2-2.8-7.2c-0.6-0.6-0.8-0.9-0.7-1.2c0-0.1,0.3-0.4,0.7-0.7
			c0.8-0.6,1.1-1,1-1.4c0-0.2-0.1-0.3-0.2-0.4c-0.2-0.2-0.9-0.1-2,0.2c-1.3,0.2-1.6,0.2-1.7,0.1c-0.1-0.3,0.2-0.6,0.9-1
			c0.8-0.4,2.1-1.6,2.1-2.1s-0.1-0.5-0.9-0.5c-0.4,0-1.3,0.2-1.9,0.3c-0.6,0.2-1.2,0.2-1.3,0.2c0,0-0.1-0.2-0.1-0.5l-0.1-0.5
			l0.7-0.2c0.6-0.2,0.7-0.2,1.2-0.6c0.2-0.2,0.5-0.6,0.5-0.6c0-0.1-0.2-0.2-0.3-0.3c-0.2-0.2-0.6-0.2-2.8-0.2
			c-2.7-0.1-6-0.2-6.6-0.3c-0.4,0-0.4,0-0.4,0.2c0,0.1,0.1,0.4,0.2,0.6c0.2,0.3,0.3,0.5,1.9,1.1c1.1,0.5,1.5,0.8,1.6,1.5
			c0.1,0.2,0.2,0.5,0.1,0.5c0,0-0.6,0.1-1.5,0.1c-1.5,0.1-1.9,0.2-2.3,0.6c-0.1,0.2-0.2,0.4-0.2,0.6c-0.1,0.3,0,0.3,0.3,0.5
			c0.2,0.1,1.1,0.3,2.2,0.5c2.3,0.3,2.4,0.4,2.6,0.7c0.1,0.2,0.2,0.6,0.2,0.9c0,0.3,0.1,0.8,0.1,1l0.1,0.3l-1.1,0.1
			c-0.6,0.1-1.3,0.2-1.5,0.2l-0.4,0.1l-0.2-0.5c-0.5-1-1-1.1-1.9-0.7c-0.4,0.2-0.4,0.2-0.5,0.6c-0.1,0.3-0.2,0.5-0.3,0.7
			c-0.2,0.2-0.3,0.2-0.6,0.2h-0.4L364,195c-0.2-1.1-0.4-1.3-1.5-2.2c-0.7-0.6-0.9-0.9-0.7-1.2c0.1-0.1,0.6-0.4,1.1-0.6
			c1.5-0.7,1.8-1.2,1.4-2.3c-0.3-0.7-1-1.3-1.9-1.8c-2.4-1.2-5.6-1.8-7-1.4c-0.6,0.2-0.7,0.3-0.7,0.7c0,0.6,0.6,1,2.5,1.3
			c1.1,0.2,2.6,0.6,3.2,1c0.5,0.2,0.6,0.6,0.6,0.8c-0.1,0.2-0.2,0.4-1.3,0.8c-1.2,0.6-1.6,1-1.6,1.9c0,0.7,0.2,0.9,1.5,1.7
			c0.6,0.4,1.2,0.7,1.2,0.8c0.1,0.2-0.2,0.4-0.9,0.5c-0.8,0.1-1.5,0.4-1.9,0.8c-0.2,0.2-0.3,0.3-0.6,0.3c-0.3,0-0.3,0-0.4-0.3
			c-0.2-0.5-0.1-0.6,0.3-1c0.3-0.2,0.7-0.9,0.7-1.2c0-0.1-0.2-0.3-0.4-0.6c-0.9-0.9-2.9-1.1-4.4-0.4c-1.2,0.6-1.3,1.6-0.2,2.5
			c0.2,0.2,0.5,0.4,0.5,0.5c0,0.2-0.5,0.6-1.1,0.9c-0.5,0.2-0.5,0.3-0.7,0.8l-0.2,0.6l0.2,0.2c0.5,0.4,2,0.7,4.2,1.1
			c0.6,0.1,1.1,0.2,1.1,0.2c0.1,0.1-0.2,1.1-0.6,1.8c-0.6,1.4-1.7,2.4-2.6,2.9c-0.6,0.3-0.7,0.5,0,0.4c2.1-0.2,3.6-1,4.8-2.4
			c1.2-1.5,1.5-1.8,1.9-2.2c0.2-0.2,0.5-0.4,0.6-0.4s0.2,0.1,0.2,0.2c0.2,0.2,0.1,0.3-0.2,1.2c-0.4,1.1-0.9,2.1-1.5,2.8
			c-0.8,1-1.8,1.7-3.8,2.8c-0.8,0.4-1.4,0.8-1.4,0.9s0.2,0.2,0.5,0.3C355.8,207.5,356.9,207.5,357.7,207.1z"/>
		<path class="st15" d="M364.3,181.9c-3.2-0.4-5.7-1.5-7.3-3.2l-0.5-0.5l0.5-0.3c0.8-0.5,1.7-0.9,2.3-1.1c0.5-0.2,0.6-0.2,0.6,0
			c0.5,1,1.6,1.9,2.8,2.4c1.2,0.6,2.2,0.7,3.7,0.8c1.5,0,1.9-0.1,3.2-0.5c1.4-0.4,2.3-1.1,3.3-2l0.6-0.6l0.2,0.2
			c0.2,0.2,0.6,0.4,1.7,0.8c0.4,0.2,0.8,0.3,1,0.5c0.4,0.2,0.3,0.3-0.6,1.1c-1.6,1.3-4.1,2.2-7,2.5C367.8,182,365.4,182,364.3,181.9
			z"/>
		<path class="st15" d="M365.8,178.6l-0.3-0.1v-2.1c0-1.1,0.1-2.8,0.1-3.7c0.1-2,0.3-5,0.4-5.5c0.1-0.3,0.1-0.3,0.5-0.3
			c0.2,0,0.5,0.1,0.5,0.1c0,0.1,0.1,1.4,0.2,3c0.1,2.6,0.2,4.1,0.3,7.5l0.1,1.1l-0.5,0.1C366.4,178.6,366.2,178.6,365.8,178.6z"/>
		<path class="st15" d="M368.8,178c-0.2-0.2-0.5-4.5-0.6-7.7c0-1-0.1-2.2-0.1-2.8l-0.1-1.1l0.5-0.2c0.2-0.2,0.6-0.2,0.7-0.2
			c0.2,0,0.2,0,0.3,0.6c0,0.3,0.2,2.1,0.4,4c0.2,1.9,0.5,4.2,0.6,5.1c0.1,0.9,0.2,1.7,0.2,1.8C370.9,177.8,368.9,178.2,368.8,178z"
			/>
		<path class="st15" d="M363.5,177.8c-0.3-0.1-0.9-0.3-1.1-0.5l-0.2-0.2l0.1-1.7c0.1-2.4,0.6-7.1,1-9.1c0.1-0.3,0.2-0.3,1.1-0.1
			l0.6,0.2v1c0,1.9-0.3,9.7-0.5,10.2c-0.1,0.2-0.1,0.2-0.3,0.2C363.8,177.9,363.7,177.9,363.5,177.8z"/>
		<path class="st15" d="M364.7,165.2c-0.3-0.1-0.7-0.2-1-0.4c-0.4-0.3-0.4-0.4,0.2-0.9c0.7-0.6,1.9-1,3.2-0.7
			c0.7,0.2,1.5,0.6,1.9,0.9l0.2,0.2l-0.3,0.3c-0.6,0.5-1.3,0.6-2.5,0.7C365.5,165.4,365.2,165.3,364.7,165.2z"/>
	</g>
</g>
</svg>
