<?xml version="1.0" encoding="utf-8"?>
<!-- Generator: Adobe Illustrator 24.1.2, SVG Export Plug-In . SVG Version: 6.00 Build 0)  -->
<svg version="1.1" id="Layer_1" xmlns="http://www.w3.org/2000/svg" xmlns:xlink="http://www.w3.org/1999/xlink" x="0px" y="0px"
	 viewBox="0 0 663 628" style="enable-background:new 0 0 663 628;" xml:space="preserve">
<style type="text/css">
	.st0{fill:#E0E0E0;}
	.st1{fill:#F55F44;}
	.st2{opacity:5.000000e-02;enable-background:new    ;}
	.st3{fill:url(#Rectangle_51_1_);}
	.st4{fill:#F5F5F5;}
	.st5{fill:#DBDBDB;}
	.st6{opacity:0.5;}
	.st7{fill:#47E6B1;}
	.st8{opacity:0.5;fill:#4D8AF0;enable-background:new    ;}
	.st9{opacity:0.5;fill:#F55F44;enable-background:new    ;}
	.st10{opacity:0.5;fill:#47E6B1;enable-background:new    ;}
	.st11{fill:#6C63FF;}
	.st12{opacity:0.15;enable-background:new    ;}
	.st13{fill:#3F3D56;}
	.st14{fill:#A31D23;}
	.st15{fill:#FEFDFD;}
	.st16{fill:#FFFFFF;}
</style>
<g id="Group_42" transform="translate(-0.005)">
	
		<ellipse id="Ellipse_58" transform="matrix(0.4445 -0.8958 0.8958 0.4445 -154.277 122.4171)" class="st0" cx="21.6" cy="185.6" rx="25.7" ry="3.9"/>
	
		<ellipse id="Ellipse_59" transform="matrix(0.4445 -0.8958 0.8958 0.4445 -118.7577 498.529)" class="st0" cx="342.6" cy="345" rx="25.7" ry="2.6"/>
	
		<rect id="Rectangle_48" x="125" y="289.1" transform="matrix(0.6367 -0.7711 0.7711 0.6367 -174.1395 224.0392)" class="st1" width="51.4" height="15.4"/>
	
		<rect id="Rectangle_49" x="134.3" y="293" transform="matrix(0.2289 -0.9735 0.9735 0.2289 -170.3038 388.3787)" class="st2" width="51.4" height="17.3"/>
	
		<rect id="Rectangle_50" x="135.2" y="294.2" transform="matrix(0.2289 -0.9735 0.9735 0.2289 -169.7947 389.4628)" class="st1" width="51.4" height="15.4"/>
	
		<linearGradient id="Rectangle_51_1_" gradientUnits="userSpaceOnUse" x1="-139.9319" y1="920.2314" x2="-139.9319" y2="920.3419" gradientTransform="matrix(32.7565 -66.0193 -438.5572 -217.5967 409811.4062 191996.5)">
		<stop  offset="0" style="stop-color:#808080;stop-opacity:0.251"/>
		<stop  offset="0.535" style="stop-color:#808080;stop-opacity:0.122"/>
		<stop  offset="1" style="stop-color:#808080;stop-opacity:0.102"/>
	</linearGradient>
	<polygon id="Rectangle_51" class="st3" points="9.6,209.8 33.5,161.4 354.6,320.7 330.6,369 	"/>
	<path id="Path_323" class="st4" d="M331.2,367.9c-6.3-3-325.6-161.6-321-159.3c17.7-27.1,22.8-46,22.8-46l321,159.3
		C354,321.9,342.7,341.6,331.2,367.9z"/>
	
		<rect id="Rectangle_52" x="149.5" y="247" transform="matrix(0.4445 -0.8958 0.8958 0.4445 -137.2193 302.359)" class="st2" width="51.4" height="29.5"/>
	
		<rect id="Rectangle_53" x="149.5" y="248.3" transform="matrix(0.4445 -0.8958 0.8958 0.4445 -137.2197 302.3583)" class="st1" width="51.4" height="27"/>
	
		<rect id="Rectangle_54" x="148.9" y="252.5" transform="matrix(0.4445 -0.8958 0.8958 0.4445 -137.283 301.6843)" class="st2" width="51.4" height="18"/>
	
		<rect id="Rectangle_55" x="148.9" y="253.8" transform="matrix(0.4445 -0.8958 0.8958 0.4445 -137.283 301.6846)" class="st1" width="51.4" height="15.4"/>
	<circle id="Ellipse_60" class="st5" cx="191.1" cy="388.2" r="2.1"/>
	<g id="Group_38" class="st6">
		<rect id="Rectangle_56" x="21.3" y="328.3" class="st7" width="2.2" height="12.4"/>
		<rect id="Rectangle_57" x="16.2" y="333.4" class="st7" width="12.4" height="2.2"/>
	</g>
	<g id="Group_39" class="st6">
		<rect id="Rectangle_58" x="574.7" y="173.1" class="st7" width="2.2" height="12.4"/>
		<rect id="Rectangle_59" x="569.6" y="178.2" class="st7" width="12.4" height="2.2"/>
	</g>
	<g id="Group_40" class="st6">
		<rect id="Rectangle_60" x="34.5" y="18.6" class="st7" width="2.2" height="12.4"/>
		<rect id="Rectangle_61" x="29.3" y="23.8" class="st7" width="12.4" height="2.2"/>
	</g>
	<g id="Group_41" class="st6">
		<rect id="Rectangle_62" x="508.8" y="-0.4" class="st7" width="2.2" height="12.4"/>
		<rect id="Rectangle_63" x="503.7" y="4.7" class="st7" width="12.4" height="2.2"/>
	</g>
	<path id="Path_324" class="st8" d="M8.8,161c-1.3-0.5-1.9-1.9-1.5-3.2c0-0.1,0.1-0.2,0.1-0.3l0,0c0-0.7-0.5-1.4-1.3-1.4
		c-0.5,0-0.9,0.2-1.2,0.5l0,0c-0.1,0.1-0.1,0.2-0.1,0.3c-0.5,1.3-1.9,1.9-3.3,1.5c-0.1,0-0.2-0.1-0.3-0.1l0,0
		c-0.7,0-1.4,0.5-1.4,1.3c0,0.5,0.2,0.9,0.5,1.2l0,0c0.1,0.1,0.2,0.1,0.3,0.1c1.3,0.5,1.9,1.9,1.5,3.3c0,0.1-0.1,0.2-0.1,0.3l0,0
		c0,0.7,0.5,1.4,1.3,1.4c0.5,0,0.9-0.2,1.2-0.5l0,0c0.1-0.1,0.1-0.2,0.1-0.3c0.5-1.3,1.9-1.9,3.3-1.5c0.1,0,0.2,0.1,0.3,0.1l0,0
		c0.7,0,1.4-0.5,1.4-1.3c0-0.5-0.2-0.9-0.5-1.2l0,0C9,161.1,8.9,161,8.8,161L8.8,161z"/>
	<path id="Path_325" class="st8" d="M134.7,16.8c-1.3-0.5-1.9-1.9-1.5-3.2c0-0.1,0.1-0.2,0.1-0.3l0,0c0-0.7-0.5-1.4-1.3-1.4
		c-0.5,0-0.9,0.2-1.2,0.5l0,0c-0.1,0.1-0.1,0.2-0.1,0.3c-0.5,1.3-1.9,1.9-3.3,1.5c-0.1,0-0.2-0.1-0.3-0.1l0,0
		c-0.7,0-1.4,0.5-1.4,1.3c0,0.5,0.2,0.9,0.5,1.2l0,0c0.1,0.1,0.2,0.1,0.3,0.1c1.3,0.5,1.9,1.9,1.5,3.3c0,0.1-0.1,0.2-0.1,0.3l0,0
		c0,0.7,0.5,1.4,1.3,1.4c0.5,0,0.9-0.2,1.2-0.5l0,0c0.1-0.1,0.1-0.2,0.1-0.3c0.5-1.3,1.9-1.9,3.3-1.5c0.1,0,0.2,0.1,0.3,0.1l0,0
		c0.7,0,1.4-0.5,1.4-1.3c0-0.5-0.2-0.9-0.5-1.2l0,0C134.9,16.9,134.8,16.8,134.7,16.8L134.7,16.8z"/>
	<path id="Path_326" class="st8" d="M288.4,390.8c-1.3-0.5-1.9-1.9-1.5-3.2c0-0.1,0.1-0.2,0.1-0.3l0,0c0-0.7-0.5-1.4-1.3-1.4
		c-0.5,0-0.9,0.2-1.2,0.5l0,0c-0.1,0.1-0.1,0.2-0.1,0.3c-0.5,1.3-1.9,1.9-3.3,1.5c-0.1,0-0.2-0.1-0.3-0.1l0,0
		c-0.7,0-1.4,0.5-1.4,1.3c0,0.5,0.2,0.9,0.5,1.2l0,0c0.1,0.1,0.2,0.1,0.3,0.1c1.3,0.5,1.9,1.9,1.5,3.3c0,0.1-0.1,0.2-0.1,0.3l0,0
		c0,0.7,0.5,1.4,1.3,1.4c0.5,0,0.9-0.2,1.2-0.5l0,0c0.1-0.1,0.1-0.2,0.1-0.3c0.5-1.3,1.9-1.9,3.3-1.5c0.1,0,0.2,0.1,0.3,0.1l0,0
		c0.7,0,1.4-0.5,1.4-1.3c0-0.5-0.2-0.9-0.5-1.2l0,0C288.6,390.9,288.5,390.9,288.4,390.8z"/>
	<circle id="Ellipse_61" class="st9" cx="555.7" cy="300.5" r="4.4"/>
	<circle id="Ellipse_62" class="st8" cx="459" cy="328.3" r="4.4"/>
	<circle id="Ellipse_63" class="st10" cx="75.5" cy="371.5" r="4.4"/>
	<path id="Path_327" class="st11" d="M149.8,237.1l-17.6,26.4c0,0,5.9,27.1,135.4,26.4s139.8-26.4,139.8-26.4l-24.2-35.1l-73.9-50.5
		L149.8,237.1z"/>
	<path id="Path_328" class="st12" d="M149.8,237.1l-17.6,26.4c0,0,5.9,27.1,135.4,26.4s139.8-26.4,139.8-26.4l-24.2-35.1l-73.9-50.5
		L149.8,237.1z"/>
	<path id="Path_329" class="st11" d="M523.4,139.4L292.9,241.2L11.8,139.4L269.4,22.3l126.5,58.3l4.5,2.1L523.4,139.4z"/>
	<path id="Path_330" class="st12" d="M523.4,139.4L292.9,241.2L11.8,139.4L269.4,22.3l126.5,58.3l4.5,2.1L523.4,139.4z"/>
	<path id="Path_331" class="st4" d="M405.2,163.8l-4.4,0.3l-4.9-83.5l4.5,2.1L405.2,163.8z"/>
	<path id="Path_332" class="st11" d="M152.7,139l-20.5,124.4c0,0,147.1-47.6,275.2,0l-19-131.8C388.4,131.7,216.4,110.5,152.7,139z"
		/>
	<ellipse id="Ellipse_65" class="st4" cx="404.9" cy="174.5" rx="21.2" ry="14.6"/>
</g>
<line class="st13" x1="1057" y1="1322.4" x2="1057" y2="1324.6"/>
<g>
	<g id="layer101">
		<path class="st14" d="M272.9,235.6c-0.2-0.2-0.4-0.5-0.4-0.5s0.5-0.1,1.1-0.1c1.5-0.1,2.3-0.4,2.8-1l0.2-0.2h-1.9
			c-1.7,0-1.9,0-2.3-0.2c-0.6-0.3-0.7-0.5-0.7-1.6c0-1.1,0.1-1.3,0.7-1.6c0.4-0.2,0.5-0.2,2.4-0.2c1.9,0,2.1,0.1,2.3,0.2
			c0.6,0.3,0.6,0.6,0.7,1.5c0.1,1.5-0.2,2.3-0.9,3c-0.6,0.6-1.8,1.1-3.2,1.1h-0.6L272.9,235.6z M276.6,232.7c0.2-0.2,0-1-0.2-1.2
			c-0.1-0.2-0.2-0.2-1.5-0.2c-0.8,0-1.5,0-1.6,0c-0.5,0.1-0.5,1.2,0,1.5C273.5,232.9,276.4,232.8,276.6,232.7z"/>
		<path class="st14" d="M281.6,235.5c-0.4-0.1-0.6-0.4-0.7-1.1c-0.1-0.2,0-0.3,0.5-0.5c0.3-0.1,0.6-0.2,0.6-0.2
			c0.1,0,0.1,0.2,0.2,0.3c0,0.2,0.1,0.3,0.2,0.3c0.3,0,3-0.4,3.2-0.5c0.2-0.1,0.2-0.2,0.2-0.6c-0.1-0.7-0.1-0.8-1.4-0.6
			c-0.9,0.1-1.1,0.1-1.1,0c-0.1-0.2-0.1-0.9,0-0.9c0.2,0,1.9-0.2,2-0.3c0.1-0.1,0.1-0.6,0-0.9c-0.1-0.3-0.3-0.3-1.9-0.1
			c-1.5,0.2-1.5,0.2-1.5,0.6v0.3h-0.6c-0.3,0-0.6-0.1-0.6-0.1c-0.1-0.1-0.1-0.9,0-1.1c0.1-0.2,0.2-0.2,0.4-0.3
			c0.5-0.2,4-0.6,4.5-0.6c0.4,0.1,0.6,0.4,0.7,1.1c0.1,0.7,0,1.1-0.3,1.3c-0.2,0.2-0.2,0.2,0,0.2c0.6,0,0.9,0.5,1,1.5
			c0.1,0.7-0.1,1.1-0.5,1.3C286,235.1,282,235.7,281.6,235.5z"/>
		<path class="st14" d="M265.4,234.7c-0.3-0.1-0.6-0.2-0.6-0.2s0.2-1,0.3-2.2c0.2-1.1,0.4-2.2,0.4-2.3c0-0.1-0.2-0.2-0.6-0.2
			c-0.3-0.1-0.6-0.1-0.6-0.2c0,0,0-0.2,0-0.4l0.1-0.4h1.1c0.6,0,1.2,0,1.3,0.1c0.1,0.1-0.1,1-0.4,2.8c-0.3,1.5-0.5,2.8-0.6,2.8
			C266,234.8,265.6,234.7,265.4,234.7z"/>
		<path class="st14" d="M292.9,233.2c0-0.1-0.3-1-0.6-2.1c-0.3-1.1-0.6-2.1-0.6-2.1s-0.3,0-0.6,0.1c-0.3,0.1-0.6,0.2-0.6,0.2
			c-0.1,0-0.2-0.7-0.2-0.7c0.2-0.2,2.2-1,2.2-1c0.1,0.1,1.7,5.2,1.7,5.3c0,0.1-0.2,0.2-0.5,0.2C293,233.3,293,233.3,292.9,233.2z"/>
		<path class="st14" d="M249.7,227.9c-0.3-0.3-0.3-0.3-0.8-2.8c-0.2-1.4-0.5-2.6-0.5-2.7s-0.3,0.2-0.6,0.7c-1.4,1.7-1.5,1.9-1.7,1.9
			c-0.2-0.2-0.7-0.6-0.7-0.6c0-0.1,3.2-4,3.3-4c0,0,0.2,0.2,0.4,0.3l0.3,0.3l0.5,2.7l0.5,2.7l1.1-1.4c1-1.2,1.1-1.4,1.2-1.3
			c0.6,0.4,0.7,0.6,0.7,0.6c0,0.2-3.2,4-3.3,4C250.1,228.2,249.9,228,249.7,227.9z"/>
		<path class="st14" d="M304.9,226.4c0-0.2,0.1-1.1,0.2-1.9l0.2-1.5l-0.3-0.5c-0.2-0.2-0.6-0.6-0.7-1l-0.4-0.5l0.5-0.4
			c0.2-0.2,0.5-0.4,0.5-0.4s0.4,0.4,0.8,0.9c0.6,0.7,0.8,0.9,1.1,0.9c0.2,0,1.1,0.2,1.9,0.3c0.9,0.2,1.7,0.2,1.7,0.2s0,0.1-0.1,0.2
			c-0.1,0.1-0.4,0.3-0.6,0.5l-0.5,0.4l-1.3-0.2c-0.7-0.1-1.3-0.2-1.3-0.2s-0.1,0.6-0.1,1.2s-0.1,1.3-0.2,1.4c-0.1,0.2-1,0.9-1.1,0.9
			C304.8,226.8,304.8,226.7,304.9,226.4z"/>
		<path class="st14" d="M310.6,221.7l-0.3-0.3l0.9-0.9l0.9-0.9l-1.5-1.5c-0.8-0.8-1.5-1.5-1.5-1.5c0-0.2,0.7-0.8,0.9-0.8
			c0.1,0,0.7,0.6,1.5,1.5s1.5,1.5,1.5,1.5s0.5-0.3,0.9-0.8l0.8-0.8l0.3,0.3c0.2,0.2,0.3,0.3,0.3,0.4c0,0-1,1-2.2,2.2l-2.2,2.1
			L310.6,221.7z"/>
		<path class="st14" d="M240.8,220l-0.4-0.4l0.8-2.9c0.4-1.6,0.8-2.9,0.8-2.9s0.2,0.2,0.5,0.5l0.5,0.5l-0.2,0.6l-0.2,0.6l1.1,1.1
			c1.3,1.3,1.1,1.2,2.1,0.9l0.4-0.1l0.4,0.4c0.2,0.2,0.4,0.4,0.4,0.5c-0.1,0.1-5.7,1.6-5.7,1.6C241.3,220.4,241,220.3,240.8,220z
			 M242.9,218.9c0.5-0.1,1-0.2,1-0.2c0-0.1-1.2-1.5-1.3-1.5c-0.1,0-0.8,1.8-0.8,1.9C241.8,219.1,241.9,219.1,242.9,218.9z"/>
		<path class="st14" d="M278.1,218.7c-0.8-1-1.5-2.3-1.9-3.8c-0.2-0.7-0.2-1-0.2-2.9c0-1.9,0-2.4,0.2-4.2c0.2-1.1,0.2-2,0.2-2.1
			c-0.1-0.1-1.9-0.1-2.3,0.1c-0.3,0.1-0.3,0.2-0.3,0.4c0.2,0.6,0.2,4.6,0.1,5.4c-0.4,2.9-1.5,4.9-3.5,5.8c-1.9,1-4.9,1.1-10,0.6
			c-3-0.3-5.7-0.6-5.7-0.7c0,0-0.2-0.5-0.5-1.1c-0.5-1.1-1.4-2.8-2.5-4.9c-2-3.6-2.7-5.5-2.4-7.5c0.2-1.1,0.6-2.4,1.2-3.3
			c1-1.5,3.4-2.9,7.4-4.5c2.3-0.9,2.4-1,2.6-1.5c0.2-0.2,0.5-1.9,0.5-2.2c0-0.2-0.8,0.1-2,0.6c-2.8,1.4-5.9,2.3-8.3,2.7
			c-2,0.3-4.9-0.1-5-0.6c0-0.1,0.1-0.4,0.2-0.7c1.1-2.3,5.4-3.8,13.8-4.9c0.9-0.2,1.7-0.2,1.8-0.3c0.1-0.1,0.5-1.5,0.6-2.1
			c0.1-0.4,0.1-0.5-0.2-0.5c-0.1,0-1.2,0.2-2.4,0.5c-5,1.1-8,1.5-10.4,1.3c-1.1-0.1-1.1-0.1-2.1-0.6c-2.6-1.3-3.9-2.9-4.5-5.9
			c-0.1-0.5-0.3-1.7-0.5-2.7c-0.4-2.4-0.6-3.7-1.1-4.9c-0.2-0.6-0.4-1.1-0.4-1.1c-0.1-0.1,0.1-0.2,0.5-0.6c0.7-0.6,1.4-1.3,2.3-2.5
			c1.1-1.4,1.9-2.2,2.9-3.2c2.3-2.1,3.7-2.8,5.5-3.1c3.1-0.4,7,1.9,11.8,6.9l1.1,1.1l0.1-0.2c0.1-0.2,0.1-0.4,0.2-0.5
			c0-0.4,0.2-1,0.5-1.2l0.2-0.2l-0.8-0.7c-4-3.4-6.2-6.2-7-8.7c-0.2-0.7-0.3-2.5-0.2-2.8s1.3,0,2.1,0.4c2.3,1.1,4.3,3.6,7.3,9.5
			c0.5,0.9,0.8,1.6,0.8,1.6s0.3-0.1,0.7-0.2c0.9-0.3,1.6-0.6,1.6-0.8c0-0.4-0.4-1.1-1.5-2.8c-1.5-2.1-2-3.2-2.4-4.5
			c-1-2.9-0.8-6,0.5-8.1c1.1-1.9,2.8-3.2,7-5.1c0.9-0.4,2.3-1.1,3.2-1.5l1.5-0.7l0.5,0.3c1,0.6,1.8,1.1,4.1,2.2
			c4.3,2,5.7,2.9,6.9,4.4c1,1.2,1.4,2.3,1.4,3.9c0,2.4-1.1,5.3-3.9,10.2l-0.9,1.5l0.2,0.2c0.2,0.4,0.6,0.6,1.3,0.6
			c0.9,0.1,1,0,1.5-1.2c0.6-1.4,1.7-3.6,2.3-4.7c1.7-2.8,3.6-4.5,5.9-5c0.8-0.2,0.8-0.2,0.9,0.3c0.5,2.1-1.6,5.6-6.5,10.8
			c-1.3,1.4-1.4,1.6-1,1.7c0.2,0.1,0.6,0.5,0.6,0.7c0,0.2,0.2,0.6,0.4,0.6c0.1,0,0.4-0.4,0.7-1c1.9-2.8,3.8-4.5,5.8-5.6
			c1.7-0.8,3.1-1.2,5.2-1.3c2.8-0.1,4.4,0.4,6,1.9c0.2,0.2,1.2,1.3,2,2.3c1.7,2,2.8,3.2,3.8,4c0.6,0.5,0.6,0.6,0.6,0.8
			c-0.2,0.9-0.3,1.9-0.5,3.2c-0.1,0.8-0.2,2.2-0.2,3c-0.2,2.8-0.7,4.8-1.5,6c-1.5,2.5-4.4,3.6-8.6,3.3c-2.4-0.2-5.7-0.7-9.6-1.7
			c-0.4-0.1-0.8-0.2-0.8-0.2c-0.1,0,0,0.5,0.2,1.3c0.1,0.3,0.2,0.6,0.2,0.9c0,0.2,0.1,0.3,0.2,0.4c0.1,0,1.1,0.2,2.2,0.2
			c4.2,0.5,5.5,0.7,7.7,1.3c2.3,0.6,4.1,1.7,5.1,3.1c0.5,0.6,0.9,1.5,0.8,1.5c-0.2,0.2-1.9,0.4-3.2,0.4c-3.6,0.2-7.5-1-10.9-3
			c-0.5-0.3-0.9-0.5-1.1-0.5c-0.2,0-0.2,0.1-0.2,0.6c0,0.7,0.2,1.7,0.3,1.9c0.1,0.2,0.5,0.3,2.3,1c2.3,0.7,2.8,1,4,1.5
			c3.4,1.7,4.9,4,4.6,7.1c-0.2,2-0.7,3.2-2.7,6.5c-1.2,2-2,3.9-2.3,5.4c-0.1,0.3-0.2,0.6-0.2,0.7c0,0-0.8,0.1-1.8,0.1
			c-1.9,0.1-2.7,0.1-5.7,0.6c-1.9,0.3-2.4,0.3-3.8,0.3c-1.8,0-2.2-0.1-3.2-0.6c-0.8-0.5-1.9-1.6-2.4-2.5c-1.1-1.9-1.8-4-2.3-7.9
			c-0.1-0.8-0.2-1.5-0.2-1.5c-0.1-0.1-2.4-0.2-2.5-0.2c0,0,0.1,0.8,0.3,1.7c0.6,2.9,0.7,4.5,0.5,6.4c-0.2,2.1-0.8,3.4-1.9,4.5
			l-0.6,0.7L278.1,218.7z"/>
		<path class="st14" d="M236.8,215.5c-0.6-0.8-1.4-1.9-1.8-2.4c-0.4-0.6-0.7-1-0.7-1.1c0,0,0.2-0.2,0.4-0.3l0.4-0.2l0.7,1
			c0.4,0.6,0.7,1,0.7,1s0.6-0.5,1.5-1.1c0.8-0.6,1.5-1.1,1.7-1.2l0.3-0.2l0.4,0.5c0.2,0.2,0.3,0.5,0.3,0.6c0,0.1-2.8,2-3.4,2.4
			c0,0,0.2,0.4,0.6,1c0.4,0.5,0.6,1,0.6,1.1c0,0.1-0.6,0.6-0.7,0.6C237.8,217,237.3,216.3,236.8,215.5z"/>
		<path class="st14" d="M314.4,214.4c-1.1-0.9-2-1.6-2.1-1.6c-0.1-0.1,0.6-1.1,0.8-1c0.2,0.2,4,3.2,4,3.2s-0.7,1.1-0.7,1
			C316.4,216,315.4,215.3,314.4,214.4z"/>
		<path class="st14" d="M318.3,211.7c-0.2-0.1-0.3-0.2-0.3-0.2c0-0.2,0.2-1.1,0.3-1.1c0,0,0.2,0.1,0.2,0.2c0.2,0.2,0.2,0.2,1.1-1.3
			c0.3-0.6,0.6-1.1,0.7-1.3l0.2-0.3l-0.4-0.2c-0.2-0.2-0.4-0.2-0.5-0.2c-0.1,0-0.5,0.6-1,1.5c-1,1.7-1.3,2-1.7,2s-1.4-0.5-1.8-1
			c-0.6-0.6-0.6-0.5,1.1-3.6c0.6-1.2,1-1.5,1.4-1.5c0.2,0,1,0.2,1,0.3c0,0.2-0.3,1.1-0.3,1.1c-0.1,0-0.2,0-0.3-0.1l-0.2-0.2
			l-0.5,0.8c-1.1,1.9-1.3,2.3-1.3,2.3c0.1,0.1,0.2,0.2,0.5,0.3l0.4,0.2l0.9-1.5c1-1.7,1.3-2.1,1.7-2.1c0.2,0,1.5,0.6,1.8,0.9
			c0.5,0.4,0.4,0.7-0.8,2.9C319.3,211.8,319.1,212,318.3,211.7z"/>
		<path class="st14" d="M232.9,209.6c-0.2-0.2-0.3-0.5-0.3-0.6s4.4-2.7,4.5-2.7c0.1,0,0.7,1,0.6,1.1c-0.1,0.1-4.4,2.7-4.5,2.7
			C233.3,210.1,233.1,209.9,232.9,209.6z"/>
		<path class="st14" d="M230.8,205.4c-0.2-0.2-1.7-4.6-1.7-5.1c0-0.6,0.2-0.7,2.3-1.5c2-0.6,2.3-0.6,2.7,0c0.3,0.6,1.5,4.5,1.5,4.9
			c0,0.6-0.2,0.7-2.2,1.4C231.6,205.7,231.2,205.8,230.8,205.4z M233.4,203.8l1.1-0.4l-0.6-1.9c-0.3-1.1-0.6-1.9-0.7-1.9
			s-2.9,0.9-3,1c0,0,1.1,3.6,1.2,3.7C231.4,204.4,231.7,204.3,233.4,203.8z"/>
		<path class="st14" d="M322,203.3c-1.1-0.4-1.4-0.7-1.1-1.6c0.1-0.2,0.1-0.5,0.1-0.5s-0.6,0.3-1.2,0.7s-1.2,0.7-1.2,0.7
			s0.1-0.4,0.2-0.8l0.2-0.8l1.3-0.7l1.3-0.7l0.2-0.5c0.1-0.2,0.2-0.5,0.2-0.6c0-0.1-0.4-0.2-0.8-0.3c-0.5-0.2-0.9-0.2-0.9-0.3
			c-0.1-0.1,0.2-1.1,0.3-1.1c0.2,0,4.9,1.5,4.9,1.5c0.1,0.1-0.2,1.1-0.7,2.4c-0.6,1.9-0.8,2.3-1.1,2.6
			C323.3,203.6,322.9,203.6,322,203.3z M323.5,200.9c0.2-0.7,0.4-1.4,0.5-1.5c0-0.2-0.1-0.2-0.6-0.4c-0.3-0.1-0.6-0.2-0.6-0.2
			c0,0.1-0.2,0.6-0.5,1.5c-0.3,1-0.4,1.4-0.3,1.5c0.1,0.2,0.6,0.4,1,0.3C323.1,202.1,323.1,202.1,323.5,200.9z"/>
		<path class="st14" d="M227.6,195.8c0-0.2-0.1-0.3-0.1-0.5c0-0.1,0.6-1.2,1.5-2.5c1.3-2,1.5-2.3,1.3-2.3c-0.3,0.1-2.8,0.4-3.2,0.4
			c-0.2,0-0.2-0.2-0.3-0.8v-0.3l2.6-0.3c1.5-0.2,2.7-0.3,2.7-0.3s0.1,0.2,0.1,0.5l0.1,0.4l-1.5,2.3c-0.8,1.2-1.5,2.3-1.5,2.3
			c0,0,0.8-0.1,1.7-0.2c1-0.2,1.8-0.2,1.8-0.2s0.1,0.3,0.1,0.6c0,0.4,0,0.6-0.1,0.6s-1.2,0.2-2.6,0.3c-1.4,0.2-2.5,0.3-2.5,0.3
			C227.7,196.2,227.7,196,227.6,195.8z"/>
		<path class="st14" d="M325.5,194.9c-0.2-0.1-0.2-0.1,0-2.3c0.1-1,0.1-1.8,0.1-1.9c0,0-0.2-0.1-0.6-0.1h-0.5l-0.1,1.1
			c-0.1,0.6-0.2,1.2-0.2,1.2c-0.1,0.1-0.2,0.1-0.5,0c-0.3-0.1-0.4-0.1-0.4-0.3c0-0.2,0.1-0.6,0.1-1.1c0.1-1.1,0.1-1.1-0.7-1.1h-0.4
			l-0.2,1.9c-0.1,1.1-0.2,1.9-0.2,2c0,0.2-0.1,0.2-0.5,0.2c-0.5,0-0.5,0-0.5-0.2c0-0.3,0.4-5.2,0.5-5.3c0.1-0.1,5.2,0.4,5.3,0.5
			c0,0-0.1,1.2-0.2,2.7l-0.2,2.6h-0.3C325.9,194.9,325.6,194.9,325.5,194.9z"/>
		<path class="st14" d="M229.1,185.7l-2.5-1.6v-0.6c0-0.3,0.1-0.6,0.1-0.6c0.1-0.1,5.3-2.7,5.3-2.7s0.1,0.6,0,1.1
			c-0.1,0.2-0.2,0.3-0.6,0.6c-0.6,0.3-0.6,0.2-0.7,2.3l-0.1,1.2l0.5,0.3c0.5,0.3,0.5,0.3,0.6,0.6c0,0.2,0,0.5-0.1,0.6l-0.1,0.2
			L229.1,185.7z M229.9,183.8c0-0.6,0.1-1.1,0-1.1c-0.1-0.1-1.9,0.8-1.9,0.9c0,0.1,1.6,1.2,1.8,1.2
			C229.8,184.8,229.8,184.3,229.9,183.8z"/>
		<path class="st14" d="M326.6,187.2c-0.1-0.1-1.2-0.6-2.4-1.4s-2.3-1.4-2.4-1.4c-0.1-0.1-0.2-0.2-0.2-0.5v-0.4l2.6-1.5
			c1.5-0.8,2.7-1.5,2.8-1.5c0.1,0,0.1,0.2,0.1,0.6v0.7l-1.1,0.6c-0.6,0.3-1.5,0.8-1.9,1.1l-0.8,0.5l1.9,1.1l1.9,1.1v0.6
			C326.9,187.2,326.8,187.3,326.6,187.2z"/>
		<path class="st14" d="M321.2,178.6c0-0.3-0.1-0.6,0-0.6c0-0.1,4.9-0.7,5.1-0.7c0.1,0,0.2,0.2,0.2,0.6c0.1,0.3,0.1,0.6,0,0.6
			c-0.1,0.1-4.7,0.8-5,0.8C321.3,179.2,321.3,179.2,321.2,178.6z"/>
		<path class="st14" d="M230,178c-1.4-0.2-2.4-0.4-2.5-0.4c-0.1-0.1,0-1,0.2-1.1c0.1-0.1,0.6,0,2.1,0.2c1.3,0.2,2,0.2,2.1,0.2
			c0-0.1,0.2-0.9,0.3-1.8c0.2-1,0.2-1.8,0.3-1.9c0-0.2,0.1-0.2,0.5-0.1c0.2,0,0.5,0.1,0.5,0.2c0.1,0.1,0,0.8-0.2,2.3
			c-0.4,3-0.4,2.8-0.6,2.8C232.4,178.4,231.2,178.2,230,178z"/>
		<path class="st14" d="M320.7,175c0-0.1-0.1-0.2-0.1-0.4c-0.1-0.3,0.1-0.6,1.1-2.8c0.6-1.4,1.1-2.4,1.1-2.5c0,0-0.6,0.2-1.5,0.4
			c-0.9,0.2-1.6,0.5-1.7,0.5c-0.1,0-0.2-0.1-0.2-0.2c-0.2-0.3-0.2-0.8-0.2-0.8c0,0,1.1-0.3,2.5-0.7c1.4-0.4,2.5-0.7,2.5-0.6
			c0,0,0.1,0.2,0.2,0.4c0.1,0.3,0.1,0.4-1,2.8c-0.6,1.4-1.1,2.5-1.1,2.5s0.2,0,0.3-0.1c0.7-0.2,3-0.9,3.1-0.8c0.2,0.1,0.3,1,0.2,1.1
			c-0.1,0.1-4.7,1.5-4.9,1.5C320.8,175,320.7,175,320.7,175z"/>
		<path class="st14" d="M317.4,166c-0.3-0.3-2.2-3.9-2.2-4.3c-0.1-0.6,0.2-0.8,2.3-1.9c1.1-0.6,1.9-1,1.9-1c0.1,0,0.6,0.9,0.6,1.1
			c0,0.1-0.8,0.6-1.9,1.1l-1.9,1l0.7,1.5c0.4,0.8,0.8,1.5,0.8,1.5c0,0,0.9-0.4,1.9-0.9c1.5-0.8,1.9-1,1.9-0.8
			c0.1,0.1,0.2,0.3,0.3,0.6c0.2,0.3,0.2,0.4,0.1,0.5c-0.1,0.1-1,0.5-2,1.1c-1.2,0.6-2,1-2.2,1C317.9,166.3,317.6,166.2,317.4,166z"
			/>
		<path class="st14" d="M236,164.3c-0.7-0.3-2.9-1.6-3.2-1.9c-0.2-0.2-0.3-0.6-0.2-1c0.2-0.5,1.9-3.5,2.2-3.7
			c0.2-0.2,0.3-0.2,0.6-0.2c0.3,0,1.2,0.4,1.2,0.6c0,0.1-0.3,1.1-0.4,1.1c0,0-0.2-0.1-0.5-0.2c-0.2-0.2-0.4-0.2-0.5-0.2
			c0,0-0.4,0.6-0.8,1.4c-0.7,1.2-0.7,1.4-0.6,1.5c0.3,0.2,2.6,1.5,2.7,1.5c0.1,0,1.5-2.6,1.5-2.8c0,0-0.2-0.2-0.5-0.3
			c-0.5-0.3-0.5-0.2,0-0.9l0.3-0.4l0.4,0.2c0.2,0.1,0.5,0.3,0.6,0.5c0.4,0.4,0.3,0.8-0.3,1.9C237.1,164.5,236.9,164.8,236,164.3z"/>
		<path class="st14" d="M239.3,156.1c-1.1-1-1.9-1.8-1.9-1.9c0-0.1,0.7-0.9,0.8-0.9c0,0,0.4,0.3,0.7,0.6c0.4,0.3,0.7,0.6,0.7,0.6
			c0.1,0,2.4-2.5,2.5-2.7c0,0-0.3-0.4-0.7-0.7l-0.7-0.6l0.4-0.4c0.2-0.2,0.4-0.4,0.5-0.5c0.1,0,3.9,3.4,3.9,3.5
			c0,0.1-0.7,0.9-0.8,0.9c0,0-0.4-0.3-0.8-0.7s-0.8-0.7-0.8-0.7s-0.6,0.6-1.3,1.4l-1.3,1.4l0.8,0.8l0.8,0.7l-0.4,0.5l-0.4,0.4
			L239.3,156.1z"/>
		<path class="st14" d="M307.4,152.4c-0.3-0.2-2.9-2.6-3.3-3.1c-0.4-0.4-0.4-0.9-0.2-1.3c0.1-0.2,0.7-0.8,1.4-1.5
			c1.3-1.4,1.5-1.5,2.1-1.2c0.4,0.2,3.3,2.9,3.6,3.3c0.2,0.3,0.2,0.7-0.1,1.1c-0.2,0.2-0.2,0.3-0.2,0.3c-0.1,0-1.1-0.6-1.1-0.7
			c0-0.1,0.1-0.2,0.2-0.2c0.1-0.1,0.2-0.2,0.2-0.2c0-0.1-0.6-0.6-1.4-1.3l-1.4-1.2l-0.3,0.3c-0.2,0.2-0.6,0.7-1.1,1.2l-0.8,0.8
			l0.6,0.5c1.1,1.1,2.2,2,2.2,2s0.2-0.2,0.4-0.4l0.3-0.4l-0.7-0.6l-0.7-0.6l0.3-0.3c0.2-0.2,0.3-0.3,0.4-0.3c0.1,0,2.3,2,2.3,2.2
			c0,0.1-0.4,0.5-0.9,1c-0.7,0.8-0.9,0.9-1.2,0.9C307.7,152.5,307.5,152.5,307.4,152.4z"/>
		<path class="st14" d="M245.9,149.1c-1.4-1.7-1.6-2-1.5-2.1c0.3-0.2,4-3.3,4-3.3c0.1,0,0.6,0.6,0.5,0.7c0,0-0.7,0.6-1.5,1.4
			c-1.7,1.4-1.6,1.3-1.1,1.9l0.2,0.3l0.9-0.7l0.9-0.7l0.3,0.3c0.2,0.2,0.3,0.3,0.3,0.4c0,0-0.4,0.4-0.9,0.8
			c-0.5,0.4-0.9,0.7-0.9,0.8c0,0,0.2,0.2,0.4,0.5l0.4,0.4l1.5-1.3c0.8-0.7,1.5-1.3,1.6-1.3c0.1-0.1,0.7,0.5,0.7,0.7
			c0,0.1-4,3.4-4.2,3.5C247.6,151,246.8,150.1,245.9,149.1z"/>
		<path class="st14" d="M300.6,147.2c-0.4-0.2-0.3-0.1-1.4-3.1c-0.4-1.2-0.8-2.2-0.8-2.2s-0.4,0.6-0.9,1.5c-0.5,0.8-0.9,1.5-0.9,1.5
			c-0.1,0-0.8-0.4-1-0.5c0,0,2.5-4.5,2.6-4.6c0,0,0.2,0.1,0.4,0.2l0.4,0.2l1,2.6l1,2.6l0.9-1.5l0.9-1.5l0.4,0.2
			c0.2,0.2,0.5,0.2,0.5,0.3c0.1,0.1-2.2,4.2-2.5,4.5C301,147.4,301,147.4,300.6,147.2z"/>
		<path class="st14" d="M253.5,145.8c-0.2-0.4-0.7-1.5-1.2-2.3l-0.9-1.7l0.4-0.2l0.4-0.2l2.5,0.6c1.4,0.3,2.6,0.6,2.7,0.6
			c0.2,0.1,0.1-0.2-0.6-1.5l-0.8-1.5l0.5-0.2c0.2-0.2,0.5-0.2,0.6-0.2c0.1,0.1,2.3,4.5,2.3,4.6c0,0.2-0.6,0.4-0.8,0.4
			c-0.2,0-1.4-0.2-2.8-0.6c-1.4-0.3-2.5-0.6-2.5-0.6s0.3,0.6,0.7,1.5c0.4,0.8,0.7,1.5,0.7,1.5c0,0.1-0.8,0.6-0.9,0.6
			C253.9,146.5,253.8,146.2,253.5,145.8z"/>
		<path class="st14" d="M290.3,142.4c-1-0.2-1.9-0.5-2.1-0.6c-0.3-0.2-0.6-0.5-0.6-0.8s1-4.4,1.1-4.5s1.2,0.2,1.2,0.3
			c0,0.1-0.2,1-0.5,2c-0.2,1.1-0.4,1.9-0.4,2c0,0.1,3.2,0.9,3.2,0.8c0,0,0.2-0.9,0.5-2c0.2-1.1,0.5-2,0.5-2c0.1-0.1,1.1,0.2,1.2,0.2
			c0.1,0.1-0.9,4-1.1,4.4C293.2,143,292.8,143,290.3,142.4z"/>
		<path class="st14" d="M262.2,142.4c-0.1-0.1-0.2-0.2-0.3-0.4c-0.2-0.4-1.1-3.5-1.1-3.8c0-0.2,0.2-0.6,0.5-0.7
			c0.5-0.2,4.3-1.3,4.7-1.3s0.7,0.2,0.9,0.6c0.2,0.4,0.2,0.4-0.3,0.6c-0.5,0.2-0.7,0.3-0.7,0.1c0-0.4-0.1-0.4-1.9,0.2l-1.8,0.5
			l0.5,1.5c0.2,0.8,0.5,1.5,0.5,1.5c0.1,0.1,3.3-0.9,3.5-1c0.1-0.1,0.1-0.2-0.1-0.6c-0.1-0.2-0.2-0.5-0.2-0.5c-0.1,0-0.5,0.2-1,0.2
			c-0.5,0.2-0.9,0.2-1,0.2c-0.1-0.1-0.2-0.8-0.2-0.8c0.2-0.1,3-0.9,3.1-0.8s0.6,2,0.6,2.3c0,0.3-0.2,0.6-0.6,0.8
			c-0.6,0.2-4.2,1.3-4.5,1.3C262.5,142.5,262.3,142.4,262.2,142.4z"/>
		<path class="st14" d="M284.8,140.9l-0.8-0.1l-1.4-1.2c-0.7-0.6-1.4-1.2-1.5-1.2c0,0-0.1,0.5-0.2,1.1c-0.1,0.6-0.1,1.1-0.2,1.1
			c0,0-0.3,0-0.6,0c-0.6,0-0.6-0.1-0.6-0.2c0-0.4,0.4-5,0.5-5.1c0,0,0.3,0,0.6,0l0.6,0.1v0.4c0,0.2,0,0.6-0.1,1.1
			c0,0.4-0.1,0.6-0.1,0.7c0,0,0.7-0.4,1.5-0.9l1.5-1l0.8,0.1c0.5,0,0.8,0.1,0.9,0.2c0.1,0.1-0.2,0.2-2.5,1.6c-0.6,0.3-1,0.6-1,0.6
			s0.8,0.7,1.8,1.5c1,0.8,1.8,1.5,1.8,1.5C286,141,285.9,141,284.8,140.9z"/>
	</g>
	<g id="layer102">
		<path class="st15" d="M260.5,206.6c0-0.1,0.1-0.4,0.2-0.7c0.5-2.4,1.2-6.3,2.6-14.5c1.3-7.6,1.9-11.4,2.6-14.6
			c0.2-1.4,0.6-2.8,0.6-3c0.1-0.2,0.1-0.5,0.2-0.5c0,0,0.9,0.5,1.9,1c3.2,1.6,5.4,2.3,8.2,2.6c1.1,0.2,3.2,0.1,4.5-0.2
			c2.4-0.4,5.5-1.4,8.4-2.8c0.5-0.2,0.8-0.3,0.9-0.3c0.1,0.1,2.3,11.6,3.8,20.2c0.3,1.6,1,5.1,1.5,7.7c0.5,2.6,0.9,4.8,0.9,4.9
			c0,0.1-0.2,0-1-0.2c-3.1-1.2-7.4-2.1-12.4-2.5c-1.7-0.2-8-0.2-9.7,0c-4.9,0.5-9.1,1.4-12.1,2.7C261,206.5,260.5,206.7,260.5,206.6
			z M269.8,200c0.9-0.4,1.6-0.9,2.7-1.9c1.1-1.1,1.6-1.8,2.8-4c1.5-2.4,1.8-2.9,2.3-2.9c0.1,0,0.2,0.1,0.1,0.3
			c-0.2,1.5-1.7,5.8-2.3,6.6c-0.2,0.2-0.2,0.8-0.2,0.8c0,0,0.2-0.1,0.4-0.2c0.6-0.3,1.5-1.1,2.3-2.2c1.4-1.6,2.1-2.8,2.3-4
			c0.1-0.4,0.2-0.8,0.2-0.9c0.1-0.2,0.2-0.2,0.5-0.2c0.3,0,0.3,0,0.5,0.5c0.2,0.7,0.4,1.9,0.5,3.5c0.2,1.9,0.3,3.2,0.5,3.3
			c0.2,0.2,0.6,0.2,0.6-0.1c0.2-0.3,0.5-1.9,0.5-2.8c0-0.5,0-2-0.1-3.6c-0.2-2.8-0.2-2.8,0.2-2.8c0.2,0,1.1,1.7,1.5,3.2
			c0.2,0.6,0.7,2.4,1.1,4l0.6,2.8l0.4,0.1c0.2,0,0.4,0,0.5,0c0.2-0.2,0.1-2.6-0.2-4.3c-0.2-1.6-0.3-4-0.1-4.5
			c0.1-0.2,0.2-0.2,0.4-0.3c0.3,0,0.3,0,0.6,0.3c0.7,1.1,1.1,2.2,1.7,4.6c0.6,2.2,0.9,3.2,1.3,4.1c0.3,0.6,0.4,0.6,0.7,0.8
			c0.4,0.2,0.5,0.1,0.6-0.6c0.2-0.6,0.2-3-0.1-3.9c-0.7-3.6-1.8-6.2-2.8-7.2c-0.6-0.6-0.8-0.9-0.7-1.2c0-0.1,0.3-0.4,0.7-0.7
			c0.8-0.6,1.1-1,1-1.4c0-0.2-0.1-0.3-0.2-0.4c-0.2-0.2-0.9-0.1-2,0.2c-1.3,0.2-1.6,0.2-1.7,0.1c-0.1-0.3,0.2-0.6,0.9-1
			c0.8-0.4,2.1-1.6,2.1-2.1s-0.1-0.5-0.9-0.5c-0.4,0-1.3,0.2-1.9,0.3c-0.6,0.2-1.2,0.2-1.3,0.2c0,0-0.1-0.2-0.1-0.5l-0.1-0.5
			l0.7-0.2c0.6-0.2,0.7-0.2,1.2-0.6c0.2-0.2,0.5-0.6,0.5-0.6s-0.2-0.2-0.3-0.3c-0.2-0.2-0.6-0.2-2.8-0.2c-2.7-0.1-6-0.2-6.6-0.3
			c-0.4,0-0.4,0-0.4,0.2c0,0.1,0.1,0.4,0.2,0.6c0.2,0.3,0.3,0.5,1.9,1.1c1.1,0.5,1.5,0.8,1.6,1.5c0.1,0.2,0.2,0.5,0.1,0.5
			c0,0-0.6,0.1-1.5,0.1c-1.5,0.1-1.9,0.2-2.3,0.6c-0.1,0.2-0.2,0.4-0.2,0.6c-0.1,0.3,0,0.3,0.3,0.5c0.2,0.1,1.1,0.3,2.2,0.5
			c2.3,0.3,2.4,0.4,2.6,0.7c0.1,0.2,0.2,0.6,0.2,0.9c0,0.3,0.1,0.8,0.1,1l0.1,0.3l-1.1,0.1c-0.6,0.1-1.3,0.2-1.5,0.2l-0.4,0.1
			l-0.2-0.5c-0.5-1-1-1.1-1.9-0.7c-0.4,0.2-0.4,0.2-0.5,0.6c-0.1,0.3-0.2,0.5-0.3,0.7c-0.2,0.2-0.3,0.2-0.6,0.2h-0.4l-0.2-0.7
			c-0.2-1.1-0.4-1.3-1.5-2.2c-0.7-0.6-0.9-0.9-0.7-1.2c0.1-0.1,0.6-0.4,1.1-0.6c1.5-0.7,1.8-1.2,1.4-2.3c-0.3-0.7-1-1.3-1.9-1.8
			c-2.4-1.2-5.6-1.8-7-1.4c-0.6,0.2-0.7,0.3-0.7,0.7c0,0.6,0.6,1,2.5,1.3c1.1,0.2,2.6,0.6,3.2,1c0.5,0.2,0.6,0.6,0.6,0.8
			c-0.1,0.2-0.2,0.4-1.3,0.8c-1.2,0.6-1.6,1-1.6,1.9c0,0.7,0.2,0.9,1.5,1.7c0.6,0.4,1.2,0.7,1.2,0.8c0.1,0.2-0.2,0.4-0.9,0.5
			c-0.8,0.1-1.5,0.4-1.9,0.8c-0.2,0.2-0.3,0.3-0.6,0.3c-0.3,0-0.3,0-0.4-0.3c-0.2-0.5-0.1-0.6,0.3-1c0.3-0.2,0.7-0.9,0.7-1.2
			c0-0.1-0.2-0.3-0.4-0.6c-0.9-0.9-2.9-1.1-4.4-0.4c-1.2,0.6-1.3,1.6-0.2,2.5c0.2,0.2,0.5,0.4,0.5,0.5c0,0.2-0.5,0.6-1.1,0.9
			c-0.5,0.2-0.5,0.3-0.7,0.8l-0.2,0.6l0.2,0.2c0.5,0.4,2,0.7,4.2,1.1c0.6,0.1,1.1,0.2,1.1,0.2c0.1,0.1-0.2,1.1-0.6,1.8
			c-0.6,1.4-1.7,2.4-2.6,2.9c-0.6,0.3-0.7,0.5,0,0.4c2.1-0.2,3.6-1,4.8-2.4c1.2-1.5,1.5-1.8,1.9-2.2c0.2-0.2,0.5-0.4,0.6-0.4
			s0.2,0.1,0.2,0.2c0.2,0.2,0.1,0.3-0.2,1.2c-0.4,1.1-0.9,2.1-1.5,2.8c-0.8,1-1.8,1.7-3.8,2.8c-0.8,0.4-1.4,0.8-1.4,0.9
			c0,0.1,0.2,0.2,0.5,0.3C267.8,200.5,269,200.4,269.8,200z"/>
		<path class="st15" d="M276.3,174.9c-3.2-0.4-5.7-1.5-7.3-3.2l-0.5-0.5l0.5-0.3c0.8-0.5,1.7-0.9,2.3-1.1c0.5-0.2,0.6-0.2,0.6,0
			c0.5,1,1.6,1.9,2.8,2.4c1.2,0.6,2.2,0.7,3.7,0.8c1.5,0,1.9-0.1,3.2-0.5c1.4-0.4,2.3-1.1,3.3-2l0.6-0.6l0.2,0.2
			c0.2,0.2,0.6,0.4,1.7,0.8c0.4,0.2,0.8,0.3,1,0.5c0.4,0.2,0.3,0.3-0.6,1.1c-1.6,1.3-4.1,2.2-7,2.5C279.8,175,277.5,175,276.3,174.9
			z"/>
		<path class="st15" d="M277.8,171.6l-0.3-0.1v-2.1c0-1.1,0.1-2.8,0.1-3.7c0.1-2,0.3-5,0.4-5.5c0.1-0.3,0.1-0.3,0.5-0.3
			c0.2,0,0.5,0.1,0.5,0.1c0,0.1,0.1,1.4,0.2,3c0.1,2.6,0.2,4.1,0.3,7.5l0.1,1.1l-0.5,0.1C278.4,171.6,278.2,171.6,277.8,171.6z"/>
		<path class="st15" d="M280.9,171c-0.2-0.2-0.5-4.5-0.6-7.7c0-1-0.1-2.2-0.1-2.8l-0.1-1.1l0.5-0.2c0.2-0.2,0.6-0.2,0.7-0.2
			c0.2,0,0.2,0,0.3,0.6c0,0.3,0.2,2.1,0.4,4c0.2,1.9,0.5,4.2,0.6,5.1c0.1,0.9,0.2,1.7,0.2,1.8C282.9,170.7,280.9,171.2,280.9,171z"
			/>
		<path class="st15" d="M275.5,170.8c-0.3-0.1-0.9-0.3-1.1-0.5l-0.2-0.2l0.1-1.7c0.1-2.4,0.6-7.1,1-9.1c0.1-0.3,0.2-0.3,1.1-0.1
			l0.6,0.2v1c0,1.9-0.3,9.7-0.5,10.2c-0.1,0.2-0.1,0.2-0.3,0.2C275.8,170.9,275.7,170.9,275.5,170.8z"/>
		<path class="st15" d="M276.7,158.2c-0.3-0.1-0.7-0.2-1-0.4c-0.4-0.3-0.4-0.4,0.2-0.9c0.7-0.6,1.9-1,3.2-0.7
			c0.7,0.2,1.5,0.6,1.9,0.9l0.2,0.2l-0.3,0.3c-0.6,0.5-1.3,0.6-2.5,0.7C277.5,158.4,277.2,158.3,276.7,158.2z"/>
	</g>
</g>
<g>
	<rect x="411" y="278" class="st11" width="249" height="347"/>
	<rect x="435" y="299" class="st16" width="203" height="303"/>
	<g>
		<rect x="480.7" y="326.3" class="st13" width="2" height="82.6"/>
		<circle class="st11" cx="481.7" cy="413.6" r="5.7"/>
		<rect x="523.4" y="326.3" class="st13" width="2" height="82.6"/>
		<circle class="st13" cx="524.4" cy="413.6" r="5.7"/>
		<rect x="598.4" y="326.3" class="st13" width="2" height="82.6"/>
		<circle class="st13" cx="599.4" cy="413.6" r="5.7"/>
		<circle class="st13" cx="568.1" cy="495.2" r="5.7"/>
		<circle class="st13" cx="452.3" cy="443" r="5.7"/>
		<polygon class="st13" points="569.1,490.4 567.1,490.4 567.1,391 524.4,391 524.4,389 569.1,389 		"/>
		<circle class="st11" cx="495" cy="531.2" r="5.7"/>
		<polygon class="st13" points="496,526.5 494,526.5 494,427 451.4,427 451.4,425 496,425 		"/>
		<circle class="st11" cx="626.9" cy="486.6" r="5.7"/>
		<polygon class="st13" points="627.9,481.9 625.9,481.9 625.9,382.4 598.4,382.4 598.4,380.4 627.9,380.4 		"/>
		<polygon class="st13" points="453.3,437.3 451.3,437.3 451.3,387.8 481.7,387.8 481.7,389.8 453.3,389.8 		"/>
		<circle class="st13" cx="524.9" cy="553.5" r="5.7"/>
		<polygon class="st13" points="525.9,547.8 523.9,547.8 523.9,500.4 495.5,500.4 495.5,498.4 525.9,498.4 		"/>
		<circle class="st13" cx="597.5" cy="511.3" r="5.7"/>
		<polygon class="st13" points="598.5,505.6 596.5,505.6 596.5,456.2 626.9,456.2 626.9,458.2 598.5,458.2 		"/>
	</g>
</g>
</svg>
