<?xml version="1.0" encoding="utf-8"?>
<!-- Generator: Adobe Illustrator 24.1.2, SVG Export Plug-In . SVG Version: 6.00 Build 0)  -->
<svg version="1.1" id="Layer_1" xmlns="http://www.w3.org/2000/svg" xmlns:xlink="http://www.w3.org/1999/xlink" x="0px" y="0px"
	 viewBox="0 0 818 658" style="enable-background:new 0 0 818 658;" xml:space="preserve">
<style type="text/css">
	.st0{fill:#3F3D56;}
	.st1{fill:#FFB8B8;}
	.st2{fill:#CFCCE0;}
	.st3{fill:#2F2E41;}
	.st4{fill:#575A89;}
	.st5{fill:#6C63FF;}
</style>
<rect id="Rectangle_32" x="-0.2" y="611.4" class="st0" width="818.5" height="1.9"/>
<path id="Path_223" class="st1" d="M513.4,285.4c0,0-36.7,28.8-18.4,35.4c18.4,6.6,30.2-23.6,30.2-23.6L513.4,285.4z"/>
<path id="Path_224" class="st2" d="M514.7,274.9l-7.9,13.1c0,0,13.1,0,15.7,19.7l10.5-13.1L514.7,274.9z"/>
<path id="Path_225" class="st1" d="M689.1,573.9l1.3,39.3l-15.7,9.2l-6.6-3.9l1.3-44.6H689.1z"/>
<path id="Path_226" class="st1" d="M596,563.4l2.6,42l-36.7,15.7l2.6-22.3c0,0,10.5-17,7.9-35.4L596,563.4z"/>
<path id="Path_227" class="st3" d="M652.4,247.4c0,0,21,55.1,24.9,89.2s10.5,124.6,10.5,124.6l13.1,116.7l-36.7,5.2l-15.7-118
	L613,348.3L605.2,465l-6.6,106.2l-34.1,1.3l-2.6-110.1l-14.4-140.3l7.9-66.9L652.4,247.4z"/>
<path id="Path_228" class="st3" d="M672,615.8c0,0,2.2-22,18.1-9.7l2.9-2.1l13.1,28.8c0,0,15.7,22.3-11.8,24.9s-24.9-24.9-24.9-24.9
	l-2.6-11.8l1.3-7.7L672,615.8z"/>
<path id="Path_229" class="st3" d="M596,589.6c6.6,3.8,10.6,10.8,10.5,18.4c0,13.1-1.3,14.4-1.3,14.4l-19.7,5.2c0,0-13.1-1.3-21,6.6
	s-47.2,13.1-47.2,2.6s32.8-27.5,32.8-27.5s9.7-16.4,16.7-14.8s9.6,4.3,9.6,5.6s-3.9,10.5-3.9,10.5S594.7,605.3,596,589.6z"/>
<circle id="Ellipse_43" class="st1" cx="593.4" cy="53.3" r="32.8"/>
<path id="Path_230" class="st1" d="M617.6,61.8L632,94.6L592.7,151c0,0-2.6-61.6-10.5-72.1S617.6,61.8,617.6,61.8z"/>
<path id="Path_231" class="st2" d="M599.3,130l6.6-17l5.2,1.3l6.6-5.2l9.2-28.8l13.1,9.2l17,171.8l-106.2,2.6l14.4-119.3l13.1-34.1
	l9.5-12.5l6.3,19.1L599.3,130z"/>
<path id="Path_232" class="st4" d="M629.4,203.5l4-118.6c0,0,7.8,0.6,10.4,4.5s45.9,11.8,45.9,11.8l-7.9,121.9c0,0,32.8,97,21,102.3
	s-32.8,3.9-32.8,3.9L629.4,203.5z"/>
<path id="Path_233" class="st4" d="M565.8,188.4l13.9-79.9l-31,20.9l7.9,57.7l-6.6,39.3c0,0-24.9,108.8-17,112.8s17,0,17,0
	L565.8,229V188.4z"/>
<path id="Path_234" class="st4" d="M558,126.7l-9.2,2.6l-3.9,52.4l-6.6,45.9l-31.5,56.4c0,0,15.7-10.5,22.3,19.7l34.7-60.3
	L558,126.7z"/>
<path id="Path_235" class="st1" d="M660.2,274.9c0,0-36.7,28.8-18.4,35.4s30.2-23.6,30.2-23.6L660.2,274.9z"/>
<path id="Path_236" class="st2" d="M682.5,289.3l-11.8,14.4L655,276.2l6.6-11.8L682.5,289.3z"/>
<path id="Path_237" class="st4" d="M679.9,105.8l10.5-5.2c0,0,7.9,10.5,9.2,19.7s7.9,21,7.9,27.5s18.4,68.2,18.4,68.2l-42,85.2
	c0,0-9.2-31.5-28.8-34.1l32.8-45.9l-18.4-32.8L679.9,105.8z"/>
<path id="Path_238" class="st3" d="M620.8,22.1l6.2-2.5c0,0-12.9-14.2-30.9-13l5.1-5.6c0,0-12.4-4.9-23.6,8
	c-5.9,6.8-12.7,14.9-17,23.9h-6.6l2.8,6.1l-9.7,6.1l9.9-1.1c-0.6,3.3-0.7,6.7-0.3,10.1c0.4,3.4,2.1,6.4,4.8,8.5l0,0
	c0,0,7.7-15.9,7.7-18.3v6.2c0,0,6.2-5.6,6.2-9.3l3.4,4.3l1.7-6.8l20.8,6.8l-3.4-5.6l12.9,1.9l-5.1-6.8c0,0,14.6,8,15.2,14.8
	s4.8,13.3,4.8,13.3S637.1,31.4,620.8,22.1z"/>
<ellipse id="Ellipse_44" class="st1" cx="620.2" cy="48.1" rx="3.7" ry="4.6"/>
<path id="Path_239" class="st5" d="M151.5,270.4H38.4v-31.7h59.1L151.5,270.4z"/>
<path id="Path_240" class="st0" d="M38,266v92.7h367.6V266H38z M181.4,343.1H62v-13.1h119.4V343.1z M381.7,318.9H62v-13.1h319.7
	V318.9z M381.7,294.6H62v-13.1h319.7V294.6z"/>
<path id="Path_241" class="st5" d="M151.5,120.5H38.4V88.8h59.1L151.5,120.5z"/>
<path id="Path_242" class="st0" d="M38,118v92.7h367.6V118H38z M181.4,195.1H62v-13.1h119.4V195.1z M250.4,170.9H62v-13.1h188.4
	V170.9z M381.7,146.6H62v-13.1h319.7V146.6z"/>
<path id="Path_243" class="st5" d="M151.5,417.1H38.4v-31.7h59.1L151.5,417.1z"/>
<path id="Path_244" class="st0" d="M38,410.9v92.7h367.6v-92.7H38z M250.4,488H62V475h188.4L250.4,488z M250.4,463.8H62v-13.1h188.4
	L250.4,463.8z M381.7,439.5H62v-13.1h319.7V439.5z"/>
<path id="Path_245" class="st0" d="M509.8,190.1h-52.2v-52.2H493v1.2h-34.2v49.8h49.8V164h1.2L509.8,190.1z"/>
<path id="Path_246" class="st5" d="M483.4,176.5c-1.2-3.6-16.3-15.7-7.1-17.7l7.6,10.1l35-35l3.5,3.5L483.4,176.5z"/>
<path id="Path_247" class="st0" d="M509.8,338.2h-52.2v-52.2H493v1.2h-34.2v49.8h49.8V312h1.2L509.8,338.2z"/>
<path id="Path_248" class="st5" d="M483.4,324.5c-1.2-3.6-16.3-15.7-7.1-17.7l7.6,10.1l35-35l3.5,3.5L483.4,324.5z"/>
<path id="Path_249" class="st0" d="M509.8,485.6h-52.2v-52.2H493v1.2h-34.2v49.8h49.8v-24.9h1.2L509.8,485.6z"/>
<path id="Path_250" class="st5" d="M483.4,471.9c-1.2-3.6-16.3-15.7-7.1-17.7l7.6,10.1l35-35l3.5,3.5L483.4,471.9z"/>
</svg>
