<?xml version="1.0" encoding="utf-8"?>
<!-- Generator: Adobe Illustrator 24.1.2, SVG Export Plug-In . SVG Version: 6.00 Build 0)  -->
<svg version="1.1" id="Layer_1" xmlns="http://www.w3.org/2000/svg" xmlns:xlink="http://www.w3.org/1999/xlink" x="0px" y="0px"
	 viewBox="0 0 945 653" style="enable-background:new 0 0 945 653;" xml:space="preserve">
<style type="text/css">
	.st0{fill:#F2F2F2;}
	.st1{fill:#3F3D56;}
	.st2{opacity:0.1;enable-background:new    ;}
	.st3{fill:#6C63FF;}
	.st4{fill:#2F2E41;}
	.st5{opacity:0.2;fill:#6C63FF;enable-background:new    ;}
	.st6{opacity:0.5;fill:#6C63FF;enable-background:new    ;}
	.st7{fill:#9F616A;}
	.st8{fill:#555AA8;}
	.st9{fill:none;stroke:#3F3D56;stroke-width:2;stroke-miterlimit:10;}
	.st10{fill:#CA4133;}
	.st11{fill:#DC857C;}
	.st12{fill:#E6A7A1;}
	.st13{fill:#FDFAF9;}
</style>
<g id="Group_21" transform="translate(0 0.001)">
	<path id="Path_293" class="st0" d="M721.9,119.2l-122.6,83.8h179.9L721.9,119.2z"/>
	<path id="Path_294" class="st0" d="M788.7,211.9H588.1l-61.2,41.8h290.4L788.7,211.9z"/>
	<path id="Path_295" class="st0" d="M519.6,262L325.7,394.5l138.1,202l401.7-274.6l-41-60H519.6z"/>
	<ellipse id="Ellipse_54" class="st0" cx="539.6" cy="632.6" rx="405" ry="20"/>
	<ellipse id="Ellipse_55" class="st0" cx="116.1" cy="595.6" rx="116.5" ry="15"/>
	<ellipse id="Ellipse_56" class="st1" cx="319.8" cy="345.6" rx="13.8" ry="8"/>
	<path id="Path_296" class="st1" d="M682.2,404h-310l7.6-27.4l6.6-23.7l11.2-40.3h259.9l10.9,40.3l7.4,27.6L682.2,404z"/>
	<path id="Path_297" class="st2" d="M675.8,380.4h-296v-3.8l6.6-23.7h282L675.8,380.4z"/>
	<rect id="Rectangle_38" x="299.6" y="343" class="st3" width="40.3" height="31.2"/>
	<rect id="Rectangle_39" x="270.6" y="358.3" class="st1" width="514" height="274.4"/>
	<rect id="Rectangle_40" x="270.6" y="461.4" class="st3" width="514" height="68.2"/>
	<circle id="Ellipse_57" class="st4" cx="527.6" cy="495.5" r="127.4"/>
	<circle id="Ellipse_58" class="st1" cx="527.6" cy="495.5" r="118.3"/>
	<circle id="Ellipse_59" class="st4" cx="527.6" cy="495.5" r="90"/>
	<circle id="Ellipse_60" class="st5" cx="705.4" cy="377.2" r="8.7"/>
	<circle id="Ellipse_61" class="st6" cx="731.6" cy="377.2" r="8.7"/>
	<circle id="Ellipse_62" class="st3" cx="757.7" cy="377.2" r="8.7"/>
	<rect id="Rectangle_41" x="496.7" y="319.1" class="st4" width="61" height="27.6"/>
	<path id="Path_298" class="st7" d="M52.4,236.9l5.3-5.3c0,0,13.6-23.7,0-21.9s-13.6,13.6-13.6,13.6v13.6L52.4,236.9z"/>
	<path id="Path_299" class="st7" d="M264.1,294.4l5.3-1.8c0,0,14.2-21.4,16-11.9s-7.1,22.5-7.1,22.5h-14.2V294.4z"/>
	
		<rect id="Rectangle_42" x="81.8" y="22.5" transform="matrix(0.243 -0.97 0.97 0.243 12.4043 299.8567)" class="st1" width="233.1" height="239"/>
	
		<rect id="Rectangle_43" x="132.3" y="9.7" transform="matrix(0.243 -0.97 0.97 0.243 45.581 283.1949)" class="st5" width="143.9" height="205.3"/>
	<ellipse id="Ellipse_63" class="st4" cx="136.8" cy="214.4" rx="23.9" ry="19.9"/>
	<path id="Path_300" class="st4" d="M99.8,375.1c0,0-8.9,24.3-10.7,86s-3.6,100.2,4.2,105.6s19,4.2,19.6,3s3.6-78.3,3.6-78.3
		l15.4-57.5l17.2,39.1v68.2c0,0,13,11.9,18.4,0.6s8.9-68.8,8.9-68.8s6.5-97.9-4.7-109.7S99.8,375.1,99.8,375.1z"/>
	<path id="Path_301" class="st4" d="M101.6,566.7c0,0-6.5-5.9-11.9,1.8s-23.1,24.3-19,27.3s25.5,4.2,27.9,1.2c0,0,17.2-7.7,17.2-9.5
		s-2.4-21.4-4.7-20.8S102.2,572,101.6,566.7z"/>
	<path id="Path_302" class="st4" d="M157.4,537.6h11.5c0,0-3.2,8.3-0.2,8.3s30.3,22.5,19.6,24.9s-40.9-8.3-42.1-11.9
		s4.2-19.6,4.2-19.6l7.1,3.6L157.4,537.6z"/>
	<path id="Path_303" class="st7" d="M124.1,229.8c0,0-1.2,20.2-7.1,21.9s19,20.2,19,20.2l17.2-22.5c0,0-6.5-11.3-4.2-19.6
		S124.1,229.8,124.1,229.8z"/>
	<path id="Path_304" class="st2" d="M124.1,229.8c0,0-1.2,20.2-7.1,21.9s19,20.2,19,20.2l17.2-22.5c0,0-6.5-11.3-4.2-19.6
		S124.1,229.8,124.1,229.8z"/>
	<path id="Path_305" class="st8" d="M134.8,252.9c0,0-20.8-7.7-23.7-5.9s-30.8,14.2-31.4,16.6s3.6,36.8,3.6,36.8s7.1,3,7.7,15.4
		s16.6,32,11.3,45.1s-10.7,17.8-0.6,19.6s55.8-1.2,58.1-5.3s16-10.1,20.2-8.9s-2.4-61.7-2.4-61.7l3.6-8.9L193,263
		c0,0-17.8-20.2-35-18.4C158,244.6,139,247,134.8,252.9z"/>
	<path id="Path_306" class="st8" d="M88.6,265.4l-8.9-1.8c0,0-8.9,5.9-11.9,5.9s-3,2.4-3,2.4s-11.3-17.2-8.9-36.8
		c0,0-13.6-6.5-14.2-1.8s-5.3,58.7,4.7,62.3s44.5,4.2,44.5,4.2L88.6,265.4z"/>
	<path id="Path_307" class="st8" d="M184.7,261.8h8.3l21.9,21.9c0,0,5.3-1.2,7.1,2.4s13.6,3,13.6,3l31.4,3c0,0,4.2,13.6,1.2,16
		s-55.2,3-55.2,3s-4.7-2.4-7.7,0s-24.3-12.5-26.7-16.6S184.7,261.8,184.7,261.8z"/>
	<circle id="Ellipse_64" class="st7" cx="137.8" cy="217.3" r="21.9"/>
	<path id="Path_308" class="st4" d="M124.2,204.6c0,0-3.8-9.8,1.7-13l1.5,4.3c0,0,13.7-8.3,17.3-6.4l-3.4,4.5c0,0,16,0,17.1,6.2
		l-5.6,0.2c0,0,6,3.9,6.2,10.3l-12,0.8l5.8,3.4c0,0-21.8,3-27-5.6L124.2,204.6z"/>
	<path id="Path_309" class="st4" d="M116.1,208.7c0,0,6.4,6.3,14.6,3.2c8.2-3.1,0-14.4,0-14.4l-5.5-2.7L116.1,208.7z"/>
	<circle id="Ellipse_65" class="st9" cx="557.6" cy="286.6" r="11"/>
	<circle id="Ellipse_66" class="st9" cx="523.6" cy="244.6" r="11"/>
	<circle id="Ellipse_67" class="st9" cx="579.6" cy="212.6" r="11"/>
</g>
<g>
	<g id="layer101">
		<path class="st10" d="M144.6,97l15.4-59.6l60,15.5l60,15.5l-15.4,59.6l-15.4,59.6l-60-15.5l-60-15.5L144.6,97z"/>
	</g>
	<g id="layer102">
		<path class="st11" d="M142.6,153c-2.3-0.8-4.3-1.7-4.5-2.1c-0.4-0.6,0.3-3.5,2.4-12c2.9-11.2,5.2-18.1,5.6-16.9
			c0.1,0.4,0.9-1,1.7-3c0.9-2,2.2-4.5,2.9-5.5c0.8-1,1.8-2.5,2.2-3.5c0.5-1,1.6-2.6,2.6-3.6c2.5-2.6,3.6-6.9,2.7-10.7
			c-0.4-1.5-0.6-3.1-0.4-3.5c0.1-0.5,0.1-2.4-0.2-4.2c-0.2-1.8-0.3-4.5-0.2-6c0.1-1.4,0.2-4,0.1-5.7c-0.1-2.4,0.5-5.5,2.8-15.1
			c3.4-14.1,3.4-14.1,7.7-13.7c5.9,0.6,21.9,5.5,25.9,8c1.1,0.7,3.5,1.8,5.3,2.6c1.8,0.7,3.9,1.9,4.5,2.4s2.3,1.6,3.6,2.2
			c1.3,0.6,3.1,1.9,4,2.8c2.2,2.2,5.7,3.1,9.4,2.4c3.6-0.7,11.8-1.1,14.7-0.8c1.2,0.2,2.6,0.1,2.9-0.2c1-0.7,14.5,1.8,23.4,4.3
			c7.8,2.3,8.8,2.7,9.1,4.2c0.4,2.8-6.8,27.9-8.1,28.3c-0.3,0.1-1,1.4-1.7,2.9c-1.5,3.4-5,9.1-7.6,12.3c-3,3.6-3.7,6.3-3,10.6
			c0.3,2,0.5,4.4,0.5,5.4c0,0.9,0.1,2.7,0.3,3.9c0.3,1.9,0.3,3.7-0.3,14c-0.3,5.1-4.9,22.7-6.3,24.3c-1.5,1.7-2.7,1.5-16.7-2.4
			c-9.6-2.7-12.3-3.6-13.3-4.4c-0.6-0.6-2.8-1.7-4.8-2.5c-2-0.8-4.1-2-4.7-2.5c-0.7-0.6-2.3-1.7-3.8-2.4c-1.4-0.7-3.2-2-4-2.8
			c-1.9-2-6.3-3.1-8.9-2.3c-1,0.3-3,0.6-4.5,0.5c-1.5,0-3.4,0.2-4.2,0.4c-0.9,0.2-2.5,0.3-3.8,0.1c-3.8-0.4-7.2-0.4-7.6,0
			c-0.2,0.2-4.3-0.5-9.2-1.5C149.8,155.3,148.9,155,142.6,153z M166.9,142.6c5.9,1,7.3,0.9,8.2-1c0.3-0.7,0.9-1.2,1.4-1.2
			c0.5,0,0.2-0.6-1-2.2c-2.1-2.7-6.8-10.4-8.4-13.8c-0.7-1.6-1.4-2.4-2-2.4c-0.8,0.1-3.6,4.3-3.4,5.1c0,0.2-0.1,0.4-0.4,0.5
			c-0.7,0-2.9,5.2-3.8,8.7c-0.9,3.5-0.4,4.7,2.1,5.1C160.7,141.6,163.9,142.1,166.9,142.6z M233,159.2c1.4-1,2.9-10.1,2.4-15
			c-0.4-4.5-1-5.6-2.3-4.5c-3.5,2.9-10.8,7.3-15.6,9.4c-1.7,0.7-3,1.6-3,1.9c0,0.3,1,1.4,2.3,2.6c1.7,1.5,3.2,2.3,6.6,3.5
			C230.7,159.6,231.9,159.9,233,159.2z M201.7,138.5c2.1-0.7,3.3-1.3,7.7-3.2c6.3-2.9,9.1-4.5,13.9-8.2c1.1-0.8,2.6-2,3.4-2.6
			c3.7-2.8,4.6-3.7,4.1-4.3c-0.5-0.5-0.4-0.7,0.2-0.9c0.7-0.2,0.5-1.2-2-7.2c-3.3-7.9-6.1-12.6-12-19.8c-5.2-6.3-5.8-6.6-10.5-4.8
			c-10.4,4-19.8,9.6-27.1,16.1c-2.6,2.3-2.5,2.6,0.6,10.1c2.8,6.8,4.3,9.5,8,14.5c4.4,6,5,6.7,6.4,8.1c0.7,0.7,1.7,1.7,2.2,2.1
			C197.6,139.5,198.7,139.5,201.7,138.5z M244.8,102.8c1.5-2.2,2.1-3.4,2.4-4.7c0.1-0.7,0.6-1.5,1.1-1.8c0.5-0.3,1.4-2.1,2.3-4.9
			c1.3-3.8,1.4-4.5,0.9-5.6c-0.6-1.2-0.7-1.2-7.7-2.4c-7.7-1.3-9-1.2-11.1,0.1l-1.5,1l1.6,2.4c0.9,1.3,1.8,2.4,2,2.5
			c0.4,0.1,5,8,6.7,11.5C243,104,243.6,104.4,244.8,102.8z M177,85c1.4-1.3,11.3-7,14.3-8.3c2.1-0.9,2.5-1.2,1.8-1.6
			c-0.7-0.5-0.7-0.5,0.1-0.3c1.5,0.3,1.1-0.7-1.2-2.6c-1.9-1.6-3.3-2.3-8.6-4.1c-8.3-2.9-8.2-3-9.4,4.5c-1.2,6.8-0.8,12.7,0.9,13.1
			C175.6,85.8,176.4,85.5,177,85z"/>
		<path class="st11" d="M198.8,138.3c0.4-0.1,0.8,0.1,0.9,0.3c0.2,0.2-0.2,0.3-0.7,0.1C198.5,138.5,198.4,138.4,198.8,138.3z"/>
	</g>
	<g id="layer103">
		<path class="st12" d="M142.6,153c-2.3-0.8-4.3-1.7-4.5-2.1c-0.7-1.2,5.3-23.9,7.1-26.8c0.8-1.2,2-3.7,2.8-5.5
			c0.8-1.9,2.1-4.2,2.8-5.1c0.7-0.9,1.7-2.5,2.2-3.5c0.5-1,1.6-2.6,2.6-3.6c2.5-2.6,3.6-6.9,2.7-10.7c-0.4-1.5-0.6-3.1-0.4-3.5
			c0.1-0.5,0.1-2.4-0.2-4.2c-0.2-1.8-0.3-4.5-0.2-6c0.1-1.4,0.2-4,0.1-5.7c-0.1-2.4,0.5-5.5,2.8-15.1c3.4-14.1,3.4-14.1,7.7-13.7
			c5.9,0.6,21.9,5.5,25.9,8c1.1,0.7,3.5,1.8,5.3,2.6c1.8,0.7,3.9,1.9,4.5,2.4s2.3,1.6,3.6,2.2c1.3,0.6,3.1,1.9,4,2.8
			c2.2,2.2,5.7,3.1,9.4,2.4c2.8-0.5,11.1-1,15.4-0.9c1.4,0.1,4,0.1,5.8,0.1c2.5,0,6.1,0.8,14.9,3c6.4,1.6,12.1,3.2,12.8,3.6
			c0.8,0.5,1.2,1.2,1.2,2.1c0.1,0.8-1.2,6.1-2.7,12c-2.4,9.1-3.1,11.2-4.9,14.5c-1.1,2.2-2.2,4.3-2.3,4.8c-0.3,1.3-5.2,9-7.4,11.7
			c-3,3.6-3.7,6.3-3,10.6c0.3,2,0.5,4.4,0.5,5.4c0,0.9,0.1,2.7,0.3,3.9c0.3,1.9,0.3,3.7-0.3,14c-0.3,5.1-4.9,22.7-6.3,24.3
			c-1.5,1.7-2.7,1.5-16.4-2.3c-9.3-2.6-12.2-3.6-13.3-4.5c-0.8-0.6-3.1-1.8-5-2.6c-2-0.8-4.1-2-4.7-2.5c-0.7-0.6-2.3-1.7-3.8-2.4
			c-1.4-0.7-3.2-2-4-2.8c-1.9-2-6.3-3.1-8.9-2.3c-1,0.3-3,0.6-4.5,0.5c-1.5,0-3.4,0.2-4.2,0.4c-0.9,0.2-3.2,0.2-5.1,0
			s-4.5-0.3-5.8-0.1c-1.3,0.1-5.2-0.4-10.1-1.4C150.2,155.4,148.7,155,142.6,153z M167.1,142.6c5,0.8,5.7,0.9,7.6,0
			c1.1-0.5,2.1-1.2,2.3-1.6c0.1-0.4-0.5-1.6-1.4-2.8c-2.1-2.7-6.8-10.4-8.4-13.8c-0.7-1.6-1.4-2.4-1.9-2.4
			c-1.6,0.2-6.2,8.9-7.6,14.2c-0.9,3.5-0.4,4.7,2.1,5.1C160.7,141.6,164,142.1,167.1,142.6z M233,159.2c1.4-1,2.9-10.1,2.4-15
			c-0.4-4.5-1-5.6-2.3-4.5c-3.5,2.9-10.8,7.3-15.6,9.4c-1.7,0.7-3,1.6-3,1.9c0,0.3,1,1.4,2.3,2.6c1.7,1.5,3.2,2.3,6.6,3.5
			C230.7,159.6,231.9,159.9,233,159.2z M201.7,138.5c2.1-0.7,3.3-1.3,7.7-3.2c6.3-2.9,9.1-4.5,13.9-8.2c1.1-0.8,2.6-2,3.4-2.6
			c4.7-3.5,5.3-4.6,4-8.1c-3.7-10.1-7-16-13.7-24.1c-5.2-6.3-5.8-6.6-10.5-4.8c-10.4,4-19.8,9.6-27.1,16.1
			c-2.6,2.3-2.5,2.6,0.6,10.1c2.8,6.8,4.3,9.5,8,14.5c4.4,6,5,6.7,6.4,8.1c0.7,0.7,1.7,1.7,2.2,2.1
			C197.6,139.5,198.7,139.5,201.7,138.5z M177.1,84.9c2.3-1.8,11.1-6.9,14.2-8.2c1.4-0.6,2.7-1.4,2.8-1.9c0.1-0.5-0.7-1.5-2-2.7
			c-1.9-1.6-3.3-2.3-8.6-4.1c-8.3-2.9-8.2-3-9.4,4.5c-0.8,4.7-0.8,10.3,0,12.9C174.3,86.4,175.5,86.2,177.1,84.9z M244.8,102.8
			c0.9-1.3,1.7-2.7,2.4-3.9c0.2-0.4,0.7-1.3,1.2-1.9c0.5-0.6,1.5-3.1,2.3-5.5c1.3-3.8,1.4-4.5,0.9-5.6c-0.6-1.2-0.7-1.2-7.7-2.4
			c-7.7-1.3-9-1.2-11.1,0.1l-1.5,1l1.6,2.4c0.9,1.3,1.8,2.4,2,2.5c0.4,0.1,5,8,6.7,11.5C243,104,243.6,104.4,244.8,102.8z"/>
	</g>
	<g id="layer104">
		<path class="st13" d="M142.6,153c-2.3-0.7-4.3-1.7-4.5-2.1c-0.6-1.1,4.7-22.1,5.7-22.2c0.4-0.1,0.8-0.9,1.2-2.4
			c0.9-3.4,4.3-10.9,5.8-12.8c0.8-1,1.7-2.5,2.2-3.5c0.5-1,1.6-2.6,2.6-3.6c2.5-2.6,3.6-6.9,2.7-10.7c-0.4-1.5-0.6-3.1-0.4-3.5
			c0.1-0.5,0.1-2.4-0.2-4.2c-0.2-1.8-0.3-4.5-0.2-6c0.1-1.4,0.2-4,0.1-5.7c-0.1-2.4,0.5-5.5,2.8-15.1c3.4-14.1,3.4-14.1,7.7-13.7
			c5.9,0.6,21.9,5.5,25.9,8c1.1,0.7,3.5,1.8,5.3,2.6c1.8,0.7,3.9,1.9,4.5,2.4s2.3,1.6,3.6,2.2c1.3,0.6,3.1,1.9,4,2.8
			c2.2,2.2,5.7,3.1,9.4,2.4c5-0.9,16.3-1.1,19.5-0.3c0.8,0.2,1.5,0.1,1.6-0.1c0.7-1.1,25.8,4.7,28.1,6.5c1.2,1,0.9,2.7-1.6,12.6
			c-1.8,6.8-2.6,9.4-3.1,9.8c-0.4,0.2-1,1.4-1.3,2.5c-1.5,5.7-6.3,14.7-10.6,20c-3,3.6-3.7,6.3-3,10.6c0.3,2,0.5,4.4,0.5,5.4
			c0,0.9,0.1,2.7,0.3,3.9c0.3,1.9,0.3,3.7-0.3,14c-0.3,5.1-4.9,22.7-6.3,24.3c-1.5,1.6-2.7,1.5-16-2.2c-9.6-2.7-11.9-3.5-14.6-5.1
			c-1.8-1.1-3.9-2.1-4.7-2.3c-0.8-0.3-2.2-1-3.1-1.7c-0.9-0.6-3-1.9-4.6-2.9s-3.5-2.3-4.3-3.1c-1.9-1.9-6.3-3.1-8.8-2.3
			c-1,0.3-3,0.6-4.5,0.5c-1.5,0-3.4,0.2-4.2,0.4c-1.6,0.3-6.4,0.1-11.1-0.6c-1.5-0.2-3-0.2-3.4,0.1c-0.5,0.3-2,0.2-4.4-0.4
			c-2-0.5-6-1.4-8.9-2.1C149,154.9,144.8,153.8,142.6,153z M167,142.6c3.6,0.6,6.2,0.8,7.5,0.5c1.3-0.3,2.1-0.2,2.1,0.1
			c0,0.3,0.6,0.1,1.2-0.5c1.1-1.1,1.1-1.1,0.6-2.2c-0.4-0.8-0.8-1.1-1.1-0.8c-0.8,0.8-7.3-8.9-10.3-15.3c-0.7-1.5-1.4-2.4-1.9-2.4
			c-1.6,0.1-6.2,8.7-7.6,14.2c-0.9,3.5-0.4,4.7,2.1,5.1C160.7,141.6,164,142,167,142.6z M233,159.2c1.4-1,2.9-10.1,2.4-15
			c-0.4-4.5-1-5.6-2.3-4.5c-3.5,2.9-10.8,7.3-15.6,9.4c-1.7,0.7-3,1.6-3,1.9c0,0.3,1,1.4,2.3,2.6c1.7,1.5,3.2,2.3,6.6,3.5
			C230.7,159.6,231.9,159.9,233,159.2z M201.7,138.5c2.1-0.7,3.3-1.3,7.7-3.2c6.3-2.9,9.1-4.5,13.9-8.2c1.1-0.8,2.6-2,3.4-2.6
			c3-2.2,4.5-3.6,4.7-4.6c0.3-1-1.1-4.8-4.2-11.9c-2.4-5.5-7.7-13.2-13.1-19c-2.7-2.9-3.5-3.1-7.6-1.5c-10.4,4-19.8,9.6-27.1,16.1
			c-2.6,2.3-2.5,2.6,0.6,10.1c2.8,6.8,4.3,9.5,8,14.5c4.4,6,5,6.7,6.4,8.1c0.7,0.7,1.7,1.7,2.2,2.1
			C197.6,139.5,198.7,139.5,201.7,138.5z M176,87.2c0.6-0.6,0.9-1,0.6-1.1c-0.9-0.2,0.8-1.6,6.5-4.9c6.8-4,10.4-5.6,10.7-4.8
			c0.1,0.4,0.6,0.3,1.3-0.2c1.1-0.7,1.1-0.8,0.5-1.9c-0.4-0.7-0.8-1-1-0.8c-0.2,0.2-1.2-0.3-2.5-1.4c-1.7-1.5-3.2-2.2-8.4-4
			c-8.4-2.9-8.2-3-9.5,4.5c-0.7,3.8-0.8,6.5-0.5,8.9c0.2,2.2,0.1,3.6-0.2,3.6c-0.7,0.1,0.2,2.7,1,2.9
			C174.7,88.1,175.4,87.7,176,87.2z M244.3,104.2c0.4-1.2,2.4-4.8,3.1-5.2c0.6-0.4,3.5-7.7,4.2-10.3c0.3-1,0.2-2.3-0.1-2.9
			c-0.6-1.2-0.7-1.2-7.6-2.3c-7.7-1.3-9-1.2-11.1,0.1l-1.5,1l1.6,2.4c0.9,1.3,1.8,2.4,2,2.5c0.4,0.1,4.9,7.8,6.6,11.4
			c0.7,1.3,1,2.5,0.7,2.5c-0.8,0.1,0.2,1.7,1.1,1.8C243.7,105.2,244.1,104.8,244.3,104.2z"/>
	</g>
</g>
</svg>
