<?xml version="1.0" encoding="utf-8"?>
<!-- Generator: Adobe Illustrator 24.1.2, SVG Export Plug-In . SVG Version: 6.00 Build 0)  -->
<svg version="1.1" id="Layer_1" xmlns="http://www.w3.org/2000/svg" xmlns:xlink="http://www.w3.org/1999/xlink" x="0px" y="0px"
	 viewBox="0 0 1366 814" style="enable-background:new 0 0 1366 814;" xml:space="preserve">
<style type="text/css">
	.st0{opacity:0.1;fill:#6C63FF;enable-background:new    ;}
	.st1{fill:url(#Rectangle_12_1_);}
	.st2{fill:#FFFFFF;}
	.st3{opacity:4.000000e-02;fill:#FFFFFF;enable-background:new    ;}
	.st4{fill:#5A5773;}
	.st5{opacity:0.2;fill:#6C63FF;enable-background:new    ;}
	.st6{opacity:0.1;fill:#5A5773;enable-background:new    ;}
	.st7{opacity:0.1;enable-background:new    ;}
	.st8{fill:#6C63FF;}
	.st9{fill:url(#Path_77_1_);}
	.st10{fill:#C37098;}
	.st11{fill:#3F3D56;}
	.st12{fill:none;}
	.st13{opacity:0.1;stroke:#6C63FF;stroke-miterlimit:10;enable-background:new    ;}
	.st14{opacity:0.1;}
	.st15{fill:#535461;}
	.st16{fill:#9D9CB5;}
	.st17{fill:none;stroke:#535461;stroke-width:2;stroke-miterlimit:10;}
	.st18{fill:url(#SVGID_1_);}
</style>
<g id="Group_6" transform="translate(-0.004 -0.003)">
	<path id="Path_73" class="st0" d="M1232,550.9c-26.6,54.8-80.5,91.5-136.4,115.6c-75.3,32.5-158.2,45.5-239.9,40
		c-14.3-1-28.6-2.5-42.8-4.6c-49.5-7.2-97.7-21.3-143.3-41.7c-13.2-5.9-26-12.4-38.7-19.4c-21.1-11.7-41.3-24.9-60.5-39.5
		c-4.8-3.7-9.6-7.5-14.3-11.3c-3.2-2.7-6.5-5.4-9.7-8.1c-6.9-5.6-14-10.9-21.9-14.9c-2.4-1.2-4.8-2.3-7.3-3.2
		c-25.1-9.5-54-5.9-80.1,1.5c-19.9,5.7-39.2,13.4-59.1,18.9c-8.8,2.5-17.8,4.5-26.9,5.7c-20.3,2.6-40.9,0.8-60.5-5.3l-1.7-0.5
		c-2.8-0.9-5.6-1.8-8.3-2.9l-1.7-0.6c-2.7-1-5.3-2.1-7.8-3.3l-1.7-0.8c-2.7-1.2-5.3-2.5-7.8-3.9c-0.9-0.5-1.8-1-2.7-1.5
		c-14.5-8.1-27.7-18.4-39.2-30.5c-0.3-0.3-0.6-0.7-1-1c-1.6-1.7-3.1-3.5-4.7-5.3c-0.6-0.7-1.1-1.3-1.7-2c-1.8-2.2-3.5-4.4-5.2-6.7
		c-0.2-0.3-0.5-0.7-0.7-1c-6.8-9.5-12.5-19.7-16.9-30.5c-0.1-0.3-0.3-0.7-0.4-1c-1.3-3.4-2.6-6.9-3.6-10.5c-0.4-1.5-0.9-3-1.3-4.5
		c-0.1-0.4-0.2-0.9-0.4-1.3c-5.5-21.7-6.1-44.3-6.1-66.8v-7.9c0.2-36.3,0.7-73.3,6.1-109.1c0-0.2,0.1-0.5,0.1-0.7
		c1.8-12.1,4.2-24,7.3-35.8c3.2-12.4,7.3-24.5,12.3-36.3c12.3-29,30.3-55.4,50.2-79.8C303.9,78.8,369.7,27.1,446.7,7.8
		c82.9-20.8,175.1-0.9,242.1,52.4c20.4,16.2,38.7,35.5,61.6,47.9c20,10.8,43.4,15.3,64.8,6.8c17.7-7.1,29.2-10.6,49.1-9.5
		c41.2,2.3,81.7,10.8,120.4,25.2c1.6,0.6,3.1,1.2,4.7,1.8c100.7,38.5,187.3,115.1,232.3,213.5c1.2,2.6,2.3,5.2,3.5,7.9
		C1251.9,416.4,1261.6,489.8,1232,550.9z"/>
	<ellipse id="Ellipse_14" class="st0" cx="224.9" cy="728.5" rx="88.3" ry="14.2"/>
	<ellipse id="Ellipse_15" class="st0" cx="1016.8" cy="804.4" rx="156.5" ry="15.2"/>
	
		<linearGradient id="Rectangle_12_1_" gradientUnits="userSpaceOnUse" x1="1.319" y1="787.2711" x2="1.319" y2="788.2711" gradientTransform="matrix(950.33 0 0 -538.33 -557.5939 424457.4062)">
		<stop  offset="0" style="stop-color:#808080;stop-opacity:0.251"/>
		<stop  offset="0.54" style="stop-color:#808080;stop-opacity:0.122"/>
		<stop  offset="1" style="stop-color:#808080;stop-opacity:0.102"/>
	</linearGradient>
	<path id="Rectangle_12" class="st1" d="M233.2,107.4h925.4c6.9,0,12.5,5.6,12.5,12.5v513.3c0,6.9-5.6,12.5-12.5,12.5H233.2
		c-6.9,0-12.5-5.6-12.5-12.5V119.9C220.7,113,226.3,107.4,233.2,107.4z"/>
	<path id="Rectangle_13" class="st2" d="M234.7,115h922.4c6.9,0,12.5,5.6,12.5,12.5v504c0,6.9-5.6,12.5-12.5,12.5H234.7
		c-6.9,0-12.5-5.6-12.5-12.5v-504C222.2,120.6,227.8,115,234.7,115z"/>
	<path id="Rectangle_14" class="st2" d="M234.7,115h922.4c6.9,0,12.5,5.6,12.5,12.5v504c0,6.9-5.6,12.5-12.5,12.5H234.7
		c-6.9,0-12.5-5.6-12.5-12.5v-504C222.2,120.6,227.8,115,234.7,115z"/>
	<path id="Rectangle_15" class="st3" d="M234.7,115h922.4c6.9,0,12.5,5.6,12.5,12.5v504c0,6.9-5.6,12.5-12.5,12.5H234.7
		c-6.9,0-12.5-5.6-12.5-12.5v-504C222.2,120.6,227.8,115,234.7,115z"/>
	<path id="Path_74" class="st4" d="M1164.8,108.9H227c-2.7,0-4.8,2.2-4.8,4.8v20.3h947.4v-20.3
		C1169.6,111.1,1167.5,108.9,1164.8,108.9L1164.8,108.9z"/>
	<g id="buttons">
		<circle id="Ellipse_16" class="st2" cx="241.1" cy="121.5" r="6.5"/>
		<circle id="Ellipse_17" class="st2" cx="258.6" cy="121.5" r="6.5"/>
		<circle id="Ellipse_18" class="st2" cx="276.1" cy="121.5" r="6.5"/>
	</g>
	<rect id="Rectangle_16" x="300.2" y="181.3" class="st5" width="254.2" height="21.6"/>
	<rect id="Rectangle_17" x="300.2" y="267.9" class="st6" width="791.4" height="332"/>
	<path id="Path_75" class="st7" d="M763.6,289.5H750v-26.3c0-29.7-23.7-54.4-53.4-54.8c-30-0.3-54.5,23.7-54.8,53.7
		c0,0.1,0,0.3,0,0.4v27h-13.5c-12.4,0-22.5,10.1-22.5,22.5v108.2c0,12.4,10.1,22.5,22.5,22.5h135.3c12.4,0,22.5-10.1,22.5-22.5
		V312.1C786.1,299.6,776,289.5,763.6,289.5z M703.8,359.9v38.8c0,4.3-3.2,7.8-7.5,8.1c-4.4,0.2-8.1-3.2-8.3-7.5c0-0.1,0-0.2,0-0.4
		v-39c-8.9-4.4-12.7-15.1-8.3-24.1c4.4-8.9,15.1-12.6,24.1-8.3s12.7,15.1,8.3,24.1C710.4,355.2,707.5,358.1,703.8,359.9L703.8,359.9
		z M734.3,289.5h-76.7v-27c0-21.2,17.2-38.3,38.3-38.3s38.3,17.2,38.3,38.3L734.3,289.5z"/>
	<path id="Path_76" class="st8" d="M763.6,287.5H750v-26.3c0-29.7-23.7-54.4-53.4-54.8c-30-0.3-54.5,23.7-54.8,53.7
		c0,0.1,0,0.3,0,0.4v27h-13.5c-12.4,0-22.5,10.1-22.5,22.5v108.2c0,12.4,10.1,22.5,22.5,22.5h135.3c12.4,0,22.5-10.1,22.5-22.5
		V310.1C786.1,297.6,776,287.5,763.6,287.5z M703.8,357.9v38.8c0,4.3-3.2,7.8-7.5,8.1c-4.4,0.2-8.1-3.2-8.3-7.5c0-0.1,0-0.2,0-0.4
		v-39c-8.9-4.4-12.7-15.1-8.3-24.1c4.4-8.9,15.1-12.6,24.1-8.3s12.7,15.1,8.3,24.1C710.4,353.2,707.5,356.1,703.8,357.9L703.8,357.9
		z M734.3,287.5h-76.7v-27c0-21.2,17.2-38.3,38.3-38.3s38.3,17.2,38.3,38.3L734.3,287.5z"/>
	<rect id="Rectangle_18" x="1011.5" y="235.9" class="st6" width="80.1" height="18.9"/>
	
		<linearGradient id="Path_77_1_" gradientUnits="userSpaceOnUse" x1="0.5665" y1="787.2583" x2="0.5665" y2="788.2583" gradientTransform="matrix(194.0118 0 0 -565.345 912.025 445886.7812)">
		<stop  offset="0" style="stop-color:#808080;stop-opacity:0.251"/>
		<stop  offset="0.54" style="stop-color:#808080;stop-opacity:0.122"/>
		<stop  offset="1" style="stop-color:#808080;stop-opacity:0.102"/>
	</linearGradient>
	<path id="Path_77" class="st9" d="M1118.9,809c-0.5-2.7-1.4-5.2-2.7-7.6l-12-17.9h0.1c0,0-1.9-9,0-13.4s-6.7-15.3-6.7-15.3
		s-1.1-2.7,1.7-6.1s-1.7-13.2-1.7-13.2s-2.1-20.5-2.3-23.7c-0.2-3.1-1.9-20.5-1.9-20.5l-4-36.9l-7.1-97.8l-0.1-1.8
		c0.9-0.4,1.3-0.7,1.3-0.7l-1.4-54.1l1.2-1.1c10.7-9.7,35.5-32.2,35.3-32.7s-3-37.6-3.3-46.9c-0.3-6.6-1.7-13.1-4.3-19.2
		c-0.6-1.2-2.4-9.3-3.2-12.8c-0.2-0.9-0.3-1.5-0.3-1.5s-7.3-13.8-6.6-20.1s1.9-11-13.6-13.2c0,0-13-1.9-20.7-7.2
		c-4.6-3.2-9.6-5.7-14.9-7.4c0,0-4.3-8-7.4-5.3c-1.3-2.9-2.2-5.8-2.8-8.9l-0.1-0.6c5.7-4,9.9-9.9,11.6-16.7c0.1-0.4,0.2-0.8,0.3-1.1
		c0.3,0.1,0.6,0.2,0.9,0.2c2.6,0,4.2-2.9,6.7-3.9c1-0.4,2.2-0.5,3-1.2c0.5-0.6,0.8-1.4,0.7-2.2c0-0.3,0-0.5,0-0.8c0-0.1,0-0.2,0-0.3
		v0.1c-0.7-3.6-3.5-6.9-3.2-10.6c0.3-3.5,3.4-6.5,3.1-9.9c0-0.3,0-0.5-0.1-0.8v0.1c-0.4-1.3-1.1-2.5-2-3.5c-1.1-1.5-2.5-2.6-4.1-3.5
		c-1.4-0.6-3-0.8-4.3-1.5c-3.8-2.1-3.8-7.5-6.1-11.2c-2-3.1-5.6-4.9-9.3-4.6c-2.8,0.3-5.4,1.8-8.2,2.3c-3.8,0.7-7.8-0.6-11.4-2
		s-7.3-3-11.2-3s-8.1,2-9.3,5.7c-0.6,2-0.3,4.1-0.8,6.2c-0.9,3.6-4,6.1-7.2,7.9c-2,1.1-4.4,2.4-5,4.5V273c0,0.2-0.1,0.3-0.1,0.5
		c0,0.2,0,0.5,0,0.7c0.2,1.5,0.6,2.9,1.3,4.2c1,2.6,0.9,5.5-0.1,8.1c-0.7,1.9-2,3.6-2.7,5.5c-0.3,0.9-0.6,1.8-0.7,2.7v-0.2
		c0,0.4,0,0.9,0,1.3c0,1.5,0.3,2.9,1,4.2c0.9,1.8,2.5,3.2,4.5,3.8c2,0.5,3.2-1.5,5.4-1c0.4,0.1,0.8,0.2,1.1,0.4
		c0.1,0.5,0.1,0.9,0.2,1.3c1.3,6.7,4.9,12.8,10.1,17.2c0,0.2,0.1,0.5,0.1,0.7l0,0c0.6,4,0.9,8,0.8,12.1c0,0-3.2-4.6-7.5,4.3
		c0,0-11.3,6.5-15.2,7.2s-17.7,5.5-17.7,5.5c-2.1,1.5-4.6,2.3-7.2,2.3c-4.3,0-7.9,9.4-7.4,14.6s-0.3,8.9-4.3,9.1s-1.8,8.3-1.8,8.5
		l-0.4,1.8c-0.8,3.6-2.5,11.3-3.1,12.5c-2.5,6.1-4,12.6-4.3,19.2c-0.3,9.3-3,46.2-3.3,46.9c-0.2,0.4,16.8,15.9,28.7,26.8l1.7,1.6
		l-5.5,51.3c0.3,4,2.4,7.7,5.6,10c0,0.6,0,1.2-0.1,1.8c-0.2,6-0.7,13.3-1.7,15.2c-1.7,3.4-1.3,21.4-1.3,21.4s-1.7,36.7-3.8,40.7
		s-2.5,12.4-1.9,14s-2.1,45.7-2.1,45.7l-2.1,19.7c0,0,0.6,18.9-1.3,19.3s-3,13.4-3,13.4s-6.7,9.2-3.8,12.6s-0.4,4.8-0.7,5.7
		s-6.4,4-2,15.7c0,0.1,0.1,0.2,0.1,0.3c-4.1,5.8-17.3,24.3-16.5,27.1c0.6,1.8,1.8,3.3,3.5,4.2c3.1,1.8,8.4,2.7,16.8,0
		c14-4.5,13-7.8,13-7.8c0.2-3.2,2.7-5.6,5.9-5.7c5.8-0.4,10.1-5.8,10.1-5.8l-0.7-2.5l-0.9-3.5c0.1-1,0.8-2.8,4-3.7
		c4.8-1.5,3.6-10.7,3.6-10.7s-0.4-9.6,1.7-10.9s1.3-17.2,1.3-17.2s2.3-11.5,5.7-19.3s7.4-53.9,7.4-53.9s2.7-22.6,5.3-29.1
		s4.8-24.7,4.8-24.7s15.6-30.2,15.8-36.9c0,0,2-6.3,4,0.6s7.6,23.5,7.6,23.5l5.5,20.3l6.5,30.4l4.2,25.6c0,0-0.6,9.6,1,13
		s4,11.1,2.7,12.6s2.5,8.4,3.6,9.8c1.1,1.5,0,32.5,0,32.5s4.8,26.4,11.8,31c0.5,0.3,1,0.6,1.5,0.8c-0.1,2.9-0.2,6.7-0.1,8.7
		c0,0.5,0.1,0.9,0.2,1.3c0.6,0.8,7.8,6.5,9.3,6.5s6.7,3.7,6.9,5.5s15.4,9.3,17.5,9.5s12.6,2.1,14-0.8
		C1118.9,810.8,1119,809.9,1118.9,809L1118.9,809z M1081.6,431.2l1.1,0.9c0,0,1.1,8.6,1.9,11.2s-0.2,7.6-0.2,7.6
		c0.1,1.9,0.4,3.7,1.1,5.5c0.9,1.9-1.9,6-1.9,6h-2.5l-0.8-32.4L1081.6,431.2z M1006.4,334.5v-0.2
		C1006.3,334.4,1006.3,334.5,1006.4,334.5L1006.4,334.5z M967.5,459.2c-0.4-0.8-0.5-1.8-0.2-2.7c0.2-0.5,0.4-1,0.5-1.5
		c0.3-1.3,0.5-2.6,0.6-4c0,0,0,0,0,0c-0.1-0.5-0.9-5.1-0.2-7.6s1.9-11.2,1.9-11.2l0.7-0.6l1.7-1.5c0-0.5,0-1,0.1-1.4
		c0.3,7.6,0.6,16,0.2,16.4c-0.8,0.8-3.9,9-3.2,9.3c0.2,0.1-0.1,3.4-0.7,7.8C968.5,461.3,967.9,460.3,967.5,459.2L967.5,459.2z"/>
	<path id="Path_78" class="st10" d="M1048.1,342.5V355l-25.5,12.8c0,0-25.3-15.3-19.1-21.4c4-3.9,3.2-14.5,2.2-21.8l0,0
		c-0.6-4.2-1.4-7.4-1.4-7.4s45.5-13,38.6-3.1c-2.3,3.3-2.5,7.6-1.7,11.8C1042.8,334.3,1048.1,342.5,1048.1,342.5z"/>
	<path id="Path_79" class="st11" d="M978.2,464.2l-3.3,40.5c0,0-4.9-4.5-11.3-10.3c-11.8-10.8-28.6-26.2-28.4-26.6
		c0.3-0.6,3-37.4,3.3-46.6c0.3-6.6,1.7-13,4.2-19.1c0.6-1.2,2.3-8.8,3-12.4c0.2-1.1,0.4-1.8,0.4-1.8l5.5-2.2c0,0,23,25.7,23,26.1
		s-1.6,20.2-1.6,20.2l-1.6,1.4l-0.7,0.6c0,0-1.1,8.6-1.9,11.2s0.1,7.1,0.2,7.5l0,0c-0.1,1.4-0.3,2.7-0.6,4c-0.1,0.5-0.3,1-0.5,1.5
		c-0.3,0.9-0.2,1.8,0.2,2.7c0.4,1.2,1,2.3,1.7,3.3L978.2,464.2z"/>
	<path id="Path_80" class="st11" d="M1117.6,467.8c0.2,0.5-24.3,22.9-34.9,32.5l-4.8,4.4l-3.3-40.5h8.4c0,0,2.8-4.1,1.9-6
		c-0.7-1.8-1-3.6-1.1-5.5c0,0,0.9-5,0.2-7.6s-1.9-11.2-1.9-11.2l-1.1-0.9l-1.3-1.1c0,0-1.6-19.7-1.6-20.2s23-26.1,23-26.1l5.5,2.2
		c0,0,0.1,0.6,0.3,1.5c0.7,3.4,2.5,11.5,3.1,12.7c2.5,6.1,3.9,12.5,4.2,19.1C1114.6,430.4,1117.3,467.2,1117.6,467.8z"/>
	<path id="Path_81" class="st11" d="M1117.7,811.7c-1.5,2.9-11.8,1-13.9,0.8s-17.2-7.7-17.4-9.5s-5.4-5.4-6.9-5.4s-8.6-5.6-9.2-6.5
		c-0.2-0.4-0.2-0.9-0.2-1.3c-0.2-3.4,0.2-12.3,0.2-12.3l30.2,1.7l14.7,22.1c1.2,2.4,2.1,4.9,2.7,7.6
		C1118.1,809.9,1118,810.9,1117.7,811.7L1117.7,811.7z"/>
	<path id="Path_82" class="st7" d="M1117.7,811.7c-1.5,2.9-11.8,1-13.9,0.8s-17.2-7.7-17.4-9.5s-5.4-5.4-6.9-5.4s-8.6-5.6-9.2-6.5
		c-0.2-0.4-0.2-0.9-0.2-1.3c-0.2-3.4,0.2-12.3,0.2-12.3l30.2,1.7l14.7,22.1c1.2,2.4,2.1,4.9,2.7,7.6
		C1118.1,809.9,1118,810.9,1117.7,811.7L1117.7,811.7z"/>
	<path id="Path_83" class="st7" d="M1117.7,811.7c-1.5,2.9-11.8,1-13.9,0.8s-17.2-7.7-17.4-9.5s-5.4-5.4-6.9-5.4s-8.6-5.6-9.2-6.5
		c-0.2-0.4-0.2-0.9-0.2-1.3l9.8,6.2c0,0,6.3,4,7.9,6.4s14.8,7.3,15.9,7.4c0.8,0.1,9.4-1.6,14.2-0.9
		C1118.1,809.9,1118,810.9,1117.7,811.7L1117.7,811.7z"/>
	<path id="Path_84" class="st11" d="M974.7,793.5c0,0-4.3,5.3-10,5.7c-3.1,0-5.7,2.5-5.8,5.6c0,0,1,3.2-12.8,7.7
		c-8.3,2.7-13.6,1.8-16.7,0c-1.6-0.9-2.9-2.4-3.5-4.2c-0.9-3.3,17.5-28.7,17.5-28.7l16.8-1l12,5.4l1.8,6.9L974.7,793.5z"/>
	<path id="Path_85" class="st7" d="M974.7,793.5c0,0-4.3,5.3-10,5.7c-3.1,0-5.7,2.5-5.8,5.6c0,0,1,3.2-12.8,7.7
		c-8.3,2.7-13.6,1.8-16.7,0c-1.6-0.9-2.9-2.4-3.5-4.2c-0.9-3.3,17.5-28.7,17.5-28.7l16.8-1l12,5.4l1.8,6.9L974.7,793.5z"/>
	<path id="Path_86" class="st12" d="M974.7,793.5c0,0-4.3,5.3-10,5.7c-3.1,0-5.7,2.5-5.8,5.6c0,0,1,3.2-12.8,7.7
		c-8.3,2.7-13.6,1.8-16.7,0c7.9-0.8,25.3-5.8,27-7.5c2.1-2.1,4.7-7.8,6.5-7.9c1.2-0.1,7.5-3.8,11.2-6.2L974.7,793.5z"/>
	<path id="Path_87" class="st7" d="M974.7,793.5c0,0-4.3,5.3-10,5.7c-3.1,0-5.7,2.5-5.8,5.6c0,0,1,3.2-12.8,7.7
		c-8.3,2.7-13.6,1.8-16.7,0c7.9-0.8,25.3-5.8,27-7.5c2.1-2.1,4.7-7.8,6.5-7.9c1.2-0.1,7.5-3.8,11.2-6.2L974.7,793.5z"/>
	<path id="Path_88" class="st11" d="M1103.5,770.2c-1.9,4.4,0,13.3,0,13.3s-28,1.5-34.8-3.1s-11.7-30.9-11.7-30.9s1-30.9,0-32.3
		s-4.8-8.3-3.6-9.8s-1-9.2-2.7-12.5s-1-12.9-1-12.9l-4.2-25.5l-6.5-30.2l-5.5-20.2c0,0-5.6-16.5-7.5-23.4s-3.9-0.6-3.9-0.6
		c-0.2,6.7-15.6,36.7-15.6,36.7s-2.3,18.2-4.8,24.6s-5.2,29-5.2,29s-4,45.9-7.3,53.6s-5.6,19.2-5.6,19.2s0.8,15.9-1.2,17.1
		s-1.8,10.8-1.8,10.8s1.2,9.2-3.5,10.6s-4,4.6-4,4.6s-26.7,4.4-31.1-7.3s1.7-14.8,2-15.6s3.7-2.3,0.7-5.6s3.8-12.5,3.8-12.5
		s1-12.9,2.9-13.3s1.3-19.2,1.3-19.2l2.1-19.6c0,0,2.7-43.8,2.1-45.5s-0.2-10,1.9-14s3.8-40.5,3.8-40.5s-0.4-17.9,1.2-21.3
		c1-1.9,1.4-9.2,1.7-15.1c0.2-4.5,0.2-8.3,0.2-8.3l23.4-8.8l30-9.6l25.2,12.1l36.9,7.1l0.5,6.4l7.1,97.3l4,36.7
		c0,0,1.7,17.3,1.9,20.4s2.3,23.6,2.3,23.6s4.4,9.8,1.7,13.1s-1.7,6-1.7,6S1105.4,765.8,1103.5,770.2z"/>
	<path id="Path_89" class="st7" d="M1042.9,314.1c-2.3,3.3-2.5,7.6-1.7,11.8c-10.8,7.6-25.4,7.1-35.6-1.3l0,0
		c-0.6-4.2-1.4-7.4-1.4-7.4S1049.8,304.3,1042.9,314.1z"/>
	<path id="Path_90" class="st10" d="M1053.6,301.4c-0.1,16.1-13.2,29.1-29.3,29c-16.1-0.1-29.1-13.2-29-29.3s13.2-29.1,29.3-29
		c7.7,0,15,3.1,20.5,8.5C1050.5,286.1,1053.6,293.6,1053.6,301.4z"/>
	<path id="Path_91" class="st7" d="M1059.7,350.1l-9.6,170.9l-52.2-11l-10.3-68.5l10.2-92l7.7,1l13.6,1.7l13.5,0.8l14.6-1.6
		L1059.7,350.1z"/>
	<path id="Path_92" class="st8" d="M1059.7,351.3l-9.6,170.9l-52.2-11l-10.3-68.5l10.2-92l7.7,1l13.6,1.7l13.5,0.8l14.6-1.6
		L1059.7,351.3z"/>
	<path id="Path_93" class="st11" d="M1016.8,355.9l18.8,0.6l-5.3,7.4c0,0,0.4,14.9,2.9,19.2s1.8,70.4,1.8,70.4l-5,9.5l-8.5-10.6
		l0.1-87.3L1016.8,355.9z"/>
	<path id="Path_94" class="st7" d="M1016.8,355.9l18.8,0.6l-5.3,7.4c0,0,0.4,14.9,2.9,19.2s1.8,70.4,1.8,70.4l-5,9.5l-8.5-10.6
		l0.1-87.3L1016.8,355.9z"/>
	<path id="Path_95" class="st7" d="M1046.2,336.5l-17.5,19.4l10,10.4l16.6-16.2L1046.2,336.5z"/>
	<path id="Path_96" class="st8" d="M1046.2,335.3l-17.5,19.4l10,10.4l16.6-16.2L1046.2,335.3z"/>
	<path id="Path_97" class="st7" d="M1021.3,355l-17.7-17.7l-1.7,9.3l8.1,20.3L1021.3,355z"/>
	<path id="Path_98" class="st8" d="M1021.9,353.7l-17.7-17.7l-1.7,9.3l8.1,20.3L1021.9,353.7z"/>
	<path id="Path_99" class="st7" d="M1081.6,557.8c-8.5,4.1-17.6,6.7-27,7.8c-17.2,2.2-28.5-19.7-28.5-19.7l-6.6,8.5
		c-2.1,9.1-33.9,11.4-46.8,7.9c-2.7-0.7-5.2-1.9-7.4-3.5c0.2-4.5,0.2-8.3,0.2-8.3l23.4-8.8l30-9.6l25.2,12.1l36.9,7.1L1081.6,557.8z
		"/>
	<path id="Path_100" class="st7" d="M1059.7,351.3l-9.6,170.9l-52.2-11l-10.3-68.5l10.2-92l7.7,1c-0.2,3.4-0.6,6.7-1.1,10
		c-1.2,5.9,6.5,47.4,6.5,47.4s14.7,46.5,21.3,39.8s16-42.1,16-42.1c6.4-13.1,0.1-50-0.4-50.7c-0.3-1.1-0.5-2.2-0.6-3.4L1059.7,351.3
		z"/>
	<path id="Path_101" class="st7" d="M1082.2,483.6l0.4,16.8l-4.8,4.4l-3.2-40.5h7.2L1082.2,483.6z"/>
	<path id="Path_102" class="st7" d="M969,452.7L969,452.7c-0.1,1.4-0.3,2.7-0.6,4c0-0.4,0-0.6-0.1-0.6
		C968,456,968.4,454.5,969,452.7z"/>
	<path id="Path_103" class="st7" d="M978.2,464.2l-3.3,40.5c0,0-4.9-4.5-11.3-10.3l0.8-7.2c0,0,2.7-17.6,3.7-26.3
		c0.4,1.2,1,2.3,1.7,3.3H978.2z"/>
	<path id="Path_104" class="st11" d="M1006.5,336.6c0,0-3.1-4.6-7.4,4.3c0,0-11.2,6.5-15,7.2s-17.5,5.5-17.5,5.5
		c-2.1,1.5-4.5,2.3-7.1,2.3c-4.3,0-7.8,9.4-7.3,14.5s-0.3,8.9-4.3,9.1s-1.8,8.4-1.8,8.4l26.4,30.2c0,0,1.7,27.9,0.8,28.7
		s-3.9,9-3.1,9.3s-4,31.1-4,31.1l-6.4,59.8c0,0,0,10,12.9,13.5s44.8,1.2,46.8-7.9l6.6-8.6c0,0,11.3,21.9,28.5,19.7
		s28.2-8.5,28.2-8.5l-1.9-71.6l-1.2-51.6l26.9-44.1c0,0-7.2-13.8-6.6-20s1.9-11-13.5-13.1c0,0-12.9-1.9-20.6-7.2
		c-4.5-3.1-9.5-5.6-14.7-7.4c0,0-4.3-8-7.3-5.3c0,0,3,11.3,2.8,13s0.5,9.3,0.9,10.1s6.7,37.6,0.4,50.7c0,0-9.3,35.4-16,42.1
		s-21.3-39.8-21.3-39.8s-7.7-41.5-6.5-47.4S1006.5,336.6,1006.5,336.6z"/>
	<circle id="Ellipse_19" class="st11" cx="1028.8" cy="468.8" r="4.6"/>
	<circle id="Ellipse_20" class="st11" cx="1028.8" cy="490.4" r="4.6"/>
	<circle id="Ellipse_21" class="st7" cx="1028.8" cy="468.8" r="4.6"/>
	<circle id="Ellipse_22" class="st7" cx="1028.8" cy="490.4" r="4.6"/>
	<path id="Path_105" class="st13" d="M1070.1,764c0,0,18.8,1.5,20.7,2.9S1070.1,764,1070.1,764z"/>
	<path id="Path_106" class="st13" d="M957.9,749.2c0,0,4,5,2.3,7.3S957.9,749.2,957.9,749.2z"/>
	<path id="Path_107" class="st13" d="M962.7,767.2c0,0,7.3-4.8,10.2-1.6S962.7,767.2,962.7,767.2z"/>
	<path id="Path_108" class="st7" d="M1053.6,301.4c0,2.5-0.3,5-0.9,7.4c-1.3-0.6-2-1.9-1.9-3.3c0.1-1.2,0.9-2.3,0.8-3.5
		c-0.2-1.8-2.4-2.6-3.6-4c-1.4-1.7-1.1-4.3-1-6.5s-0.4-5-2.6-5.8c-0.6-0.2-1.3-0.2-1.9-0.5c-1.7-0.7-2.2-2.8-3.3-4.2
		c-2.2-2.9-6.6-2.8-10-1.4c-1.5,0.7-3,1.3-4.5,1.9c-1.5,0.5-3.3,0.4-4.7-0.4c-0.7-0.4-1.2-1-1.9-1.4c-2.3-1.4-5.2,0-7.2,1.8
		s-3.5,4.1-6,5.2c-1.1,0.5-2.5,0.8-3,1.9c-0.3,0.6-0.4,1.2-0.3,1.9c0,3.9,0.5,7.8-0.3,11.6c-0.5,2.5-2.2,5.2-4.7,4.9
		c-0.3,0-0.6-0.1-0.9-0.2c-3-15.9,7.5-31.2,23.4-34.2s31.2,7.5,34.2,23.4C1053.4,297.8,1053.6,299.6,1053.6,301.4L1053.6,301.4z"/>
	<path id="Path_109" class="st11" d="M994.2,305.1c0.8,0.2,1.5,0.6,2.2,0.7c2.5,0.3,4.2-2.5,4.7-4.9c0.8-3.8,0.4-7.8,0.4-11.6
		c-0.1-0.6,0-1.3,0.3-1.9c0.6-1.1,1.9-1.4,3-1.9c2.4-1.1,4-3.4,6-5.2s4.9-3.1,7.2-1.8c0.7,0.4,1.2,1,1.9,1.4
		c1.5,0.8,3.2,0.9,4.7,0.4c1.6-0.5,3-1.3,4.5-1.9c3.3-1.4,7.8-1.4,10,1.4c1.1,1.4,1.6,3.5,3.3,4.2c0.6,0.3,1.3,0.3,1.9,0.5
		c2.1,0.8,2.7,3.5,2.6,5.8s-0.4,4.8,1,6.5c1.2,1.4,3.4,2.2,3.6,4c0.2,1.2-0.6,2.3-0.8,3.5c-0.1,1.8,1.3,3.4,3.1,3.5c0,0,0,0,0,0
		c2.6,0,4.2-2.9,6.6-3.8c1-0.4,2.2-0.5,3-1.2c0.6-0.8,0.8-1.8,0.6-2.7c-0.5-3.8-3.6-7.2-3.2-11c0.3-3.7,3.7-6.9,3-10.5
		c-0.4-1.3-1.1-2.6-2-3.6c-1.1-1.5-2.5-2.6-4.1-3.5c-1.4-0.6-3-0.7-4.3-1.5c-3.8-2.1-3.8-7.5-6-11.1c-1.9-3.1-5.5-4.9-9.1-4.5
		c-2.8,0.3-5.4,1.8-8.1,2.3c-3.8,0.7-7.7-0.6-11.3-2c-3.6-1.4-7.3-3-11.1-3s-8.1,2-9.2,5.7c-0.6,2-0.3,4.1-0.8,6.1
		c-0.8,3.6-4,6.1-7.2,7.9c-2.2,1.2-4.8,2.6-5.1,5.1c-0.2,1.6,0.7,3,1.2,4.5c0.9,2.6,0.9,5.4-0.1,8c-0.7,1.9-2,3.5-2.7,5.4
		c-1.1,2.6-1,5.5,0.3,8c0.9,1.8,2.6,3.2,4.6,3.8C990.9,306.6,992.1,304.7,994.2,305.1z"/>
	<g id="Group_4" class="st14">
		<path id="Path_110" d="M1001.2,298.7c-0.5,2.5-2.2,5.2-4.7,4.9c-0.8-0.1-1.5-0.5-2.2-0.7c-2.1-0.5-3.3,1.5-5.3,1
			c-2-0.6-3.6-1.9-4.6-3.8c-0.5-1-0.8-2.1-0.9-3.3c-0.2,1.8,0.1,3.6,0.9,5.1c1,1.8,2.6,3.2,4.6,3.8c2,0.5,3.2-1.5,5.3-1
			c0.7,0.2,1.5,0.5,2.2,0.6c2.5,0.3,4.2-2.5,4.7-4.9c0.4-2.2,0.6-4.4,0.5-6.6C1001.6,295.6,1001.5,297.1,1001.2,298.7L1001.2,298.7z
			"/>
		<path id="Path_111" d="M987.5,283.6c0.1-1.6-0.1-3.3-0.7-4.8c-0.5-1-0.8-2.1-1.2-3.2c0,0.2-0.1,0.3-0.1,0.5
			c-0.2,1.6,0.7,3,1.2,4.5C987.2,281.6,987.4,282.6,987.5,283.6L987.5,283.6z"/>
		<path id="Path_112" d="M1063.9,278.4c-0.5,2.8-2.8,5.5-3,8.5c-0.1,0.5-0.1,1,0,1.5C1061.4,284.9,1064.4,281.8,1063.9,278.4z"/>
		<path id="Path_113" d="M1064,299.5c-0.1,0.4-0.3,0.8-0.6,1.1c-0.7,0.8-2,0.9-3,1.2c-2.4,0.9-4,3.9-6.6,3.8c-1.4-0.1-2.6-1-3-2.3
			c-0.1,0.2-0.1,0.4-0.1,0.7c-0.1,1.8,1.3,3.4,3.1,3.5c0,0,0,0,0,0c2.6,0,4.2-2.9,6.6-3.8c1-0.4,2.2-0.5,3-1.2
			c0.6-0.8,0.8-1.8,0.6-2.7C1064.1,299.6,1064,299.5,1064,299.5z"/>
		<path id="Path_114" d="M1051.5,298.6c-0.2-1.8-2.4-2.6-3.6-4c-0.7-1-1.1-2.1-1.1-3.3c-0.1,1.9-0.1,3.8,1.1,5.2s2.9,2,3.5,3.4
			C1051.5,299.5,1051.5,299.1,1051.5,298.6z"/>
		<path id="Path_115" d="M1046.8,288.1c0.1-2.2-0.5-5-2.6-5.8c-0.6-0.2-1.3-0.3-1.9-0.5c-1.7-0.7-2.2-2.8-3.3-4.2
			c-2.2-2.9-6.6-2.8-10-1.4c-1.5,0.6-2.9,1.4-4.5,1.9c-1.5,0.5-3.3,0.4-4.7-0.4c-0.7-0.4-1.2-1-1.9-1.4c-2.3-1.4-5.2,0-7.2,1.8
			s-3.5,4.1-6,5.2c-1.1,0.5-2.5,0.8-3.1,1.9c-0.2,0.6-0.4,1.2-0.3,1.9c0,0.4,0,0.8,0,1.2c0-0.4,0.1-0.8,0.3-1.2
			c0.6-1.1,1.9-1.4,3.1-1.9c2.4-1.1,4-3.4,6-5.2s4.9-3.1,7.2-1.8c0.7,0.4,1.2,1,1.9,1.4c1.5,0.8,3.2,0.9,4.7,0.4
			c1.5-0.5,3-1.2,4.5-1.9c3.3-1.4,7.8-1.4,10,1.4c1.1,1.4,1.6,3.5,3.3,4.2c0.6,0.3,1.3,0.3,1.9,0.5c1.7,0.6,2.4,2.6,2.5,4.5
			L1046.8,288.1z"/>
	</g>
	<g id="Group_5" class="st14">
		<path id="Path_116" d="M997.6,298.6c0.1-3.4,2.5-6.3,5.8-7.2c4.5-1.1,9.1-0.9,13.5,0.6c9.5,3.1-1.2,14.4-1.2,14.4s-7.1,7-13.7,2.1
			c-2-1.5-3.3-3.6-3.9-6C997.7,301.3,997.6,300,997.6,298.6z"/>
		<path id="Path_117" d="M1049.8,298.6c-0.1-3.4-2.5-6.3-5.8-7.2c-4.5-1.1-9.1-0.9-13.5,0.6c-9.5,3.1,1.2,14.4,1.2,14.4
			s7.1,7,13.7,2.1c2-1.5,3.3-3.6,3.9-6C1049.6,301.3,1049.8,300,1049.8,298.6L1049.8,298.6z"/>
		<path id="Path_118" d="M1015.1,291.1v0.5h17.3v-0.6L1015.1,291.1z"/>
		<path id="Path_119" d="M1020.6,296.1h0.5v-1.6c0,0,1.8-1.4,4.7,0v1.4h1v-0.9h-0.5c0,0,0.2-1.9-3.1-1.6c0,0-2.6-0.2-2.6,1.4h-0.6
			L1020.6,296.1z"/>
	</g>
	<path id="Path_120" class="st8" d="M997.6,298c0.1-3.4,2.5-6.3,5.8-7.2c4.5-1.1,9.1-0.9,13.5,0.6c9.5,3.1-1.2,14.4-1.2,14.4
		s-7.1,7-13.7,2.1c-2-1.5-3.3-3.6-3.9-6C997.7,300.7,997.6,299.3,997.6,298L997.6,298z"/>
	<path id="Path_121" class="st8" d="M1049.8,298c-0.1-3.4-2.5-6.3-5.8-7.2c-4.5-1.1-9.1-0.9-13.5,0.6c-9.5,3.1,1.2,14.4,1.2,14.4
		s7.1,7,13.7,2.1c2-1.5,3.3-3.6,3.9-6C1049.6,300.7,1049.8,299.3,1049.8,298z"/>
	<path id="Path_122" class="st8" d="M1015.1,290.5v0.5h17.3v-0.6L1015.1,290.5z"/>
	<path id="Path_123" class="st8" d="M1020.6,295.5h0.5v-1.6c0,0,1.8-1.4,4.7,0v1.4h1v-0.9h-0.5c0,0,0.2-1.9-3.1-1.6
		c0,0-2.6-0.2-2.6,1.4h-0.6L1020.6,295.5z"/>
	<rect id="Rectangle_19" x="222" y="456.9" class="st15" width="5.7" height="127.9"/>
	<path id="Path_124" class="st11" d="M263.4,584.4l-0.4,5.8l-0.5,8.1l-0.2,3.4l-0.5,8.1l-0.2,3.4l-0.5,8.1l-5.7,92.5
		c-0.5,8.3-7.4,14.7-15.6,14.7H210c-8.3,0-15.1-6.4-15.6-14.7l-5.8-92.5l-0.5-8.1l-0.2-3.4l-0.5-8.2l-0.2-3.4l-0.5-8.1l-0.4-5.8
		c-0.3-4.5,3.1-8.3,7.6-8.6c0.2,0,0.3,0,0.5,0h60.9c4.5,0,8.1,3.6,8.1,8.1C263.4,584,263.4,584.2,263.4,584.4z"/>
	<path id="Path_125" class="st16" d="M263,590.1l-0.5,8.1h-75.4l-0.5-8.1H263z"/>
	<path id="Path_126" class="st16" d="M262.3,601.6l-0.5,8.1h-73.9l-0.5-8.1H262.3z"/>
	<path id="Path_127" class="st16" d="M261.6,613.2l-0.5,8.1h-72.5l-0.5-8.1H261.6z"/>
	<path id="Path_128" class="st8" d="M178,504.8c33.1,23.9,46.9,61.4,46.9,61.4s-39.9-1.4-73-25.3S105,479.5,105,479.5
		S144.9,480.9,178,504.8z"/>
	<path id="Path_129" class="st17" d="M105.1,479.5c0,0,41.4,23,54.7,42s65.2,44.7,65.2,44.7"/>
	<path id="Path_130" class="st8" d="M199.4,456.6c18,13,25.5,33.4,25.5,33.4s-21.7-0.7-39.7-13.8s-25.5-33.4-25.5-33.4
		S181.4,443.5,199.4,456.6z"/>
	<path id="Path_131" class="st17" d="M159.6,442.8c0,0,22.5,12.5,29.7,22.9s35.5,24.3,35.5,24.3"/>
	<path id="Path_132" class="st8" d="M251,488.9c-20.7,22.7-25.1,52.4-25.1,52.4s29.2-7.2,49.8-29.9c20.7-22.7,25.1-52.4,25.1-52.4
		S271.7,466.2,251,488.9z"/>
	<path id="Path_133" class="st17" d="M300.9,459c0,0-26.9,23.3-33.8,39.4s-41.1,43-41.1,43"/>
</g>
<linearGradient id="SVGID_1_" gradientUnits="userSpaceOnUse" x1="567.9753" y1="475" x2="823.0247" y2="475" gradientTransform="matrix(1 0 0 1 0 46)">
	<stop  offset="0" style="stop-color:#4DBA7D"/>
	<stop  offset="0.2972" style="stop-color:#3DBBA9"/>
	<stop  offset="0.6216" style="stop-color:#24BCDC"/>
	<stop  offset="1" style="stop-color:#24BCDC"/>
</linearGradient>
<polygon class="st18" points="823,474.5 823,521 750.4,521 750.4,567.5 568,567.5 568,521 640.6,521 640.6,474.5 "/>
</svg>
