<svg version="1.1" id="Layer_1" xmlns="http://www.w3.org/2000/svg" xmlns:xlink="http://www.w3.org/1999/xlink" x="0px" y="0px"
	 width="100%" viewBox="0 0 740 572" enable-background="new 0 0 740 572" xml:space="preserve">
<path fill="#FFFFFF" opacity="1.000000" stroke="none" 
	d="
M449.000000,573.000000 
	C299.333374,573.000000 150.166718,573.000000 1.000060,573.000000 
	C1.000040,382.333405 1.000040,191.666794 1.000020,1.000137 
	C247.666565,1.000091 494.333130,1.000091 740.999756,1.000046 
	C740.999878,191.666519 740.999878,382.333038 740.999939,572.999756 
	C643.833313,573.000000 546.666687,573.000000 449.000000,573.000000 
M57.183697,240.652115 
	C66.300323,250.229492 76.160988,258.854034 88.582077,265.289612 
	C92.602509,269.450073 96.622948,273.610565 100.511002,278.352325 
	C100.941895,278.970459 101.372780,279.588593 102.041153,280.843842 
	C105.357216,285.386902 108.304909,290.264374 112.064064,294.405182 
	C120.563972,303.767975 129.297394,312.936401 138.297272,321.817596 
	C141.240372,324.721893 141.251556,326.404358 138.827484,329.562683 
	C135.090668,334.431427 131.745697,339.659851 128.743469,345.020752 
	C123.136833,355.032227 118.096466,365.325073 116.472977,377.719452 
	C114.886108,382.070160 113.299240,386.420837 111.130096,391.111877 
	C109.588852,394.312378 108.047607,397.512878 106.376015,400.984039 
	C115.194366,404.946106 123.268875,408.573975 131.343399,412.201843 
	C131.888535,411.891785 132.433670,411.581696 132.978790,411.271637 
	C132.311676,408.064423 132.375259,404.425476 130.798065,401.755920 
	C128.682083,398.174377 125.297485,395.342316 122.440491,391.393005 
	C124.430893,388.123688 126.421303,384.854401 129.058609,381.345245 
	C129.887314,380.322815 130.802032,379.358063 131.531830,378.269379 
	C142.344543,362.139282 153.133575,345.993286 163.926315,329.849792 
	C168.490448,323.022919 168.252472,321.072479 163.824799,314.169464 
	C157.218933,303.870453 150.952759,293.353546 145.542664,282.872925 
	C152.948593,282.770447 160.385117,283.042786 167.750351,282.441711 
	C173.216324,281.995667 178.589752,280.415710 184.668839,279.296051 
	C185.453323,279.864807 186.237808,280.433563 186.707031,281.339813 
	C186.945709,282.022491 187.184387,282.705170 187.527008,284.041992 
	C187.650085,284.692749 187.773163,285.343536 187.588303,286.343658 
	C187.850449,287.031189 188.112610,287.718719 188.487610,289.056244 
	C188.621506,289.702118 188.755402,290.348022 188.587433,291.527252 
	C189.246780,293.466644 189.906113,295.406006 190.736053,298.073730 
	C196.768890,312.098480 202.801712,326.123230 208.932297,340.917725 
	C209.859711,343.952606 210.787140,346.987518 211.596558,350.867004 
	C212.472641,354.163879 213.348724,357.460785 214.274445,360.944427 
	C219.907333,359.566284 224.863876,358.353607 230.005966,357.897308 
	C233.053207,361.808655 235.803726,366.000977 239.197144,369.584564 
	C257.440613,388.850433 278.602051,404.017700 303.243164,414.078888 
	C321.118713,421.377594 339.533234,426.502625 359.939514,427.003876 
	C366.960449,427.008392 373.981354,427.012909 381.503876,427.534485 
	C396.374451,426.730988 410.999207,424.434967 425.213257,419.937134 
	C430.844299,418.155243 436.327545,415.906281 441.878082,413.869965 
	C441.679718,413.343597 441.481354,412.817230 441.282990,412.290863 
	C439.762573,412.730896 438.216461,413.097839 436.725769,413.622375 
	C422.364960,418.675476 407.880402,423.135529 392.539368,424.144257 
	C388.670563,424.398621 384.847473,425.348206 380.143524,425.983704 
	C378.137726,425.822113 376.131927,425.660553 374.126099,425.498993 
	C373.634460,425.197815 373.142792,424.896667 372.651154,424.595490 
	C380.247620,419.210938 379.846710,413.036743 376.013184,406.515533 
	C375.940216,406.391357 376.069824,406.137421 375.989716,406.029755 
	C374.742249,404.353027 373.601349,401.453308 372.184814,401.309570 
	C369.964661,401.084290 366.215179,402.096924 365.472809,403.686859 
	C363.064453,408.844971 361.728943,414.503967 359.247101,419.896790 
	C358.202515,418.188568 357.010620,416.550476 356.154236,414.752594 
	C355.275330,412.907379 354.724426,410.905945 354.023895,408.102936 
	C353.684540,404.733826 353.345215,401.364746 353.010529,397.089050 
	C354.342010,387.727997 355.673523,378.366943 357.294373,368.354462 
	C359.736725,363.137665 362.179077,357.920868 364.621429,352.704071 
	C364.423218,352.610382 364.225006,352.516663 364.026825,352.422974 
	C362.868896,353.423004 361.710999,354.423065 360.637238,355.350403 
	C359.751465,351.680603 359.596222,347.950348 357.979980,345.028107 
	C355.207581,340.015472 351.783997,335.290924 348.121094,330.870239 
	C345.968292,328.272034 342.776245,328.494781 340.014160,330.638245 
	C337.543396,332.555634 337.629181,334.579010 339.313446,337.140381 
	C339.929718,338.077606 339.240051,339.866760 339.163055,341.268188 
	C339.042633,343.460144 338.361115,345.814484 338.923615,347.817444 
	C341.428406,356.736938 347.410278,363.050018 354.987335,368.793823 
	C353.926331,373.892548 352.809692,378.980560 351.823151,384.093658 
	C351.125763,387.708252 350.604645,391.356873 349.702942,394.389648 
	C344.480957,385.124908 334.330109,383.503082 325.911896,379.256714 
	C324.881561,378.737000 322.979370,379.945770 321.481232,380.353516 
	C322.120331,381.641144 322.810699,382.906342 323.386047,384.221832 
	C324.163269,385.998962 325.986237,388.587463 325.379425,389.478149 
	C322.951355,393.041992 325.424652,395.306610 327.077972,397.419098 
	C333.628693,405.789185 342.298126,410.407990 353.087646,411.751434 
	C354.377136,415.927185 355.666656,420.102905 357.159668,424.937561 
	C351.984192,424.212585 347.614441,423.644073 343.258728,422.983124 
	C319.291992,419.346375 297.196625,410.644348 276.749390,397.809906 
	C261.189117,388.042908 247.985397,375.437256 235.603470,361.973602 
	C234.215576,360.464478 233.628952,358.218506 233.304962,355.964478 
	C235.761017,355.140656 238.217072,354.316803 240.673126,353.492950 
	C240.906906,352.960541 241.140686,352.428162 241.374466,351.895752 
	C238.640045,349.858032 236.176849,347.013489 233.104599,345.980652 
	C228.987457,344.596588 224.398941,344.614685 220.020325,343.129974 
	C219.743378,341.655701 219.466431,340.181427 219.854156,338.142944 
	C219.927887,336.763184 220.001633,335.383392 220.397079,333.555359 
	C220.178192,332.712372 219.959290,331.869354 219.698120,330.266266 
	C219.537872,329.265961 219.377609,328.265656 219.526978,326.624634 
	C219.257889,325.759308 218.988815,324.893951 218.681808,323.326660 
	C218.550507,322.637939 218.419205,321.949249 218.587158,320.620789 
	C218.329300,319.753174 218.071442,318.885590 217.776764,317.340363 
	C217.568741,316.229370 217.360718,315.118378 217.484451,313.570007 
	C217.247726,312.720703 217.011002,311.871429 216.715790,310.259186 
	C216.516663,309.260040 216.317535,308.260864 216.400970,306.621033 
	C216.184708,305.755554 215.968445,304.890076 215.714203,303.349335 
	C215.538544,302.235748 215.362900,301.122162 215.537720,299.567291 
	C215.268692,298.720947 214.999664,297.874573 214.686462,296.326477 
	C214.555634,295.637329 214.424805,294.948181 214.594925,293.617065 
	C214.330231,292.751373 214.065536,291.885681 213.751526,290.257751 
	C213.567596,289.258850 213.383667,288.259949 213.493805,286.707764 
	C213.292175,286.141876 213.090546,285.575989 212.849640,284.284943 
	C212.593536,282.858124 212.337433,281.431335 212.398132,279.578278 
	C212.139542,278.583099 211.880936,277.587952 211.507050,275.874084 
	C211.348434,274.916504 211.189835,273.958923 211.399261,272.410095 
	C212.696701,271.255035 213.826447,269.785736 215.316071,268.990875 
	C254.290909,248.193710 278.951538,216.483597 287.209808,172.946777 
	C289.302185,161.915802 288.478119,150.331635 289.124573,138.123749 
	C286.792969,106.129257 274.192688,78.650681 252.228729,55.490513 
	C240.214951,42.822411 226.348709,32.576202 209.444458,25.587620 
	C185.281418,14.730710 160.083633,11.668641 133.047226,15.309663 
	C131.969650,15.711284 130.892090,16.112904 129.297958,16.503958 
	C128.793121,16.438873 128.288269,16.373789 126.891930,16.168310 
	C126.193329,16.617794 125.494720,17.067278 124.086868,17.633417 
	C100.204102,23.233053 79.364784,34.566944 61.806637,51.605984 
	C37.577366,75.118904 23.967260,103.839645 20.985977,137.494080 
	C20.985977,137.494080 20.965893,137.463242 20.930981,138.420853 
	C21.130634,139.639847 21.330286,140.858856 21.074492,142.727646 
	C21.705177,153.306091 21.256109,164.085587 23.180971,174.423050 
	C27.851139,199.504196 38.925331,221.636246 57.183697,240.652115 
M489.227661,538.072266 
	C487.387573,544.519348 481.946594,546.857361 476.528564,549.248657 
	C475.320923,549.781738 473.943268,550.275879 473.101959,551.203491 
	C472.092865,552.316040 470.827545,554.016296 471.053314,555.198425 
	C471.279266,556.381287 473.071259,557.802185 474.416840,558.128296 
	C477.780701,558.943665 481.275391,559.523560 484.727509,559.578735 
	C487.761200,559.627258 490.808319,558.835876 493.926178,558.404846 
	C493.739044,561.763123 496.908173,561.617920 501.375000,561.394775 
	C501.375000,554.421875 501.375000,547.520203 501.753052,539.838135 
	C503.894226,533.049561 506.035400,526.260986 508.868561,519.285217 
	C511.449188,516.552124 514.029785,513.818970 516.478210,511.225800 
	C517.654785,513.754944 518.773499,516.159607 520.083130,519.208557 
	C522.605469,525.686096 525.127808,532.163635 527.560791,539.309387 
	C528.752014,543.402954 527.020142,546.148560 523.747559,548.519653 
	C521.213562,550.355591 518.819214,552.499023 516.794495,554.873840 
	C515.806152,556.033081 515.008179,558.433472 515.568604,559.541626 
	C516.171997,560.734802 518.482422,561.697510 520.019348,561.657349 
	C523.472351,561.567078 526.973022,561.055298 530.328552,560.213745 
	C532.855774,559.579956 535.187561,558.167236 537.429749,557.179138 
	C539.719910,557.700134 542.395386,558.308777 545.982483,559.124817 
	C544.461670,551.884827 543.352661,546.049255 541.927490,540.291931 
	C541.644043,539.146851 540.150208,538.301453 539.121277,536.555725 
	C537.389832,528.994751 535.658386,521.433777 533.967224,513.036865 
	C533.981567,511.361847 533.995972,509.686829 534.405762,507.463989 
	C534.620239,504.974091 534.834717,502.484161 535.152039,499.193756 
	C535.253662,497.588440 535.355225,495.983124 535.972168,493.837250 
	C536.034729,490.474762 536.097290,487.112305 536.459106,483.057770 
	C538.298157,479.947113 539.847656,476.325256 544.837402,478.861328 
	C545.558289,478.908356 546.279236,478.955414 547.641357,479.169434 
	C548.292969,479.288727 548.944641,479.408020 549.837830,479.941742 
	C550.562988,479.999847 551.288086,480.057953 552.536804,480.275085 
	C552.894226,480.347168 553.251587,480.419281 553.832214,480.913025 
	C554.556763,480.958984 555.281311,481.004913 556.649475,481.185059 
	C557.295898,481.304260 557.942322,481.423431 558.829773,481.949341 
	C559.555176,481.983826 560.280640,482.018341 561.641785,482.219604 
	C562.282898,482.363190 562.924072,482.506775 563.846313,483.021423 
	C564.563416,483.008240 565.280579,482.995026 566.754639,483.124847 
	C568.023865,483.295837 569.293091,483.466827 570.932251,484.042969 
	C571.959412,484.068390 572.986572,484.093781 574.719421,484.255981 
	C575.670166,484.372009 576.620911,484.488007 577.930725,485.011841 
	C578.954346,485.012848 579.977966,485.013855 581.886353,485.129883 
	C589.589722,485.100311 597.293152,485.070770 605.357117,485.325226 
	C606.051758,485.100128 606.746338,484.875031 608.086182,484.567566 
	C608.720276,484.425262 609.354370,484.282928 610.364685,484.411041 
	C611.048035,484.122223 611.731445,483.833374 613.161682,483.392609 
	C616.396973,482.511780 619.632263,481.630981 623.575256,480.932068 
	C624.709167,480.577728 625.843079,480.223358 627.770081,479.867584 
	C629.064392,479.553406 630.380188,479.308563 631.649902,478.915009 
	C700.120911,457.693817 740.130493,386.291718 722.270874,316.879639 
	C715.589722,290.913025 702.481262,268.684296 681.947388,250.248520 
	C630.334412,201.853836 545.301147,204.438324 495.850281,256.070312 
	C466.955170,286.239838 454.007263,322.293884 458.102478,363.923859 
	C461.794434,401.454193 479.174408,431.823273 508.269409,455.659088 
	C510.041077,457.110535 511.149872,459.371124 512.257141,461.829010 
	C512.026611,462.439117 511.796082,463.049194 511.053955,463.985138 
	C510.856110,464.730743 510.658264,465.476318 510.123566,466.874634 
	C508.589203,470.796753 507.054810,474.718872 505.023529,478.987061 
	C504.867218,479.740295 504.710907,480.493561 504.227478,481.894836 
	C503.362152,484.160767 502.496857,486.426666 501.064423,489.056488 
	C500.579865,490.791321 500.095337,492.526154 499.295013,494.911682 
	C498.727875,496.499146 498.160706,498.086578 497.042419,500.076782 
	C495.875519,503.798767 494.708618,507.520752 493.265594,511.884918 
	C492.905304,513.225769 492.545013,514.566589 492.064148,516.509644 
	C492.410522,516.595032 492.756927,516.680359 493.554657,516.840698 
	C493.554657,516.840698 493.977539,517.015442 493.877991,517.790588 
	C492.570404,524.506104 491.262848,531.221680 489.227661,538.072266 
M481.681152,103.244186 
	C480.765198,102.619728 479.849243,101.995262 478.933289,101.370819 
	C478.616364,102.219460 478.299408,103.068100 477.057434,104.066467 
	C436.559357,104.083084 396.061218,104.144875 355.563293,104.074364 
	C348.334839,104.061775 343.148132,107.056885 339.536560,113.187561 
	C324.399994,138.881821 309.221588,164.551453 294.095245,190.251709 
	C290.004822,197.201477 291.591431,199.878189 299.732849,199.878815 
	C403.562378,199.886887 507.391907,199.867661 611.221436,199.918808 
	C618.610535,199.922455 623.921631,196.908203 627.635010,190.562714 
	C636.974792,174.602478 646.434204,158.712311 655.833862,142.787094 
	C661.423035,133.317749 667.110107,123.902481 672.479370,114.309647 
	C673.757874,112.025391 675.182861,108.491829 674.264648,106.697845 
	C673.410706,105.029518 669.555664,104.767807 666.956360,104.173759 
	C665.530823,103.847969 663.969788,104.114990 662.469849,104.114990 
	C604.638611,104.114914 546.807434,104.118546 488.976196,104.101562 
	C486.651611,104.100876 484.327118,103.905312 481.681152,103.244186 
M344.852112,70.198105 
	C351.586517,69.467964 358.310272,68.243179 365.057312,68.097633 
	C388.070038,67.601204 410.632812,70.365685 432.322937,78.585037 
	C436.969971,80.346016 441.693970,81.903831 447.407959,83.916397 
	C423.426178,62.875652 331.189758,60.991100 304.891541,79.972054 
	C317.667389,76.877113 330.841248,73.685760 344.852112,70.198105 
M377.095123,332.451324 
	C377.156036,331.002014 377.413971,329.525818 377.221161,328.111084 
	C377.036896,326.759003 376.274078,324.306763 375.953674,324.336945 
	C373.139832,324.601685 369.818207,324.543243 367.699280,326.055267 
	C363.388123,329.131622 363.050812,333.964600 365.523651,340.040314 
	C366.519897,342.488037 367.309875,345.019745 368.467438,348.285370 
	C371.579742,345.002930 374.884766,341.993774 377.517761,338.480896 
	C378.434387,337.257935 377.689758,334.789825 377.095123,332.451324 
M457.923737,88.328651 
	C462.910339,91.947357 467.896912,95.566063 472.883514,99.184769 
	C473.305542,98.525368 473.727600,97.865967 474.149628,97.206558 
	C468.959869,94.251656 463.770111,91.296753 457.923737,88.328651 
M451.464233,86.198967 
	C452.731171,86.722191 453.998077,87.245407 455.265015,87.768631 
	C455.454071,87.393120 455.643127,87.017609 455.832184,86.642097 
	C454.196411,85.878799 452.560608,85.115494 450.924805,84.352196 
	C450.910980,84.861343 450.897156,85.370491 451.464233,86.198967 
M476.615509,99.795471 
	C476.215088,99.789673 475.814697,99.783867 475.414276,99.778069 
	C475.414398,99.943909 475.402527,100.253502 475.416412,100.254662 
	C475.814850,100.287918 476.215912,100.290215 476.615509,99.795471 
M365.697601,350.581848 
	C365.987305,350.365112 366.276978,350.148346 366.566681,349.931610 
	C366.391174,349.746979 366.215668,349.562378 366.040131,349.377777 
	C365.811707,349.658600 365.583313,349.939392 365.697601,350.581848 
z"/>
<path fill="#FEFEFE" opacity="1.000000" stroke="none" 
	d="
M129.814514,16.514526 
	C130.892090,16.112904 131.969650,15.711284 133.533569,15.664089 
	C135.508774,16.391644 137.009918,17.121468 138.484146,17.070641 
	C142.808273,16.921558 147.116531,16.274563 151.440155,16.156013 
	C171.750107,15.599131 191.134750,19.824453 210.002228,27.943432 
	C223.421280,34.408833 235.469452,42.382130 245.999237,52.504597 
	C270.582703,76.137123 283.823578,105.213913 287.067871,139.456314 
	C286.845612,146.569901 287.094452,153.258072 286.454956,159.860199 
	C282.187866,203.913544 260.818665,237.519333 223.721664,261.261139 
	C219.613647,263.890259 214.872803,265.530609 210.378540,267.356934 
	C210.251984,266.724396 210.172363,266.364441 210.261627,265.836670 
	C210.222702,265.118561 210.014877,264.568207 209.780670,263.641815 
	C209.284744,258.012939 206.880936,254.409897 201.261566,253.235397 
	C200.424362,252.963837 199.706055,252.904999 198.725220,252.765106 
	C198.107437,252.594910 197.752182,252.505753 197.213776,252.170380 
	C195.351837,251.592743 193.673035,251.261337 191.673859,250.843491 
	C190.703995,250.621384 190.054474,250.485718 189.210068,250.117584 
	C188.256424,249.810242 187.497696,249.735367 186.384247,249.530945 
	C184.805603,249.105057 183.581680,248.808701 182.248230,248.292999 
	C181.421860,247.999954 180.705002,247.926224 179.725372,247.771790 
	C179.107468,247.600479 178.752365,247.509888 178.282440,247.200867 
	C177.440445,246.930252 176.713242,246.878052 175.722580,246.749130 
	C175.102036,246.593216 174.744934,246.514023 174.269257,246.221756 
	C173.429108,245.943481 172.707550,245.878281 171.729553,245.712830 
	C171.116837,245.525345 170.760529,245.438126 170.208038,245.119659 
	C169.253036,244.825226 168.494202,244.762024 167.381683,244.563812 
	C165.801056,244.133286 164.574112,243.837753 163.245483,243.317673 
	C162.425446,243.013992 161.707108,242.934860 160.728470,242.766937 
	C160.116638,242.574036 159.765091,242.469925 159.294312,242.150360 
	C158.445221,241.896164 157.715332,241.857407 156.721252,241.743576 
	C156.098740,241.593491 155.740417,241.518478 155.261688,241.232498 
	C154.423447,240.961960 153.705612,240.902390 152.660980,240.732605 
	C150.999329,240.272644 149.664490,239.922928 148.227356,239.351501 
	C147.415634,239.072174 146.706192,239.014572 145.724808,238.880371 
	C145.085785,238.719604 144.718674,238.635422 144.160553,238.274536 
	C142.655487,237.653259 141.341446,237.308685 139.844330,236.675186 
	C137.108673,232.302322 134.523331,228.238205 132.032730,224.116852 
	C131.566284,223.344986 131.269592,222.347244 131.255737,221.448196 
	C131.213531,218.709000 131.783676,215.892090 131.327316,213.241104 
	C130.202148,206.704819 132.546097,201.559662 137.278793,197.484528 
	C141.198181,194.109711 143.606644,190.307495 143.095932,185.004364 
	C143.051285,185.000534 143.032410,185.088135 143.372009,184.986145 
	C143.983337,184.255447 144.255081,183.626740 144.718338,182.725479 
	C147.304688,178.949326 149.307770,175.070908 152.202499,172.045654 
	C155.206024,168.906693 155.679047,165.814240 152.424377,161.532730 
	C153.254959,159.365265 154.227936,157.639420 154.762756,155.787079 
	C155.498352,153.239456 155.902405,150.596085 156.560791,147.620972 
	C156.325439,142.268250 153.939697,139.519257 150.079178,139.650299 
	C145.763611,139.796783 143.702576,142.709137 144.057297,148.066391 
	C144.122253,149.047241 143.971619,150.042374 143.854218,151.126968 
	C143.787933,151.223022 143.919769,151.415604 143.643646,151.615845 
	C143.211838,152.235703 143.056137,152.655334 142.835327,153.149597 
	C142.770218,153.224213 142.852356,153.404465 142.592560,153.597656 
	C142.170334,154.183350 142.007904,154.575851 141.592590,155.181702 
	C139.201920,159.580658 137.064178,163.766251 134.645325,168.134399 
	C132.996368,170.099960 131.628494,171.882935 130.260635,173.665909 
	C128.461212,169.468597 128.323517,166.024429 127.336342,162.843964 
	C126.279579,159.439285 124.422577,156.282990 123.272339,152.986130 
	C124.800201,151.858047 126.289909,150.954102 127.084450,149.632278 
	C130.163284,144.510223 133.320114,139.398743 135.900299,134.020599 
	C141.821274,121.678909 142.391144,109.325722 134.113052,97.722786 
	C121.947571,80.671082 105.164131,73.561287 84.502785,76.181580 
	C75.463821,77.327919 67.421730,81.415962 60.336937,87.182961 
	C45.322144,99.404984 41.524246,116.457993 41.235725,134.420502 
	C41.077614,144.263824 42.579327,154.236694 44.284199,163.984726 
	C47.414051,181.880417 52.627541,199.192230 63.271912,214.237823 
	C66.591843,218.930481 71.190262,222.718628 75.529526,227.094940 
	C76.411545,230.834244 76.967461,234.399445 77.263382,238.021957 
	C77.013916,238.722992 77.024445,239.366684 77.071594,240.453186 
	C75.290939,246.576523 78.759880,250.247620 82.072350,254.335846 
	C82.503731,255.794662 82.942787,256.892914 83.033409,258.212311 
	C81.261185,257.651917 79.665443,257.076233 78.442123,256.054626 
	C71.615997,250.354126 64.880005,244.545639 57.990372,238.468719 
	C40.106327,218.757538 28.754936,196.127060 24.596176,170.156799 
	C23.107367,160.859604 23.027925,151.336700 22.466028,141.479584 
	C22.073187,139.849304 21.519537,138.656265 20.965891,137.463242 
	C20.965893,137.463242 20.985977,137.494080 21.404953,137.700821 
	C22.500126,135.652954 23.444849,133.441269 23.813002,131.137436 
	C31.742281,81.517639 58.695503,46.483540 104.633652,26.287600 
	C112.332664,22.902859 120.709129,21.019016 128.847107,18.703667 
	C130.661606,18.187420 131.022049,17.941399 129.814514,16.514526 
z"/>
<path fill="#E9973D" opacity="1.000000" stroke="none" 
	d="
M482.002563,103.800552 
	C484.327118,103.905312 486.651611,104.100876 488.976196,104.101562 
	C546.807434,104.118546 604.638611,104.114914 662.469849,104.114990 
	C663.969788,104.114990 665.530823,103.847969 666.956360,104.173759 
	C669.555664,104.767807 673.410706,105.029518 674.264648,106.697845 
	C675.182861,108.491829 673.757874,112.025391 672.479370,114.309647 
	C667.110107,123.902481 661.423035,133.317749 655.833862,142.787094 
	C646.434204,158.712311 636.974792,174.602478 627.635010,190.562714 
	C623.921631,196.908203 618.610535,199.922455 611.221436,199.918808 
	C507.391907,199.867661 403.562378,199.886887 299.732849,199.878815 
	C291.591431,199.878189 290.004822,197.201477 294.095245,190.251709 
	C309.221588,164.551453 324.399994,138.881821 339.536560,113.187561 
	C343.148132,107.056885 348.334839,104.061775 355.563293,104.074364 
	C396.061218,104.144875 436.559357,104.083084 477.916595,104.089722 
	C479.851349,104.008835 480.926971,103.904694 482.002563,103.800552 
M382.114319,152.246994 
	C382.114319,156.854660 382.114319,161.462311 382.114319,166.296356 
	C385.321991,166.296356 387.870087,166.296356 390.513000,166.296356 
	C390.513000,156.001083 390.513000,146.109268 390.513000,136.374252 
	C383.715454,134.590378 378.848236,135.935562 376.347839,142.803711 
	C375.442902,145.289368 373.684265,147.464233 372.315186,149.780930 
	C371.904724,149.644608 371.494232,149.508301 371.083740,149.371979 
	C371.083740,145.001602 371.083740,140.631210 371.083740,136.371811 
	C361.480469,135.038712 361.485962,135.041885 357.128143,142.588791 
	C355.545868,145.328995 353.912994,148.040024 352.333923,150.782043 
	C349.469452,155.756271 346.627960,160.743759 343.624969,165.991135 
	C349.081940,167.633194 352.433990,166.609024 354.657745,161.676041 
	C356.590607,157.388397 359.307770,153.454346 361.678314,149.364014 
	C362.076874,149.470093 362.475464,149.576157 362.874023,149.682236 
	C362.874023,155.198502 362.874023,160.714767 362.874023,166.015381 
	C368.713135,167.812531 372.342377,166.535782 374.546234,161.107910 
	C376.036377,157.437927 378.423157,154.130417 380.487488,150.708176 
	C380.523254,150.648834 381.549561,151.187027 382.114319,152.246994 
M456.031158,164.755829 
	C461.843658,160.179688 463.768127,152.053925 461.119812,143.945465 
	C459.806763,139.925171 457.136780,136.884735 453.140869,136.583511 
	C445.962463,136.042404 438.714050,136.430786 431.394653,136.430786 
	C431.394653,146.469406 431.394653,156.348953 431.394653,167.448639 
	C439.654846,166.639908 447.496338,165.872147 456.031158,164.755829 
M543.899109,161.344604 
	C543.899109,162.956619 543.899109,164.568634 543.899109,166.755508 
	C551.585876,166.755508 558.716980,166.465897 565.810974,166.855011 
	C570.727051,167.124680 572.549255,164.713760 573.647888,160.136597 
	C569.940369,160.136597 566.638428,160.136597 563.336548,160.136597 
	C559.908875,160.136597 556.481201,160.136597 552.580750,160.136597 
	C552.580750,157.721664 552.589539,156.085861 552.579346,154.450195 
	C552.493469,140.659500 552.215881,141.867599 565.052002,142.145218 
	C569.843262,142.248856 571.855347,140.226761 572.737854,135.785690 
	C566.096619,135.785690 559.783142,135.383316 553.544861,135.895920 
	C546.963562,136.436691 544.164490,139.853500 543.954102,146.401840 
	C543.804504,151.057938 543.908264,155.722168 543.899109,161.344604 
M486.309021,166.206970 
	C490.334076,159.663925 494.359161,153.120880 499.183319,145.278824 
	C499.183319,151.132095 499.182770,155.412140 499.183441,159.692169 
	C499.184631,167.506683 499.284607,167.584152 507.643097,166.115295 
	C507.643097,156.128860 507.643097,146.118317 507.643097,136.399948 
	C499.258453,134.148071 493.858429,136.366714 490.324310,144.434753 
	C487.040955,151.930328 482.294067,158.784790 477.847900,166.519348 
	C481.036438,166.519348 483.313995,166.519348 486.309021,166.206970 
M406.286133,135.641922 
	C401.171082,136.019226 396.700897,137.990829 396.259064,143.493942 
	C395.653961,151.030197 396.107819,158.651474 396.107819,166.755554 
	C403.607086,166.755554 410.741974,166.444656 417.834167,166.860977 
	C422.860260,167.155991 424.347931,164.475327 425.449951,160.136917 
	C419.900116,160.136917 414.733795,159.840164 409.618927,160.225891 
	C405.101471,160.566589 403.998444,158.910675 404.074860,154.581421 
	C404.295593,142.074600 404.117798,141.839523 416.662018,142.162323 
	C421.448792,142.285522 423.641663,140.424988 424.663422,135.524872 
	C418.658905,135.524872 412.906586,135.524872 406.286133,135.641922 
M522.910278,162.280319 
	C523.258667,167.335724 523.618835,167.511887 531.180847,165.957764 
	C531.180847,159.467194 531.273743,152.855133 531.137512,146.247818 
	C531.078857,143.404907 531.768677,141.621002 534.983948,142.096390 
	C539.486633,142.762115 541.160339,140.264908 541.990173,135.834976 
	C534.380798,135.834976 527.097839,136.029221 519.831726,135.762833 
	C515.404419,135.600494 513.606018,137.583252 513.149841,141.853363 
	C516.478638,142.032562 519.542664,142.197495 522.910400,142.378784 
	C522.910400,149.060730 522.910400,155.193085 522.910278,162.280319 
M475.784698,141.659592 
	C475.784698,139.883041 475.784698,138.106506 475.784698,136.164459 
	C472.555298,136.164459 470.001801,136.164459 467.268005,136.164459 
	C467.268005,146.397324 467.268005,156.284317 467.268005,166.116425 
	C475.695129,167.572205 475.782379,167.502991 475.784180,159.594711 
	C475.785461,153.936935 475.784332,148.279175 475.784698,141.659592 
M593.240601,145.696960 
	C590.101318,149.410736 590.283325,153.001968 593.321228,156.765823 
	C594.765747,158.555542 595.953674,160.643478 596.846924,162.768982 
	C599.055420,168.024185 602.854858,167.055893 607.388672,165.922760 
	C605.133179,162.054672 603.277893,158.530258 601.090088,155.225998 
	C599.232483,152.420517 598.974915,150.060699 601.042969,147.139526 
	C603.380188,143.838135 605.155640,140.139130 607.251038,136.480896 
	C601.486206,134.711090 597.824341,136.003967 595.863037,141.196533 
	C595.342529,142.574646 594.376648,143.784561 593.240601,145.696960 
M577.748352,142.574509 
	C577.748352,150.481522 577.748352,158.388535 577.748352,166.279129 
	C581.019653,166.279129 583.414246,166.279129 585.741699,166.279129 
	C585.741699,155.984726 585.741699,146.085205 585.741699,136.266785 
	C582.934082,136.266785 580.539551,136.266785 577.747925,136.266785 
	C577.747925,138.317780 577.747925,139.958572 577.748352,142.574509 
M557.879822,148.921661 
	C557.044739,150.265579 556.209656,151.609512 555.275513,153.112900 
	C566.436707,155.299179 569.546082,154.356415 570.476196,148.645569 
	C569.832642,148.549561 569.192505,148.367310 568.554260,148.373413 
	C565.229980,148.405258 561.906128,148.485046 557.879822,148.921661 
M408.063049,152.709656 
	C415.178589,155.740723 421.464661,154.114182 422.752563,148.351608 
	C419.696808,148.351608 416.750549,148.521408 413.833160,148.303879 
	C410.912872,148.086121 409.028809,149.092331 408.063049,152.709656 
z"/>
<path fill="#323143" opacity="1.000000" stroke="none" 
	d="
M83.381851,257.991150 
	C82.942787,256.892914 82.503731,255.794662 82.411728,254.180374 
	C91.903893,251.775116 101.179024,250.355927 110.159538,247.871719 
	C120.249481,245.080582 130.073410,241.327774 140.380646,238.056030 
	C141.949341,238.262909 143.150467,238.407074 144.351578,238.551239 
	C144.718674,238.635422 145.085785,238.719604 145.935944,239.142761 
	C147.055878,239.512238 147.692749,239.542725 148.329636,239.573212 
	C149.664490,239.922928 150.999329,240.272644 152.875610,241.007996 
	C154.072052,241.410217 154.727066,241.426834 155.382095,241.443451 
	C155.740417,241.518478 156.098740,241.593491 156.950531,242.004791 
	C158.100510,242.349304 158.757034,242.357559 159.413544,242.365799 
	C159.765091,242.469925 160.116638,242.574036 160.939911,243.036377 
	C162.056808,243.443817 162.701996,243.493011 163.347168,243.542221 
	C164.574112,243.837753 165.801056,244.133286 167.565582,244.815857 
	C168.870178,245.252228 169.637192,245.301559 170.404221,245.350891 
	C170.760529,245.438126 171.116837,245.525345 171.939941,245.994781 
	C173.067123,246.396255 173.727478,246.415543 174.387848,246.434814 
	C174.744934,246.514023 175.102036,246.593216 175.947327,247.013519 
	C177.089432,247.376160 177.743332,247.397720 178.397247,247.419281 
	C178.752365,247.509888 179.107468,247.600479 179.940674,248.040192 
	C181.065109,248.430313 181.711426,248.471329 182.357758,248.512329 
	C183.581680,248.808701 184.805603,249.105057 186.561066,249.790237 
	C187.863388,250.236053 188.634171,250.293045 189.404968,250.350037 
	C190.054474,250.485718 190.703995,250.621384 191.903748,251.125061 
	C194.101624,251.800919 195.749268,252.108765 197.396912,252.416611 
	C197.752182,252.505753 198.107437,252.594910 198.944641,253.033936 
	C200.077866,253.405243 200.729172,253.426682 201.380463,253.448120 
	C206.880936,254.409897 209.284744,258.012939 209.586182,263.804688 
	C209.642929,264.897217 209.867844,265.450836 210.092743,266.004456 
	C210.172363,266.364441 210.251984,266.724396 210.287384,267.758911 
	C210.505859,269.956055 210.768539,271.478699 211.031235,273.001343 
	C211.189835,273.958923 211.348434,274.916504 211.398712,276.572937 
	C211.554047,278.182709 211.817688,279.093628 212.081329,280.004517 
	C212.337433,281.431335 212.593536,282.858124 212.689636,284.791260 
	C212.752991,285.952057 212.976364,286.606567 213.199738,287.261047 
	C213.383667,288.259949 213.567596,289.258850 213.577393,290.825806 
	C213.700165,292.348907 213.997070,293.303955 214.293961,294.259033 
	C214.424805,294.948181 214.555634,295.637329 214.502075,296.888306 
	C214.607559,298.302979 214.897400,299.155762 215.187256,300.008575 
	C215.362900,301.122162 215.538544,302.235748 215.536652,303.866028 
	C215.612228,305.342377 215.865326,306.302063 216.118408,307.261719 
	C216.317535,308.260864 216.516663,309.260040 216.549316,310.855743 
	C216.639465,312.303986 216.896088,313.155701 217.152679,314.007385 
	C217.360718,315.118378 217.568741,316.229370 217.597870,317.867615 
	C217.708633,319.350098 217.998276,320.305328 218.287903,321.260529 
	C218.419205,321.949249 218.550507,322.637939 218.500824,323.861115 
	C218.619003,325.352173 218.918182,326.308746 219.217361,327.265350 
	C219.377609,328.265656 219.537872,329.265961 219.515945,330.851257 
	C219.580978,332.292053 219.828171,333.147858 220.075378,334.003632 
	C220.001633,335.383392 219.927887,336.763184 219.136566,338.444153 
	C215.224152,339.212891 212.029358,339.680450 208.834549,340.147980 
	C202.801712,326.123230 196.768890,312.098480 190.744385,297.335022 
	C190.131592,294.728821 189.510437,292.861359 188.889297,290.993896 
	C188.755402,290.348022 188.621506,289.702118 188.583252,288.420776 
	C188.418015,287.188293 188.157135,286.591309 187.896255,285.994293 
	C187.773163,285.343536 187.650085,284.692749 187.633148,283.412720 
	C187.500305,282.189758 187.261307,281.596039 187.022293,281.002319 
	C186.237808,280.433563 185.453323,279.864807 184.306824,279.013733 
	C183.643768,278.488190 183.342743,278.244995 183.026764,277.642609 
	C180.277786,276.169708 177.628586,274.437592 174.795151,274.049042 
	C162.358429,272.343750 149.868423,271.027008 136.791992,269.498566 
	C139.175949,273.180328 141.550888,276.848175 143.846786,280.777771 
	C144.025833,281.669464 144.283936,282.299408 144.542053,282.929352 
	C150.952759,293.353546 157.218933,303.870453 163.824799,314.169464 
	C168.252472,321.072479 168.490448,323.022919 163.926315,329.849792 
	C153.133575,345.993286 142.344543,362.139282 131.531830,378.269379 
	C130.802032,379.358063 129.887314,380.322815 128.375702,381.260620 
	C123.958000,379.751434 120.223190,378.326843 116.488388,376.902222 
	C118.096466,365.325073 123.136833,355.032227 128.743469,345.020752 
	C131.745697,339.659851 135.090668,334.431427 138.827484,329.562683 
	C141.251556,326.404358 141.240372,324.721893 138.297272,321.817596 
	C129.297394,312.936401 120.563972,303.767975 112.064064,294.405182 
	C108.304909,290.264374 105.357216,285.386902 101.984329,280.235382 
	C101.499466,279.008301 101.071419,278.389648 100.643372,277.771027 
	C96.622948,273.610565 92.602509,269.450073 88.278122,264.716125 
	C86.443390,262.092133 84.912613,260.041656 83.381851,257.991150 
z"/>
<path fill="#323143" opacity="1.000000" stroke="none" 
	d="
M553.609009,480.491394 
	C553.251587,480.419281 552.894226,480.347168 552.043335,479.938416 
	C550.898621,479.576935 550.247437,479.552155 549.596252,479.527344 
	C548.944641,479.408020 548.292969,479.288727 547.092896,478.841705 
	C545.908936,478.484436 545.273438,478.454926 544.638000,478.425385 
	C539.847656,476.325256 538.298157,479.947113 536.057373,483.668823 
	C535.589355,487.645844 535.523071,491.011841 535.456848,494.377808 
	C535.355225,495.983124 535.253662,497.588440 534.853638,499.901184 
	C534.373657,503.076355 534.192017,505.544098 534.010376,508.011810 
	C533.995972,509.686829 533.981567,511.361847 533.583130,513.543274 
	C528.763428,515.554565 524.327820,517.059448 519.892151,518.564270 
	C518.773499,516.159607 517.654785,513.754944 516.478210,511.225800 
	C514.029785,513.818970 511.449188,516.552124 508.126221,519.206177 
	C502.915131,518.423218 498.446320,517.719360 493.977539,517.015442 
	C493.977539,517.015442 493.554657,516.840698 493.240173,516.601013 
	C492.737579,516.113953 492.490570,515.962646 492.184723,515.907471 
	C492.545013,514.566589 492.905304,513.225769 493.698364,511.400940 
	C495.285278,507.169312 496.439392,503.421661 497.593567,499.674011 
	C498.160706,498.086578 498.727875,496.499146 499.739655,494.416687 
	C500.666718,492.178680 501.149109,490.435638 501.631531,488.692596 
	C502.496857,486.426666 503.362152,484.160767 504.669281,481.425232 
	C505.247528,480.184082 505.383972,479.412567 505.520416,478.641022 
	C507.054810,474.718872 508.589203,470.796753 510.583252,466.421936 
	C511.217163,465.199280 511.391327,464.429291 511.565491,463.659302 
	C511.796082,463.049194 512.026611,462.439117 512.703674,461.389648 
	C513.717896,459.248932 514.285583,457.547546 515.081421,455.596252 
	C522.000000,449.117371 530.644470,448.537750 539.178345,447.322418 
	C539.899170,447.310028 540.450562,447.123657 541.386108,446.868225 
	C543.850159,446.585724 545.929993,446.372284 548.279907,446.364868 
	C550.034729,446.330841 551.519531,446.090790 553.413818,445.793335 
	C563.546570,445.464203 573.269775,445.192505 583.431946,445.047546 
	C586.898499,445.149902 589.926025,445.125488 593.174988,445.349731 
	C598.773682,450.142273 604.923889,453.389923 611.998779,452.371399 
	C618.985657,451.365509 625.785522,449.060699 632.600464,447.808838 
	C630.892334,457.140961 629.251099,465.989960 627.334167,474.968872 
	C626.529724,475.712830 626.000977,476.326874 625.147339,476.936981 
	C624.170776,478.205414 623.519165,479.477783 622.867554,480.750183 
	C619.632263,481.630981 616.396973,482.511780 612.465576,483.331970 
	C611.175842,483.561066 610.582153,483.850861 609.988464,484.140625 
	C609.354370,484.282928 608.720276,484.425262 607.457153,484.448761 
	C606.217590,484.567047 605.607056,484.804138 604.996521,485.041229 
	C597.293152,485.070770 589.589722,485.100311 581.165161,484.824097 
	C579.486572,484.546875 578.529114,484.575439 577.571655,484.604004 
	C576.620911,484.488007 575.670166,484.372009 574.093933,483.924377 
	C572.499756,483.607788 571.531006,483.622803 570.562317,483.637817 
	C569.293091,483.466827 568.023865,483.295837 566.124512,482.822937 
	C564.851379,482.564148 564.208252,482.607269 563.565186,482.650391 
	C562.924072,482.506775 562.282898,482.363190 561.077759,481.901215 
	C559.872070,481.569427 559.230408,481.556000 558.588745,481.542603 
	C557.942322,481.423431 557.295898,481.304260 556.086243,480.881073 
	C554.885010,480.548523 554.247009,480.519958 553.609009,480.491394 
z"/>
<path fill="#858392" opacity="1.000000" stroke="none" 
	d="
M514.853210,455.846161 
	C514.285583,457.547546 513.717896,459.248932 512.858643,461.102783 
	C511.149872,459.371124 510.041077,457.110535 508.269409,455.659088 
	C479.174408,431.823273 461.794434,401.454193 458.102478,363.923859 
	C454.007263,322.293884 466.955170,286.239838 495.850281,256.070312 
	C545.301147,204.438324 630.334412,201.853836 681.832581,250.682892 
	C681.467407,251.440994 681.217041,251.764740 680.653564,251.960190 
	C679.554626,251.217117 678.744934,250.630417 677.986511,249.983505 
	C654.016418,229.537170 626.186951,218.601013 594.790161,218.203812 
	C553.898682,217.686508 519.379944,232.780869 492.332947,263.692841 
	C442.709839,320.407013 450.927124,407.310089 510.152008,453.913971 
	C511.432800,454.921844 513.273621,455.217987 514.853210,455.846161 
z"/>
<path fill="#797888" opacity="1.000000" stroke="none" 
	d="
M680.966675,252.088486 
	C681.217041,251.764740 681.467407,251.440994 681.995483,250.974884 
	C702.481262,268.684296 715.589722,290.913025 722.270874,316.879639 
	C740.130493,386.291718 700.120911,457.693817 631.649902,478.915009 
	C630.380188,479.308563 629.064392,479.553406 627.380371,479.558044 
	C626.993896,478.834747 626.997070,478.420990 627.264954,477.899658 
	C628.018188,477.520966 628.506653,477.249817 629.380493,476.974731 
	C631.810669,476.320160 633.870850,475.713928 635.898254,475.012573 
	C707.665955,450.185333 743.798584,367.886719 713.624207,298.175751 
	C705.967041,280.485657 694.645691,265.471375 680.966675,252.088486 
z"/>
<path fill="#E7E7E7" opacity="1.000000" stroke="none" 
	d="
M355.011383,367.994751 
	C347.410278,363.050018 341.428406,356.736938 338.923615,347.817444 
	C338.361115,345.814484 339.042633,343.460144 339.163055,341.268188 
	C339.240051,339.866760 339.929718,338.077606 339.313446,337.140381 
	C337.629181,334.579010 337.543396,332.555634 340.014160,330.638245 
	C342.776245,328.494781 345.968292,328.272034 348.121094,330.870239 
	C351.783997,335.290924 355.207581,340.015472 357.979980,345.028107 
	C359.596222,347.950348 359.751465,351.680603 360.637238,355.350403 
	C361.710999,354.423065 362.868896,353.423004 364.026825,352.422974 
	C364.225006,352.516663 364.423218,352.610382 364.621429,352.704071 
	C362.179077,357.920868 359.736725,363.137665 356.891174,368.571655 
	C355.995789,368.524139 355.503571,368.259430 355.011383,367.994751 
z"/>
<path fill="#E7E7E7" opacity="1.000000" stroke="none" 
	d="
M353.002197,410.993530 
	C342.298126,410.407990 333.628693,405.789185 327.077972,397.419098 
	C325.424652,395.306610 322.951355,393.041992 325.379425,389.478149 
	C325.986237,388.587463 324.163269,385.998962 323.386047,384.221832 
	C322.810699,382.906342 322.120331,381.641144 321.481232,380.353516 
	C322.979370,379.945770 324.881561,378.737000 325.911896,379.256714 
	C334.330109,383.503082 344.480957,385.124908 349.885895,395.031677 
	C351.047852,396.447693 352.026855,397.221680 353.005859,397.995636 
	C353.345215,401.364746 353.684540,404.733826 353.913361,408.799133 
	C353.535950,409.994720 353.269073,410.494110 353.002197,410.993530 
z"/>
<path fill="#858392" opacity="1.000000" stroke="none" 
	d="
M211.215240,272.705719 
	C210.768539,271.478699 210.505859,269.956055 210.334320,268.031464 
	C214.872803,265.530609 219.613647,263.890259 223.721664,261.261139 
	C260.818665,237.519333 282.187866,203.913544 286.454956,159.860199 
	C287.094452,153.258072 286.845612,146.569901 287.378723,139.456787 
	C288.164520,138.995239 288.579376,138.998459 288.994202,139.001663 
	C288.478119,150.331635 289.302185,161.915802 287.209808,172.946777 
	C278.951538,216.483597 254.290909,248.193710 215.316071,268.990875 
	C213.826447,269.785736 212.696701,271.255035 211.215240,272.705719 
z"/>
<path fill="#383648" opacity="1.000000" stroke="none" 
	d="
M539.214539,537.317871 
	C540.150208,538.301453 541.644043,539.146851 541.927490,540.291931 
	C543.352661,546.049255 544.461670,551.884827 545.982483,559.124817 
	C542.395386,558.308777 539.719910,557.700134 537.429749,557.179138 
	C535.187561,558.167236 532.855774,559.579956 530.328552,560.213745 
	C526.973022,561.055298 523.472351,561.567078 520.019348,561.657349 
	C518.482422,561.697510 516.171997,560.734802 515.568604,559.541626 
	C515.008179,558.433472 515.806152,556.033081 516.794495,554.873840 
	C518.819214,552.499023 521.213562,550.355591 523.747559,548.519653 
	C527.020142,546.148560 528.752014,543.402954 528.011169,538.877319 
	C532.045898,538.069458 535.630188,537.693665 539.214539,537.317871 
z"/>
<path fill="#383648" opacity="1.000000" stroke="none" 
	d="
M501.375000,540.618530 
	C501.375000,547.520203 501.375000,554.421875 501.375000,561.394775 
	C496.908173,561.617920 493.739044,561.763123 493.926178,558.404846 
	C490.808319,558.835876 487.761200,559.627258 484.727509,559.578735 
	C481.275391,559.523560 477.780701,558.943665 474.416840,558.128296 
	C473.071259,557.802185 471.279266,556.381287 471.053314,555.198425 
	C470.827545,554.016296 472.092865,552.316040 473.101959,551.203491 
	C473.943268,550.275879 475.320923,549.781738 476.528564,549.248657 
	C481.946594,546.857361 487.387573,544.519348 489.950623,538.166748 
	C494.240723,539.047058 497.807861,539.832764 501.375000,540.618530 
z"/>
<path fill="#737283" opacity="1.000000" stroke="none" 
	d="
M129.556244,16.509243 
	C131.022049,17.941399 130.661606,18.187420 128.847107,18.703667 
	C120.709129,21.019016 112.332664,22.902859 104.633652,26.287600 
	C58.695503,46.483540 31.742281,81.517639 23.813002,131.137436 
	C23.444849,133.441269 22.500126,135.652954 21.393236,137.714996 
	C23.967260,103.839645 37.577366,75.118904 61.806637,51.605984 
	C79.364784,34.566944 100.204102,23.233053 124.744568,17.713696 
	C126.195992,17.298883 126.989716,16.803795 127.783432,16.308706 
	C128.288269,16.373789 128.793121,16.438873 129.556244,16.509243 
z"/>
<path fill="#7E7C8C" opacity="1.000000" stroke="none" 
	d="
M289.059387,138.562714 
	C288.579376,138.998459 288.164520,138.995239 287.438843,138.991577 
	C283.823578,105.213913 270.582703,76.137123 245.999237,52.504597 
	C235.469452,42.382130 223.421280,34.408833 210.071411,27.515137 
	C209.945572,26.577654 209.972153,26.290932 209.998718,26.004208 
	C226.348709,32.576202 240.214951,42.822411 252.228729,55.490513 
	C274.192688,78.650681 286.792969,106.129257 289.059387,138.562714 
z"/>
<path fill="#ECECEC" opacity="1.000000" stroke="none" 
	d="
M353.044922,411.372498 
	C353.269073,410.494110 353.535950,409.994720 353.916412,409.234100 
	C354.724426,410.905945 355.275330,412.907379 356.154236,414.752594 
	C357.010620,416.550476 358.202515,418.188568 359.620972,420.335632 
	C359.664246,422.846985 359.333618,424.919556 359.002991,426.992096 
	C339.533234,426.502625 321.118713,421.377594 303.243164,414.078888 
	C278.602051,404.017700 257.440613,388.850433 239.197144,369.584564 
	C235.803726,366.000977 233.053207,361.808655 230.153687,357.329773 
	C231.091187,356.612885 231.880966,356.463562 232.670746,356.314209 
	C233.628952,358.218506 234.215576,360.464478 235.603470,361.973602 
	C247.985397,375.437256 261.189117,388.042908 276.749390,397.809906 
	C297.196625,410.644348 319.291992,419.346375 343.258728,422.983124 
	C347.614441,423.644073 351.984192,424.212585 357.159668,424.937561 
	C355.666656,420.102905 354.377136,415.927185 353.044922,411.372498 
z"/>
<path fill="#E7E7E7" opacity="1.000000" stroke="none" 
	d="
M359.471252,426.997986 
	C359.333618,424.919556 359.664246,422.846985 359.987579,420.372253 
	C361.728943,414.503967 363.064453,408.844971 365.472809,403.686859 
	C366.215179,402.096924 369.964661,401.084290 372.184814,401.309570 
	C373.601349,401.453308 374.742249,404.353027 375.989716,406.029755 
	C376.069824,406.137421 375.940216,406.391357 376.013184,406.515533 
	C379.846710,413.036743 380.247620,419.210938 372.651154,424.595490 
	C373.142792,424.896667 373.634460,425.197815 374.126099,425.498993 
	C376.131927,425.660553 378.137726,425.822113 380.572632,426.240906 
	C381.001953,426.671234 381.002136,426.844330 381.002289,427.017426 
	C373.981354,427.012909 366.960449,427.008392 359.471252,426.997986 
z"/>
<path fill="#383648" opacity="1.000000" stroke="none" 
	d="
M232.987854,356.139343 
	C231.880966,356.463562 231.091187,356.612885 230.060898,356.951599 
	C224.863876,358.353607 219.907333,359.566284 214.274445,360.944427 
	C213.348724,357.460785 212.472641,354.163879 212.020950,350.416138 
	C214.967834,347.987091 217.490311,346.008911 220.012787,344.030762 
	C224.398941,344.614685 228.987457,344.596588 233.104599,345.980652 
	C236.176849,347.013489 238.640045,349.858032 241.374466,351.895752 
	C241.140686,352.428162 240.906906,352.960541 240.673126,353.492950 
	C238.217072,354.316803 235.761017,355.140656 232.987854,356.139343 
z"/>
<path fill="#383648" opacity="1.000000" stroke="none" 
	d="
M122.457520,392.188507 
	C125.297485,395.342316 128.682083,398.174377 130.798065,401.755920 
	C132.375259,404.425476 132.311676,408.064423 132.978790,411.271637 
	C132.433670,411.581696 131.888535,411.891785 131.343399,412.201843 
	C123.268875,408.573975 115.194366,404.946106 106.376015,400.984039 
	C108.047607,397.512878 109.588852,394.312378 111.799957,391.142273 
	C115.799057,391.511292 119.128288,391.849884 122.457520,392.188507 
z"/>
<path fill="#EFB8BA" opacity="1.000000" stroke="none" 
	d="
M539.167908,536.936768 
	C535.630188,537.693665 532.045898,538.069458 528.055847,538.543213 
	C525.127808,532.163635 522.605469,525.686096 519.987671,518.886414 
	C524.327820,517.059448 528.763428,515.554565 533.562988,513.961243 
	C535.658386,521.433777 537.389832,528.994751 539.167908,536.936768 
z"/>
<path fill="#797888" opacity="1.000000" stroke="none" 
	d="
M22.305222,141.916824 
	C23.027925,151.336700 23.107367,160.859604 24.596176,170.156799 
	C28.754936,196.127060 40.106327,218.757538 57.857441,238.737793 
	C57.536381,239.555176 57.225418,239.798157 56.914455,240.041138 
	C38.925331,221.636246 27.851139,199.504196 23.180971,174.423050 
	C21.256109,164.085587 21.705177,153.306091 21.491829,142.347015 
	C21.909168,141.966400 22.305222,141.916824 22.305222,141.916824 
z"/>
<path fill="#EFB8BA" opacity="1.000000" stroke="none" 
	d="
M501.564026,540.228333 
	C497.807861,539.832764 494.240723,539.047058 490.314453,538.099243 
	C491.262848,531.221680 492.570404,524.506104 493.927765,517.403015 
	C498.446320,517.719360 502.915131,518.423218 507.780212,519.299744 
	C506.035400,526.260986 503.894226,533.049561 501.564026,540.228333 
z"/>
<path fill="#F2EDE6" opacity="1.000000" stroke="none" 
	d="
M344.433594,70.346252 
	C330.841248,73.685760 317.667389,76.877113 304.891541,79.972054 
	C331.189758,60.991100 423.426178,62.875652 447.407959,83.916397 
	C441.693970,81.903831 436.969971,80.346016 432.322937,78.585037 
	C410.632812,70.365685 388.070038,67.601204 365.057312,68.097633 
	C358.310272,68.243179 351.586517,69.467964 344.433594,70.346252 
z"/>
<path fill="#E7E7E7" opacity="1.000000" stroke="none" 
	d="
M377.399475,332.670837 
	C377.689758,334.789825 378.434387,337.257935 377.517761,338.480896 
	C374.884766,341.993774 371.579742,345.002930 368.467438,348.285370 
	C367.309875,345.019745 366.519897,342.488037 365.523651,340.040314 
	C363.050812,333.964600 363.388123,329.131622 367.699280,326.055267 
	C369.818207,324.543243 373.139832,324.601685 375.953674,324.336945 
	C376.274078,324.306763 377.036896,326.759003 377.221161,328.111084 
	C377.413971,329.525818 377.156036,331.002014 377.399475,332.670837 
z"/>
<path fill="#737283" opacity="1.000000" stroke="none" 
	d="
M209.721588,25.795914 
	C209.972153,26.290932 209.945572,26.577654 209.849808,27.292669 
	C191.134750,19.824453 171.750107,15.599131 151.440155,16.156013 
	C147.116531,16.274563 142.808273,16.921558 138.484146,17.070641 
	C137.009918,17.121468 135.508774,16.391644 133.990875,15.792953 
	C160.083633,11.668641 185.281418,14.730710 209.721588,25.795914 
z"/>
<path fill="#97666D" opacity="1.000000" stroke="none" 
	d="
M122.449005,391.790771 
	C119.128288,391.849884 115.799057,391.511292 112.091095,390.972107 
	C113.299240,386.420837 114.886108,382.070160 116.480682,377.310852 
	C120.223190,378.326843 123.958000,379.751434 128.052261,381.380554 
	C126.421303,384.854401 124.430893,388.123688 122.449005,391.790771 
z"/>
<path fill="#F1F0F1" opacity="1.000000" stroke="none" 
	d="
M381.253082,427.275940 
	C381.002136,426.844330 381.001953,426.671234 381.002563,426.238220 
	C384.847473,425.348206 388.670563,424.398621 392.539368,424.144257 
	C407.880402,423.135529 422.364960,418.675476 436.725769,413.622375 
	C438.216461,413.097839 439.762573,412.730896 441.282990,412.290863 
	C441.481354,412.817230 441.679718,413.343597 441.878082,413.869965 
	C436.327545,415.906281 430.844299,418.155243 425.213257,419.937134 
	C410.999207,424.434967 396.374451,426.730988 381.253082,427.275940 
z"/>
<path fill="#7E7C8C" opacity="1.000000" stroke="none" 
	d="
M57.049072,240.346619 
	C57.225418,239.798157 57.536381,239.555176 57.980274,239.043152 
	C64.880005,244.545639 71.615997,250.354126 78.442123,256.054626 
	C79.665443,257.076233 81.261185,257.651917 83.033401,258.212311 
	C84.912613,260.041656 86.443390,262.092133 88.042648,264.472717 
	C76.160988,258.854034 66.300323,250.229492 57.049072,240.346619 
z"/>
<path fill="#858392" opacity="1.000000" stroke="none" 
	d="
M183.041733,278.001770 
	C183.342743,278.244995 183.643768,278.488190 183.974609,279.036102 
	C178.589752,280.415710 173.216324,281.995667 167.750351,282.441711 
	C160.385117,283.042786 152.948593,282.770447 145.042358,282.901123 
	C144.283936,282.299408 144.025833,281.669464 144.257355,280.689514 
	C157.511902,279.560242 170.276825,278.781006 183.041733,278.001770 
z"/>
<path fill="#97666D" opacity="1.000000" stroke="none" 
	d="
M220.016556,343.580353 
	C217.490311,346.008911 214.967834,347.987091 212.079956,349.993835 
	C210.787140,346.987518 209.859711,343.952606 208.883423,340.532837 
	C212.029358,339.680450 215.224152,339.212891 218.804230,338.726257 
	C219.466431,340.181427 219.743378,341.655701 220.016556,343.580353 
z"/>
<path fill="#F1F0F1" opacity="1.000000" stroke="none" 
	d="
M353.008179,397.542358 
	C352.026855,397.221680 351.047852,396.447693 350.036835,395.332001 
	C350.604645,391.356873 351.125763,387.708252 351.823151,384.093658 
	C352.809692,378.980560 353.926331,373.892548 354.999359,368.394287 
	C355.503571,368.259430 355.995789,368.524139 356.746521,368.897369 
	C355.673523,378.366943 354.342010,387.727997 353.008179,397.542358 
z"/>
<path fill="#F2EDE6" opacity="1.000000" stroke="none" 
	d="
M458.252045,88.335251 
	C463.770111,91.296753 468.959869,94.251656 474.149628,97.206558 
	C473.727600,97.865967 473.305542,98.525368 472.883514,99.184769 
	C467.896912,95.566063 462.910339,91.947357 458.252045,88.335251 
z"/>
<path fill="#7E7C8C" opacity="1.000000" stroke="none" 
	d="
M535.714478,494.107544 
	C535.523071,491.011841 535.589355,487.645844 535.907715,484.014832 
	C536.097290,487.112305 536.034729,490.474762 535.714478,494.107544 
z"/>
<path fill="#858392" opacity="1.000000" stroke="none" 
	d="
M497.317993,499.875397 
	C496.439392,503.421661 495.285278,507.169312 493.836426,511.079834 
	C494.708618,507.520752 495.875519,503.798767 497.317993,499.875397 
z"/>
<path fill="#7E7C8C" opacity="1.000000" stroke="none" 
	d="
M534.208008,507.737915 
	C534.192017,505.544098 534.373657,503.076355 534.802246,500.301453 
	C534.834717,502.484161 534.620239,504.974091 534.208008,507.737915 
z"/>
<path fill="#7E7C8C" opacity="1.000000" stroke="none" 
	d="
M627.000183,478.007202 
	C626.997070,478.420990 626.993896,478.834747 626.983887,479.558777 
	C625.843079,480.223358 624.709167,480.577728 623.221436,480.841125 
	C623.519165,479.477783 624.170776,478.205414 625.271851,477.252930 
	C626.147583,477.717621 626.573914,477.862396 627.000183,478.007202 
z"/>
<path fill="#F2EDE6" opacity="1.000000" stroke="none" 
	d="
M451.173767,86.039307 
	C450.897156,85.370491 450.910980,84.861343 450.924805,84.352196 
	C452.560608,85.115494 454.196411,85.878799 455.832184,86.642097 
	C455.643127,87.017609 455.454071,87.393120 455.265015,87.768631 
	C453.998077,87.245407 452.731171,86.722191 451.173767,86.039307 
z"/>
<path fill="#858392" opacity="1.000000" stroke="none" 
	d="
M188.738373,291.260559 
	C189.510437,292.861359 190.131592,294.728821 190.659088,296.970825 
	C189.906113,295.406006 189.246780,293.466644 188.738373,291.260559 
z"/>
<path fill="#F2EDE6" opacity="1.000000" stroke="none" 
	d="
M481.841858,103.522369 
	C480.926971,103.904694 479.851349,104.008835 478.379089,104.014862 
	C478.299408,103.068100 478.616364,102.219460 478.933289,101.370804 
	C479.849243,101.995262 480.765198,102.619728 481.841858,103.522369 
z"/>
<path fill="#858392" opacity="1.000000" stroke="none" 
	d="
M501.347961,488.874542 
	C501.149109,490.435638 500.666718,492.178680 499.897522,494.091370 
	C500.095337,492.526154 500.579865,490.791321 501.347961,488.874542 
z"/>
<path fill="#858392" opacity="1.000000" stroke="none" 
	d="
M214.444443,293.938049 
	C213.997070,293.303955 213.700165,292.348907 213.602051,291.206909 
	C214.065536,291.885681 214.330231,292.751373 214.444443,293.938049 
z"/>
<path fill="#858392" opacity="1.000000" stroke="none" 
	d="
M220.236237,333.779480 
	C219.828171,333.147858 219.580978,332.292053 219.537079,331.231323 
	C219.959290,331.869354 220.178192,332.712372 220.236237,333.779480 
z"/>
<path fill="#858392" opacity="1.000000" stroke="none" 
	d="
M219.372162,326.945007 
	C218.918182,326.308746 218.619003,325.352173 218.519775,324.212097 
	C218.988815,324.893951 219.257889,325.759308 219.372162,326.945007 
z"/>
<path fill="#858392" opacity="1.000000" stroke="none" 
	d="
M218.437531,320.940674 
	C217.998276,320.305328 217.708633,319.350098 217.616302,318.206421 
	C218.071442,318.885590 218.329300,319.753174 218.437531,320.940674 
z"/>
<path fill="#858392" opacity="1.000000" stroke="none" 
	d="
M217.318573,313.788696 
	C216.896088,313.155701 216.639465,312.303986 216.578568,311.237213 
	C217.011002,311.871429 217.247726,312.720703 217.318573,313.788696 
z"/>
<path fill="#858392" opacity="1.000000" stroke="none" 
	d="
M216.259705,306.941376 
	C215.865326,306.302063 215.612228,305.342377 215.555634,304.203674 
	C215.968445,304.890076 216.184708,305.755554 216.259705,306.941376 
z"/>
<path fill="#858392" opacity="1.000000" stroke="none" 
	d="
M215.362488,299.787933 
	C214.897400,299.155762 214.607559,298.302979 214.524170,297.239197 
	C214.999664,297.874573 215.268692,298.720947 215.362488,299.787933 
z"/>
<path fill="#7E7C8C" opacity="1.000000" stroke="none" 
	d="
M570.747314,483.840393 
	C571.531006,483.622803 572.499756,483.607788 573.741089,483.855988 
	C572.986572,484.093781 571.959412,484.068390 570.747314,483.840393 
z"/>
<path fill="#858392" opacity="1.000000" stroke="none" 
	d="
M212.239731,279.791382 
	C211.817688,279.093628 211.554047,278.182709 211.456360,276.932312 
	C211.880936,277.587952 212.139542,278.583099 212.239731,279.791382 
z"/>
<path fill="#7E7C8C" opacity="1.000000" stroke="none" 
	d="
M577.751221,484.807922 
	C578.529114,484.575439 579.486572,484.546875 580.722778,484.766602 
	C579.977966,485.013855 578.954346,485.012848 577.751221,484.807922 
z"/>
<path fill="#858392" opacity="1.000000" stroke="none" 
	d="
M511.309723,463.822205 
	C511.391327,464.429291 511.217163,465.199280 510.751709,466.095581 
	C510.658264,465.476318 510.856110,464.730743 511.309723,463.822205 
z"/>
<path fill="#FEFEFE" opacity="1.000000" stroke="none" 
	d="
M127.337677,16.238510 
	C126.989716,16.803795 126.195992,17.298883 125.099190,17.655365 
	C125.494720,17.067278 126.193329,16.617794 127.337677,16.238510 
z"/>
<path fill="#7E7C8C" opacity="1.000000" stroke="none" 
	d="
M544.737671,478.643372 
	C545.273438,478.454926 545.908936,478.484436 546.772217,478.758209 
	C546.279236,478.955414 545.558289,478.908356 544.737671,478.643372 
z"/>
<path fill="#858392" opacity="1.000000" stroke="none" 
	d="
M505.271973,478.814026 
	C505.383972,479.412567 505.247528,480.184082 504.832825,481.101227 
	C504.710907,480.493561 504.867218,479.740295 505.271973,478.814026 
z"/>
<path fill="#7E7C8C" opacity="1.000000" stroke="none" 
	d="
M549.717041,479.734558 
	C550.247437,479.552155 550.898621,479.576935 551.781494,479.858887 
	C551.288086,480.057953 550.562988,479.999847 549.717041,479.734558 
z"/>
<path fill="#7E7C8C" opacity="1.000000" stroke="none" 
	d="
M553.720581,480.702209 
	C554.247009,480.519958 554.885010,480.548523 555.764404,480.813965 
	C555.281311,481.004913 554.556763,480.958984 553.720581,480.702209 
z"/>
<path fill="#7E7C8C" opacity="1.000000" stroke="none" 
	d="
M558.709229,481.745972 
	C559.230408,481.556000 559.872070,481.569427 560.759888,481.817810 
	C560.280640,482.018341 559.555176,481.983826 558.709229,481.745972 
z"/>
<path fill="#7E7C8C" opacity="1.000000" stroke="none" 
	d="
M563.705750,482.835907 
	C564.208252,482.607269 564.851379,482.564148 565.746094,482.751404 
	C565.280579,482.995026 564.563416,483.008240 563.705750,482.835907 
z"/>
<path fill="#7E7C8C" opacity="1.000000" stroke="none" 
	d="
M610.176575,484.275848 
	C610.582153,483.850861 611.175842,483.561066 612.092163,483.407898 
	C611.731445,483.833374 611.048035,484.122223 610.176575,484.275848 
z"/>
<path fill="#7E7C8C" opacity="1.000000" stroke="none" 
	d="
M605.176819,485.183228 
	C605.607056,484.804138 606.217590,484.567047 607.134521,484.489960 
	C606.746338,484.875031 606.051758,485.100128 605.176819,485.183228 
z"/>
<path fill="#F2EDE6" opacity="1.000000" stroke="none" 
	d="
M476.616028,100.046501 
	C476.215912,100.290215 475.814850,100.287918 475.416412,100.254662 
	C475.402527,100.253502 475.414398,99.943909 475.414276,99.778069 
	C475.814697,99.783867 476.215088,99.789673 476.616028,100.046501 
z"/>
<path fill="#7E7C8C" opacity="1.000000" stroke="none" 
	d="
M100.577187,278.061676 
	C101.071419,278.389648 101.499466,279.008301 101.865585,279.916809 
	C101.372780,279.588593 100.941895,278.970459 100.577187,278.061676 
z"/>
<path fill="#737283" opacity="1.000000" stroke="none" 
	d="
M22.466028,141.479584 
	C22.305222,141.916824 21.909168,141.966400 21.719555,142.022125 
	C21.330286,140.858856 21.130634,139.639847 20.948435,137.942047 
	C21.519537,138.656265 22.073187,139.849304 22.466028,141.479584 
z"/>
<path fill="#858392" opacity="1.000000" stroke="none" 
	d="
M186.864655,281.171082 
	C187.261307,281.596039 187.500305,282.189758 187.581177,283.085663 
	C187.184387,282.705170 186.945709,282.022491 186.864655,281.171082 
z"/>
<path fill="#858392" opacity="1.000000" stroke="none" 
	d="
M213.346771,286.984406 
	C212.976364,286.606567 212.752991,285.952057 212.709290,285.153839 
	C213.090546,285.575989 213.292175,286.141876 213.346771,286.984406 
z"/>
<path fill="#858392" opacity="1.000000" stroke="none" 
	d="
M187.742279,286.168976 
	C188.157135,286.591309 188.418015,287.188293 188.526825,288.095764 
	C188.112610,287.718719 187.850449,287.031189 187.742279,286.168976 
z"/>
<path fill="#E7E7E7" opacity="1.000000" stroke="none" 
	d="
M365.526245,350.401031 
	C365.583313,349.939392 365.811707,349.658600 366.040131,349.377777 
	C366.215668,349.562378 366.391174,349.746979 366.566650,349.931580 
	C366.276978,350.148346 365.987305,350.365112 365.526245,350.401031 
z"/>
<path fill="#858392" opacity="1.000000" stroke="none" 
	d="
M492.124451,516.208557 
	C492.490570,515.962646 492.737579,516.113953 493.014526,516.563538 
	C492.756927,516.680359 492.410522,516.595032 492.124451,516.208557 
z"/>
<path fill="#F1F0F1" opacity="1.000000" stroke="none" 
	d="
M75.203430,226.920837 
	C71.190262,222.718628 66.591843,218.930481 63.271912,214.237823 
	C52.627541,199.192230 47.414051,181.880417 44.284199,163.984726 
	C42.579327,154.236694 41.077614,144.263824 41.235725,134.420502 
	C41.524246,116.457993 45.322144,99.404984 60.336937,87.182961 
	C67.421730,81.415962 75.463821,77.327919 84.502785,76.181580 
	C105.164131,73.561287 121.947571,80.671082 134.113052,97.722786 
	C142.391144,109.325722 141.821274,121.678909 135.900299,134.020599 
	C133.320114,139.398743 130.163284,144.510223 127.084450,149.632278 
	C126.289909,150.954102 124.800201,151.858047 122.998581,152.793060 
	C119.257652,150.255112 116.338264,147.560822 113.002808,145.560196 
	C102.788162,139.433380 96.424721,140.238525 87.836746,148.242676 
	C86.140839,149.823288 84.492828,151.559326 82.527756,152.727463 
	C76.769310,156.150574 74.267677,161.221039 74.574768,167.709854 
	C75.304008,183.119034 75.990784,198.534027 77.066635,213.920670 
	C77.387650,218.511749 78.527809,222.960709 75.203430,226.920837 
M91.030693,133.945541 
	C101.537270,143.242004 117.016037,139.523972 120.450180,126.452805 
	C121.617363,122.010216 120.610764,116.996513 120.525208,111.383820 
	C117.864815,100.302612 115.389381,98.158104 104.021332,97.278374 
	C101.871582,97.112007 99.529808,96.690788 97.578865,97.321716 
	C94.521385,98.310493 90.826515,99.374466 88.974632,101.673592 
	C82.614395,109.569893 81.033981,118.794662 84.764351,128.321838 
	C85.597458,130.449570 88.770638,131.661041 91.030693,133.945541 
z"/>
<path fill="#413F55" opacity="1.000000" stroke="none" 
	d="
M75.529526,227.094940 
	C78.527809,222.960709 77.387650,218.511749 77.066635,213.920670 
	C75.990784,198.534027 75.304008,183.119034 74.574768,167.709854 
	C74.267677,161.221039 76.769310,156.150574 82.527756,152.727463 
	C84.492828,151.559326 86.140839,149.823288 87.836746,148.242676 
	C96.424721,140.238525 102.788162,139.433380 113.002808,145.560196 
	C116.338264,147.560822 119.257652,150.255112 122.641090,152.825226 
	C124.422577,156.282990 126.279579,159.439285 127.336342,162.843964 
	C128.323517,166.024429 128.461212,169.468597 130.260635,173.665909 
	C131.628494,171.882935 132.996368,170.099960 135.007828,168.147858 
	C136.132401,167.927078 136.613358,167.875412 137.194946,168.133514 
	C137.971176,168.984146 138.646790,169.525024 139.235352,170.411636 
	C135.812057,174.970200 132.475830,179.183029 128.441116,184.277878 
	C133.988022,184.428879 138.107651,189.259506 143.140579,185.008194 
	C143.606644,190.307495 141.198181,194.109711 137.278793,197.484528 
	C132.546097,201.559662 130.202148,206.704819 131.327316,213.241104 
	C131.783676,215.892090 131.213531,218.709000 131.255737,221.448196 
	C131.269592,222.347244 131.566284,223.344986 132.032730,224.116852 
	C134.523331,228.238205 137.108673,232.302322 139.812836,236.932098 
	C139.980637,237.649750 139.996841,237.821533 140.013062,237.993332 
	C130.073410,241.327774 120.249481,245.080582 110.159538,247.871719 
	C101.179024,250.355927 91.903893,251.775116 82.419411,253.819794 
	C78.759880,250.247620 75.290939,246.576523 77.264404,240.248505 
	C77.454857,239.055557 77.489113,238.510101 77.523369,237.964630 
	C76.967461,234.399445 76.411545,230.834244 75.529526,227.094940 
z"/>
<path fill="#97666D" opacity="1.000000" stroke="none" 
	d="
M143.095932,185.004364 
	C138.107651,189.259506 133.988022,184.428879 128.441116,184.277878 
	C132.475830,179.183029 135.812057,174.970200 139.562836,170.324310 
	C140.646454,168.895599 141.723373,167.971848 141.913773,166.891815 
	C142.722824,162.302628 145.433670,160.177139 150.088623,160.262970 
	C150.947174,160.962021 151.659317,161.439987 152.371445,161.917953 
	C155.679047,165.814240 155.206024,168.906693 152.202499,172.045654 
	C149.307770,175.070908 147.304688,178.949326 144.389862,182.861053 
	C143.590714,183.875488 143.311554,184.481812 143.032410,185.088135 
	C143.032410,185.088135 143.051285,185.000534 143.095932,185.004364 
z"/>
<path fill="#97666D" opacity="1.000000" stroke="none" 
	d="
M143.920502,151.030914 
	C143.971619,150.042374 144.122253,149.047241 144.057297,148.066391 
	C143.702576,142.709137 145.763611,139.796783 150.079178,139.650299 
	C153.939697,139.519257 156.325439,142.268250 156.245789,147.548950 
	C152.879990,146.776489 149.878845,141.706848 147.046051,148.010101 
	C147.036530,148.033157 146.992020,148.053741 146.694519,148.175613 
	C145.962448,149.213181 145.527878,150.128891 145.104126,151.072174 
	C145.114929,151.099762 145.129059,151.157318 144.828003,151.115265 
	C144.324814,151.059113 144.122665,151.045013 143.920502,151.030914 
z"/>
<path fill="#737283" opacity="1.000000" stroke="none" 
	d="
M147.055588,147.987061 
	C149.878845,141.706848 152.879990,146.776489 156.133484,147.921722 
	C155.902405,150.596085 155.498352,153.239456 154.762756,155.787079 
	C154.227936,157.639420 153.254959,159.365265 152.424377,161.532730 
	C151.659317,161.439987 150.947174,160.962021 150.230988,159.936523 
	C151.833633,156.221039 153.440338,153.053116 155.060165,149.859299 
	C152.491043,147.435654 150.195694,145.825928 147.055588,147.987061 
z"/>
<path fill="#737283" opacity="1.000000" stroke="none" 
	d="
M137.094330,167.823761 
	C136.613358,167.875412 136.132401,167.927078 135.288925,167.965302 
	C137.064178,163.766251 139.201920,159.580658 141.861786,155.180511 
	C142.562744,154.952423 142.741577,154.938904 143.008423,154.996246 
	C143.096451,155.067108 143.274521,155.206299 143.203949,155.559372 
	C141.120377,159.882889 139.107361,163.853333 137.094330,167.823761 
z"/>
<path fill="#858392" opacity="1.000000" stroke="none" 
	d="
M197.213776,252.170380 
	C195.749268,252.108765 194.101624,251.800919 192.224106,251.211502 
	C193.673035,251.261337 195.351837,251.592743 197.213776,252.170380 
z"/>
<path fill="#858392" opacity="1.000000" stroke="none" 
	d="
M140.380646,238.056030 
	C139.996841,237.821533 139.980637,237.649750 139.995911,237.221039 
	C141.341446,237.308685 142.655487,237.653259 144.160553,238.274536 
	C143.150467,238.407074 141.949341,238.262909 140.380646,238.056030 
z"/>
<path fill="#737283" opacity="1.000000" stroke="none" 
	d="
M143.854218,151.126968 
	C144.122665,151.045013 144.324814,151.059113 144.825989,151.445175 
	C144.508179,152.946869 143.891342,154.076584 143.274521,155.206299 
	C143.274521,155.206299 143.096451,155.067108 143.000183,154.615997 
	C142.886734,153.911423 142.869553,153.657944 142.852356,153.404465 
	C142.852356,153.404465 142.770218,153.224213 143.107178,152.945923 
	C143.602692,152.250275 143.761230,151.832947 143.919769,151.415604 
	C143.919769,151.415604 143.787933,151.223022 143.854218,151.126968 
z"/>
<path fill="#858392" opacity="1.000000" stroke="none" 
	d="
M155.261688,241.232498 
	C154.727066,241.426834 154.072052,241.410217 153.202393,241.118210 
	C153.705612,240.902390 154.423447,240.961960 155.261688,241.232498 
z"/>
<path fill="#858392" opacity="1.000000" stroke="none" 
	d="
M159.294312,242.150360 
	C158.757034,242.357559 158.100510,242.349304 157.214722,242.079849 
	C157.715332,241.857407 158.445221,241.896164 159.294312,242.150360 
z"/>
<path fill="#858392" opacity="1.000000" stroke="none" 
	d="
M163.245483,243.317673 
	C162.701996,243.493011 162.056808,243.443817 161.200195,243.125153 
	C161.707108,242.934860 162.425446,243.013992 163.245483,243.317673 
z"/>
<path fill="#858392" opacity="1.000000" stroke="none" 
	d="
M170.208038,245.119659 
	C169.637192,245.301559 168.870178,245.252228 167.919250,244.950867 
	C168.494202,244.762024 169.253036,244.825226 170.208038,245.119659 
z"/>
<path fill="#858392" opacity="1.000000" stroke="none" 
	d="
M174.269257,246.221756 
	C173.727478,246.415543 173.067123,246.396255 172.196365,246.095016 
	C172.707550,245.878281 173.429108,245.943481 174.269257,246.221756 
z"/>
<path fill="#858392" opacity="1.000000" stroke="none" 
	d="
M178.282440,247.200867 
	C177.743332,247.397720 177.089432,247.376160 176.210785,247.090225 
	C176.713242,246.878052 177.440445,246.930252 178.282440,247.200867 
z"/>
<path fill="#858392" opacity="1.000000" stroke="none" 
	d="
M182.248230,248.293015 
	C181.711426,248.471329 181.065109,248.430313 180.203461,248.120911 
	C180.705002,247.926224 181.421860,247.999954 182.248230,248.293015 
z"/>
<path fill="#858392" opacity="1.000000" stroke="none" 
	d="
M189.210068,250.117584 
	C188.634171,250.293045 187.863388,250.236053 186.915771,249.919769 
	C187.497696,249.735367 188.256424,249.810242 189.210068,250.117584 
z"/>
<path fill="#858392" opacity="1.000000" stroke="none" 
	d="
M201.261566,253.235413 
	C200.729172,253.426682 200.077866,253.405243 199.207153,253.114975 
	C199.706055,252.904999 200.424362,252.963837 201.261566,253.235413 
z"/>
<path fill="#858392" opacity="1.000000" stroke="none" 
	d="
M210.261627,265.836670 
	C209.867844,265.450836 209.642929,264.897217 209.612534,264.180725 
	C210.014877,264.568207 210.222702,265.118561 210.261627,265.836670 
z"/>
<path fill="#858392" opacity="1.000000" stroke="none" 
	d="
M148.227356,239.351501 
	C147.692749,239.542725 147.055878,239.512238 146.207855,239.219345 
	C146.706192,239.014572 147.415634,239.072174 148.227356,239.351501 
z"/>
<path fill="#F1F0F1" opacity="1.000000" stroke="none" 
	d="
M77.263382,238.021957 
	C77.489113,238.510101 77.454857,239.055557 77.227783,239.805710 
	C77.024445,239.366684 77.013916,238.722992 77.263382,238.021957 
z"/>
<path fill="#413F55" opacity="1.000000" stroke="none" 
	d="
M143.372009,184.986145 
	C143.311554,184.481812 143.590714,183.875488 144.198334,183.133606 
	C144.255081,183.626740 143.983337,184.255447 143.372009,184.986145 
z"/>
<path fill="#97666D" opacity="1.000000" stroke="none" 
	d="
M142.592560,153.597656 
	C142.869553,153.657944 142.886734,153.911423 142.912170,154.545135 
	C142.741577,154.938904 142.562744,154.952423 142.114700,154.967133 
	C142.007904,154.575851 142.170334,154.183350 142.592560,153.597656 
z"/>
<path fill="#97666D" opacity="1.000000" stroke="none" 
	d="
M143.643646,151.615845 
	C143.761230,151.832947 143.602692,152.250275 143.172302,152.871292 
	C143.056137,152.655334 143.211838,152.235703 143.643646,151.615845 
z"/>
<path fill="#FEFBF7" opacity="1.000000" stroke="none" 
	d="
M382.114014,151.846695 
	C381.549561,151.187027 380.523254,150.648834 380.487488,150.708176 
	C378.423157,154.130417 376.036377,157.437927 374.546234,161.107910 
	C372.342377,166.535782 368.713135,167.812531 362.874023,166.015381 
	C362.874023,160.714767 362.874023,155.198502 362.874023,149.682236 
	C362.475464,149.576157 362.076874,149.470093 361.678314,149.364014 
	C359.307770,153.454346 356.590607,157.388397 354.657745,161.676041 
	C352.433990,166.609024 349.081940,167.633194 343.624969,165.991135 
	C346.627960,160.743759 349.469452,155.756271 352.333923,150.782043 
	C353.912994,148.040024 355.545868,145.328995 357.128143,142.588791 
	C361.485962,135.041885 361.480469,135.038712 371.083740,136.371811 
	C371.083740,140.631210 371.083740,145.001602 371.083740,149.371979 
	C371.494232,149.508301 371.904724,149.644608 372.315186,149.780930 
	C373.684265,147.464233 375.442902,145.289368 376.347839,142.803711 
	C378.848236,135.935562 383.715454,134.590378 390.513000,136.374252 
	C390.513000,146.109268 390.513000,156.001083 390.513000,166.296356 
	C387.870087,166.296356 385.321991,166.296356 382.114319,166.296356 
	C382.114319,161.462311 382.114319,156.854660 382.114014,151.846695 
z"/>
<path fill="#FEFAF4" opacity="1.000000" stroke="none" 
	d="
M455.684509,164.930115 
	C447.496338,165.872147 439.654846,166.639908 431.394653,167.448639 
	C431.394653,156.348953 431.394653,146.469406 431.394653,136.430786 
	C438.714050,136.430786 445.962463,136.042404 453.140869,136.583511 
	C457.136780,136.884735 459.806763,139.925171 461.119812,143.945465 
	C463.768127,152.053925 461.843658,160.179688 455.684509,164.930115 
M448.687225,142.393051 
	C446.540344,142.272903 444.352997,141.862061 442.263428,142.153259 
	C441.192169,142.302521 439.499420,143.663864 439.451935,144.550522 
	C439.180847,149.612335 439.320374,154.696152 439.320374,160.316452 
	C444.435638,159.534164 449.623993,162.031876 452.446289,156.477646 
	C454.640747,152.159012 453.007935,145.326782 448.687225,142.393051 
z"/>
<path fill="#FEF8F2" opacity="1.000000" stroke="none" 
	d="
M543.899048,160.863678 
	C543.908264,155.722168 543.804504,151.057938 543.954102,146.401840 
	C544.164490,139.853500 546.963562,136.436691 553.544861,135.895920 
	C559.783142,135.383316 566.096619,135.785690 572.737854,135.785690 
	C571.855347,140.226761 569.843262,142.248856 565.052002,142.145218 
	C552.215881,141.867599 552.493469,140.659500 552.579346,154.450195 
	C552.589539,156.085861 552.580750,157.721664 552.580750,160.136597 
	C556.481201,160.136597 559.908875,160.136597 563.336548,160.136597 
	C566.638428,160.136597 569.940369,160.136597 573.647888,160.136597 
	C572.549255,164.713760 570.727051,167.124680 565.810974,166.855011 
	C558.716980,166.465897 551.585876,166.755508 543.899109,166.755508 
	C543.899109,164.568634 543.899109,162.956619 543.899048,160.863678 
z"/>
<path fill="#FEFAF4" opacity="1.000000" stroke="none" 
	d="
M485.950256,166.363159 
	C483.313995,166.519348 481.036438,166.519348 477.847900,166.519348 
	C482.294067,158.784790 487.040955,151.930328 490.324310,144.434753 
	C493.858429,136.366714 499.258453,134.148071 507.643097,136.399948 
	C507.643097,146.118317 507.643097,156.128860 507.643097,166.115295 
	C499.284607,167.584152 499.184631,167.506683 499.183441,159.692169 
	C499.182770,155.412140 499.183319,151.132095 499.183319,145.278824 
	C494.359161,153.120880 490.334076,159.663925 485.950256,166.363159 
z"/>
<path fill="#FEF8F2" opacity="1.000000" stroke="none" 
	d="
M406.720215,135.583405 
	C412.906586,135.524872 418.658905,135.524872 424.663422,135.524872 
	C423.641663,140.424988 421.448792,142.285522 416.662018,142.162323 
	C404.117798,141.839523 404.295593,142.074600 404.074860,154.581421 
	C403.998444,158.910675 405.101471,160.566589 409.618927,160.225891 
	C414.733795,159.840164 419.900116,160.136917 425.449951,160.136917 
	C424.347931,164.475327 422.860260,167.155991 417.834167,166.860977 
	C410.741974,166.444656 403.607086,166.755554 396.107819,166.755554 
	C396.107819,158.651474 395.653961,151.030197 396.259064,143.493942 
	C396.700897,137.990829 401.171082,136.019226 406.720215,135.583405 
z"/>
<path fill="#FEFBF7" opacity="1.000000" stroke="none" 
	d="
M522.910339,161.802887 
	C522.910400,155.193085 522.910400,149.060730 522.910400,142.378784 
	C519.542664,142.197495 516.478638,142.032562 513.149841,141.853363 
	C513.606018,137.583252 515.404419,135.600494 519.831726,135.762833 
	C527.097839,136.029221 534.380798,135.834976 541.990173,135.834976 
	C541.160339,140.264908 539.486633,142.762115 534.983948,142.096390 
	C531.768677,141.621002 531.078857,143.404907 531.137512,146.247818 
	C531.273743,152.855133 531.180847,159.467194 531.180847,165.957764 
	C523.618835,167.511887 523.258667,167.335724 522.910339,161.802887 
z"/>
<path fill="#FEF8F2" opacity="1.000000" stroke="none" 
	d="
M475.784515,142.140503 
	C475.784332,148.279175 475.785461,153.936935 475.784180,159.594711 
	C475.782379,167.502991 475.695129,167.572205 467.268005,166.116425 
	C467.268005,156.284317 467.268005,146.397324 467.268005,136.164459 
	C470.001801,136.164459 472.555298,136.164459 475.784698,136.164459 
	C475.784698,138.106506 475.784698,139.883041 475.784515,142.140503 
z"/>
<path fill="#FEF8F2" opacity="1.000000" stroke="none" 
	d="
M593.427979,145.384338 
	C594.376648,143.784561 595.342529,142.574646 595.863037,141.196533 
	C597.824341,136.003967 601.486206,134.711090 607.251038,136.480896 
	C605.155640,140.139130 603.380188,143.838135 601.042969,147.139526 
	C598.974915,150.060699 599.232483,152.420517 601.090088,155.225998 
	C603.277893,158.530258 605.133179,162.054672 607.388672,165.922760 
	C602.854858,167.055893 599.055420,168.024185 596.846924,162.768982 
	C595.953674,160.643478 594.765747,158.555542 593.321228,156.765823 
	C590.283325,153.001968 590.101318,149.410736 593.427979,145.384338 
z"/>
<path fill="#FCFCFD" opacity="1.000000" stroke="none" 
	d="
M577.748169,142.086929 
	C577.747925,139.958572 577.747925,138.317780 577.747925,136.266785 
	C580.539551,136.266785 582.934082,136.266785 585.741699,136.266785 
	C585.741699,146.085205 585.741699,155.984726 585.741699,166.279129 
	C583.414246,166.279129 581.019653,166.279129 577.748352,166.279129 
	C577.748352,158.388535 577.748352,150.481522 577.748169,142.086929 
z"/>
<path fill="#F2EDE6" opacity="1.000000" stroke="none" 
	d="
M558.230957,148.734909 
	C561.906128,148.485046 565.229980,148.405258 568.554260,148.373413 
	C569.192505,148.367310 569.832642,148.549561 570.476196,148.645569 
	C569.546082,154.356415 566.436707,155.299179 555.275513,153.112900 
	C556.209656,151.609512 557.044739,150.265579 558.230957,148.734909 
z"/>
<path fill="#F2EDE6" opacity="1.000000" stroke="none" 
	d="
M408.108093,152.305359 
	C409.028809,149.092331 410.912872,148.086121 413.833160,148.303879 
	C416.750549,148.521408 419.696808,148.351608 422.752563,148.351608 
	C421.464661,154.114182 415.178589,155.740723 408.108093,152.305359 
z"/>
<path fill="#F1F1F1" opacity="1.000000" stroke="none" 
	d="
M183.026764,277.642609 
	C170.276825,278.781006 157.511902,279.560242 144.336426,280.427734 
	C141.550888,276.848175 139.175949,273.180328 136.791992,269.498566 
	C149.868423,271.027008 162.358429,272.343750 174.795151,274.049042 
	C177.628586,274.437592 180.277786,276.169708 183.026764,277.642609 
z"/>
<path fill="#FEFEFF" opacity="1.000000" stroke="none" 
	d="
M680.653564,251.960190 
	C694.645691,265.471375 705.967041,280.485657 713.624207,298.175751 
	C743.798584,367.886719 707.665955,450.185333 635.898254,475.012573 
	C633.870850,475.713928 631.810669,476.320160 629.338684,476.634338 
	C628.477722,475.811584 628.043762,475.325287 627.609802,474.838989 
	C629.251099,465.989960 630.892334,457.140961 632.800903,447.635925 
	C638.802063,441.319244 639.437073,435.117981 635.127625,428.326263 
	C633.684082,426.051270 633.082092,423.760559 636.320251,421.990540 
	C641.300781,416.987061 646.476074,412.381134 650.402466,406.883301 
	C659.467041,394.191101 665.215515,379.765167 669.385010,364.866760 
	C673.334656,350.754028 677.538147,336.600464 675.090332,321.466339 
	C673.184631,309.683746 668.407593,299.232635 659.713257,291.561646 
	C644.892395,278.485260 627.381897,273.715668 608.378479,281.168854 
	C585.464417,290.155792 572.254456,308.710754 583.400879,335.302765 
	C588.305420,347.003479 592.336670,359.291138 591.074341,372.490601 
	C590.932617,373.971405 591.781372,375.546906 592.083496,377.411194 
	C590.148865,380.340729 588.301697,382.937531 586.125610,385.302826 
	C584.090820,382.656250 582.384827,380.241211 580.640747,377.477295 
	C578.872253,373.301727 577.141846,369.475006 575.259277,365.385468 
	C574.050842,364.961884 572.994568,364.801117 571.546509,364.687256 
	C563.557861,366.937927 563.014954,367.783569 564.609009,374.803406 
	C563.883301,377.020538 562.798767,379.028809 563.140869,380.754150 
	C564.770325,388.970642 571.338928,393.378387 577.378418,398.064301 
	C579.758667,399.911072 582.487610,401.308411 584.996948,403.315155 
	C583.069580,413.788879 580.315796,423.756348 581.935486,434.188416 
	C582.486145,437.735077 582.651489,441.341614 582.992920,444.920776 
	C573.269775,445.192505 563.546570,445.464203 553.145386,445.603882 
	C550.981567,445.700836 549.495728,445.929840 548.009888,446.158844 
	C545.929993,446.372284 543.850159,446.585724 541.212646,446.721130 
	C540.106262,446.811523 539.557617,446.980011 539.008911,447.148468 
	C530.644470,448.537750 522.000000,449.117371 515.081421,455.596252 
	C513.273621,455.217987 511.432800,454.921844 510.152008,453.913971 
	C450.927124,407.310089 442.709839,320.407013 492.332947,263.692841 
	C519.379944,232.780869 553.898682,217.686508 594.790161,218.203812 
	C626.186951,218.601013 654.016418,229.537170 677.986511,249.983505 
	C678.744934,250.630417 679.554626,251.217117 680.653564,251.960190 
z"/>
<path fill="#6B64F5" opacity="1.000000" stroke="none" 
	d="
M586.454468,385.534363 
	C588.301697,382.937531 590.148865,380.340729 592.368530,377.241150 
	C595.774963,371.514618 599.616211,366.577667 601.604919,360.982330 
	C603.414673,355.890533 605.338257,351.901642 611.205139,350.592651 
	C616.940857,348.302185 621.644165,344.242981 627.969360,344.592163 
	C628.924561,347.265381 629.652771,349.639008 630.809570,351.781189 
	C631.828857,353.668793 633.984314,355.120880 634.508789,357.069244 
	C638.386963,371.476959 638.750061,386.206512 637.796997,400.991882 
	C637.345276,407.999542 636.574158,414.986572 635.947754,421.982971 
	C633.082092,423.760559 633.684082,426.051270 635.127625,428.326263 
	C639.437073,435.117981 638.802063,441.319244 632.867798,447.152832 
	C625.785522,449.060699 618.985657,451.365509 611.998779,452.371399 
	C604.923889,453.389923 598.773682,450.142273 593.028809,445.021729 
	C591.482849,441.615875 589.505920,438.851654 589.269470,435.945740 
	C588.419800,425.507660 588.158325,415.021667 588.021240,404.767059 
	C589.878540,405.817505 591.389038,406.654663 592.832581,407.454712 
	C600.029785,397.361176 599.890869,397.125641 590.289490,390.979065 
	C588.558655,389.871033 587.710266,387.384460 586.454468,385.534363 
z"/>
<path fill="#F1F1F1" opacity="1.000000" stroke="none" 
	d="
M587.674561,404.553802 
	C588.158325,415.021667 588.419800,425.507660 589.269470,435.945740 
	C589.505920,438.851654 591.482849,441.615875 592.807373,444.773071 
	C589.926025,445.125488 586.898499,445.149902 583.431946,445.047546 
	C582.651489,441.341614 582.486145,437.735077 581.935486,434.188416 
	C580.315796,423.756348 583.069580,413.788879 585.241821,403.426208 
	C586.256470,403.606293 586.965515,404.080048 587.674561,404.553802 
z"/>
<path fill="#858392" opacity="1.000000" stroke="none" 
	d="
M548.279907,446.364868 
	C549.495728,445.929840 550.981567,445.700836 552.735840,445.661316 
	C551.519531,446.090790 550.034729,446.330841 548.279907,446.364868 
z"/>
<path fill="#FCFCFD" opacity="1.000000" stroke="none" 
	d="
M627.334167,474.968872 
	C628.043762,475.325287 628.477722,475.811584 628.953369,476.638306 
	C628.506653,477.249817 628.018188,477.520966 627.264954,477.899658 
	C626.573914,477.862396 626.147583,477.717621 625.596802,477.256897 
	C626.000977,476.326874 626.529724,475.712830 627.334167,474.968872 
z"/>
<path fill="#858392" opacity="1.000000" stroke="none" 
	d="
M539.178345,447.322418 
	C539.557617,446.980011 540.106262,446.811523 540.828491,446.790192 
	C540.450562,447.123657 539.899170,447.310028 539.178345,447.322418 
z"/>
<path fill="#343244" opacity="1.000000" stroke="none" 
	d="
M90.866455,133.294357 
	C88.770638,131.661041 85.597458,130.449570 84.764351,128.321838 
	C81.033981,118.794662 82.614395,109.569893 88.974632,101.673592 
	C90.826515,99.374466 94.521385,98.310493 97.578865,97.321716 
	C99.529808,96.690788 101.871582,97.112007 104.021332,97.278374 
	C115.389381,98.158104 117.864815,100.302612 120.241364,111.590202 
	C118.166206,110.491615 116.764618,109.315247 114.664566,111.961632 
	C113.450806,113.491142 110.390640,114.901855 108.701576,114.430542 
	C105.062843,113.415192 103.269440,115.548195 100.950729,117.212868 
	C96.099419,120.695801 93.960335,125.361305 94.959076,131.084366 
	C93.332283,131.962830 92.099373,132.628586 90.866455,133.294357 
z"/>
<path fill="#97666D" opacity="1.000000" stroke="none" 
	d="
M90.948578,133.619949 
	C92.099373,132.628586 93.332283,131.962830 94.959076,131.084366 
	C93.960335,125.361305 96.099419,120.695801 100.950729,117.212868 
	C103.269440,115.548195 105.062843,113.415192 108.701576,114.430542 
	C110.390640,114.901855 113.450806,113.491142 114.664566,111.961632 
	C116.764618,109.315247 118.166206,110.491615 120.277496,112.020187 
	C120.610764,116.996513 121.617363,122.010216 120.450180,126.452805 
	C117.016037,139.523972 101.537270,143.242004 90.948578,133.619949 
z"/>
<path fill="#6B64F5" opacity="1.000000" stroke="none" 
	d="
M143.203949,155.559372 
	C143.891342,154.076584 144.508179,152.946869 145.127045,151.487244 
	C145.129059,151.157318 145.114929,151.099762 145.395111,150.948883 
	C146.114197,149.883255 146.553116,148.968506 146.992020,148.053741 
	C146.992020,148.053741 147.036530,148.033157 147.046051,148.010101 
	C150.195694,145.825928 152.491043,147.435654 155.060165,149.859299 
	C153.440338,153.053116 151.833633,156.221039 150.084564,159.715424 
	C145.433670,160.177139 142.722824,162.302628 141.913773,166.891815 
	C141.723373,167.971848 140.646454,168.895599 139.649902,169.978577 
	C138.646790,169.525024 137.971176,168.984146 137.194946,168.133514 
	C139.107361,163.853333 141.120377,159.882889 143.203949,155.559372 
z"/>
<path fill="#737283" opacity="1.000000" stroke="none" 
	d="
M146.694519,148.175613 
	C146.553116,148.968506 146.114197,149.883255 145.384308,150.921295 
	C145.527878,150.128891 145.962448,149.213181 146.694519,148.175613 
z"/>
<path fill="#E9973D" opacity="1.000000" stroke="none" 
	d="
M449.085083,142.525986 
	C453.007935,145.326782 454.640747,152.159012 452.446289,156.477646 
	C449.623993,162.031876 444.435638,159.534164 439.320374,160.316452 
	C439.320374,154.696152 439.180847,149.612335 439.451935,144.550522 
	C439.499420,143.663864 441.192169,142.302521 442.263428,142.153259 
	C444.352997,141.862061 446.540344,142.272903 449.085083,142.525986 
z"/>
<path fill="#F1F1F1" opacity="1.000000" stroke="none" 
	d="
M636.320251,421.990540 
	C636.574158,414.986572 637.345276,407.999542 637.796997,400.991882 
	C638.750061,386.206512 638.386963,371.476959 634.508789,357.069244 
	C633.984314,355.120880 631.828857,353.668793 630.809570,351.781189 
	C629.652771,349.639008 628.924561,347.265381 628.331299,344.395935 
	C630.756287,343.324432 632.881348,342.373352 634.959595,342.466705 
	C640.421814,342.712128 642.415405,339.267456 644.007996,334.991638 
	C646.898804,327.230225 641.689697,309.484253 634.803711,304.859253 
	C632.668030,303.424805 629.572876,303.355225 627.552979,301.822601 
	C618.006592,294.579071 609.314270,298.412018 600.941223,303.770264 
	C595.888794,307.003479 593.541504,312.173218 593.513794,318.245270 
	C593.500366,321.195312 594.277466,323.523102 597.948975,323.651276 
	C598.175720,333.932739 602.424622,340.529327 610.277527,343.432861 
	C610.539429,346.054901 610.693909,348.295776 610.848450,350.536682 
	C605.338257,351.901642 603.414673,355.890533 601.604919,360.982330 
	C599.616211,366.577667 595.774963,371.514618 592.455933,376.908447 
	C591.781372,375.546906 590.932617,373.971405 591.074341,372.490601 
	C592.336670,359.291138 588.305420,347.003479 583.400879,335.302765 
	C572.254456,308.710754 585.464417,290.155792 608.378479,281.168854 
	C627.381897,273.715668 644.892395,278.485260 659.713257,291.561646 
	C668.407593,299.232635 673.184631,309.683746 675.090332,321.466339 
	C677.538147,336.600464 673.334656,350.754028 669.385010,364.866760 
	C665.215515,379.765167 659.467041,394.191101 650.402466,406.883301 
	C646.476074,412.381134 641.300781,416.987061 636.320251,421.990540 
z"/>
<path fill="#EFB8BA" opacity="1.000000" stroke="none" 
	d="
M588.021301,404.767059 
	C586.965515,404.080048 586.256470,403.606293 585.302612,403.021454 
	C582.487610,401.308411 579.758667,399.911072 577.378418,398.064301 
	C571.338928,393.378387 564.770325,388.970642 563.140869,380.754150 
	C562.798767,379.028809 563.883301,377.020538 564.808716,375.045776 
	C566.353333,376.112244 566.077759,380.460571 569.637207,376.435669 
	C572.700500,376.374725 575.346924,376.451172 578.161865,376.739563 
	C579.113220,377.243042 579.895996,377.534607 580.678833,377.826172 
	C582.384827,380.241211 584.090820,382.656250 586.125610,385.302826 
	C587.710266,387.384460 588.558655,389.871033 590.289490,390.979065 
	C599.890869,397.125641 600.029785,397.361176 592.832581,407.454712 
	C591.389038,406.654663 589.878540,405.817505 588.021301,404.767059 
z"/>
<path fill="#737283" opacity="1.000000" stroke="none" 
	d="
M569.220337,376.573059 
	C566.077759,380.460571 566.353333,376.112244 565.107300,374.706543 
	C563.014954,367.783569 563.557861,366.937927 571.581238,364.986267 
	C572.037964,365.436340 572.068237,365.634338 571.776184,366.030060 
	C565.754211,369.123230 565.754211,369.123230 569.220337,376.573059 
z"/>
<path fill="#858392" opacity="1.000000" stroke="none" 
	d="
M580.640747,377.477295 
	C579.895996,377.534607 579.113220,377.243042 578.187988,376.316101 
	C577.031006,372.453369 576.016357,369.226074 575.103638,365.910522 
	C575.205505,365.822235 575.411499,365.648285 575.411499,365.648285 
	C577.141846,369.475006 578.872253,373.301727 580.640747,377.477295 
z"/>
<path fill="#858392" opacity="1.000000" stroke="none" 
	d="
M572.098511,365.832367 
	C572.068237,365.634338 572.037964,365.436340 571.973022,364.939331 
	C572.994568,364.801117 574.050842,364.961884 575.259277,365.385468 
	C575.411499,365.648285 575.205505,365.822235 574.738892,365.902893 
	C573.547668,365.933197 572.823120,365.882782 572.098511,365.832367 
z"/>
<path fill="#343244" opacity="1.000000" stroke="none" 
	d="
M611.205139,350.592651 
	C610.693909,348.295776 610.539429,346.054901 610.465332,343.116394 
	C611.689270,339.155548 612.565186,335.764069 614.051208,332.665100 
	C615.541992,329.556000 615.072754,327.109650 612.494934,325.180115 
	C608.065857,321.864899 603.338257,319.837921 597.951477,323.228394 
	C594.277466,323.523102 593.500366,321.195312 593.513794,318.245270 
	C593.541504,312.173218 595.888794,307.003479 600.941223,303.770264 
	C609.314270,298.412018 618.006592,294.579071 627.552979,301.822601 
	C629.572876,303.355225 632.668030,303.424805 634.803711,304.859253 
	C641.689697,309.484253 646.898804,327.230225 644.007996,334.991638 
	C642.415405,339.267456 640.421814,342.712128 634.959595,342.466705 
	C632.881348,342.373352 630.756287,343.324432 628.290649,343.995728 
	C621.644165,344.242981 616.940857,348.302185 611.205139,350.592651 
z"/>
<path fill="#EFB8BA" opacity="1.000000" stroke="none" 
	d="
M597.948975,323.651276 
	C603.338257,319.837921 608.065857,321.864899 612.494934,325.180115 
	C615.072754,327.109650 615.541992,329.556000 614.051208,332.665100 
	C612.565186,335.764069 611.689270,339.155548 610.357910,342.735260 
	C602.424622,340.529327 598.175720,333.932739 597.948975,323.651276 
z"/>
<path fill="#6B64F5" opacity="1.000000" stroke="none" 
	d="
M571.776184,366.030060 
	C572.823120,365.882782 573.547668,365.933197 574.636963,365.991180 
	C576.016357,369.226074 577.031006,372.453369 578.019531,376.104156 
	C575.346924,376.451172 572.700500,376.374725 569.637207,376.435669 
	C565.754211,369.123230 565.754211,369.123230 571.776184,366.030060 
z"/>
</svg>