<?xml version="1.0" encoding="utf-8"?>
<!-- Generator: Adobe Illustrator 24.1.2, SVG Export Plug-In . SVG Version: 6.00 Build 0)  -->
<svg version="1.1" id="Layer_1" xmlns="http://www.w3.org/2000/svg" xmlns:xlink="http://www.w3.org/1999/xlink" x="0px" y="0px"
	 viewBox="0 0 711 670" style="enable-background:new 0 0 711 670;" xml:space="preserve">
<style type="text/css">
	.st0{fill:#E6E6E6;}
	.st1{opacity:0.1;enable-background:new    ;}
	.st2{fill:#3F3D56;}
	.st3{fill:#D0CDE1;}
	.st4{fill:#6C63FF;}
	.st5{fill:#F2F2F2;}
	.st6{fill:#2F2E41;}
	.st7{fill:#FFB8B8;}
	.st8{fill:#A31D23;}
	.st9{fill:#FEFDFD;}
</style>
<g id="Group_22" transform="translate(0 0.029)">
	<path id="Path_260" class="st0" d="M516,380.2v185l30.9,50.4l2.4,3.8h122.1l2.5-239.3H516z"/>
	<path id="Path_261" class="st1" d="M516,380.2v185l30.9,50.4l1.9-235.4H516z"/>
	<path id="Path_262" class="st0" d="M221.3,375.3v185l-30.9,50.4l-2.4,3.8H65.9l-2.5-239.3H221.3z"/>
	<path id="Path_263" class="st1" d="M221.3,375.3v185l-30.9,50.4l-1.9-235.4L221.3,375.3z"/>
	<path id="Path_264" class="st0" d="M710.9,371.6v11.1H47.4v-16l61.7-32.1h547.6L710.9,371.6z"/>
	<path id="Path_265" class="st1" d="M710.9,371.6v11.1H47.4v-16L710.9,371.6z"/>
	<path id="Path_266" class="st2" d="M142.4,427.1h-29.6l-12.3-8.6h55.5L142.4,427.1z"/>
	<path id="Path_267" class="st2" d="M142.4,462.8h-29.6l-12.3-8.6h55.5L142.4,462.8z"/>
	<path id="Path_268" class="st2" d="M142.4,513.4h-29.6l-12.3-8.6h55.5L142.4,513.4z"/>
	<path id="Path_269" class="st2" d="M142.4,564h-29.6l-12.3-8.6h55.5L142.4,564z"/>
	<path id="Path_270" class="st2" d="M595,432h29.6l12.3-8.6h-55.5L595,432z"/>
	<path id="Path_271" class="st2" d="M595,467.8h29.6l12.3-8.6h-55.5L595,467.8z"/>
	<path id="Path_272" class="st2" d="M595,518.3h29.6l12.3-8.6h-55.5L595,518.3z"/>
	<path id="Path_273" class="st2" d="M595,568.9h29.6l12.3-8.6h-55.5L595,568.9z"/>
	<g>
		<path class="st2" d="M307,177.4h-1.2v-32.7c0-10.5-8.5-18.9-18.9-18.9h0h-69.3c-10.5,0-18.9,8.5-18.9,18.9c0,0,0,0,0,0v179.5
			c0,10.5,8.5,18.9,18.9,18.9c0,0,0,0,0,0h69.3c10.5,0,18.9-8.5,18.9-18.9c0,0,0,0,0,0V200.7h1.2V177.4z"/>
		<path class="st3" d="M301.8,145.8v179.2c0,7.8-6.3,14.1-14.1,14.1H218c-7.8,0-14.1-6.3-14.1-14.1c0,0,0,0,0,0V145.8
			c0-7.8,6.3-14.1,14.1-14.1h8.4c-1.4,3.4,0.3,7.4,3.7,8.8c0.8,0.3,1.7,0.5,2.5,0.5h39.7c3.7,0,6.7-3,6.7-6.7c0-0.9-0.2-1.7-0.5-2.6
			h9C295.4,131.7,301.8,138,301.8,145.8z"/>
		<rect x="207.6" y="223.4" class="st4" width="81" height="21.8"/>
		<path class="st2" d="M291.8,241.4h-78.4c-1.1,0-1.9-0.9-1.9-1.9v-19.3c0-1.1,0.9-1.9,1.9-1.9h78.4c1.1,0,1.9,0.9,1.9,1.9v19.3
			C293.7,240.6,292.9,241.4,291.8,241.4z M213.4,219.6c-0.4,0-0.6,0.3-0.6,0.6v19.3c0,0.4,0.3,0.6,0.6,0.6h78.4
			c0.4,0,0.6-0.3,0.6-0.6v-19.3c0-0.4-0.3-0.6-0.6-0.6H213.4z"/>
		<rect x="216.6" y="235.7" class="st2" width="10.3" height="1.3"/>
		<rect x="230.8" y="235.7" class="st2" width="10.3" height="1.3"/>
		<rect x="244.9" y="235.7" class="st2" width="10.3" height="1.3"/>
		<rect x="259" y="235.7" class="st2" width="10.3" height="1.3"/>
		<rect x="273.2" y="235.7" class="st2" width="10.3" height="1.3"/>
		<path class="st1" d="M301.8,306.8v18.2c0,7.8-6.3,14.1-14.1,14.1H218c-7.8,0-14.1-6.3-14.1-14.1c0,0,0,0,0,0v-83.8L301.8,306.8z"
			/>
		<circle class="st2" cx="241" cy="169.5" r="7.1"/>
	</g>
	<path id="Path_274" class="st2" d="M615.1,120.7H365.9c-5.2,0-9.4,4.2-9.4,9.4c0,0,0,0,0,0v167.9c0,5.2,4.2,9.4,9.4,9.4
		c0,0,0,0,0,0h94.6L457,330c0,0-20.3,10.8-6,11.1s81.3,0,81.3,0s13,0-7.6-11.4l-3.3-22.3h93.8c5.2,0,9.4-4.2,9.4-9.4c0,0,0,0,0,0
		V130.1C624.6,124.9,620.3,120.7,615.1,120.7C615.1,120.7,615.1,120.7,615.1,120.7L615.1,120.7z"/>
	<rect id="Rectangle_37" x="365.5" y="130.6" class="st5" width="250" height="139.9"/>
	<circle id="Ellipse_48" class="st5" cx="490.5" cy="126.2" r="1.6"/>
	<circle id="Ellipse_49" class="st5" cx="490.5" cy="294.5" r="6"/>
	<path id="Path_275" class="st2" d="M481.2,358.1v3.2H310.9v-2.5l0.2-0.6l4.2-11.4h162.3L481.2,358.1z"/>
	<path id="Path_276" class="st2" d="M546.7,355.1c-0.3,1.3-1.5,2.7-4.1,4c-9.5,4.7-28.8-1.3-28.8-1.3s-14.9-2.5-14.9-9.2
		c0.4-0.3,0.9-0.5,1.3-0.8c4-2.1,17.2-7.3,40.7,0.2c1.7,0.5,3.3,1.6,4.5,2.9C546.4,352.1,546.9,353.6,546.7,355.1L546.7,355.1z"/>
	<path id="Path_277" class="st1" d="M546.7,355.1c-11.6,4.5-22,4.8-32.6-2.6c-4-3-8.9-4.6-13.9-4.6c4-2.1,17.2-7.3,40.7,0.2
		c1.7,0.5,3.3,1.6,4.5,2.9C546.4,352.1,546.9,353.6,546.7,355.1L546.7,355.1z"/>
	<ellipse id="Ellipse_50" class="st5" cx="532.1" cy="351.2" rx="4.1" ry="1.3"/>
	<path id="Path_278" class="st1" d="M481.2,358.1v3.2H310.9v-2.5l0.2-0.6H481.2z"/>
	<path id="Path_279" class="st6" d="M94.4,0.2c-1.7-0.1-3.5,0.2-5,1.1c-1.5,1-2.4,2.8-3.4,4.4c-3.6,6.4-8.5,11.9-14.4,16.3
		c-4.3,3.1-9.7,7.1-9,12.9c0.4,1.9,1.1,3.7,2.1,5.4c4,8,14.8,14.2,13.7,23.3c3.9-6.6-1.3-9.8,2.6-16.4c1.9-3.1,5.1-6.7,8-4.7
		c0.9,0.7,1.6,1.8,2.6,2.4c2.4,1.4,4.9-1.3,6.9-3.1c7.2-6.4,17.4-4.8,26.3-2.7c4.2,0.9,8.8,2.2,11.3,6.2c3.3,5.3-3.1,11-4.7,17
		c-0.5,1.7,0.6,3.5,2.3,4c0.4,0.1,0.8,0.1,1.2,0.1c2.7-0.3,5.9-0.5,6-1.7c3.4,0.1,7.5-0.3,8.9-3.8c0.4-1.4,0.7-2.8,0.7-4.3
		c0.5-5.9,3-11.3,4.7-16.9s2.4-12.2-0.4-17.2c-1-1.7-2.2-3.2-3.7-4.5C135.3,2.7,114.4,0.2,94.4,0.2z"/>
	<path id="Path_280" class="st7" d="M81.9,75.1c0,0,3.5,28.8-9.2,31.1s11.5,41.4,11.5,41.4l57.6,6.9l-13.8-46c0,0-9.2-3.5-3.5-26.5
		S81.9,75.1,81.9,75.1z"/>
	<path id="Path_281" class="st7" d="M46.7,569.5l4.6,63.3h24.2l-6.9-63.3H46.7z"/>
	<path id="Path_282" class="st7" d="M224,449.8l3.5,53l26.5-11.5l-10.4-43.7L224,449.8z"/>
	<path id="Path_283" class="st6" d="M29.5,327.8c0,0,1.2,66.8,8.1,88.6c6.9,21.9,5.8,23,4.6,26.5s-2.3,1.2-2.3,6.9
		s-2.3,96.7,0,104.8s-6.9,21.9,0,23s39.1,0,40.3-6.9s-9.2-9.2-4.6-13.8s11.5-99,11.5-99l16.1-65.6l29.9-34.5h63.3l19.6,76
		c0,0-8.1,21.9-2.3,21.9s40.3,6.9,40.3-18.4S242.4,337,240.1,334.7s1.2-10.4-2.3-13.8s-43.7-27.6-58.7-32.2s-36-10.1-36-10.1
		L29.5,327.8z"/>
	<path id="Path_284" class="st6" d="M254,482c0,0-17.3-5.8-25.3,11.5s-4.6,21.9-4.6,21.9s26.5,9.2,31.1,4.6c2-2,8.4-2.7,14.9-2.8
		c10-0.2,12.6-14.3,3.2-17.6c-0.3-0.1-0.6-0.2-0.9-0.3C263.2,497,254,482,254,482z"/>
	<circle id="Ellipse_51" class="st7" cx="107.8" cy="59.6" r="34.5"/>
	<path id="Path_285" class="st4" d="M62.9,120.6c0,0,56.4,11.5,70.2-6.9s19.6,51.8,19.6,51.8l6.9,73.7l-10.4,40.3
		c0,0-54.1,43.7-71.4,47.2s-43.7,5.8-43.7,5.8s8.1-127.8,8.1-130.1S62.9,120.6,62.9,120.6z"/>
	<path id="Path_286" class="st6" d="M80,99c0,0-12.5-7.2-16-0.3c-3.5,6.9-35.7,24.2-39.1,24.2s6.9,95.5,2.3,107.1
		S0.7,325.5,13.4,332.4c12.7,6.9,3.5-6.9,16.1,10.4s74.8,17.3,78.3,10.4S80.1,294.4,85.9,246s15-115.1,6.9-124.3S80,99,80,99z"/>
	<path id="Path_287" class="st6" d="M121.6,106.8l1.6-5.5c0,0,47.9,15.9,50.2,26.2s1.2,82.9-6.9,88.6s-19.6,15-11.5,28.8
		c8.1,13.8,17.3,28.8,24.2,29.9s19.6,9.2,16.1,17.3s-44.9-6.9-44.9-6.9s-27.6-20.7-26.5-53S121.6,106.8,121.6,106.8z"/>
	<path id="Path_288" class="st7" d="M161.9,242.6l-27.6,51.8c0,0-40.3,41.4-17.3,46s35.7-38,35.7-38l29.9-42.6L161.9,242.6z"/>
	<path id="Path_289" class="st6" d="M96.1,9.2c-1.4-0.1-2.8,0.2-4,0.8c-1.1,0.8-2.1,1.9-2.7,3.1c-3.1,4.6-7.1,8.5-11.8,11.5
		c-3.5,2.2-7.9,5-7.3,9.1c0.3,1.4,0.9,2.7,1.7,3.8c3.2,5.7,4.5,12.3,3.7,18.8l9.6-14c1.5-2.2,4.2-4.7,6.5-3.3
		c0.8,0.5,1.3,1.3,2.1,1.7c1.9,1,4-0.9,5.6-2.2c5.8-4.6,14.1-3.4,21.4-1.9c3.4,0.7,7.2,1.5,9.2,4.4c3.4,4.7-0.1,11.6,1.8,17
		c1.1-0.8,1.9-2,2.1-3.3c2.7,0.1,6.1-0.2,7.3-2.7c0.4-1,0.5-2,0.6-3c0.4-4.2,2.5-8,3.8-11.9s1.9-8.6-0.3-12.1
		c-0.8-1.2-1.8-2.3-3-3.1C129.3,11,112.3,9.2,96.1,9.2z"/>
	<path id="Path_290" class="st6" d="M161.9,122.9l10.7,2.8c0,0,25,63.9,19.2,107.7s-9.2,34.5-9.2,34.5s-9.2-20.7-29.9-16.1
		L161.9,122.9z"/>
	<path id="Path_291" class="st6" d="M48.3,624.5c-2.8,3.8-2.2,9.2-4.7,13.2c-2.1,3.5-6.1,5.3-8.8,8.3c-0.9,1-1.6,2.1-2.3,3.3
		c-2.5,4.1-4.5,9.5-2,13.6c2,3.3,6.1,4.7,9.9,5.6c4.8,1.1,9.7,2,14.6,1.2s9.5-3.8,11.3-8.4c0.3-1.2,0.7-2.3,1.2-3.4
		c2.6-5.2,10.8-5.2,13.5-10.3c1.9-3.6,0.2-7.9-1.6-11.6l-5.3-11.2c-1.7-3.7-8.8-1.6-12.5-2.5C56.8,621,51.8,619.7,48.3,624.5z"/>
	<path id="Path_292" class="st7" d="M9.9,265.6l48.3,74.8c0,0,29.9,38,39.1,20.7s-32.2-46-32.2-46l-31.1-57.6L9.9,265.6z"/>
	<path id="Path_293" class="st6" d="M34.1,125.2l-9.2-2.3c0,0-18.4,5.8-23,29.9s-1.2,120.9,4.6,122c5.8,1.2,28.4-16.8,32.1-13
		s-7.9-15.8-4.4-26.1S34.1,125.2,34.1,125.2z"/>
</g>
<g>
	<g id="layer101">
		<path class="st8" d="M489.1,264.1c-0.3-0.3-0.5-0.6-0.5-0.6c0,0,0.6-0.1,1.4-0.1c1.9-0.1,2.9-0.5,3.4-1.2l0.2-0.3h-2.3
			c-2.1,0-2.3,0-2.8-0.2c-0.8-0.4-0.9-0.6-0.9-2c0-1.3,0.1-1.6,0.9-2c0.5-0.2,0.6-0.3,3-0.2c2.3,0,2.6,0.1,2.9,0.3
			c0.7,0.4,0.8,0.7,0.9,1.9c0.1,1.8-0.2,2.9-1.1,3.7c-0.8,0.8-2.2,1.3-3.9,1.3h-0.8L489.1,264.1z M493.7,260.5
			c0.2-0.2,0-1.2-0.2-1.5c-0.1-0.2-0.3-0.2-1.9-0.2c-1,0-1.9,0-2,0c-0.6,0.1-0.6,1.5,0,1.8C489.9,260.8,493.5,260.7,493.7,260.5z"/>
		<path class="st8" d="M499.9,264c-0.5-0.1-0.7-0.5-0.9-1.4c-0.1-0.3,0-0.4,0.6-0.6c0.4-0.1,0.7-0.2,0.7-0.2c0.1,0,0.1,0.2,0.2,0.4
			c0,0.2,0.1,0.4,0.2,0.4c0.4,0,3.7-0.5,3.9-0.6c0.2-0.1,0.3-0.2,0.2-0.7c-0.1-0.9-0.1-1-1.7-0.8c-1.1,0.1-1.4,0.1-1.4,0
			c-0.1-0.2-0.1-1.1,0-1.1c0.3,0,2.4-0.3,2.5-0.4c0.1-0.1,0.1-0.7,0-1.1c-0.1-0.4-0.4-0.4-2.3-0.1c-1.9,0.2-1.8,0.2-1.8,0.7l0,0.4
			l-0.7,0c-0.4,0-0.7-0.1-0.7-0.1c-0.1-0.1-0.1-1.1,0-1.4c0.1-0.2,0.3-0.3,0.5-0.4c0.6-0.2,5-0.8,5.5-0.7c0.5,0.1,0.7,0.5,0.9,1.4
			c0.1,0.9,0,1.4-0.4,1.6c-0.3,0.2-0.3,0.3,0,0.3c0.7,0,1.1,0.6,1.2,1.8c0.1,0.9-0.1,1.4-0.6,1.6C505.3,263.5,500.4,264.2,499.9,264
			z"/>
		<path class="st8" d="M479.9,263c-0.4-0.1-0.7-0.2-0.7-0.2c0,0,0.2-1.2,0.4-2.7c0.3-1.4,0.5-2.7,0.5-2.8c0-0.1-0.3-0.2-0.7-0.3
			c-0.4-0.1-0.7-0.1-0.7-0.2c0,0,0-0.3,0-0.5l0.1-0.5h1.4c0.8,0,1.5,0,1.6,0.1c0.1,0.1-0.1,1.2-0.5,3.5c-0.4,1.9-0.6,3.4-0.7,3.5
			C480.6,263.1,480.2,263,479.9,263z"/>
		<path class="st8" d="M513.9,261.2c0-0.1-0.4-1.2-0.8-2.6c-0.4-1.4-0.8-2.6-0.8-2.6c0,0-0.4,0-0.7,0.1c-0.4,0.1-0.7,0.2-0.7,0.2
			c-0.1,0-0.3-0.9-0.3-0.9c0.2-0.2,2.7-1.2,2.7-1.2c0.1,0.1,2.1,6.4,2.1,6.6c0,0.1-0.3,0.2-0.6,0.3C514,261.3,514,261.3,513.9,261.2
			z"/>
		<path class="st8" d="M460.5,254.6c-0.4-0.4-0.4-0.4-1-3.5c-0.3-1.7-0.6-3.2-0.6-3.3c0-0.1-0.4,0.3-0.8,0.9
			c-1.7,2.1-1.9,2.4-2.1,2.4c-0.3-0.2-0.9-0.7-0.9-0.8c0-0.1,4-5,4.1-5c0,0,0.2,0.2,0.5,0.4l0.4,0.4l0.6,3.3l0.6,3.3l1.4-1.7
			c1.2-1.5,1.4-1.7,1.5-1.6c0.7,0.5,0.9,0.7,0.9,0.8c0,0.2-4,5-4.1,5C461,255,460.7,254.8,460.5,254.6z"/>
		<path class="st8" d="M528.7,252.8c0-0.3,0.1-1.4,0.2-2.4l0.2-1.8l-0.4-0.6c-0.2-0.3-0.7-0.8-0.9-1.2l-0.5-0.6l0.6-0.5
			c0.3-0.3,0.6-0.5,0.6-0.5c0,0,0.5,0.5,1,1.1c0.7,0.9,1,1.1,1.3,1.1c0.2,0,1.3,0.2,2.4,0.4c1.1,0.2,2.1,0.3,2.1,0.3
			c0,0,0,0.1-0.1,0.2c-0.1,0.1-0.5,0.4-0.8,0.6l-0.6,0.5l-1.6-0.3c-0.9-0.1-1.6-0.2-1.6-0.2c0,0-0.1,0.7-0.1,1.5
			c0,0.8-0.1,1.6-0.2,1.7c-0.1,0.2-1.2,1.1-1.4,1.1C528.6,253.3,528.6,253.1,528.7,252.8z"/>
		<path class="st8" d="M535.7,246.9l-0.4-0.4l1.1-1.1l1.1-1.1l-1.8-1.8c-1-1-1.8-1.9-1.8-1.9c0-0.2,0.9-1,1.1-1
			c0.1,0,0.9,0.8,1.9,1.8c1,1,1.8,1.8,1.9,1.8s0.6-0.4,1.1-1l1-1l0.4,0.4c0.2,0.2,0.4,0.4,0.4,0.5c0,0-1.2,1.2-2.7,2.7l-2.7,2.6
			L535.7,246.9z"/>
		<path class="st8" d="M449.5,244.9l-0.5-0.5l1-3.6c0.5-2,1-3.6,1-3.6c0,0,0.3,0.2,0.6,0.6l0.6,0.6l-0.2,0.8l-0.2,0.8l1.4,1.4
			c1.6,1.6,1.4,1.5,2.6,1.1l0.5-0.1l0.5,0.5c0.3,0.3,0.5,0.5,0.5,0.6c-0.1,0.1-7,2-7.1,2C450.1,245.4,449.8,245.2,449.5,244.9z
			 M452.1,243.5c0.6-0.1,1.2-0.3,1.2-0.3c0-0.1-1.5-1.9-1.6-1.9c-0.1,0-1,2.2-1,2.4C450.7,243.8,450.8,243.8,452.1,243.5z"/>
		<path class="st8" d="M495.6,243.2c-1-1.2-1.8-2.8-2.3-4.7c-0.2-0.9-0.3-1.2-0.3-3.6c0-2.3,0-3,0.3-5.2c0.2-1.4,0.3-2.5,0.3-2.6
			c-0.1-0.1-2.4-0.1-2.9,0.1c-0.4,0.1-0.4,0.2-0.4,0.5c0.2,0.8,0.2,5.7,0.1,6.7c-0.5,3.6-1.9,6-4.3,7.2c-2.4,1.2-6.1,1.4-12.4,0.7
			c-3.7-0.4-7-0.8-7.1-0.9c0,0-0.3-0.6-0.6-1.3c-0.6-1.4-1.7-3.5-3.1-6.1c-2.5-4.5-3.3-6.8-3-9.3c0.2-1.4,0.8-3,1.5-4.1
			c1.2-1.8,4.2-3.6,9.1-5.6c2.8-1.1,3-1.2,3.2-1.8c0.2-0.3,0.6-2.4,0.6-2.7c0-0.3-1,0.1-2.5,0.8c-3.5,1.7-7.3,2.9-10.3,3.3
			c-2.5,0.4-6.1-0.1-6.2-0.7c0-0.1,0.1-0.5,0.3-0.9c1.4-2.8,6.7-4.7,17-6.1c1.1-0.2,2.1-0.3,2.2-0.4c0.1-0.1,0.6-1.9,0.7-2.6
			c0.1-0.5,0.1-0.6-0.2-0.6c-0.1,0-1.5,0.3-3,0.6c-6.2,1.4-9.9,1.8-12.9,1.6c-1.3-0.1-1.3-0.1-2.6-0.7c-3.2-1.6-4.8-3.6-5.6-7.3
			c-0.1-0.6-0.4-2.1-0.6-3.3c-0.5-3-0.8-4.6-1.3-6.1c-0.2-0.7-0.5-1.3-0.5-1.4c-0.1-0.1,0.1-0.3,0.6-0.7c0.9-0.7,1.7-1.6,2.9-3.1
			c1.3-1.7,2.3-2.7,3.6-3.9c2.9-2.6,4.6-3.5,6.8-3.8c3.8-0.5,8.6,2.3,14.6,8.5l1.4,1.4l0.1-0.3c0.1-0.2,0.1-0.5,0.2-0.6
			c0-0.5,0.2-1.2,0.6-1.5l0.3-0.3l-1-0.9c-4.9-4.2-7.7-7.7-8.6-10.7c-0.3-0.9-0.4-3.1-0.2-3.4c0.2-0.3,1.6,0,2.6,0.5
			c2.8,1.3,5.3,4.5,9,11.7c0.6,1.1,1,2,1,2c0,0,0.4-0.1,0.9-0.3c1.1-0.4,2-0.8,2-1c0-0.5-0.5-1.3-1.9-3.5c-1.8-2.6-2.5-4-3-5.5
			c-1.2-3.6-1-7.4,0.6-10c1.4-2.4,3.5-4,8.7-6.3c1.1-0.5,2.9-1.3,3.9-1.8l1.8-0.9l0.6,0.4c1.2,0.8,2.2,1.3,5.1,2.7
			c5.3,2.5,7,3.6,8.5,5.4c1.2,1.5,1.7,2.8,1.7,4.8c0,3-1.3,6.5-4.8,12.6l-1.1,1.9l0.2,0.3c0.3,0.5,0.8,0.7,1.6,0.7
			c1.1,0.1,1.2,0,1.8-1.5c0.7-1.7,2.1-4.5,2.9-5.8c2.1-3.4,4.5-5.5,7.3-6.2c1-0.3,1-0.2,1.1,0.4c0.6,2.6-2,6.9-8,13.4
			c-1.6,1.7-1.7,2-1.2,2.1c0.3,0.1,0.8,0.6,0.8,0.9c0,0.2,0.3,0.7,0.5,0.7c0.1,0,0.5-0.5,0.9-1.2c2.4-3.5,4.7-5.6,7.2-6.9
			c2.1-1,3.8-1.5,6.4-1.6c3.5-0.1,5.4,0.5,7.4,2.3c0.3,0.3,1.5,1.6,2.5,2.8c2.1,2.5,3.4,3.9,4.7,5c0.8,0.6,0.8,0.7,0.7,1
			c-0.2,1.1-0.4,2.3-0.6,3.9c-0.1,1-0.3,2.7-0.3,3.7c-0.3,3.5-0.9,5.9-1.8,7.4c-1.8,3.1-5.4,4.4-10.6,4.1c-3-0.2-7.1-0.9-11.8-2.1
			c-0.5-0.1-1-0.2-1-0.2c-0.1,0,0,0.6,0.2,1.6c0.1,0.4,0.2,0.8,0.2,1.1c0,0.2,0.1,0.4,0.2,0.5c0.1,0,1.3,0.2,2.7,0.3
			c5.2,0.6,6.8,0.9,9.5,1.6c2.9,0.8,5.1,2.1,6.3,3.8c0.6,0.8,1.1,1.8,1,1.9c-0.2,0.2-2.3,0.5-3.9,0.5c-4.4,0.2-9.3-1.2-13.5-3.7
			c-0.6-0.4-1.1-0.6-1.3-0.6c-0.2,0-0.2,0.1-0.2,0.7c0,0.9,0.2,2.1,0.4,2.4c0.1,0.2,0.6,0.4,2.8,1.2c2.8,0.9,3.5,1.2,5,1.9
			c4.2,2.1,6.1,5,5.7,8.8c-0.3,2.5-0.9,4-3.3,8c-1.5,2.5-2.5,4.8-2.8,6.7c-0.1,0.4-0.2,0.8-0.2,0.9c0,0-1,0.1-2.2,0.1
			c-2.4,0.1-3.3,0.1-7,0.7c-2.3,0.4-3,0.4-4.7,0.4c-2.2,0-2.7-0.1-3.9-0.8c-1-0.6-2.4-2-3-3.1c-1.4-2.3-2.2-4.9-2.9-9.7
			c-0.1-1-0.3-1.8-0.3-1.8c-0.1-0.1-3-0.2-3.1-0.2c0,0,0.1,1,0.4,2.1c0.7,3.6,0.9,5.6,0.6,7.9c-0.3,2.6-1,4.2-2.4,5.6l-0.8,0.9
			L495.6,243.2z"/>
		<path class="st8" d="M444.5,239.3c-0.7-1-1.7-2.3-2.2-3c-0.5-0.7-0.9-1.2-0.9-1.3c0,0,0.2-0.2,0.5-0.4l0.5-0.3l0.9,1.2
			c0.5,0.7,0.9,1.2,0.9,1.2c0,0,0.8-0.6,1.8-1.3c1-0.7,1.9-1.4,2.1-1.5l0.4-0.3l0.5,0.6c0.3,0.3,0.4,0.6,0.4,0.7
			c0,0.1-3.4,2.5-4.2,3c0,0,0.3,0.5,0.8,1.2c0.5,0.6,0.8,1.2,0.8,1.3c0,0.1-0.8,0.7-0.9,0.7C445.8,241.1,445.2,240.3,444.5,239.3z"
			/>
		<path class="st8" d="M540.4,237.9c-1.4-1.1-2.5-2-2.6-2c-0.1-0.1,0.8-1.3,1-1.2c0.3,0.2,5,3.9,5,4c0,0.1-0.9,1.3-0.9,1.2
			C542.9,239.9,541.7,239,540.4,237.9z"/>
		<path class="st8" d="M545.3,234.6c-0.2-0.1-0.4-0.2-0.4-0.3c0-0.2,0.3-1.3,0.4-1.3c0,0,0.2,0.1,0.3,0.2c0.3,0.2,0.2,0.3,1.3-1.6
			c0.4-0.7,0.8-1.4,0.9-1.6l0.2-0.4l-0.5-0.3c-0.3-0.2-0.5-0.3-0.6-0.3s-0.6,0.8-1.2,1.9c-1.2,2.1-1.6,2.5-2.1,2.5
			c-0.5,0-1.7-0.6-2.2-1.2c-0.7-0.7-0.8-0.6,1.4-4.4c0.8-1.5,1.2-1.9,1.7-1.9c0.3,0,1.2,0.3,1.2,0.4c0,0.2-0.4,1.3-0.4,1.3
			c-0.1,0-0.2,0-0.4-0.1l-0.3-0.2l-0.6,1c-1.4,2.3-1.6,2.9-1.6,2.9c0.1,0.1,0.3,0.2,0.6,0.4l0.5,0.3l1.1-1.9
			c1.2-2.1,1.6-2.6,2.1-2.6c0.3,0,1.8,0.7,2.2,1.1c0.6,0.5,0.5,0.9-1,3.6C546.5,234.7,546.2,235,545.3,234.6z"/>
		<path class="st8" d="M439.8,232c-0.2-0.3-0.4-0.6-0.4-0.7c0-0.1,5.4-3.3,5.6-3.3c0.1,0,0.9,1.2,0.8,1.3c-0.1,0.1-5.4,3.3-5.5,3.3
			C440.2,232.6,440,232.4,439.8,232z"/>
		<path class="st8" d="M437.2,226.8c-0.3-0.3-2.1-5.7-2.1-6.3c0-0.8,0.2-0.9,2.9-1.8c2.5-0.8,2.9-0.8,3.3,0c0.4,0.7,1.9,5.6,1.9,6.1
			c0,0.7-0.3,0.9-2.7,1.7C438.1,227.2,437.6,227.3,437.2,226.8z M440.3,224.8l1.4-0.5l-0.8-2.3c-0.4-1.3-0.8-2.3-0.9-2.3
			c-0.1,0-3.6,1.1-3.7,1.2c0,0,1.4,4.4,1.5,4.6C437.9,225.6,438.2,225.5,440.3,224.8z"/>
		<path class="st8" d="M549.8,224.2c-1.4-0.5-1.7-0.9-1.4-2c0.1-0.3,0.1-0.6,0.1-0.6c0,0-0.7,0.4-1.5,0.9c-0.8,0.5-1.5,0.9-1.5,0.9
			c0,0,0.1-0.5,0.3-1l0.3-1l1.6-0.9l1.6-0.9l0.2-0.6c0.1-0.3,0.2-0.6,0.2-0.7c0-0.1-0.5-0.2-1-0.4c-0.6-0.2-1.1-0.3-1.1-0.4
			c-0.1-0.1,0.3-1.4,0.4-1.4c0.2,0,6,1.8,6.1,1.9c0.1,0.1-0.3,1.4-0.9,3c-0.8,2.4-1,2.9-1.3,3.2
			C551.4,224.6,550.9,224.6,549.8,224.2z M551.7,221.2c0.3-0.9,0.5-1.7,0.6-1.8c0-0.2-0.1-0.3-0.7-0.5c-0.4-0.1-0.8-0.2-0.8-0.2
			c0,0.1-0.3,0.8-0.6,1.8c-0.4,1.2-0.5,1.7-0.4,1.9c0.1,0.2,0.8,0.5,1.2,0.4C551.2,222.8,551.2,222.8,551.7,221.2z"/>
		<path class="st8" d="M433.2,215c0-0.2-0.1-0.4-0.1-0.6c0-0.1,0.8-1.5,1.9-3.1c1.6-2.5,1.8-2.9,1.6-2.8c-0.4,0.1-3.5,0.5-3.9,0.5
			c-0.2,0-0.3-0.2-0.4-1l0-0.4l3.2-0.4c1.8-0.2,3.3-0.4,3.3-0.4c0,0,0.1,0.3,0.1,0.6l0.1,0.5l-1.9,2.8c-1,1.5-1.9,2.8-1.8,2.8
			c0,0,1-0.1,2.1-0.3c1.2-0.2,2.2-0.2,2.2-0.2c0,0,0.1,0.4,0.1,0.7c0,0.5,0,0.7-0.1,0.7c-0.1,0-1.5,0.2-3.2,0.4
			c-1.7,0.2-3.1,0.4-3.1,0.4C433.3,215.4,433.3,215.2,433.2,215z"/>
		<path class="st8" d="M554.2,213.8c-0.2-0.1-0.2-0.1,0-2.8c0.1-1.2,0.1-2.2,0.1-2.3c0,0-0.3-0.1-0.7-0.1l-0.6,0l-0.1,1.4
			c-0.1,0.8-0.2,1.5-0.2,1.5c-0.1,0.1-0.3,0.1-0.6,0c-0.4-0.1-0.5-0.1-0.5-0.4c0-0.2,0.1-0.8,0.1-1.4c0.1-1.3,0.1-1.3-0.9-1.3h-0.5
			l-0.2,2.3c-0.1,1.3-0.2,2.4-0.2,2.5c0,0.2-0.1,0.2-0.6,0.2c-0.6,0-0.6,0-0.6-0.3c0-0.4,0.5-6.4,0.6-6.5c0.1-0.1,6.4,0.5,6.5,0.6
			c0,0-0.1,1.5-0.2,3.3l-0.3,3.2l-0.4,0C554.6,213.9,554.3,213.9,554.2,213.8z"/>
		<path class="st8" d="M435.1,202.5l-3.1-2l0-0.7c0-0.4,0.1-0.7,0.1-0.8c0.1-0.1,6.5-3.3,6.6-3.3c0.1,0,0.1,0.8,0,1.3
			c-0.1,0.3-0.2,0.4-0.8,0.7c-0.8,0.4-0.8,0.3-0.9,2.9l-0.1,1.5l0.6,0.4c0.6,0.4,0.6,0.4,0.7,0.8c0,0.3,0,0.6-0.1,0.8l-0.1,0.3
			L435.1,202.5z M436,200.1c0-0.7,0.1-1.3,0-1.3c-0.1-0.1-2.3,1-2.4,1.1c0,0.1,2,1.5,2.2,1.5C435.9,201.4,435.9,200.8,436,200.1z"/>
		<path class="st8" d="M555.5,204.3c-0.1-0.1-1.5-0.8-3-1.7c-1.5-0.9-2.9-1.7-3-1.7c-0.1-0.1-0.2-0.3-0.2-0.6v-0.5l3.2-1.8
			c1.8-1,3.3-1.8,3.4-1.8c0.1,0,0.1,0.3,0.1,0.8l0,0.9l-1.3,0.7c-0.7,0.4-1.8,1-2.3,1.3l-1,0.6l2.3,1.3l2.3,1.3l0,0.7
			C555.9,204.3,555.8,204.5,555.5,204.3z"/>
		<path class="st8" d="M548.8,193.7c0-0.4-0.1-0.7,0-0.8c0-0.1,6-0.9,6.3-0.9c0.1,0,0.2,0.2,0.3,0.7c0.1,0.4,0.1,0.7,0,0.8
			c-0.1,0.1-5.8,1-6.2,1C548.9,194.4,548.9,194.4,548.8,193.7z"/>
		<path class="st8" d="M436.1,193c-1.7-0.3-3-0.5-3.1-0.5c-0.1-0.1,0-1.2,0.2-1.4c0.1-0.1,0.8,0,2.6,0.3c1.6,0.2,2.5,0.3,2.6,0.3
			c0-0.1,0.2-1.1,0.4-2.2c0.2-1.2,0.3-2.2,0.4-2.3c0-0.2,0.1-0.2,0.6-0.1c0.3,0,0.6,0.1,0.6,0.2c0.1,0.1,0,1-0.3,2.9
			c-0.5,3.7-0.5,3.5-0.7,3.5C439.1,193.4,437.7,193.2,436.1,193z"/>
		<path class="st8" d="M548.2,189.2c0-0.1-0.1-0.3-0.1-0.5c-0.1-0.4,0.1-0.7,1.3-3.5c0.7-1.7,1.4-3,1.4-3.1c0,0-0.8,0.2-1.9,0.5
			c-1.1,0.3-2,0.6-2.1,0.6c-0.1,0-0.2-0.1-0.3-0.3c-0.2-0.4-0.3-1-0.2-1c0,0,1.4-0.4,3.1-0.9c1.7-0.5,3.1-0.9,3.1-0.8
			c0,0,0.1,0.3,0.2,0.5c0.1,0.4,0.1,0.5-1.2,3.5c-0.7,1.7-1.4,3.1-1.4,3.1c0,0,0.2,0,0.4-0.1c0.9-0.3,3.7-1.1,3.8-1
			c0.2,0.1,0.4,1.2,0.3,1.3c-0.1,0.1-5.8,1.8-6,1.8C548.3,189.3,548.2,189.2,548.2,189.2z"/>
		<path class="st8" d="M544.2,178.2c-0.4-0.4-2.7-4.8-2.7-5.3c-0.1-0.7,0.3-1,2.9-2.3c1.3-0.7,2.4-1.2,2.4-1.2
			c0.1,0,0.7,1.1,0.7,1.3c0,0.1-1,0.7-2.3,1.3l-2.3,1.2l0.9,1.8c0.5,1,1,1.8,1,1.9c0,0,1.1-0.5,2.4-1.1c1.8-1,2.3-1.2,2.4-1
			c0.1,0.1,0.2,0.4,0.4,0.7c0.2,0.4,0.2,0.5,0.1,0.6c-0.1,0.1-1.2,0.6-2.5,1.3c-1.5,0.8-2.5,1.2-2.7,1.2
			C544.7,178.5,544.4,178.4,544.2,178.2z"/>
		<path class="st8" d="M443.6,176.1c-0.9-0.4-3.6-2-3.9-2.3c-0.3-0.3-0.4-0.7-0.2-1.2c0.2-0.6,2.4-4.3,2.7-4.6
			c0.2-0.2,0.4-0.3,0.7-0.3c0.4,0,1.5,0.5,1.5,0.7c0,0.1-0.4,1.3-0.5,1.4c0,0-0.3-0.1-0.6-0.3c-0.3-0.2-0.5-0.3-0.6-0.3
			c0,0-0.5,0.8-1,1.7c-0.9,1.5-0.9,1.7-0.8,1.8c0.4,0.3,3.2,1.8,3.3,1.8c0.1,0,1.9-3.2,1.9-3.4c0,0-0.3-0.2-0.6-0.4
			c-0.6-0.4-0.6-0.3,0-1.1l0.4-0.5l0.5,0.3c0.3,0.1,0.6,0.4,0.8,0.6c0.5,0.5,0.4,1-0.4,2.4C444.9,176.3,444.7,176.6,443.6,176.1z"/>
		<path class="st8" d="M447.6,165.9c-1.3-1.2-2.4-2.2-2.4-2.3c0-0.1,0.9-1.1,1-1.1c0,0,0.5,0.4,0.9,0.8c0.5,0.4,0.9,0.8,0.9,0.8
			c0.1,0,3-3.1,3.1-3.3c0,0-0.4-0.5-0.9-0.9l-0.9-0.8l0.5-0.5c0.3-0.3,0.5-0.5,0.6-0.6c0.1,0,4.8,4.2,4.8,4.3c0,0.1-0.9,1.1-1,1.1
			c0,0-0.5-0.4-1-0.9c-0.5-0.5-1-0.9-1-0.9s-0.8,0.7-1.6,1.7L449,165l1,1l1,0.9l-0.5,0.6L450,168L447.6,165.9z"/>
		<path class="st8" d="M531.8,161.3c-0.4-0.3-3.6-3.2-4.1-3.8c-0.5-0.5-0.5-1.1-0.2-1.6c0.1-0.2,0.9-1,1.7-1.9
			c1.6-1.7,1.9-1.9,2.6-1.5c0.5,0.3,4.1,3.6,4.5,4.1c0.3,0.4,0.3,0.9-0.1,1.4c-0.2,0.2-0.3,0.4-0.3,0.4c-0.1,0-1.3-0.8-1.3-0.9
			c0-0.1,0.1-0.2,0.2-0.2c0.1-0.1,0.2-0.2,0.2-0.3c0-0.1-0.8-0.8-1.7-1.6l-1.7-1.5l-0.4,0.4c-0.2,0.2-0.8,0.9-1.4,1.5l-1,1l0.7,0.6
			c1.4,1.3,2.7,2.5,2.7,2.5c0,0,0.3-0.2,0.5-0.5l0.4-0.5l-0.9-0.8l-0.9-0.8l0.4-0.4c0.2-0.2,0.4-0.4,0.5-0.4c0.1,0,2.8,2.5,2.8,2.7
			c0,0.1-0.5,0.6-1.1,1.2c-0.9,1-1.1,1.1-1.5,1.1C532.2,161.5,531.9,161.4,531.8,161.3z"/>
		<path class="st8" d="M455.8,157.2c-1.7-2.1-2-2.5-1.9-2.6c0.4-0.3,5-4.1,5-4.1c0.1,0,0.7,0.8,0.6,0.9c0,0-0.9,0.8-1.9,1.7
			c-2.1,1.7-2,1.6-1.4,2.3l0.3,0.4l1.1-0.9l1.1-0.9l0.4,0.4c0.2,0.2,0.4,0.4,0.4,0.5c0,0-0.5,0.5-1.1,1c-0.6,0.5-1.1,0.9-1.1,1
			c0,0,0.2,0.3,0.5,0.6l0.5,0.5l1.9-1.6c1-0.9,1.9-1.6,2-1.6c0.1-0.1,0.9,0.6,0.9,0.9c0,0.1-5,4.2-5.2,4.3
			C457.9,159.6,456.9,158.5,455.8,157.2z"/>
		<path class="st8" d="M523.4,154.9c-0.5-0.3-0.4-0.1-1.7-3.8c-0.5-1.5-1-2.7-1-2.7s-0.5,0.8-1.1,1.8c-0.6,1-1.1,1.8-1.1,1.8
			c-0.1,0-1-0.5-1.2-0.6c0,0,3.1-5.6,3.2-5.7c0,0,0.2,0.1,0.5,0.2l0.5,0.3l1.2,3.2l1.2,3.2l1.1-1.9l1.1-1.9l0.5,0.3
			c0.3,0.2,0.6,0.3,0.6,0.4c0.1,0.1-2.7,5.2-3.1,5.6C523.9,155.2,523.9,155.2,523.4,154.9z"/>
		<path class="st8" d="M465.2,153.2c-0.2-0.5-0.9-1.8-1.5-2.9l-1.1-2.1l0.5-0.2l0.5-0.2l3.1,0.7c1.7,0.4,3.2,0.7,3.3,0.7
			c0.2,0.1,0.1-0.2-0.7-1.9l-1-1.9l0.6-0.3c0.3-0.2,0.6-0.3,0.7-0.2c0.1,0.1,2.9,5.5,2.9,5.7c0,0.2-0.7,0.5-1,0.5
			c-0.2,0-1.7-0.3-3.4-0.7c-1.7-0.4-3.1-0.7-3.1-0.7c0,0,0.4,0.8,0.9,1.8c0.5,1,0.9,1.9,0.9,1.9c0,0.1-1,0.7-1.1,0.7
			C465.7,154,465.5,153.7,465.2,153.2z"/>
		<path class="st8" d="M510.7,149c-1.2-0.3-2.4-0.6-2.6-0.7c-0.4-0.2-0.7-0.6-0.7-1c0-0.4,1.2-5.4,1.3-5.5c0.1-0.1,1.5,0.2,1.5,0.4
			c0,0.1-0.3,1.2-0.6,2.5c-0.3,1.3-0.5,2.4-0.5,2.5c0,0.1,3.9,1.1,4,1c0,0,0.3-1.1,0.6-2.5c0.3-1.3,0.6-2.5,0.6-2.5
			c0.1-0.1,1.4,0.2,1.5,0.3c0.1,0.1-1.1,4.9-1.3,5.4C514.3,149.7,513.7,149.7,510.7,149z"/>
		<path class="st8" d="M476,149c-0.1-0.1-0.3-0.3-0.4-0.5c-0.3-0.5-1.3-4.3-1.3-4.7c0-0.3,0.3-0.7,0.6-0.9c0.6-0.3,5.3-1.6,5.8-1.6
			c0.5,0,0.9,0.2,1.1,0.8c0.2,0.5,0.2,0.5-0.4,0.8c-0.6,0.3-0.9,0.4-0.9,0.1c0-0.5-0.1-0.5-2.4,0.2l-2.2,0.6l0.6,1.9
			c0.3,1,0.6,1.9,0.6,1.9c0.1,0.1,4.1-1.1,4.3-1.2c0.1-0.1,0.1-0.3-0.1-0.7c-0.1-0.3-0.2-0.6-0.3-0.6s-0.6,0.2-1.2,0.3
			c-0.6,0.2-1.1,0.3-1.2,0.3c-0.1-0.1-0.3-1-0.3-1c0.2-0.1,3.7-1.1,3.8-1c0.1,0.1,0.8,2.5,0.8,2.9c0,0.4-0.3,0.8-0.8,1
			c-0.8,0.3-5.2,1.6-5.6,1.6C476.3,149.1,476.1,149,476,149z"/>
		<path class="st8" d="M503.9,147.1l-1-0.1l-1.7-1.5c-0.9-0.8-1.7-1.5-1.8-1.5c0,0-0.1,0.6-0.2,1.3c-0.1,0.7-0.1,1.4-0.2,1.4
			c0,0-0.4,0-0.8,0c-0.7,0-0.7-0.1-0.7-0.3c0-0.5,0.5-6.2,0.6-6.3c0,0,0.4,0,0.8,0l0.7,0.1l0,0.5c0,0.3,0,0.8-0.1,1.3
			c0,0.5-0.1,0.8-0.1,0.9c0,0,0.9-0.5,1.9-1.1l1.9-1.2l1,0.1c0.6,0,1,0.1,1.1,0.2c0.1,0.1-0.3,0.3-3.1,2c-0.7,0.4-1.2,0.7-1.2,0.7
			c0,0,1,0.9,2.2,1.9c1.2,1,2.2,1.9,2.2,1.9C505.3,147.2,505.2,147.2,503.9,147.1z"/>
	</g>
	<g id="layer102">
		<path class="st9" d="M473.9,228.3c0-0.1,0.1-0.5,0.2-0.9c0.6-3,1.5-7.8,3.2-17.9c1.6-9.4,2.4-14.1,3.2-18.1
			c0.3-1.7,0.7-3.4,0.7-3.7c0.1-0.3,0.1-0.6,0.2-0.6c0,0,1.1,0.6,2.4,1.2c3.9,2,6.7,2.8,10.1,3.2c1.4,0.2,4,0.1,5.6-0.2
			c3-0.5,6.8-1.7,10.4-3.4c0.6-0.3,1-0.4,1.1-0.4c0.1,0.1,2.8,14.3,4.7,25c0.4,2,1.2,6.3,1.8,9.5c0.6,3.2,1.1,5.9,1.1,6
			c0,0.1-0.3,0-1.2-0.3c-3.8-1.5-9.1-2.6-15.3-3.1c-2.1-0.2-9.9-0.2-12,0c-6.1,0.6-11.2,1.7-15,3.3
			C474.4,228.2,473.9,228.4,473.9,228.3z M485.3,220.2c1.1-0.5,2-1.1,3.3-2.3c1.3-1.3,2-2.2,3.5-4.9c1.8-3,2.2-3.6,2.8-3.6
			c0.1,0,0.2,0.1,0.1,0.4c-0.3,1.8-2.1,7.2-2.8,8.2c-0.2,0.3-0.3,1-0.2,1c0,0,0.3-0.1,0.5-0.2c0.7-0.4,1.8-1.4,2.9-2.7
			c1.7-2,2.6-3.5,2.9-4.9c0.1-0.5,0.2-1,0.3-1.1c0.1-0.3,0.2-0.3,0.6-0.3c0.4,0,0.4,0,0.6,0.6c0.3,0.9,0.5,2.3,0.6,4.3
			c0.2,2.3,0.4,3.9,0.6,4.1c0.3,0.2,0.7,0.2,0.8-0.1c0.2-0.4,0.6-2.3,0.6-3.4c0-0.6,0-2.5-0.1-4.4c-0.2-3.5-0.2-3.5,0.3-3.5
			c0.3,0,1.3,2.1,1.9,4c0.3,0.8,0.9,3,1.3,4.9l0.8,3.4l0.5,0.1c0.3,0,0.5,0,0.6,0c0.2-0.2,0.1-3.2-0.2-5.3c-0.3-2-0.4-4.9-0.1-5.6
			c0.1-0.3,0.2-0.3,0.5-0.4c0.4,0,0.4,0,0.7,0.4c0.9,1.3,1.4,2.7,2.1,5.7c0.7,2.7,1.1,4,1.6,5.1c0.4,0.7,0.5,0.8,0.9,1
			c0.5,0.2,0.6,0.1,0.8-0.7c0.2-0.7,0.2-3.7-0.1-4.8c-0.9-4.4-2.2-7.6-3.4-8.9c-0.7-0.7-1-1.1-0.9-1.5c0-0.1,0.4-0.5,0.9-0.9
			c1-0.8,1.3-1.2,1.2-1.7c0-0.2-0.1-0.4-0.2-0.5c-0.2-0.2-1.1-0.1-2.5,0.2c-1.6,0.3-2,0.3-2.1,0.1c-0.1-0.4,0.2-0.8,1.1-1.2
			c1-0.5,2.6-2,2.6-2.6c0-0.6-0.1-0.6-1.1-0.6c-0.5,0-1.6,0.2-2.4,0.4c-0.8,0.2-1.5,0.3-1.6,0.3c0,0-0.1-0.3-0.1-0.6l-0.1-0.6
			l0.9-0.3c0.8-0.2,0.9-0.3,1.5-0.8c0.3-0.3,0.6-0.7,0.6-0.8c0-0.1-0.2-0.3-0.4-0.4c-0.3-0.2-0.8-0.2-3.4-0.3
			c-3.3-0.1-7.4-0.3-8.2-0.4c-0.5,0-0.5,0-0.5,0.2c0,0.1,0.1,0.5,0.2,0.7c0.2,0.4,0.4,0.6,2.4,1.4c1.4,0.6,1.8,1,2,1.8
			c0.1,0.3,0.2,0.6,0.1,0.6c0,0-0.8,0.1-1.8,0.1c-1.9,0.1-2.4,0.2-2.8,0.8c-0.1,0.2-0.3,0.5-0.3,0.7c-0.1,0.4,0,0.4,0.4,0.6
			c0.3,0.1,1.4,0.4,2.7,0.6c2.9,0.4,3,0.5,3.2,0.9c0.1,0.2,0.2,0.7,0.2,1.1c0,0.4,0.1,1,0.1,1.2l0.1,0.4l-1.4,0.1
			c-0.7,0.1-1.6,0.2-1.8,0.2l-0.5,0.1l-0.3-0.6c-0.6-1.2-1.2-1.4-2.3-0.9c-0.5,0.2-0.5,0.2-0.6,0.8c-0.1,0.4-0.2,0.6-0.4,0.9
			c-0.3,0.3-0.4,0.3-0.8,0.3l-0.5,0l-0.2-0.9c-0.3-1.3-0.5-1.6-1.8-2.7c-0.9-0.7-1.1-1.1-0.9-1.5c0.1-0.1,0.7-0.5,1.4-0.8
			c1.9-0.9,2.2-1.5,1.7-2.8c-0.4-0.9-1.2-1.6-2.4-2.2c-3-1.5-6.9-2.2-8.7-1.7c-0.7,0.2-0.9,0.4-0.9,0.9c0,0.8,0.7,1.2,3.1,1.6
			c1.4,0.2,3.2,0.7,4,1.2c0.6,0.3,0.8,0.7,0.8,1c-0.1,0.3-0.3,0.5-1.6,1c-1.5,0.7-2,1.2-2,2.3c0,0.9,0.2,1.1,1.8,2.1
			c0.8,0.5,1.5,0.9,1.5,1c0.1,0.3-0.3,0.5-1.1,0.6c-1,0.1-1.8,0.5-2.3,1c-0.3,0.3-0.4,0.4-0.7,0.4c-0.4,0-0.4,0-0.5-0.4
			c-0.2-0.6-0.1-0.8,0.4-1.2c0.4-0.3,0.9-1.1,0.9-1.5c0-0.1-0.2-0.4-0.5-0.7c-1.1-1.1-3.6-1.3-5.4-0.5c-1.5,0.7-1.6,2-0.3,3.1
			c0.3,0.3,0.6,0.5,0.6,0.6c0,0.2-0.6,0.7-1.3,1.1c-0.6,0.3-0.6,0.4-0.9,1l-0.2,0.7l0.2,0.2c0.6,0.5,2.5,0.9,5.2,1.3
			c0.7,0.1,1.4,0.2,1.4,0.2c0.1,0.1-0.3,1.4-0.7,2.2c-0.8,1.7-2.1,3-3.2,3.6c-0.8,0.4-0.9,0.6,0,0.5c2.6-0.3,4.5-1.2,5.9-3
			c1.5-1.8,1.8-2.2,2.3-2.7c0.3-0.3,0.6-0.5,0.7-0.5c0.1,0,0.2,0.1,0.3,0.3c0.2,0.3,0.1,0.4-0.2,1.5c-0.5,1.4-1.1,2.6-1.8,3.5
			c-1,1.2-2.2,2.1-4.7,3.4c-1,0.5-1.7,1-1.7,1.1c0,0.1,0.2,0.2,0.6,0.4C482.9,220.8,484.3,220.7,485.3,220.2z"/>
		<path class="st9" d="M493.4,189.1c-3.9-0.5-7-1.9-9-3.9l-0.6-0.6l0.6-0.4c1-0.6,2.1-1.1,2.8-1.4c0.6-0.2,0.7-0.2,0.7,0
			c0.6,1.2,2,2.4,3.4,3c1.5,0.7,2.7,0.9,4.6,1c1.8,0,2.4-0.1,3.9-0.6c1.7-0.5,2.9-1.3,4.1-2.5l0.8-0.8l0.3,0.3
			c0.3,0.3,0.7,0.5,2.1,1c0.5,0.2,1,0.4,1.2,0.6c0.5,0.3,0.4,0.4-0.8,1.4c-2,1.6-5.1,2.7-8.6,3.1
			C497.7,189.3,494.8,189.3,493.4,189.1z"/>
		<path class="st9" d="M495.2,185l-0.4-0.1v-2.6c0-1.4,0.1-3.5,0.1-4.6c0.1-2.5,0.4-6.2,0.5-6.8c0.1-0.4,0.1-0.4,0.6-0.4
			c0.3,0,0.6,0.1,0.6,0.1c0,0.1,0.1,1.7,0.2,3.7c0.1,3.2,0.2,5.1,0.4,9.3l0.1,1.3l-0.6,0.1C496,185.1,495.7,185.1,495.2,185z"/>
		<path class="st9" d="M499,184.3c-0.2-0.3-0.6-5.5-0.7-9.5c0-1.2-0.1-2.7-0.1-3.4l-0.1-1.3l0.6-0.3c0.3-0.2,0.7-0.3,0.9-0.3
			c0.3,0,0.3,0,0.4,0.7c0,0.4,0.3,2.6,0.5,4.9c0.2,2.3,0.6,5.2,0.7,6.3s0.3,2.1,0.3,2.2C501.5,184,499.1,184.6,499,184.3z"/>
		<path class="st9" d="M492.4,184.1c-0.4-0.1-1.1-0.4-1.4-0.6l-0.3-0.2l0.1-2.1c0.1-3,0.7-8.8,1.2-11.2c0.1-0.4,0.3-0.4,1.3-0.1
			l0.7,0.2v1.2c0,2.4-0.4,12-0.6,12.6c-0.1,0.3-0.1,0.3-0.4,0.3C492.8,184.2,492.6,184.2,492.4,184.1z"/>
		<path class="st9" d="M493.9,168.5c-0.4-0.1-0.9-0.3-1.2-0.5c-0.5-0.4-0.5-0.5,0.2-1.1c0.9-0.8,2.4-1.2,3.9-0.9
			c0.9,0.2,1.9,0.7,2.4,1.1l0.3,0.3l-0.4,0.4c-0.7,0.6-1.6,0.8-3.1,0.9C494.9,168.7,494.5,168.6,493.9,168.5z"/>
	</g>
</g>
</svg>
