<?xml version="1.0" encoding="utf-8"?>
<!-- Generator: Adobe Illustrator 24.1.2, SVG Export Plug-In . SVG Version: 6.00 Build 0)  -->
<svg version="1.1" id="Layer_1" xmlns="http://www.w3.org/2000/svg" xmlns:xlink="http://www.w3.org/1999/xlink" x="0px" y="0px"
	 viewBox="0 0 870 656" style="enable-background:new 0 0 870 656;" xml:space="preserve">
<style type="text/css">
	.st0{opacity:0.1;fill:#6C63FF;enable-background:new    ;}
	.st1{fill:#FFFFFF;}
	.st2{opacity:0.1;}
	.st3{opacity:0.2;}
	.st4{fill:#6C63FF;}
	.st5{fill:#FFD2C6;}
	.st6{opacity:0.1;enable-background:new    ;}
	.st7{fill:#626696;}
	.st8{fill:#FFCDE5;}
	.st9{fill:#985C7E;}
	.st10{fill:url(#Path_166_1_);}
	.st11{fill:#CC818C;}
	.st12{fill:#444053;}
	.st13{opacity:0.05;enable-background:new    ;}
	.st14{fill:#FF748F;}
	.st15{fill:#575988;}
	.st16{fill:#DCE6F2;}
	.st17{opacity:0.5;fill:#575988;enable-background:new    ;}
	.st18{fill:#67647E;}
	.st19{fill:#585268;}
	.st20{fill:#E4AAB4;}
	.st21{fill:#FFD037;}
	.st22{fill:#65617D;}
	.st23{fill:#9D9CB5;}
	.st24{fill:url(#Path_234_1_);}
	.st25{fill:#2D293D;}
	.st26{opacity:0.05;}
	.st27{fill:#FFCDD3;}
	.st28{fill:#656691;}
	.st29{fill:#A8A8A8;}
	.st30{opacity:0.2;enable-background:new    ;}
</style>
<g id="Group_20" transform="translate(-0.016 -0.004)">
	<path id="Path_134" class="st0" d="M536.01,89.85c-37.32,31.68-85.72,29.63-128.14,13.14s-81.38-45.82-122.71-66.68
		C251.35,19.09,214.92,7.58,177.36,2.24C124.68-5.07,65.86,3.85,29.17,55.04c-40.87,57.03-37.73,159.89,6.45,212.21
		c22.49,26.63,51.93,39.7,77.6,60.52c25.67,20.82,49.45,55.32,47.27,95.45c-2.03,37.12-25.56,65.65-49.92,83.54
		c-18.82,13.82-42.01,28.92-44.27,57.55c-2.19,27.7,17.3,49.41,35.91,61.76c60.72,40.27,135.55,39.88,196.07-1.02
		c21.58-14.6,41.39-34.01,64.03-45.37c59.43-29.85,124.91,0.19,187.84,11.19c53.25,9.3,107.87,4.48,159.76-14.1
		c31.16-11.16,62.44-28.24,84.33-60c15.79-22.92,25.63-51.92,34.86-80.57c9.84-30.54,19.31-61.3,28.39-92.27
		c5.45-18.6,10.81-37.55,12.22-57.44c2.55-36.05-8.2-71.69-22.83-102.11C812.13,112.14,753.6,61.35,690.21,48.44
		s-130.45,12.3-179.61,67.44"/>
	<ellipse id="Ellipse_23" class="st0" cx="395.4" cy="429.68" rx="183.14" ry="8.36"/>
	<path id="Path_135" class="st1" d="M389.25,395.16c-91.56,0-166.04-74.48-166.04-166.04S297.67,63.09,389.25,63.09
		s166.01,74.49,166.01,166.04S480.77,395.16,389.25,395.16z M389.25,64.7c-90.67,0-164.42,73.76-164.42,164.42
		s73.73,164.42,164.42,164.42s164.42-73.76,164.42-164.42S479.88,64.7,389.25,64.7z"/>
	<path id="Path_136" class="st1" d="M389.25,357.9c-71,0-128.78-57.77-128.78-128.78s57.78-128.78,128.78-128.78
		s128.78,57.77,128.78,128.78S460.25,357.9,389.25,357.9z M389.25,101.96c-70.12,0-127.17,57.05-127.17,127.16
		s57.05,127.16,127.17,127.16s127.16-57.05,127.16-127.16S459.34,101.96,389.25,101.96L389.25,101.96z"/>
	<path id="Path_137" class="st1" d="M389.25,317.88c-49.02,0-88.76-39.74-88.76-88.76s39.74-88.76,88.76-88.76
		S478,180.11,478,229.13S438.27,317.88,389.25,317.88z M389.25,141.99c-48.13,0-87.14,39.01-87.14,87.14s39.01,87.14,87.14,87.14
		c48.13,0,87.14-39.01,87.14-87.14S437.37,141.99,389.25,141.99L389.25,141.99z"/>
	<ellipse id="Ellipse_24" class="st0" cx="791.11" cy="325.3" rx="11.51" ry="3.81"/>
	<ellipse id="Ellipse_25" class="st0" cx="144.45" cy="525.93" rx="67.81" ry="11.13"/>
	<g id="Group_8" class="st2">
		<path id="Path_138" d="M263.32,217.63H56.45c-5.96,0.02-10.79,4.85-10.81,10.81v130.71c0.02,5.96,4.85,10.79,10.81,10.81h162.29
			c0,0,4.2,22.32-9.61,24.72c0,0,30.94,2.22,25.53-24.72h28.67c5.96-0.02,10.79-4.85,10.81-10.81V228.44
			C274.11,222.48,269.28,217.65,263.32,217.63z"/>
		<g id="Group_7" class="st3">
			<path id="Rectangle_20" d="M80.66,252.32H239.1c2.53,0,4.57,2.05,4.57,4.57v1.07c0,2.53-2.05,4.57-4.57,4.57H80.66
				c-2.53,0-4.57-2.05-4.57-4.57v-1.07C76.09,254.37,78.13,252.32,80.66,252.32z"/>
			<path id="Rectangle_21" d="M80.66,297.98H239.1c2.53,0,4.57,2.05,4.57,4.57v1.07c0,2.53-2.05,4.57-4.57,4.57H80.66
				c-2.53,0-4.57-2.05-4.57-4.57v-1.07C76.09,300.03,78.13,297.98,80.66,297.98z"/>
			<path id="Rectangle_22" d="M80.66,320.8h131.39c2.53,0,4.57,2.05,4.57,4.57v1.07c0,2.53-2.05,4.57-4.57,4.57H80.66
				c-2.53,0-4.57-2.05-4.57-4.57v-1.07C76.09,322.84,78.13,320.8,80.66,320.8z"/>
			<path id="Rectangle_23" d="M80.66,275.15h63.52c2.53,0,4.57,2.05,4.57,4.57v1.07c0,2.53-2.05,4.57-4.57,4.57H80.66
				c-2.53,0-4.57-2.05-4.57-4.57v-1.07C76.09,277.2,78.13,275.15,80.66,275.15z"/>
		</g>
	</g>
	<path id="Path_139" class="st1" d="M265.13,216.73H58.25c-5.96,0.02-10.79,4.85-10.81,10.81v130.71
		c0.02,5.96,4.85,10.79,10.81,10.81h162.29c0,0,4.21,22.32-9.61,24.71c0,0,30.94,2.22,25.53-24.71h28.68
		c5.96-0.02,10.79-4.85,10.8-10.81V227.54C275.92,221.57,271.09,216.74,265.13,216.73L265.13,216.73z"/>
	<g id="Group_9" class="st3">
		<path id="Rectangle_24" class="st4" d="M82.47,251.42H240.9c2.53,0,4.57,2.05,4.57,4.57v1.07c0,2.53-2.05,4.57-4.57,4.57H82.47
			c-2.53,0-4.57-2.05-4.57-4.57V256C77.89,253.47,79.94,251.42,82.47,251.42z"/>
		<path id="Rectangle_25" class="st4" d="M82.47,297.07H240.9c2.53,0,4.57,2.05,4.57,4.57v1.07c0,2.53-2.05,4.57-4.57,4.57H82.47
			c-2.53,0-4.57-2.05-4.57-4.57v-1.07C77.89,299.12,79.94,297.07,82.47,297.07z"/>
		<path id="Rectangle_26" class="st4" d="M82.47,319.9h131.39c2.53,0,4.57,2.05,4.57,4.57v1.07c0,2.53-2.05,4.57-4.57,4.57H82.47
			c-2.53,0-4.57-2.05-4.57-4.57v-1.07C77.89,321.95,79.94,319.9,82.47,319.9z"/>
		<path id="Rectangle_27" class="st4" d="M82.47,274.25h63.52c2.53,0,4.57,2.05,4.57,4.57v1.07c0,2.53-2.05,4.57-4.57,4.57H82.47
			c-2.53,0-4.57-2.05-4.57-4.57v-1.07C77.89,276.3,79.94,274.25,82.47,274.25z"/>
	</g>
	<path id="Path_140" class="st5" d="M188.34,214.65l-11.47,24.38c0,0-1.69,4.57-2.78,5.42s-5.91,15.33-5.91,15.33l-12.29,18.99l0,0
		l-0.81,1.29l-4.84-1.33l-3.38-12.64l0.21-3.67v-0.46c0,0,7.61-7.96,9.3-8.56c0,0,1.32,0.15,3.86-6.01s4.84-7.5,4.84-7.5l1.32-4.47
		l14.25-22.68c0,0,11.94-17.13,15.19-9.53S188.34,214.65,188.34,214.65z"/>
	<path id="Path_141" class="st5" d="M140.73,387.85c-0.04,0.41-0.17,0.81-0.39,1.17c-1.32,1.93-8.8,41.38-8.8,41.38
		c0.6,2.66-1.08,7.97-2.18,10.38c-1.1,2.41-3.5,14.96-3.5,14.96s-0.6,27.03-2.16,31.25s0.5,13.27,0.5,13.27
		c-0.15,4.16,2.35,8.56,3.83,10.8c0.11,0.15,0.2,0.29,0.29,0.41c0.48,0.69,0.81,1.09,0.81,1.09c0.41,0.81,0.98,1.52,1.69,2.09
		c0.1,0.09,0.22,0.17,0.34,0.26c2.05,1.38,4.35,2.35,6.76,2.86l0.23,0.05c0.97,0.22,1.61,0.3,1.61,0.3l0.6,3.23l-6.39,1.32
		l-12.18,0.81c0,0-14.36,1.09-11.1-5.31c0.23-0.44,0.43-0.89,0.59-1.36l0,0c0.12-0.31,0.23-0.63,0.33-0.95
		c1.96-6.15,0.64-13.62,0.64-13.62l-2.81-21.75c-4.57-20.27,3.61-42.84,3.61-42.84s-0.72-1.81,0.86-6.39s0-14.6,0-14.6
		s-0.81-12.91-1.93-19.31c-0.43-2.69-0.57-5.41-0.44-8.13c0.05-1.59,0.2-3.18,0.44-4.76l27.51-3.65
		C139.49,380.83,141.04,385.29,140.73,387.85z"/>
	<path id="Path_142" class="st6" d="M140.33,521.39l-6.39,1.32l-12.18,0.81c0,0-14.36,1.09-11.1-5.31c0.23-0.44,0.43-0.89,0.59-1.36
		l0,0c0.12-0.31,0.23-0.63,0.33-0.95c2.49,0.08,4.94,0.57,7.26,1.47c4.09,1.61,7.17-2.54,7.17-2.54l1.98-3.79l0.29-0.55
		c0.48,0.69,0.81,1.09,0.81,1.09c0.48,0.93,1.17,1.74,2.03,2.34l-0.34,0.71l-1.93,4.03c0,0,2.47,0.25,5.85,0.81
		c1.36,0.37,2.76-0.4,3.18-1.74l0.23,0.05c0.97,0.22,1.61,0.3,1.61,0.3L140.33,521.39z"/>
	<path id="Path_143" class="st7" d="M146.24,524.4c-0.48,2.17-13.93,2.84-13.93,2.84s-7.49-0.73-9.59,1.02
		c-2.1,1.75-8.28,1.33-8.52,1.33s-3.49-0.13-4.77-5.97c-1.23-5.7,1.66-6.69,1.81-6.74l0,0c2.6,0.04,5.18,0.54,7.61,1.48
		c4.09,1.61,7.17-2.53,7.17-2.53l2.28-4.35c0.48,0.69,0.81,1.09,0.81,1.09c0.47,0.94,1.17,1.74,2.03,2.35l-2.27,4.77
		c0,0,2.47,0.25,5.85,0.81c2.7,0.44,3.29-1.77,3.41-2.65c0.01-0.12,0.01-0.24,0-0.36c0,0,2.11,0.61,4.7,1.33
		C145.24,519.5,146.73,521.93,146.24,524.4L146.24,524.4z"/>
	<path id="Path_144" class="st5" d="M171.59,416.6c-0.32,1.93-0.65,6.92-0.65,6.92c1.13,4.18-1.77,14.11-1.77,14.11l-1.44,5.65
		c0.65,7.26-3.98,24.94-3.98,24.94s-3.1,16.41-4.71,23.5c-0.96,3.93-0.68,8.06,0.81,11.83c0.08,0.19,0.13,0.29,0.13,0.29
		c0.01,0.14,0.04,0.27,0.1,0.4c0.04,0.13,0.1,0.39,0.17,0.57c0.37,0.99,0.92,1.9,1.61,2.69c0.26,0.32,0.55,0.61,0.86,0.89l0.05,0.05
		c1.51,1.34,3.25,2.41,5.13,3.15l0,0l0.81,0.32c0.84,0.32,1.69,0.59,2.56,0.81l0,0c0.1,0.03,0.19,0.05,0.29,0.06l-0.65,3.79
		l-8.52-2.18l-11.42-3.7l-5.65-3.23c0,0,0.06-0.31,0.18-0.9v-0.1c0.05-0.25,0.1-0.55,0.17-0.89c0.96-4.92,3.15-18.88,2.05-29.13
		c-1.36-12.71,3.93-30.25,5.22-34.43c0.76-2.39,1.09-4.89,0.97-7.4c-2.1-3.07-2.58-15.28-2.58-15.28s-3.86-7.89-7.05-16.26
		c-1.05-2.73-1.82-5.57-2.3-8.46c-0.37-2.04-0.53-4.11-0.47-6.18c0,0,25.92-23.65,28.76-0.75c0.1,0.81,0.19,1.52,0.27,2.24
		C173.01,410.88,171.89,414.74,171.59,416.6z"/>
	<path id="Path_145" class="st6" d="M171.59,512.81l-0.65,3.79l-8.52-2.18l-11.42-3.7l-5.65-3.23c0,0,0.06-0.31,0.18-0.9v-0.1
		c0.05-0.25,0.1-0.55,0.17-0.89l0.81-0.08h0.06c1.62-0.15,3.26,0.07,4.78,0.65c1.86,0.7,4.29,1.5,4.79,1.16
		c0.86-0.37,1.8-0.54,2.74-0.48l1.19-2.6l0.17-0.4c0.37,0.99,0.92,1.9,1.61,2.69c0.28,0.33,0.59,0.65,0.91,0.94l-0.05,0.92
		l-0.06,1.3c1.27,0.82,2.65,1.45,4.1,1.9c0.38,0.09,0.77,0.09,1.15,0l0,0l0.81,0.32c0.84,0.32,1.69,0.59,2.56,0.81l0,0
		C171.36,512.77,171.47,512.8,171.59,512.81z"/>
	<path id="Path_146" class="st7" d="M167.36,520.91c-2.38-0.69-8.12-1.78-9.04-0.93c-0.93,0.85-8.88,0-8.88,0
		c-1.7-0.03-3.26-0.95-4.11-2.42c-1.61-2.57-0.31-10.9-0.31-10.9l0.59-0.06l0.98-0.1h0.06c1.62-0.15,3.26,0.07,4.78,0.65
		c1.86,0.69,4.29,1.49,4.79,1.16c0.86-0.37,1.8-0.54,2.74-0.48l1.36-2.99c0.37,0.99,0.92,1.9,1.61,2.69
		c0.28,0.33,0.59,0.65,0.91,0.94l-0.11,2.22c1.27,0.81,2.65,1.45,4.1,1.89c0.72,0.29,1.55,0.03,1.97-0.62
		c0.06-0.1,0.11-0.21,0.15-0.33l0,0c0.07,0.14,0.86,0.4,3.36,1.12l0,0c2.73-0.15,5.36,1.03,6.57,4.73
		C180.09,521.16,169.69,521.58,167.36,520.91z"/>
	<path id="Path_147" class="st6" d="M140.73,387.85c-0.53,0.15-1.02,0.3-1.47,0.44c-1.16,0.36-2.35,0.61-3.56,0.75
		c-7.61,1.07-20.17,0.43-24.15,0.18c0.05-1.59,0.2-3.18,0.44-4.76l27.51-3.65C139.51,380.81,141.04,385.29,140.73,387.85z"/>
	<path id="Path_148" class="st7" d="M164.71,381.17c0,0-10.1,1.57-18.32,3.36c-2.74,0.6-5.28,1.22-7.15,1.83
		c-1.16,0.35-2.35,0.6-3.56,0.75c-9.15,1.28-25.4,0.1-25.4,0.1c-4.46-14.48,5.42-32.7,5.42-32.7c-0.23-1.45,2.06-5.91,2.06-5.91
		l0.04-0.15l1.4-5.16h37.53l0.46,2.22l0.95,4.52l5.89,27.97L164.71,381.17z"/>
	<path id="Path_149" class="st6" d="M170.52,389.94l-0.23,0.1l-4.39,1.94c-4.75,2.19-18.98,2.61-23.95,2.65
		c-0.37-2.04-0.53-4.11-0.47-6.18c0,0,25.92-23.65,28.76-0.75C170.34,388.52,170.43,389.22,170.52,389.94z"/>
	<path id="Path_150" class="st7" d="M171.22,387.71l-0.92,0.4l-4.39,1.95c-4.84,2.23-19.52,2.62-24.21,2.65h-1.23
		c-2.17-0.07-4.34-2.11-4.34-2.64c0-0.29-0.23-1.72-0.42-2.95c-0.16-0.98-0.31-1.83-0.31-1.83s-9.68-4.18-14.6-7.56
		c-3.69-2.51-2.76-20.34-2.04-29.31c0.25-3.09,0.47-5.12,0.47-5.12l37.99,2.22l5.33,0.31l3.05,0.68l0.81,0.17
		c0,0,2.18,15.93,3.23,17.25s0.37,5.79,0.24,8.33c0,1.09-0.12,2.17-0.36,3.23c0,0,1.57,4.47,1.19,6.97
		C170.54,384.23,170.71,386.01,171.22,387.71L171.22,387.71z"/>
	<circle id="Ellipse_26" class="st5" cx="130.56" cy="239.87" r="15.56"/>
	<path id="Path_151" class="st5" d="M122.98,246.37c0,0,1.08,14.74-1.93,18.12c-3.01,3.38-10.86,9.77-10.86,9.77l2.42,10.01
		l13.64,1.57l15.93-17.02l-3.62-4.46c0,0-2.78-9.42-0.48-14.12C140.36,245.55,122.98,246.37,122.98,246.37z"/>
	<path id="Path_152" class="st6" d="M155.89,278.78L155.89,278.78l-0.81,1.29l-4.84-1.33l-3.38-12.64l0.21-3.67l0.99-1.43
		c0,0,5.31,0.13,5.08,4.95C152.91,270.19,155.32,277.17,155.89,278.78z"/>
	<path id="Path_153" class="st6" d="M166.39,348.6c0,0-3.84,0.86-8.24,1.43s-9.47,0.86-11.55-0.35c-3.49-2.07-22.42-1.48-27.85-1.27
		c-0.31-0.01-0.63,0-0.94,0.04l1.4-5.16h37.53l0.46,2.22l5.33,0.31l3.05,0.68C166.08,347.74,166.39,348.6,166.39,348.6z"/>
	<path id="Path_154" class="st8" d="M147.09,261.96c0,0,5.31,0.12,5.07,4.95c-0.24,4.83,2.9,13.15,2.9,13.15l-1.21,2.78
		c0,0-1.69,6.75-0.36,8.45c1.32,1.69,6.16,1.69,3.38,15.56c0,0-0.6,10.38,0.85,13.76c1.44,3.38,1.44,11.46,3.61,14.84
		c2.17,3.38,5.08,11.22,5.08,11.22s-15.69,3.49-19.79,1.08s-29.32-1.19-29.32-1.19s0.12-4.23,0-4.7c-0.22-1.07,0-2.18,0.61-3.08
		c0.81-1.15,2.17-3.07,1.44-4.76c-0.73-1.69,1.82-4.18,0.48-6.79c-1.33-2.61-2.95-3.14-2.62-4.57c0.32-1.43-0.52-3.36-1.48-4.57
		c-0.96-1.2-7.49-13.96-7.49-13.96l-1.08-5.98c0,0-8.4-6.16-8.25-9.05c0.15-2.9,3.18-6.91,3.18-6.91l8.07-7.93
		c0,0,4.46,4.84,8.8,3.14c4.34-1.7,13.71-9.77,13.71-9.77s3.34-1.81,3.58-3.13s2.29-0.12,2.29-0.12s3.02-1.65,3.62-1.07
		c0.61,0.58,3.23,1.07,3.23,1.07L147.09,261.96z"/>
	<path id="Path_155" class="st5" d="M101.48,287.09l-2.57,2.01c0,0-2.61,4.71-3.23,13.15c-0.61,8.44-3.23,20.38-3.23,20.38
		l-5.07,9.06c0,0-8.35,17.48-9.43,22.12s-6.04,12.49-6.04,12.49s-16.77,15.07-5.07,17.75c11.71,2.68,12.06-12,12.06-12
		s2.74-3.02,3.18-5.07c0.44-2.05,15.28-28.3,15.28-28.3s5.2-7.06,4.11-10.8c0,0,6.75-15.89,6.75-19.87
		c-0.13-3.32-0.49-6.62-1.08-9.88l1.08-8.33L101.48,287.09z"/>
	<path id="Path_156" class="st6" d="M136.23,320.36c0,0-11.83,6.19-14.12,6.51c-2.29,0.32,10.01-1.29,10.01-1.29L136.23,320.36z"/>
	<path id="Path_157" class="st6" d="M145.88,325.18c0,0-15.69,5.31-22.59,4.34C123.32,329.53,140.45,332.79,145.88,325.18z"/>
	<path id="Path_158" class="st6" d="M146.85,326.92c0,0-14.12,8.88-22.45,7.43c0,0,19.43,3.86,22.45,1.82l-8.69-2.42
		C138.16,333.75,147.82,328.65,146.85,326.92z"/>
	<path id="Path_159" class="st6" d="M130.58,212.49c-4.08-0.81-8.61-0.32-11.88,2.24c-2.42,1.9-4.03,4.84-6.75,6.23
		c-1.44,0.61-2.91,1.13-4.41,1.56c-5.45,2.23-8.66,7.9-7.77,13.72c0.43,2.42,1.55,4.6,2.1,6.96c0.98,4.21,0.12,8.63-0.95,12.81
		c-2.98,11.64-7.49,22.83-13.43,33.27c-0.47,0.65-0.71,1.44-0.67,2.24c0.14,0.54,0.42,1.03,0.81,1.43
		c5.58,6.45,14.65,8.66,23.17,8.95c3.14,0.1,6.45,0,9.18-1.52c1.78-1.02,3.31-2.42,4.48-4.11c2.97-4.06,4.45-9.02,4.18-14.05
		c-0.23-4.03-1.61-8.14-0.57-12.05c0.11-0.55,0.36-1.06,0.73-1.48c0.92-0.94,2.42-0.69,3.74-0.85c3.54-0.41,5.83-4.15,6.25-7.68
		c0.42-3.53-0.47-7.11-0.48-10.67c-0.02-4.71,1.45-9.31,4.2-13.14c1.18-1.61,2.69-3.23,3.08-5.25c0.5-2.54-0.98-4.41-2.25-6.45
		c-1.98-3.13-2.95-6.79-5.95-9.17C135.37,213.95,133.05,212.94,130.58,212.49L130.58,212.49z"/>
	<path id="Path_160" class="st9" d="M129.61,211.52c-4.07-0.81-8.61-0.32-11.88,2.25c-2.42,1.9-4.03,4.84-6.75,6.23
		c-1.44,0.6-2.91,1.12-4.41,1.55c-5.45,2.23-8.67,7.9-7.78,13.72c0.43,2.42,1.55,4.6,2.11,6.96c0.98,4.21,0.11,8.62-0.95,12.8
		c-2.97,11.64-7.48,22.82-13.41,33.27c-0.47,0.64-0.71,1.43-0.66,2.23c0.14,0.54,0.41,1.03,0.81,1.43
		c5.58,6.45,14.65,8.66,23.17,8.95c3.14,0.11,6.45,0,9.18-1.52c1.78-1.02,3.31-2.43,4.48-4.12c2.96-4.05,4.43-9,4.16-14.02
		c-0.23-4.03-1.61-8.14-0.56-12.06c0.11-0.55,0.36-1.05,0.72-1.48c0.92-0.94,2.42-0.69,3.75-0.81c3.54-0.41,5.83-4.15,6.25-7.69
		c0.42-3.54-0.46-7.1-0.48-10.67c-0.03-4.73,1.44-9.34,4.2-13.18c1.18-1.61,2.68-3.23,3.07-5.26c0.5-2.54-0.97-4.41-2.24-6.45
		c-1.98-3.13-2.95-6.79-5.96-9.17C134.41,212.99,132.08,211.97,129.61,211.52z"/>
	<path id="Path_161" class="st6" d="M124.4,362.39c0,0,3.1,14.48,8.25,18.42L124.4,362.39z"/>
	<g id="Group_10" class="st2">
		<path id="Path_162" d="M99.72,238.49c-0.16-0.56-0.35-1.13-0.54-1.69C99.34,237.37,99.53,237.94,99.72,238.49z"/>
		<path id="Path_163" d="M143.74,225.86c0.04,0.46,0.02,0.91-0.06,1.36c-0.4,2.04-1.9,3.63-3.08,5.26
			c-2.75,3.82-4.23,8.42-4.2,13.13c0,3.57,0.9,7.12,0.48,10.67c-0.42,3.54-2.7,7.26-6.25,7.69c-1.31,0.15-2.83-0.1-3.74,0.81
			c-0.37,0.42-0.62,0.93-0.73,1.48c-1.02,3.92,0.34,8.02,0.56,12.06c0.27,5.01-1.19,9.96-4.15,14.02c-1.17,1.68-2.7,3.09-4.48,4.12
			c-2.77,1.49-6.04,1.61-9.19,1.52c-8.38-0.28-17.28-2.42-22.88-8.64c-0.15,0.37-0.2,0.77-0.14,1.16c0.14,0.54,0.41,1.03,0.81,1.43
			c5.58,6.45,14.65,8.66,23.17,8.95c3.14,0.11,6.45,0,9.18-1.52c1.78-1.03,3.31-2.43,4.48-4.12c2.96-4.05,4.43-9,4.16-14.02
			c-0.23-4.03-1.61-8.14-0.56-12.06c0.11-0.55,0.36-1.05,0.72-1.48c0.92-0.94,2.42-0.69,3.75-0.81c3.54-0.41,5.83-4.15,6.25-7.69
			c0.42-3.54-0.46-7.1-0.48-10.67c-0.02-4.71,1.45-9.3,4.2-13.13c1.18-1.61,2.68-3.23,3.07-5.26
			C144.87,228.64,144.56,227.12,143.74,225.86L143.74,225.86z"/>
	</g>
	<path id="Path_164" class="st4" d="M420.98,616.43c0,0-30.7-1.86-27.08,19.66c0,0-0.72,3.8,2.73,5.53c0,0,0.06-1.61,3.15-1.05
		c1.1,0.19,2.22,0.24,3.33,0.16c1.51-0.1,2.94-0.7,4.08-1.69l0,0c0,0,8.63-3.57,11.98-17.67c0,0,2.49-3.07,2.42-3.86l-5.18,2.21
		c0,0,1.77,3.74,0.37,6.84c0,0-0.16-6.71-1.16-6.54c-0.2,0-2.69,1.29-2.69,1.29s3.04,6.51,0.74,11.24c0,0,0.87-8.02-1.69-10.76
		l-3.65,2.12c0,0,3.56,6.73,1.15,12.22c0,0,0.62-8.42-1.91-11.69l-3.31,2.57c0,0,3.35,6.62,1.31,11.18c0,0-0.27-9.8-2.03-10.49
		c0,0-2.89,2.54-3.32,3.59c0,0,2.28,4.84,0.86,7.35c0,0-0.87-6.53-1.61-6.55c0,0-2.88,4.32-3.18,7.26c0.14-2.74,0.99-5.4,2.48-7.71
		c-1.66,0.31-3.19,1.11-4.41,2.28c0,0,0.44-3.06,5.12-3.32c0,0,2.42-3.28,3.02-3.48c0,0-4.65-0.39-7.46,0.86
		c0,0,2.48-2.89,8.32-1.61l3.23-2.66c0,0-6.12-0.81-8.71,0.09c0,0,2.99-2.56,9.59-0.69l3.55-2.13c0,0-5.21-1.12-8.32-0.72
		c0,0,3.28-1.77,9.36,0.15l2.54-1.15c0,0-3.82-0.75-4.94-0.86c-1.11-0.11-1.18-0.43-1.18-0.43c2.42-0.4,4.9-0.12,7.17,0.81
		C415.65,618.77,421.07,616.77,420.98,616.43z"/>
	<ellipse id="Ellipse_27" class="st0" cx="399.83" cy="643.49" rx="21.73" ry="3.67"/>
	<path id="Path_165" class="st4" d="M661.52,590.13c0,0-30.66-1.85-27.08,19.66c0,0-0.72,3.8,2.73,5.53c0,0,0.06-1.61,3.15-1.06
		c1.1,0.18,2.22,0.24,3.34,0.16c1.51-0.1,2.94-0.69,4.07-1.69l0,0c0,0,8.63-3.56,11.98-17.66c0,0,2.49-3.08,2.42-3.87l-5.21,2.26
		c0,0,1.77,3.74,0.38,6.84c0,0-0.17-6.71-1.16-6.55c-0.2,0-2.69,1.29-2.69,1.29s3.04,6.51,0.75,11.25c0,0,0.87-8.02-1.7-10.77
		l-3.65,2.13c0,0,3.56,6.72,1.15,12.21c0,0,0.62-8.42-1.91-11.69l-3.3,2.56c0,0,3.34,6.63,1.3,11.18c0,0-0.27-9.8-2.02-10.54
		c0,0-2.89,2.55-3.33,3.6c0,0,2.29,4.84,0.87,7.34c0,0-0.87-6.52-1.61-6.55c0,0-2.88,4.32-3.18,7.26c0.14-2.74,1-5.4,2.49-7.71
		c-1.66,0.31-3.2,1.11-4.41,2.28c0,0,0.45-3.05,5.12-3.32c0,0,2.42-3.28,3.02-3.48c0,0-4.65-0.39-7.47,0.86c0,0,2.49-2.89,8.32-1.57
		l3.23-2.66c0,0-6.12-0.81-8.71,0.09c0,0,2.99-2.55,9.59-0.69l3.55-2.12c0,0-5.22-1.13-8.33-0.72c0,0,3.28-1.77,9.37,0.15l2.54-1.14
		c0,0-3.82-0.75-4.95-0.87c-1.12-0.12-1.18-0.43-1.18-0.43c2.42-0.4,4.91-0.12,7.18,0.81C656.16,592.49,661.61,590.47,661.52,590.13
		z"/>
	<ellipse id="Ellipse_28" class="st0" cx="640.37" cy="617.19" rx="21.73" ry="3.67"/>
	<ellipse id="Ellipse_29" class="st0" cx="684.68" cy="352.46" rx="62.57" ry="10.26"/>
	
		<linearGradient id="Path_166_1_" gradientUnits="userSpaceOnUse" x1="-253.4408" y1="715.2842" x2="-253.4408" y2="716.0911" gradientTransform="matrix(204.2234 0 0 -396.9421 52434.832 284282.5625)">
		<stop  offset="0" style="stop-color:#808080;stop-opacity:0.251"/>
		<stop  offset="0.54" style="stop-color:#808080;stop-opacity:0.122"/>
		<stop  offset="1" style="stop-color:#808080;stop-opacity:0.102"/>
	</linearGradient>
	<path id="Path_166" class="st10" d="M757.53,150.08c2.56-8.58,0-17.15,0-17.15v-8.07c0,0,2.92-15.82-10.09-25.97l-8.63-7.61
		c0,0-4.84-4.15-6.24-4.41c-0.27-0.06-0.54-0.1-0.81-0.12l-0.26-0.15c-0.74-1.27-1.37-2.6-1.89-3.98c1.13,0.14,2.27-0.24,3.07-1.05
		c0.31-0.36,0.56-0.77,0.73-1.21l0,0c0.5-1.12,0.58-2.48,1.01-3.67c0.37-0.97,0.92-1.86,1.61-2.64c-0.09,0.15-0.18,0.28-0.26,0.43
		c1.22-1.52,2.82-2.82,3.95-4.43c0.23-0.32,0.44-0.64,0.63-0.98l-0.17,0.2c1.61-2.55,2.07-5.65,2.53-8.62
		c0.22-1.01,0.24-2.06,0.05-3.08c-0.22-0.68-0.51-1.33-0.86-1.95c-1.87-3.87-1.83-8.73-4.84-11.82c-2.25-2.32-5.65-3.03-8.88-3.42
		s-6.59-0.62-9.35-2.31c-0.77-0.58-1.63-1.05-2.53-1.4c-0.95-0.33-1.99,0.06-2.49,0.93c-0.06,0.25-0.17,0.48-0.33,0.67
		c-0.29,0.17-0.65,0.19-0.96,0.06l-4.28-1.15l0.05,0.22h-0.1l0.15,0.68c0.17-0.02,0.34,0.07,0.4,0.23l-0.69,1.06
		c-1.33-0.02-2.64-0.3-3.86-0.81c0,0.07,0,0.14,0,0.21h-0.06c-0.08,1.21,1.29,1.99,1.71,3.13c0.17,0.5,0.17,1.04,0,1.53
		c-0.18,0.46-0.45,0.88-0.81,1.23c-1.52,1.5-3.46,1.2-5.21,2.15c-0.31,0.13-0.54,0.38-0.64,0.7c-0.07,0.12-0.09,0.26-0.06,0.39
		c0.07,0.18,0.19,0.34,0.35,0.44c0.51,0.41,1.07,0.76,1.66,1.03l-0.5,0.48c-7.41,7.55-7.3,19.67,0.24,27.09
		c1.83,1.79,3.99,3.2,6.37,4.15c0.06,0.33,0.11,0.67,0.16,1.03v0.1l0.05,0.46l-5.77,2.42c-1.77-0.01-3.38-1.05-4.13-2.65
		c-1.34-2.78-6.08,0-6.08,0s-14.47-1.09-19.82,1.57c0,0-8.63-3.62-9.84-3.86c-1.21-0.24-3.04-1.21-3.9-0.97
		c-0.86,0.24-1.94-1.61-2.55-1.45c-0.61,0.16-0.81-1.2-2.79-1.69c-1.98-0.48-2.68,0.12-4.84-2.06
		c-2.16-2.18-19.94-10.75-19.94-10.75l-8.02-6.53l-8.51-6.76l-0.15,0.28c-0.05-0.2-0.1-0.41-0.16-0.63
		c-0.84-3.37-1.89-6.69-3.15-9.92c-0.55-1.31-0.81-2.96-1.53-2.09c-0.45,0.52-1.23-0.62-2.42-1.4c-0.91-0.63-2.16-0.41-2.8,0.5
		c-0.08,0.12-0.15,0.24-0.2,0.37l0,0c-6.62,10.38-9,11.13-5.16,14.94c3.41,3.39,5.69,6.38,8.48,7.26l0.33,0.1
		c-0.06,0.01-0.12,0.01-0.19,0l16.14,19.32c0,0,11.67,10.15,19.7,13.41s7.42,4.23,7.42,4.23s24.31,12.32,28.08,12.1
		s3.04,25.25,1.46,29.35c-1.58,4.11-4.13,33.82-4.13,33.82s-2.42,6.28,0.12,10.63c0,0,0.56,8.33,0.06,10.32
		c-2.22,3.41-5.37,9.21-5.89,15.17c-0.02,0.31-0.05,0.62-0.1,0.92c-0.16,0.19-0.36,0.35-0.57,0.47c0,0,0.21-0.05,0.54-0.16
		c-0.24,2.48-0.78,4.92-1.61,7.26c-1.29,3.35-1.96,6.9-1.98,10.49v19.2l-1.61,11.9c0,0-1.94,9.01,0,11.11
		c0.83,1.05,1.21,2.38,1.07,3.7c-0.08,1.54,0.36,3.06,1.24,4.32c0.68,0.75,0.98,1.78,0.81,2.78c-0.65,2.09,0.95,24.31,0.95,24.31
		s-0.47,6.12-1.11,6.45c-0.65,0.33,1.08,7.04,1.08,7.04s-6.57,5.48-4.9,8.38l1.68,2.57l-0.44,0.44l-0.27,0.27
		c-0.5-0.29-1.09-0.4-1.67-0.31c-2.06,2.11-4.27,4.08-6.61,5.88c-2.96,2.14-11.02,5.24-11.02,5.24l-6.36,0.52h-0.12
		c0,0-3.04-0.28-1.34,4.43c1.7,4.71,16.94,3.23,16.94,3.23l8.88-1.4c0,0,15.88,0.07,20.42-0.93c1.9-0.43,2.36-1.44,2.24-2.47l0,0
		l-0.05-0.05c-0.22-0.98-0.66-1.9-1.3-2.67c-0.03-0.05-0.07-0.09-0.11-0.14l0.29-3.23c6.74-3.88-1.9-11.52-1.9-11.52
		s2.95-6.45,4.48-8.53c1.53-2.07,1.52-32.86,1.52-32.86s0.81-11.12-1.3-13.72c-0.07-1.71,0.8-3.32,2.27-4.19
		c1.5-1.02,6.04-15.14,9.59-26.85l2.24,13.81c0,0-0.48,6.6,0.98,8.54c0.55,0.73,0.76,1.66,0.6,2.57c-0.36,1.86-0.24,3.78,0.33,5.59
		c0.16,0.77,0.57,1.47,1.17,1.98c1.3,0.65,1.38,2.95,1.86,3.43c0.48,0.48,3.49-0.69,3.65,1.08c0.09,1.56,0.09,3.12,0,4.67
		l0.98,28.67c0,0-1.61,2.42-1.94,8.7c-0.14,2.71-0.65,4.25-1.17,5.13c-0.6,0.97-0.5,2.22,0.24,3.08l0.28,0.32l-1.2,0.93
		c-0.98,0.76-1.29,2.11-0.74,3.23c-0.79,0.69-1.09,1.79-0.75,2.78c0.06,0.16,0.13,0.31,0.21,0.45c-0.91,0.14-1.75,0.56-2.42,1.19
		c-1.2,1.65-2.64,3.1-4.28,4.31c-2.38,1.82-4.66,3.77-6.83,5.84c-1.02,1.41-2.39,2.52-3.99,3.23c-0.39,0.16-0.79,0.28-1.2,0.36
		c-3.23,0.65-2.19,3.99,0.4,4.52c2.59,0.52,11.18,3.18,17.87,1.61c0,0,1.98,0.81,4.9-0.68c2.91-1.48,9.55-3.23,9.55-3.23
		s3.65,0,4.13-1.45c0.13-0.46,0.2-0.93,0.21-1.41l0.1-0.1l-0.1-0.09c0.01-1.08-0.08-2.16-0.25-3.23c-0.09-0.55-0.19-1.05-0.29-1.44
		c-0.31-1.21-0.89-2.77-1.14-3.43c0.04-0.05,0.08-0.11,0.11-0.17c1.39-2.35-0.92-8.07-0.92-8.07c0.76-1.2,1.69-2.28,2.75-3.23
		c1.3-0.96,4.7-26.09,4.7-26.09s-0.16-6.45,1.61-9.34c1.78-2.89-2.42-20.45-2.42-20.45s-1.78-4.03-1.13-5.48s-0.65-6.76-0.65-6.76
		v-6.34c0-0.76-0.13-1.51-0.37-2.23c-0.5-1.49-1.24-4.36-0.44-6.45c1.14-2.9,3.73-20.78,3.73-20.78s-2.03-7.88,0.94-14.16
		c0.24-0.5,0.51-0.99,0.81-1.46c2.19-3.45,1.54-9.59,0.46-14.52c-0.17-0.77-0.35-1.5-0.52-2.2c-0.08-0.3-0.16-0.58-0.23-0.86
		l0.35-0.15c0.01-0.43,0.04-0.85,0.1-1.27c2.43-0.47,4.55-1.93,5.85-4.03c0,0,7.42-8.33,13.98-11.84s7.05-8.58,7.05-8.58
		c-0.98-1.69,1.73-8.58,1.73-8.58L757.53,150.08z M736.18,161.19l-7.02,8.14c0-0.02,0-0.03,0-0.05c-1.82-2.53,1.7-8.21,1.7-8.21
		l5.8-13c-0.05,1.68-0.25,3.15-0.76,3.84c-1.61,2.18,2.91,5.8,2.91,5.8c-2.43-0.02-2.67,3.48-2.67,3.48L736.18,161.19z"/>
	<path id="Path_167" class="st11" d="M612.54,54.47l-3.82,7.43c-1.21-0.1-2.41-0.35-3.57-0.74c-3.7-1.11-6.75-3.76-8.38-7.26
		c-3.42-7.57,2.24-12.46,4.88-13.89c2.64-1.44,5.08-3.09,7.06,1.61c1.24,3.22,2.29,6.51,3.11,9.86
		C612.27,53.27,612.54,54.47,612.54,54.47z"/>
	<path id="Path_168" class="st11" d="M734.31,93.2l-6.12,9.13c0,0-28.93,13.8-23.4-2.42c2.42-7.14,2.72-12.37,2.28-15.98v-0.1
		c-0.56-4.52-2.27-6.45-2.27-6.45s28.2-14.43,24-4.56c-0.85,2.05-1.2,4.28-1,6.5c0.35,3.19,1.39,6.26,3.04,9.01
		C731.84,90.06,733,91.69,734.31,93.2L734.31,93.2z"/>
	<path id="Path_169" class="st12" d="M725.55,273.77c0,0,4.16,17.44,2.42,20.33s-1.61,9.28-1.61,9.28s-3.36,24.97-4.65,25.93
		c-1.05,0.95-1.97,2.03-2.72,3.23c0,0,2.28,5.65,0.91,7.99c-0.21,0.36-0.53,0.65-0.91,0.81c-2.15,0.9-10.07-3.11-14.58-5.57
		c-0.57-0.3-1-0.82-1.19-1.43c-0.34-0.98-0.05-2.08,0.73-2.76c-0.55-1.11-0.24-2.46,0.73-3.23l1.19-0.92l-0.27-0.32
		c-0.73-0.86-0.83-2.1-0.24-3.07c0.52-0.87,1.02-2.42,1.15-5.09c0.32-6.25,1.92-8.64,1.92-8.64l-0.96-28.49
		c0.09-1.55,0.09-3.09,0-4.64c-0.16-1.76-3.12-0.6-3.6-1.08c-0.48-0.48-0.56-2.76-1.84-3.4c-0.59-0.51-1-1.2-1.16-1.97
		c-0.57-1.8-0.68-3.71-0.33-5.56c0.17-0.89-0.05-1.82-0.59-2.55c-1.44-1.92-0.96-8.48-0.96-8.48l-2.21-13.72
		c-3.52,11.64-8,25.67-9.47,26.68c-1.46,0.87-2.32,2.47-2.24,4.16c2.08,2.56,1.28,13.6,1.28,13.6s0,30.56-1.5,32.65
		c-1.5,2.08-4.42,8.48-4.42,8.48s8.58,7.63,1.83,11.48l-0.07,0.04c-6.88,3.84-21.12-6.87-21.12-6.87l1.48-1.48l0.44-0.44l-1.61-2.57
		c-1.65-2.88,4.84-8.32,4.84-8.32s-1.73-6.72-1.09-7.04c0.64-0.32,1.09-6.41,1.09-6.41s-1.57-22.08-0.94-24.16
		c0.19-0.99-0.09-2.01-0.76-2.76c-0.87-1.25-1.3-2.76-1.23-4.28c0.14-1.32-0.24-2.64-1.05-3.68c-1.92-2.08,0-11.05,0-11.05
		l1.61-11.84v-18.86c0-3.62,0.66-7.2,1.94-10.59c0.97-2.75,1.55-5.61,1.74-8.52c0.52-6.07,3.78-11.97,5.98-15.33
		c1.16-1.78,2.03-2.84,2.03-2.84l51.21-2.01c0,0,0.81,2.28,1.61,5.45c0.18,0.69,0.35,1.42,0.52,2.19
		c1.07,4.92,1.72,11.01-0.45,14.45c-0.3,0.46-0.57,0.94-0.81,1.44c-2.93,6.24-0.93,14.07-0.93,14.07s-2.56,17.75-3.68,20.65
		c-0.81,2.04-0.06,4.89,0.44,6.37c0.24,0.71,0.36,1.46,0.36,2.21v6.3c0,0,1.28,5.28,0.65,6.72S725.55,273.77,725.55,273.77z"/>
	<path id="Path_170" class="st6" d="M727.91,211c-0.3,0.46-0.57,0.95-0.81,1.44l-2.88-0.16c0.27-1.48-1.69-15.4-1.69-15.4l5.81-0.33
		C729.42,201.51,730.08,207.61,727.91,211z"/>
	<path id="Path_171" class="st12" d="M728.38,210.56c-0.3,0.46-0.57,0.94-0.81,1.44l-2.89-0.16c0.28-1.48-1.68-15.41-1.68-15.41
		l5.8-0.32C729.91,201.03,730.55,207.12,728.38,210.56z"/>
	<path id="Path_172" class="st13" d="M728.38,210.56c-0.3,0.46-0.57,0.94-0.81,1.44l-2.89-0.16c0.28-1.48-1.68-15.41-1.68-15.41
		l5.8-0.32C729.91,201.03,730.55,207.12,728.38,210.56z"/>
	<path id="Path_173" class="st6" d="M719.9,340.5c-0.21,0.36-0.53,0.65-0.91,0.81c-2.15,0.9-10.07-3.11-14.58-5.57
		c-0.57-0.3-1-0.82-1.19-1.43c2.57-0.47,4.25,2.42,4.25,2.42c1.77-1.11,4.11-0.58,5.22,1.19c0.02,0.03,0.04,0.06,0.06,0.1
		c2.2,3.23,6.92,1.87,6.92,1.87S719.77,340.1,719.9,340.5z"/>
	<path id="Path_174" class="st14" d="M721.23,350.31c-0.48,1.44-4.08,1.44-4.08,1.44s-6.45,1.85-9.33,3.28s-4.84,0.68-4.84,0.68
		c-6.61,1.52-15.09-1.11-17.65-1.61s-3.57-3.84-0.4-4.48c0.41-0.08,0.8-0.2,1.19-0.36c1.58-0.7,2.94-1.82,3.94-3.23
		c2.14-2.06,4.39-4,6.74-5.81c1.62-1.2,3.05-2.64,4.23-4.28c3.76-3.32,6.45,1.24,6.45,1.24c1.77-1.11,4.11-0.58,5.22,1.19
		c0.02,0.03,0.04,0.06,0.06,0.1c2.2,3.23,6.92,1.87,6.92,1.87s0.81,2.16,1.24,3.72c0.1,0.4,0.2,0.9,0.29,1.44
		C721.53,347.09,721.53,348.72,721.23,350.31z"/>
	<circle id="Ellipse_30" class="st15" cx="710.23" cy="339.75" r="0.44"/>
	<circle id="Ellipse_31" class="st15" cx="706.47" cy="343.27" r="0.44"/>
	<circle id="Ellipse_32" class="st15" cx="702.64" cy="346.43" r="0.44"/>
	<circle id="Ellipse_33" class="st15" cx="704.62" cy="345.02" r="0.44"/>
	<circle id="Ellipse_34" class="st15" cx="708.43" cy="341.39" r="0.44"/>
	<path id="Path_175" class="st16" d="M721.23,350.31c-0.48,1.44-4.08,1.44-4.08,1.44s-6.45,1.85-9.33,3.28s-4.84,0.68-4.84,0.68
		c-6.61,1.52-15.09-1.11-17.65-1.61s-3.57-3.84-0.4-4.48c0.41-0.08,0.8-0.2,1.19-0.36c2.79,0.95,5.71,1.5,8.66,1.61
		c6.52,0.27,11.68,0,11.68,0l6.6-2.12c1.25-0.76,2.64-1.26,4.08-1.48c1.45-0.29,2.83-0.89,4.03-1.76
		C721.5,347.09,721.52,348.72,721.23,350.31L721.23,350.31z"/>
	<path id="Path_176" class="st17" d="M704.81,354.45c-0.37,0-0.74-0.04-1.1-0.11l0.1-0.47c1.34,0.21,2.72,0.02,3.95-0.55
		c0.6-0.24,1.18-0.51,1.75-0.81c0.68-0.34,1.37-0.65,2.08-0.91l0.65-0.23c0.36-0.12,0.73-0.24,1.07-0.4c0.2-0.08,0.4-0.18,0.59-0.27
		c0.47-0.25,0.97-0.44,1.48-0.56c0.27-0.05,0.54-0.09,0.81-0.1c0.24-0.02,0.49-0.05,0.73-0.09c0.48-0.12,0.95-0.29,1.39-0.52
		c0.47-0.24,0.98-0.43,1.49-0.55l0.36-0.06c0.38-0.01,0.74-0.14,1.03-0.38l0.35,0.33c-0.36,0.32-0.82,0.5-1.31,0.52l-0.33,0.06
		c-0.48,0.12-0.95,0.29-1.39,0.52c-0.47,0.24-0.98,0.43-1.49,0.55c-0.27,0.05-0.54,0.09-0.81,0.1c-0.25,0.02-0.5,0.05-0.75,0.1
		c-0.48,0.12-0.94,0.3-1.37,0.53l-0.61,0.27c-0.37,0.15-0.74,0.28-1.11,0.4l-0.64,0.23c-0.69,0.26-1.38,0.58-2.05,0.89
		s-1.17,0.56-1.78,0.81C706.93,354.17,705.88,354.41,704.81,354.45L704.81,354.45z"/>
	<path id="Path_177" class="st6" d="M706.35,274.93c0,0,3.32-4.84,9-4.76c5.68,0.08,8.12-0.64,8.12-0.64s-3.64,2.15-6.16,2.42
		C714.79,272.22,706.35,274.93,706.35,274.93z"/>
	<path id="Path_178" class="st6" d="M708.27,276.05c0,0,3-2.08,4.72-2.16c1.72-0.08,3.23-0.24,3.23-0.24c-0.8,0.57-1.7,1-2.64,1.28
		C712.11,275.34,708.27,276.05,708.27,276.05z"/>
	<path id="Path_179" class="st6" d="M708.9,277.49c0,0,4.53,0.36,4.57,1.57"/>
	<path id="Path_180" class="st6" d="M666.81,210.02c0.23,0.04,4.27-4.2,4.55-5.88c0.22-1.06,0.86-1.99,1.76-2.58
		c0,0,2.61,1.04,0.28,4.23C671.08,208.97,666.81,210.02,666.81,210.02z"/>
	<path id="Path_181" class="st6" d="M728.79,72.76c-0.92,2.18-1.73,2.34-1.56,4.45c-1.07,1.13-2.31,2.1-3.66,2.88
		c-2.86,1.7-5.98,5.03-9.55,5.03c-2.39,0.01-4.75-0.44-6.97-1.32c-0.56-4.52-2.27-6.45-2.27-6.45S732.97,62.9,728.79,72.76z"/>
	<path id="Path_182" class="st11" d="M733.11,65.08c0,10.54-8.54,19.08-19.08,19.08s-19.08-8.54-19.08-19.08
		c0-10.54,8.54-19.08,19.08-19.08C724.57,46,733.11,54.54,733.11,65.08C733.11,65.08,733.11,65.08,733.11,65.08z"/>
	<path id="Path_183" class="st6" d="M734.31,93.2l-6.12,9.13c0,0-28.93,13.8-23.4-2.42c2.42-7.14,2.72-12.37,2.28-15.98h0.05
		c0.34,1.2,0.53,2.43,0.57,3.68c0.09,2.49,0.15,5.65,6.33,6.68c10.3,1.73,15.84-4.71,16.81-5.98
		C731.83,90.05,732.99,91.69,734.31,93.2z"/>
	<path id="Path_184" class="st6" d="M612.54,54.47l-3.82,7.43c-1.21-0.1-2.41-0.35-3.57-0.74l-0.33-0.4
		c1.57,0.6,6.84-9.37,6.84-9.37l0.17,0.14C612.27,53.27,612.54,54.47,612.54,54.47z"/>
	<path id="Path_185" class="st6" d="M728.32,193.92c-12.35,5.37-55.1,0.81-55.1,0.81c0.13-0.45,0.21-0.92,0.22-1.4
		c1.16-1.78,2.03-2.84,2.03-2.84l51.21-2.01C726.67,188.49,727.5,190.75,728.32,193.92z"/>
	<path id="Path_186" class="st18" d="M707.15,84.37l-5.7,2.42c-1.76-0.02-3.35-1.05-4.08-2.65c-1.32-2.76-5.99,0-5.99,0
		s-14.29-1.08-19.57,1.57c0,0-8.52-3.61-9.68-3.84c-1.16-0.23-3-1.2-3.84-0.96s-1.92-1.57-2.52-1.44c-0.6,0.12-0.85-1.2-2.77-1.68
		c-1.92-0.48-2.64,0.12-4.8-2.04c-2.16-2.16-19.68-10.68-19.68-10.68l-7.92-6.45l-8.4-6.72c0,0-5.28,9.96-6.84,9.36l15.96,19.2
		c0,0,11.52,10.09,19.45,13.32c7.92,3.24,7.32,4.2,7.32,4.2s24.01,12.24,27.73,12.01s3,25.09,1.44,29.17
		c-1.57,4.08-4.07,33.61-4.07,33.61s-2.42,6.24,0.11,10.56c0,0,0.61,8.88,0,10.44c0,0,43.01,4.6,55.21-0.81c0,0,1.8-19.92,0-22.45
		c-1.8-2.53,1.69-8.16,1.69-8.16l7.62-17.2l18.7-18.86c0,0,2.88-15.73-9.96-25.82l-8.53-7.56c0,0-4.77-4.12-6.16-4.38
		c-1.39-0.26-0.88,0-0.88,0s-5.57,8.07-16.94,6.18c-6.18-1.04-6.25-4.19-6.33-6.68C707.68,86.78,707.49,85.56,707.15,84.37
		L707.15,84.37z"/>
	<path id="Path_187" class="st6" d="M730.59,148.98c0,0-26.41,1.08-31.69,9.37c0,0,6.84-3.23,12.96-2.28
		C717.98,157.01,730.59,148.98,730.59,148.98z"/>
	<path id="Path_188" class="st6" d="M701.42,177.92c0,0,12.48,0.81,15.13-1.8c2.65-2.61,2.65-4.2,2.65-4.2L701.42,177.92z"/>
	<path id="Path_189" class="st6" d="M733.11,123.54c0,0-10.56,12.48,2.28,17.88L733.11,123.54z"/>
	<path id="Path_190" class="st6" d="M670.58,99.41c0,0,3.84,7.83,5.76,8.36L670.58,99.41z"/>
	<path id="Path_191" class="st6" d="M657.62,96.05c0,0,9.6,8.64,11.4,9.48C669.02,105.53,659.06,96.05,657.62,96.05z"/>
	<path id="Path_192" class="st6" d="M695.91,87.77c0,0-9.25,13.8-3.23,22.21C692.63,109.98,689.31,100.01,695.91,87.77z"/>
	<path id="Path_193" class="st11" d="M719.2,192.32l-2.82,2.65l-0.4,0.37l-3.27,3.09c-0.24,0.18-0.47,0.36-0.7,0.52
		c-13.31,9.55-15.98-4.95-15.98-4.95s-5.88,3.84-6.72,0.72s13.72-7.56,15.84-7.32c0.19,0.02,0.39,0.02,0.58,0
		c1.05-0.18,2.06-0.53,2.99-1.06c0.22-0.11,0.44-0.23,0.65-0.35c0.74-0.41,1.46-0.87,2.15-1.36L719.2,192.32z"/>
	<path id="Path_194" class="st6" d="M733.59,65.08c0,6.73-3.54,12.96-9.33,16.41c-0.26-0.45-0.49-0.91-0.69-1.39
		c-0.69-1.61-1.11-3.3-1.79-4.9c-0.77-1.75-1.87-3.33-3.23-4.67c-0.22-0.26-0.49-0.46-0.81-0.59c-0.63-0.08-1.26,0.09-1.75,0.48
		c-0.81,0.55-1.71,0.95-2.66,1.17c-0.97,0.22-1.98-0.09-2.67-0.81c-0.74-0.89-0.64-2.19-0.42-3.33c0.46-2.49,1.24-4.92,1.24-7.45
		c0-2.53-0.95-5.25-3.15-6.5c-1.94-1.1-4.34-0.81-6.5-1.41c-0.33-0.09-0.66-0.2-0.98-0.34c7.37-7.54,19.45-7.69,27-0.32
		c3.68,3.59,5.75,8.51,5.75,13.65L733.59,65.08z"/>
	<path id="Path_195" class="st19" d="M699.55,48.72c-0.35,0.19-0.73,0.52-0.62,0.9c0.06,0.18,0.19,0.34,0.35,0.44
		c0.89,0.72,1.92,1.25,3.02,1.55c2.15,0.58,4.57,0.31,6.5,1.41c2.19,1.25,3.15,3.97,3.15,6.5c-0.01,2.53-0.81,4.97-1.25,7.45
		c-0.21,1.15-0.32,2.42,0.43,3.34c0.69,0.72,1.7,1.02,2.67,0.81c0.95-0.22,1.85-0.61,2.65-1.16c0.49-0.39,1.13-0.57,1.75-0.48
		c0.33,0.12,0.62,0.32,0.86,0.58c1.36,1.34,2.46,2.93,3.23,4.68c0.69,1.61,1.11,3.29,1.79,4.9c0.6,1.65,1.74,3.05,3.23,3.99
		c1.55,0.93,3.52,0.73,4.84-0.51c1.11-1.23,1.08-3.08,1.61-4.66c0.95-2.72,3.61-4.43,5.28-6.78c1.87-2.64,2.42-5.97,2.9-9.17
		c0.22-1.01,0.24-2.05,0.05-3.07c-0.22-0.67-0.5-1.32-0.85-1.94c-1.86-3.84-1.82-8.67-4.78-11.75c-2.23-2.3-5.6-3-8.78-3.39
		c-3.18-0.39-6.51-0.63-9.24-2.3c-0.76-0.58-1.61-1.05-2.5-1.39c-0.93-0.33-1.97,0.06-2.46,0.92c-0.06,0.25-0.17,0.48-0.33,0.67
		c-0.29,0.16-0.63,0.19-0.94,0.06l-4.23-1.14l0.48,2.13c-1.54,0.06-3.07-0.21-4.49-0.81c-0.08,1.2,1.27,1.98,1.69,3.11
		c0.31,1.05,0,2.19-0.81,2.93C703.2,48.07,701.28,47.78,699.55,48.72z"/>
	<path id="Path_196" class="st6" d="M682.42,335.5l-0.17,1.92l-0.07,0.04c-6.88,3.84-21.12-6.87-21.12-6.87l1.48-1.48
		c0.49,0.55,0.72,1.27,0.65,2l2.91,0.16l3.48,3.76c0,0,9.42,1.09,11.97,0.48H682.42z"/>
	<path id="Path_197" class="st14" d="M681.22,345.95c-4.48,0.99-20.17,0.92-20.17,0.92l-8.76,1.4c0,0-15.08,1.44-16.76-3.23
		c-1.68-4.67,1.32-4.4,1.32-4.4h0.11l6.28-0.51c0,0,7.96-3.08,10.88-5.2c2.31-1.79,4.48-3.75,6.52-5.84c0,0,2.62-0.51,2.57,2.53
		l2.91,0.16l3.48,3.75c0,0,9.42,1.1,11.97,0.48h0.88l-0.4,4.64l0.11,0.15C682.71,341.52,685.22,345.06,681.22,345.95z"/>
	<circle id="Ellipse_35" class="st15" cx="664.97" cy="334.29" r="0.44"/>
	<circle id="Ellipse_36" class="st15" cx="653.69" cy="339.19" r="0.44"/>
	<circle id="Ellipse_37" class="st15" cx="647.88" cy="340.96" r="0.44"/>
	<circle id="Ellipse_38" class="st15" cx="656.65" cy="338.26" r="0.44"/>
	<circle id="Ellipse_39" class="st15" cx="650.78" cy="340.08" r="0.44"/>
	<circle id="Ellipse_40" class="st15" cx="659.65" cy="336.87" r="0.44"/>
	<circle id="Ellipse_41" class="st15" cx="662.61" cy="335.59" r="0.44"/>
	<path id="Path_198" class="st16" d="M681.22,345.95c-4.48,0.99-20.17,0.92-20.17,0.92l-8.76,1.4c0,0-15.08,1.44-16.76-3.23
		c-1.68-4.67,1.32-4.4,1.32-4.4h0.11c0.96,1.24,2.89,2.66,6.68,2.73l10.84,0.44l11.24-0.81c0,0,10.49-0.32,12.24-0.68
		c1.44-0.39,2.85-0.91,4.2-1.54C682.71,341.52,685.22,345.06,681.22,345.95z"/>
	<path id="Path_199" class="st17" d="M653.09,347.21c-0.6,0-1.2-0.07-1.78-0.22l0.16-0.44c1.48,0.32,3.02,0.25,4.47-0.2
		c0.53-0.14,1.06-0.29,1.61-0.45c2.5-0.85,5.16-1.15,7.79-0.88h0.35c4.81,0.26,9.63,0.04,14.4-0.65c1.13-0.07,2.21-0.51,3.08-1.23
		l0.35,0.34c-0.94,0.8-2.12,1.28-3.35,1.37c-4.81,0.69-9.67,0.9-14.52,0.65h-0.34c-1.59-0.12-3.19-0.07-4.77,0.14
		c-0.97,0.18-1.92,0.42-2.86,0.72c-0.53,0.16-1.07,0.32-1.61,0.46C655.1,347.07,654.1,347.21,653.09,347.21L653.09,347.21z"/>
	<path id="Path_200" class="st6" d="M719.2,192.32l-2.82,2.65l-7.02-8.98c0.74-0.41,1.46-0.87,2.15-1.36L719.2,192.32z"/>
	<path id="Path_201" class="st18" d="M751,118.62l5.52,7.68v8.07c0,0,2.53,8.53,0,17.05l0.28,7.44c0,0-2.68,6.84-1.72,8.52
		c0,0-0.48,5.04-6.96,8.53c-6.48,3.49-13.81,11.7-13.81,11.7s-2.76,5.28-10.2,4.08l-7.08,3l-8.16-10.44l11.04-6
		c0,0,3.84-5.16,6.12-4.92l9.36-10.9c0,0,0.24-3.48,2.64-3.48c0,0-4.44-3.6-2.88-5.76c1.56-2.16,0.24-11.76,0.24-11.76L751,118.62z"
		/>
	<path id="Path_202" class="st6" d="M740.68,153.66c0,0,12.6-0.23,14.16,3C756.4,159.9,744.52,151.86,740.68,153.66z"/>
	<path id="Path_203" class="st6" d="M716.03,194.71c0,0.21-0.01,0.42-0.05,0.63c-0.3,1.99-1.96,3.5-3.97,3.61h-0.23
		c-2.34,0-4.24-1.9-4.24-4.24c0-0.47,0.08-0.94,0.23-1.38c-2-1.61-2.11-4.5-2.06-5.95c1.05-0.18,2.06-0.53,2.99-1.06
		c0.52,1.5,1.22,2.93,2.09,4.27c0.32-0.08,0.65-0.12,0.98-0.12C714.12,190.47,716.02,192.37,716.03,194.71
		C716.03,194.71,716.03,194.71,716.03,194.71L716.03,194.71z"/>
	<path id="Path_204" class="st15" d="M709.09,185.39c0,0-2.84,0.64-2.84,1.15c0,0.52-0.64,5.2,2.48,7.12
		c3.11,1.92,2.81-2.68,2.81-2.68S708.85,186.87,709.09,185.39z"/>
	<circle id="Ellipse_42" class="st20" cx="712.27" cy="194.71" r="4.24"/>
	<circle id="Ellipse_43" class="st16" cx="712.27" cy="194.71" r="3.64"/>
	<path id="Path_205" class="st6" d="M695.74,196.35c0,0,8.96,7.44,20.49,2.73v3.6c0,0-7.68,5.28-14.64,2.08
		C694.62,201.56,695.74,196.35,695.74,196.35z"/>
	<path id="Path_206" class="st6" d="M695.74,195.39c0,0,8.99,7.44,20.49,2.7v3.6c0,0-7.68,5.28-14.64,2.08
		C694.62,200.58,695.74,195.39,695.74,195.39z"/>
	<path id="Path_207" class="st12" d="M695.74,195.39c0,0,8.99,7.44,20.49,2.7v3.6c0,0-7.68,5.28-14.64,2.08
		C694.62,200.58,695.74,195.39,695.74,195.39z"/>
	<path id="Path_208" class="st13" d="M695.99,195.39c0,0,8.96,7.44,20.49,2.73v3.6c0,0-7.71,5.25-14.64,2.08
		C694.89,200.63,695.99,195.39,695.99,195.39z"/>
	<path id="Path_209" class="st6" d="M667.62,329.07c0,0,12.01,2.2,13.77,2.68c1.76,0.48-0.48,1.32-0.48,1.32
		S669.9,331.11,667.62,329.07z"/>
	<path id="Path_210" class="st6" d="M667.3,322.71c0.19,0,8.16-2.24,9.88-6.08"/>
	<path id="Path_211" class="st6" d="M678.91,276.77c0,0,3.23,4.24,5.31,4.12C686.3,280.77,680.81,276.61,678.91,276.77z"/>
	<path id="Path_212" class="st6" d="M680.7,283.82c0,0,1.36,3,3.36,2.04"/>
	<path id="Path_213" class="st13" d="M688.26,217.92l8.51,22.45c0,0,1.2-14.44-1.34-18.77
		C693.97,219.08,691.17,217.65,688.26,217.92z"/>
	<g id="Group_11" class="st2">
		<path id="Path_214" d="M709.22,40.05l-0.07-0.32l-1.37-0.36l0.15,0.67C708.36,40.07,708.79,40.08,709.22,40.05L709.22,40.05z"/>
		<path id="Path_215" d="M705.46,45.45l0.15-0.13c0.8-0.74,1.12-1.87,0.81-2.92c-0.17-0.4-0.39-0.77-0.68-1.09
			c-0.68-0.13-1.34-0.32-1.98-0.58c-0.08,1.2,1.27,1.98,1.69,3.11C705.64,44.36,705.64,44.93,705.46,45.45L705.46,45.45z"/>
		<path id="Path_216" d="M728.13,82.35c-1.49-0.93-2.62-2.34-3.23-3.99c-0.69-1.61-1.1-3.31-1.79-4.9
			c-0.77-1.75-1.86-3.33-3.23-4.67c-0.23-0.27-0.52-0.47-0.85-0.59c-0.63-0.09-1.26,0.09-1.75,0.48c-0.81,0.55-1.71,0.94-2.66,1.17
			c-0.97,0.21-1.98-0.1-2.67-0.81c-0.74-0.89-0.64-2.19-0.42-3.33c0.47-2.49,1.24-4.93,1.25-7.46c0.01-2.53-0.96-5.24-3.15-6.45
			c-1.94-1.11-4.34-0.81-6.45-1.41c-1.1-0.3-2.13-0.83-3.02-1.55l-0.17-0.15c-0.18,0.07-0.35,0.16-0.52,0.25
			c-0.35,0.19-0.72,0.52-0.62,0.9c0.07,0.18,0.19,0.34,0.36,0.45c0.89,0.72,1.92,1.24,3.02,1.54c2.15,0.59,4.56,0.31,6.5,1.42
			c2.19,1.24,3.15,3.97,3.15,6.45c0,2.49-0.81,4.97-1.25,7.45c-0.22,1.14-0.32,2.42,0.42,3.33c0.69,0.72,1.7,1.02,2.67,0.81
			c0.95-0.22,1.85-0.62,2.66-1.16c0.49-0.39,1.12-0.57,1.75-0.49c0.31,0.13,0.59,0.33,0.81,0.59c1.36,1.34,2.45,2.93,3.23,4.67
			c0.69,1.61,1.11,3.3,1.79,4.9c0.59,1.67,1.73,3.09,3.23,4.03c1.52,0.81,3.64,0.81,4.84-0.51c0.31-0.35,0.56-0.76,0.72-1.2
			C731.39,83.13,729.57,83.22,728.13,82.35L728.13,82.35z"/>
		<path id="Path_217" d="M735.02,76.26c1.2-1.52,2.78-2.81,3.91-4.41c0.22-0.32,0.43-0.65,0.62-0.98
			C738.1,72.72,736.1,74.21,735.02,76.26z"/>
	</g>
	<g id="Group_13" class="st2">
		<path id="Path_218" d="M663.82,53.58H472.91c-5.5,0.01-9.96,4.47-9.98,9.97v120.62c0.02,5.5,4.48,9.96,9.98,9.97h149.75
			c0,0,3.88,20.6-8.88,22.81c0,0,28.55,2.05,23.56-22.81h26.46c5.5-0.01,9.96-4.47,9.97-9.97V63.56
			C673.77,58.06,669.32,53.6,663.82,53.58L663.82,53.58z"/>
		<g id="Group_12" class="st3">
			<path id="Rectangle_28" d="M495.61,85.6H641.1c2.53,0,4.57,2.05,4.57,4.57v0.27c0,2.53-2.05,4.57-4.57,4.57H495.61
				c-2.53,0-4.57-2.05-4.57-4.57v-0.27C491.03,87.65,493.08,85.6,495.61,85.6z"/>
			<path id="Rectangle_29" d="M495.61,127.72h118.46c2.53,0,4.57,2.05,4.57,4.57v0.27c0,2.53-2.05,4.57-4.57,4.57H495.61
				c-2.53,0-4.57-2.05-4.57-4.57v-0.27C491.03,129.77,493.08,127.72,495.61,127.72z"/>
			<path id="Rectangle_30" d="M495.61,106.66h82.71c2.53,0,4.57,2.05,4.57,4.57v0.27c0,2.53-2.05,4.57-4.57,4.57h-82.71
				c-2.53,0-4.57-2.05-4.57-4.57v-0.27C491.03,108.71,493.08,106.66,495.61,106.66z"/>
		</g>
	</g>
	<path id="Path_219" class="st1" d="M666.31,51.91H475.4c-5.5,0.02-9.96,4.48-9.98,9.98v120.62c0.02,5.5,4.48,9.96,9.98,9.97h149.75
		c0,0,3.88,20.6-8.88,22.81c0,0,28.55,2.05,23.56-22.81h26.46c5.5-0.01,9.96-4.47,9.97-9.97V61.9
		C676.26,56.39,671.81,51.94,666.31,51.91z"/>
	<g id="Group_14" class="st3">
		<path id="Rectangle_31" class="st4" d="M498.1,83.93H643.6c2.53,0,4.57,2.05,4.57,4.57v0.27c0,2.53-2.05,4.57-4.57,4.57H498.1
			c-2.53,0-4.57-2.05-4.57-4.57v-0.27C493.53,85.98,495.58,83.93,498.1,83.93z"/>
		<path id="Rectangle_32" class="st4" d="M498.1,126.06h118.46c2.53,0,4.57,2.05,4.57,4.57v0.27c0,2.53-2.05,4.57-4.57,4.57H498.1
			c-2.53,0-4.57-2.05-4.57-4.57v-0.27C493.53,128.11,495.58,126.06,498.1,126.06z"/>
		<path id="Rectangle_33" class="st4" d="M498.1,105h82.71c2.53,0,4.57,2.05,4.57,4.57v0.27c0,2.53-2.05,4.57-4.57,4.57H498.1
			c-2.53,0-4.57-2.05-4.57-4.57v-0.27C493.53,107.05,495.58,105,498.1,105z"/>
	</g>
	<path id="Path_220" class="st4" d="M65.85,446.19c0,0,2.87,3.76-1.33,9.44c-4.2,5.68-7.67,10.49-6.27,14.02
		c0,0,6.34-10.55,11.51-10.69C74.92,458.81,71.53,452.53,65.85,446.19z"/>
	<path id="Path_221" class="st6" d="M65.85,446.19c0.25,0.36,0.44,0.76,0.58,1.18c5.04,5.92,7.72,11.44,2.88,11.59
		c-4.51,0.13-9.92,8.19-11.22,10.23c0.03,0.16,0.08,0.32,0.15,0.46c0,0,6.34-10.55,11.51-10.69
		C74.92,458.81,71.53,452.53,65.85,446.19z"/>
	<path id="Path_222" class="st21" d="M71.19,450.98c0,1.32-0.15,2.42-0.33,2.42c-0.19,0-0.33-1.07-0.33-2.42
		c0-1.35,0.19-0.7,0.37-0.7C71.08,450.28,71.19,449.66,71.19,450.98z"/>
	<path id="Path_223" class="st21" d="M73.03,452.57c-1.16,0.64-2.18,1.02-2.27,0.86c-0.09-0.16,0.81-0.81,1.94-1.44
		c1.14-0.63,0.71-0.17,0.81,0C73.61,452.15,74.19,451.94,73.03,452.57z"/>
	<path id="Path_224" class="st4" d="M50.65,446.19c0,0-2.87,3.76,1.33,9.44c4.2,5.68,7.67,10.49,6.27,14.02
		c0,0-6.34-10.55-11.51-10.69S44.96,452.53,50.65,446.19z"/>
	<path id="Path_225" class="st6" d="M50.65,446.19c-0.25,0.36-0.44,0.76-0.58,1.18c-5.04,5.92-7.72,11.44-2.88,11.59
		c4.51,0.13,9.92,8.19,11.22,10.23c-0.04,0.15-0.1,0.31-0.15,0.46c0,0-6.34-10.55-11.51-10.69S44.96,452.53,50.65,446.19z"/>
	<path id="Path_226" class="st21" d="M45.3,450.98c0,1.32,0.15,2.42,0.33,2.42s0.33-1.07,0.33-2.42c0-1.35-0.19-0.7-0.37-0.7
		C45.41,450.28,45.3,449.66,45.3,450.98z"/>
	<path id="Path_227" class="st21" d="M43.46,452.57c1.16,0.64,2.18,1.02,2.27,0.86c0.09-0.16-0.81-0.81-1.94-1.44
		c-1.14-0.63-0.71-0.17-0.81,0C42.88,452.15,42.29,451.94,43.46,452.57z"/>
	<ellipse id="Ellipse_44" class="st0" cx="58.25" cy="493.81" rx="30.08" ry="4.62"/>
	<path id="Path_228" class="st22" d="M73.76,464.58l-0.15,1.17l-0.2,1.66l-0.09,0.69l-0.2,1.65l-0.08,0.69l-0.2,1.66l-2.31,18.87
		c-0.2,1.69-2.95,3-6.28,3H52.27c-3.32,0-6.07-1.32-6.28-3l-2.31-18.86l-0.2-1.66l-0.08-0.69l-0.2-1.65l-0.09-0.69l-0.2-1.66
		l-0.15-1.17c-0.11-0.95,1.38-1.76,3.23-1.76h24.46C72.35,462.82,73.84,463.63,73.76,464.58z"/>
	<path id="Path_229" class="st23" d="M73.58,465.75l-0.2,1.66H43.11l-0.2-1.66H73.58z"/>
	<path id="Path_230" class="st23" d="M73.29,468.11l-0.2,1.65H43.4l-0.21-1.65H73.29z"/>
	<path id="Path_231" class="st23" d="M73,470.45l-0.2,1.66H43.68l-0.2-1.66H73z"/>
	<ellipse id="Ellipse_45" class="st0" cx="521.45" cy="636.9" rx="67.81" ry="11.13"/>
	<g id="Group_16" class="st2">
		<path id="Path_232" d="M599.99,295.21H393.12c-5.96,0.02-10.79,4.85-10.81,10.81v130.71c0.02,5.96,4.85,10.79,10.81,10.81h162.29
			c0,0,4.2,22.32-9.61,24.71c0,0,30.93,2.22,25.52-24.71h28.68c5.96-0.02,10.79-4.85,10.81-10.81V306.02
			C610.79,300.06,605.96,295.23,599.99,295.21L599.99,295.21z"/>
		<g id="Group_15" class="st3">
			<path id="Rectangle_34" d="M417.33,375.56h158.44c2.53,0,4.57,2.05,4.57,4.57v1.07c0,2.53-2.05,4.57-4.57,4.57H417.33
				c-2.53,0-4.57-2.05-4.57-4.57v-1.07C412.76,377.61,414.81,375.56,417.33,375.56z"/>
			<path id="Rectangle_35" d="M417.33,352.73h63.52c2.53,0,4.57,2.05,4.57,4.57v1.07c0,2.53-2.05,4.57-4.57,4.57h-63.52
				c-2.53,0-4.57-2.05-4.57-4.57v-1.07C412.76,354.78,414.81,352.73,417.33,352.73z"/>
		</g>
	</g>
	<path id="Path_233" class="st1" d="M598.23,293.41H391.31c-5.96,0.02-10.79,4.85-10.81,10.81v130.71
		c0.02,5.96,4.85,10.79,10.81,10.81H553.6c0,0,4.2,22.32-9.61,24.72c0,0,30.94,2.22,25.53-24.72h28.71
		c5.96-0.02,10.79-4.85,10.81-10.81V304.22C609.02,298.26,604.19,293.43,598.23,293.41L598.23,293.41z"/>
	<g id="Group_17" class="st3">
		<path id="Rectangle_36" class="st4" d="M415.54,373.76h158.44c2.53,0,4.57,2.05,4.57,4.57v1.07c0,2.53-2.05,4.57-4.57,4.57H415.54
			c-2.53,0-4.57-2.05-4.57-4.57v-1.07C410.96,375.81,413.01,373.76,415.54,373.76z"/>
		<path id="Rectangle_37" class="st4" d="M415.54,350.93h63.52c2.53,0,4.57,2.05,4.57,4.57v1.07c0,2.53-2.05,4.57-4.57,4.57h-63.52
			c-2.53,0-4.57-2.05-4.57-4.57v-1.07C410.96,352.98,413.01,350.93,415.54,350.93z"/>
	</g>
	
		<linearGradient id="Path_234_1_" gradientUnits="userSpaceOnUse" x1="-253.1776" y1="715.3998" x2="-253.1776" y2="716.2067" gradientTransform="matrix(212.2083 0 0 -450.8219 54201.2812 323154.875)">
		<stop  offset="0" style="stop-color:#808080;stop-opacity:0.251"/>
		<stop  offset="0.54" style="stop-color:#808080;stop-opacity:0.122"/>
		<stop  offset="1" style="stop-color:#808080;stop-opacity:0.102"/>
	</linearGradient>
	<path id="Path_234" class="st24" d="M560.47,629.33c-0.98-4.14-1.61-7.78-1.61-7.78s0.23-4.51-1.8-7.9v-1.13l0,0v-8.33
		c0.57-1.51,1.28-2.97,2.11-4.37c1.5-2.62,0-12.22,0-12.22s-5.57-13.54-4.21-22.12c1.36-8.59-11.43-38.14-11.43-38.14
		c0.08-2.85,0.48-5.68,1.2-8.44c0.13-0.58,0.19-1.17,0.16-1.77c0-0.07,0-0.15,0-0.22v0.07c-0.19-5.65-4.67-16.28-4.67-16.28
		l0.61-20.23c0,0,2.86-11.93-1.81-27.95c-1.61-5.58-2.67-10.06-3.33-13.51c-0.07-0.4-0.15-0.81-0.21-1.13
		c9.6-1.46,16.94-2.68,16.94-2.68s-5.55-23.29-9.31-27.33s-6.76-16.94-6.76-16.94s-1.96-16.45,1.2-21.25
		c3.16-4.8,3.61-13.1,3.61-13.1s7.26-5.24,8.13-7.57c0.86-2.32,2.42-7.57,2.42-10.34s-0.9-5.24-0.61-6.7s-2.11-6.99-0.9-9.61
		c0.31-0.81,0.48-1.66,0.48-2.53v-0.07l0,0c0.01-2.29-0.21-4.58-0.64-6.83c-2.08-1.76-4.52-3.06-7.14-3.82l-0.16-0.63l-0.4-1.61
		c-0.24-0.16-0.48-0.3-0.71-0.43v-0.6l-0.07-2.36l1.14-5.31c2.22-9.25-10.12-10.63-10.12-10.63c-0.74-1.42-1.99-2.51-3.49-3.06
		c-2.49-0.87-0.41,13.9,0.75,14.85c0.87,0.71,3.57,5.34,4.84,7.62l0,0l0.21,0.38c-0.21,0.18-0.39,0.38-0.56,0.59l0.47,3.23
		l0.07,0.49c-0.82,1.02-1.48,2.15-1.97,3.36c0,0,2.26,2.48,1.81,5.24c-0.45,2.77,0.69,6.21,0.74,6.4c-0.13-0.15-1.72-1.87-3.3-1.45
		s-6.02,1.75-6.02,1.75s-3.31,0.58-3,1.31c0.31,0.73-2.26,3.93-2.26,3.93l-8.88-8.42c-0.08-0.25-0.18-0.5-0.26-0.77
		c-0.38-1.2-0.65-2.44-0.81-3.69c0.97-0.23,1.92-0.54,2.84-0.9c0.92-0.32,1.75-0.86,2.42-1.57c0.9-1.07,1.07-2.51,1.43-3.83
		c0.71-2.59,2.22-4.9,3.3-7.36c1.83-4.15,2.45-8.73,1.78-13.21c-0.14-1.38-0.61-2.7-1.36-3.86c-1.45-2-4.08-2.81-6-4.41
		s-3.15-4.03-5.37-5.22c-2.02-1.08-4.48-0.95-6.75-0.58c-4.45,0.73-8.72,2.29-12.6,4.58c-1.3,0.77-2.72,1.65-4.21,1.39
		c-1.27-0.23-2.21-1.26-3.04-2.24c-0.01-0.04,0.01-0.09,0.04-0.12l-0.1-0.11c-0.91,2.08-1.36,4.33-1.32,6.59
		c-0.01,0.36,0.01,0.71,0.04,1.07v0.68l0,0c0,0.16-0.02,0.32-0.06,0.48c-0.18,0.45-0.46,0.86-0.81,1.2
		c-0.27,0.3-0.52,0.63-0.73,0.98c0.03-0.12,0.07-0.24,0.12-0.36c-0.57,0.83-0.89,1.8-0.92,2.81c-0.05,0.73,0.19,1.45,0.66,2
		c0.45,0.44,0.93,0.83,1.45,1.17c-1.27,6.98,1.95,14.02,8.07,17.62c0.1,0.25,0.21,0.51,0.31,0.77c1.14,2.99,1.99,6.45,1.61,9.68
		c-0.01,0.24-0.05,0.48-0.11,0.71c-0.05,0.23-0.22,0.24-0.31,0.37l0,0c0,0-14.68,0.15-18.14-2.99c-3.46-3.13-8.72,7.64-8.72,7.64
		s-5.26,1.02-6.31,0s-7.22-0.15-7.22-0.15c-2.51-2.23-5.78-3.42-9.13-3.34c-2.05-1.56-4.32-2.82-6.73-3.74l0,0l-0.16-0.06l0,0
		c-1.06-0.38-2.19-0.53-3.31-0.42c0,0-7.22-5.97-9.33-9.17c-2.11-3.2-12.1-15.08-12.18-15.14v-0.57l-0.11-1.73
		c-0.3,0.05-0.6,0.08-0.9,0.08c-0.06-0.17-0.12-0.37-0.2-0.6c-0.58-1.69-1.29-3.32-2.13-4.9c0,0,0-2.18,0.64-2.73
		c0.64-0.55-0.27-8.55-0.27-8.55s-6.5-15.21-12.33-3.86c0,0-11.01,7.35-1.77,15.9c0,0,3.69,1.78,4.2,3.23
		c0.35,0.92,1.61,3.49,2.42,5.19l0.38,0.77l-0.1,0.09l0.14,1.43l0.06,0.55c-1.74,0.99-2.92,1.97-2.64,2.71
		c0.51,1.26,0.87,2.58,1.06,3.93c0,0,12.73,15.98,14.39,22.83c0,0,34.28,20.37,45.56,21.83l-1.95,10.19
		c-0.29,2.76-0.44,5.52-0.45,8.29c0.15,2.19-1.36,12.1-1.36,12.1s-1.95,14.52-3.61,16.59c-1.65,2.07-1.32,10.76-1.32,10.76
		c-0.4,4.18-1.15,8.32-2.26,12.37c-1.61,5.54-0.45,12.38-0.45,12.38s-5.71,13.1,7.97,4.22c0,0,6.72-0.42,14.46-0.69v0.81
		c0,0.99,0,2.07-0.05,3.23c-0.1,7.5-0.15,17.84,0.19,25.67c0.61,13.82,4.84,41.19,4.84,41.19v13.72c-0.27,1.29-0.4,2.61-0.4,3.93
		c-0.09,4.85,1.19,9.62,3.7,13.77l1.06,9.17c0,0,2.47,6.04,2.52,9.68c-0.01,0.3-0.05,0.59-0.1,0.88c-0.09,0.46-0.13,0.93-0.12,1.4
		c-0.14,4.16,2.37,14.12,2.37,14.12s0.15,10.05,1.61,10.63c1.28,0.5-1.72,5.79-2.61,7.31c0.01-0.1-0.01-0.2-0.06-0.29l-0.19,0.31
		c-0.31,0.81-0.47,1.67-0.47,2.53c-0.17,1.4,0.48,2.78,1.67,3.53c2.86,1.74,4.39,3.23,1.96,3.78c-0.89,0.14-1.77,0.33-2.65,0.56
		l-0.13-0.34c-0.7,0.28-1.11,1.01-0.98,1.76c0.02,1.19,0.32,2.36,0.9,3.4c2.42,5.39,4.03,7.42,4.03,7.42l1.16-0.13
		c-0.18,0.44-0.4,0.86-0.67,1.24c-0.44,0.63-1.02,1.15-1.7,1.51c-0.63,0.38-1.33,0.62-2.06,0.7c-1.65,0.06-3.2,0.81-4.26,2.07
		c-1.5,1.94-2.42,4.58,0.52,6.91l10.76,3.71c0,0,18.49,2.42,17.52-1.75s-1.61-7.79-1.61-7.79c0.08-2.54-0.44-5.05-1.5-7.36
		c-0.19-0.37-0.41-0.74-0.65-1.08l0.65-0.07c0,0,1.36-9.17,3.15-10.92c0.42-0.4,0.52-0.71,0.41-0.95c0.19-0.5-0.28-0.81-0.89-0.96
		l-0.13,0.36c-0.59-0.13-1.19-0.2-1.8-0.2c0,0-0.6-4.8,1.36-6.54c0.32-0.4,0.46-0.92,0.38-1.43c0.01-0.66-0.05-1.32-0.2-1.96
		l-0.07,0.11c-0.98-4.36-4.32-11.3-4.32-11.3s-0.15-4.37,1.06-6.12c1.21-1.75-0.15-23.72-0.15-23.72s0.45-10.63-0.9-15.57
		s1.65-10.77,1.65-10.77v-0.32l0.04-0.07c0,0-0.07-0.65-0.18-1.67v0.1c-0.31-2.81-0.88-7.91-1.3-10.26
		c-0.61-3.35,0.15-19.36,0.15-19.36l2.71-6.84l4.84,11.8l5.12,15.72c0,0,2.53,3.32,2.59,6.68c0.01,0.16,0.01,0.33,0,0.49
		c-0.04,0.35-0.06,0.7-0.06,1.06c-0.09,1.98,0.46,3.94,1.56,5.59c0,0,1.36,7.42,3.46,9.32s2.11,5.53,2.11,5.53
		s2.55,10.77,3.76,12.67c1.01,1.61,1.07,5.98,1.06,7.32l0,0v0.4c0,0,0.36,3.85,0.34,7.08v1.15c0-0.03,0-0.06,0-0.09
		c-0.01,0.88-0.11,1.76-0.31,2.62c0,0.05-0.02,0.11-0.05,0.15l0.05-0.55c-0.54,2.2-0.81,4.45-0.81,6.71
		c-0.07,3.87,0.52,8.46,2.86,11.14c4.03,4.66,6.62,4.08,6.62,4.08s-1.95,5.82-4.37,6.98c-0.09,0.05-0.17,0.1-0.25,0.17
		c-0.01-0.11-0.04-0.23-0.06-0.34c-0.53,0.59-0.78,1.38-0.7,2.17c-0.18,2.56,1.44,6.71,2.98,8.63c0.57,0.56,1.27,0.97,2.03,1.19
		l-0.38,0.23c-0.26,0.15-0.53,0.28-0.81,0.4c-0.39,0.17-0.8,0.28-1.23,0.31c-1.65,0.05-3.2,0.8-4.26,2.07
		c-1.5,1.94-2.42,4.57,0.52,6.9l10.76,3.71C543.08,631.12,561.45,633.49,560.47,629.33z"/>
	<path id="Path_235" class="st25" d="M489.82,636.22l-10.41-3.71c-2.87-2.32-1.95-4.96-0.51-6.91c1.01-1.26,2.51-2.01,4.12-2.07
		c0.71-0.08,1.39-0.32,1.99-0.7c0.65-0.37,1.2-0.88,1.61-1.51c0.77-1.21,1.18-2.6,1.19-4.03c0,0,11.43-3.35,14.52,0
		c0.56,0.61,1.02,1.29,1.39,2.03c1.03,2.31,1.52,4.83,1.45,7.36c0,0,0.59,3.64,1.52,7.79C507.65,638.6,489.82,636.22,489.82,636.22z
		"/>
	<path id="Path_236" class="st25" d="M540.77,631.08l-10.41-3.71c-2.87-2.32-1.96-4.96-0.51-6.9c1-1.26,2.51-2.02,4.12-2.07
		c0.41-0.04,0.81-0.14,1.19-0.31c0.28-0.11,0.55-0.24,0.81-0.4c2.9-1.61,2.83-5.53,2.83-5.53s11.43-3.35,14.52,0
		c0.42,0.45,0.79,0.95,1.09,1.48c1.97,3.39,1.75,7.91,1.75,7.91s0.58,3.64,1.52,7.79C558.63,633.49,540.77,631.08,540.77,631.08z"/>
	<path id="Path_237" class="st6" d="M502.41,617.3c0.56,0.61,1.02,1.29,1.39,2.03l0,0l-17.13,1.98c0.77-1.21,1.18-2.6,1.19-4.03
		C487.85,617.27,499.29,613.95,502.41,617.3z"/>
	<path id="Path_238" class="st6" d="M554.45,613.63v3.23c-2.65,4.39-15.54,3.43-19.28,1.23c0.28-0.11,0.55-0.24,0.81-0.4
		c2.9-1.61,2.83-5.53,2.83-5.53s11.43-3.35,14.52,0C553.75,612.61,554.13,613.1,554.45,613.63z"/>
	<path id="Path_239" class="st15" d="M556.49,599.83c-0.8,1.4-1.48,2.86-2.04,4.37v11.5c-2.9,4.84-18.04,3.23-20.08,0.58
		s-4.22-9.46-1.89-10.62c2.33-1.16,4.22-6.99,4.22-6.99s-2.48,0.58-6.41-4.07c-3.93-4.66-2.77-14.99-2.03-17.47
		c0.73-2.48,0-10.77,0-10.77s0.15-5.82-1.02-7.71c-1.17-1.9-3.64-12.66-3.64-12.66s0-3.64-2.03-5.54s-3.35-9.31-3.35-9.31
		c-1.2-1.85-1.72-4.06-1.48-6.25c0.44-3.64-2.47-7.57-2.47-7.57l-4.95-15.72l-4.66-11.79l-2.6,6.83c0,0-0.73,16.01-0.15,19.36
		c0.59,3.36,1.45,12.22,1.45,12.22s-2.91,5.83-1.61,10.77c1.3,4.95,0.87,15.57,0.87,15.57s1.31,21.98,0.15,23.72
		s-1.02,6.12-1.02,6.12s5.96,12.8,4.03,14.52c-1.93,1.72-1.32,6.55-1.32,6.55s4.03,0,2.33,1.74s-2.98,10.94-2.98,10.94l-17.6,2.03
		c0,0-1.61-2.03-3.95-7.42c-2.33-5.39,0.44-4.84,2.78-5.38c2.35-0.54,0.86-2.04-1.9-3.78c-2.76-1.74-1.17-5.65-1.17-5.65
		s4.22-7.13,2.77-7.72c-1.45-0.59-1.61-10.62-1.61-10.62s-2.91-11.94-2.19-15.14c0.73-3.2-2.33-10.92-2.33-10.92l-1.02-9.17
		c-3.12-5.2-4.27-11.34-3.23-17.32v-14.14c0,0-4.03-27.36-4.66-41.19c-0.37-8.88-0.27-20.94-0.15-28.48
		c0.07-4.23,0.15-7.03,0.15-7.03l62.9-6.57c0.1,3.14,0.48,6.26,1.14,9.34c0.64,3.45,1.61,7.92,3.23,13.52
		c4.51,16.01,1.74,27.94,1.74,27.94l-0.58,20.24c0,0,5.54,13.53,4.37,18.19c-0.7,2.76-1.09,5.59-1.16,8.44
		c0,0,12.37,29.55,11.06,38.13c-1.31,8.59,4.03,22.12,4.03,22.12S557.94,597.2,556.49,599.83z"/>
	<path id="Path_240" class="st13" d="M520.53,524l19.15-2.55C539.68,521.45,528.84,532.51,520.53,524z"/>
	<path id="Path_241" class="st6" d="M536.9,502.74c0,0,0.65,6.77-3.49,9.32C533.42,512.06,540.84,510.89,536.9,502.74z"/>
	<path id="Path_242" class="st6" d="M535.73,481.21c0,0-16,13.17-21.79,12.1C508.16,492.25,535.73,481.21,535.73,481.21z"/>
	<path id="Path_243" class="st6" d="M496.81,530.19c0,0-12.15,2.76-12.51,7.64S496.81,530.19,496.81,530.19z"/>
	<path id="Path_244" class="st13" d="M499.48,590.88c0,0-17.17,3.23-12.3,5.38c4.87,2.15,12.91,3.93,12.91,3.93
		S505.6,600.48,499.48,590.88z"/>
	<g id="Group_18" class="st26">
		<path id="Path_245" d="M483.72,599.73c-0.87-0.55-1.45-1.47-1.57-2.49l-0.18,0.31c0,0-1.61,3.93,1.16,5.65
			c0.32,0.2,0.62,0.4,0.9,0.6c0.52-0.1,1.07-0.17,1.61-0.3C487.97,602.92,486.48,601.47,483.72,599.73z"/>
		<path id="Path_246" d="M505.84,598.56c0.48-0.44,0.46-1.56,0.17-2.99c-0.7,1.29-1.04,2.75-0.98,4.22
			C505.21,599.33,505.49,598.91,505.84,598.56z"/>
		<path id="Path_247" d="M503.2,526.15c-0.64,1.72-1.03,3.52-1.16,5.35c0.33-1.27,0.77-2.5,1.33-3.68
			C503.37,527.82,503.31,527.17,503.2,526.15z"/>
		<path id="Path_248" d="M542.55,518.51c0.12-0.53,0.17-1.07,0.16-1.61c-0.22,1.08-0.37,2.09-0.48,2.98
			C542.3,519.41,542.41,518.95,542.55,518.51z"/>
		<path id="Path_249" d="M502.78,577.9c0.33-1.04,0.48-2.13,0.44-3.23c-0.53,1.3-0.8,2.68-0.81,4.08
			C502.5,578.45,502.62,578.17,502.78,577.9z"/>
		<path id="Path_250" d="M506.39,605.34c-0.9,2.92-1.57,5.91-2,8.94l-17.6,2.04c0,0-1.61-2.04-3.95-7.42
			c-0.2-0.48-0.36-0.9-0.49-1.28c-1.06,0.48-1.47,1.61-0.09,4.78c2.33,5.38,3.94,7.42,3.94,7.42l17.62-2.04
			c0,0,1.31-9.17,3.05-10.92C507.72,606,507.17,605.56,506.39,605.34z"/>
		<path id="Path_251" d="M483.13,579.2c0,0,0.15,10.05,1.61,10.63l0,0c0.73-1.66,1.23-3.23,0.57-3.5
			c-1.46-0.58-1.61-10.63-1.61-10.63s-2.9-11.93-2.18-15.14c0.73-3.2-2.33-10.92-2.33-10.92l-1.02-9.17
			c-3.13-5.2-4.27-11.35-3.23-17.32v-14.12c0,0-4.03-27.36-4.66-41.15c-0.37-8.88-0.27-20.98-0.15-28.48c0-1.36,0.04-2.57,0.06-3.59
			l-0.5,0.05c0,0-0.08,2.8-0.15,7.04c-0.13,7.54-0.23,19.62,0.15,28.47c0.58,13.83,4.66,41.19,4.66,41.19v14.12
			c-1.04,5.97,0.1,12.13,3.23,17.32l1.02,9.11c0,0,3.06,7.71,2.33,10.92C480.23,567.24,483.13,579.2,483.13,579.2z"/>
		<path id="Path_252" d="M534.95,612.39c-1.43-2.07-2.38-4.43-2.78-6.91c-1.8,1.61,0.27,7.92,2.2,10.41
			c2.03,2.61,17.17,4.22,20.08-0.58v-2.78C550.52,616.43,536.9,614.87,534.95,612.39z"/>
		<path id="Path_253" d="M557.08,595.95c-0.8,1.39-1.49,2.85-2.04,4.37v2.03c0.33-0.75,0.81-1.74,1.46-2.92
			c0.46-1.14,0.68-2.37,0.64-3.6C557.11,595.86,557.09,595.9,557.08,595.95z"/>
		<path id="Path_254" d="M535.85,598.24c0.56-1.12,1.04-2.28,1.44-3.46c0,0-2.48,0.58-6.41-4.03c-2.86-3.39-3.03-9.79-2.61-13.97
			c-0.73,2.47-1.9,12.8,2.03,17.46C532.87,597.24,534.81,598.04,535.85,598.24z"/>
		<path id="Path_255" d="M528.25,565.96c0.26,2.87,0.35,5.75,0.29,8.63c0.07-0.46,0.17-0.91,0.3-1.36c0.73-2.47,0-10.76,0-10.76
			s0.15-5.83-1.02-7.71c-1.16-1.89-3.64-12.67-3.64-12.67s0-3.64-2.03-5.53c-2.03-1.89-3.35-9.32-3.35-9.32
			c-1.2-1.85-1.71-4.06-1.46-6.25c0.44-3.64-2.47-7.57-2.47-7.57l-4.95-15.73l-4.66-11.79l-2.62,6.84c0,0,0,0.86-0.09,2.21
			l2.13-5.56l4.66,11.79l4.97,15.73c0,0,2.91,3.93,2.48,7.57c-0.25,2.19,0.26,4.4,1.46,6.25c0,0,1.31,7.42,3.34,9.32
			s2.04,5.53,2.04,5.53s2.48,10.77,3.64,12.67C528.43,560.14,528.25,565.96,528.25,565.96z"/>
	</g>
	<path id="Path_256" class="st27" d="M540.48,298.15l-1.1,5.31l0.06,2.36l0.05,1.75l-6.08,0.62l-0.68-1.26l0,0
		c-1.26-2.28-3.86-6.91-4.71-7.62c-1.12-0.94-3.12-15.72-0.72-14.85c1.47,0.57,2.67,1.66,3.38,3.07
		C530.69,287.54,542.63,288.94,540.48,298.15z"/>
	<path id="Path_257" class="st6" d="M539.49,307.6l-6.08,0.62l-0.68-1.26l0,0c1.69-1.92,4.49-2.38,6.71-1.11L539.49,307.6z"/>
	<path id="Path_258" class="st16" d="M541.03,310.48l-8.01,1.86l-0.16-1.19l-0.46-3.23c0,0,3.17-4.23,7.75-1.06l0.4,1.61
		L541.03,310.48z"/>
	<path id="Path_259" class="st27" d="M411.3,298.76l-8.54,4.58l-0.81-1.61c-0.81-1.7-2.03-4.27-2.36-5.19
		c-0.51-1.41-4.07-3.23-4.07-3.23c-8.95-8.55,1.71-15.9,1.71-15.9c5.65-11.35,11.93,3.86,11.93,3.86s0.87,8.01,0.26,8.55
		c-0.61,0.54-0.62,2.73-0.62,2.73c0.82,1.57,1.51,3.21,2.07,4.9C411.16,298.26,411.3,298.76,411.3,298.76z"/>
	<path id="Path_260" class="st6" d="M411.3,298.76l-8.54,4.58l-0.81-1.61c1.2-1,5.49-4.47,6.89-4.32c0.67,0.08,1.35,0.1,2.03,0.06
		C411.16,298.26,411.3,298.76,411.3,298.76z"/>
	<path id="Path_261" class="st16" d="M412.17,301.37l-9.6,4.74l-0.19-2.07l-0.14-1.43c0,0,5.57-4.77,7.21-4.59
		c0.83,0.12,1.68,0.12,2.51,0l0.1,1.73L412.17,301.37z"/>
	<path id="Path_262" class="st27" d="M517.19,333.47c0,0-41.89,4.73-34.06,2.19c5.45-1.78,7.61-5.24,8.07-9.09
		c0.36-3.23-0.46-6.7-1.57-9.68c-0.99-2.64-2.24-5.18-3.74-7.57c0,0,32.02-17.61,25.62-1.61c-0.99,2.42-1.6,4.98-1.82,7.58
		c-0.2,2.59,0.07,5.19,0.81,7.67C511.72,327.02,514.03,330.66,517.19,333.47L517.19,333.47z"/>
	<path id="Path_263" class="st6" d="M511.51,307.72c-0.99,2.42-1.6,4.98-1.82,7.58c-3.02,2.53-6.33,2.36-10.57,2.36
		c-3.23,0-6.87,0.81-9.49-0.81c-0.99-2.64-2.24-5.18-3.74-7.57C485.89,309.29,517.92,291.69,511.51,307.72z"/>
	<circle id="Ellipse_46" class="st27" cx="498.55" cy="301.45" r="17.32"/>
	<path id="Path_264" class="st6" d="M517.19,333.47c0,0-41.89,4.73-34.06,2.19c5.45-1.78,7.61-5.24,8.07-9.09
		c2.08-2.26,6.27-3.89,8.96-4.75c2.46-0.83,5.11-0.87,7.59-0.12c0.98,0.29,1.91,0.72,2.76,1.27
		C511.73,327.02,514.04,330.66,517.19,333.47L517.19,333.47z"/>
	<path id="Path_265" class="st6" d="M541.03,310.48l-8.01,1.86l-0.16-1.19c1.75-2.41,4.83-3.46,7.69-2.63L541.03,310.48z"/>
	<path id="Path_266" class="st6" d="M412.17,301.37l-9.6,4.74l-0.19-2.07c3.12-1.67,6.35-3.11,9.68-4.29L412.17,301.37z"/>
	<path id="Path_267" class="st6" d="M533.76,439.02c-16.22,2.57-39.31,5.9-42.97,4.78c-3.03-0.93-12.74-0.81-21.19-0.54
		c0.07-4.23,0.15-7.03,0.15-7.03l62.88-6.57C532.72,432.81,533.1,435.94,533.76,439.02z"/>
	<path id="Path_268" class="st28" d="M549.94,435.21c0,0-53.41,9.17-59.15,7.42s-35.16,0.15-35.16,0.15
		c-13.24,8.88-7.71-4.22-7.71-4.22s-1.16-6.84,0.44-12.37c1.09-4.05,1.83-8.19,2.23-12.37c0,0-0.29-8.74,1.31-10.77
		s3.49-16.6,3.49-16.6s1.46-9.89,1.32-12.1c0.01-2.77,0.15-5.54,0.44-8.29l1.89-10.19c-10.92-1.45-44.1-21.83-44.1-21.83
		c-1.61-6.83-13.97-22.85-13.97-22.85c-0.18-1.35-0.52-2.67-1.02-3.93c-0.87-2.32,12.23-6.98,12.23-6.98s9.75,11.93,11.79,15.14
		c2.04,3.2,9.02,9.17,9.02,9.17c1.09-0.11,2.2,0.03,3.23,0.42l0.17,0.05l0,0c2.34,0.93,4.54,2.19,6.52,3.74
		c3.28-0.08,6.46,1.12,8.88,3.35c0,0,5.97-0.87,6.99,0.15c1.02,1.02,6.12,0,6.12,0s5.09-10.77,8.44-7.64
		c3.35,3.13,17.55,2.99,17.55,2.99c1.9-2.52,6.5-4.32,9.38-5.25c2.46-0.82,5.11-0.86,7.59-0.12c1.07,0.31,2.09,0.8,2.99,1.44
		l8.62,8.44c0,0,2.48-3.23,2.19-3.93s2.91-1.31,2.91-1.31s4.22-1.32,5.82-1.75c1.6-0.44,3.07,1.3,3.23,1.45
		c-0.05-0.19-1.15-3.71-0.72-6.4s-1.75-5.24-1.75-5.24c5.1-12.51,16.6-2.03,16.6-2.03s1.31,6.84,0.15,9.46
		c-1.16,2.61,1.16,8.16,0.87,9.61c-0.29,1.45,0.58,3.93,0.58,6.7s-1.45,8-2.33,10.33s-7.86,7.57-7.86,7.57s-0.44,8.3-3.49,13.1
		c-3.06,4.8-1.25,21.25-1.25,21.25s2.91,12.84,6.58,16.94S549.94,435.21,549.94,435.21z"/>
	<path id="Path_269" class="st6" d="M472.07,339.44c0,0-1.61-4.8-3.06-5.24c-1.45-0.54-2.86-1.17-4.22-1.9l0.94-1.79
		c0,0,5.46,1.5,6.34,3.1C472.95,335.21,472.07,339.44,472.07,339.44z"/>
	<path id="Path_270" class="st6" d="M442.82,328.81c-0.29,1.45-13.25,2.77-13.25,2.77l6.55-6.57l0,0l0.16,0.06l0,0
		C438.63,325.99,440.83,327.25,442.82,328.81z"/>
	<circle id="Ellipse_47" class="st15" cx="405.33" cy="308.84" r="1.16"/>
	<circle id="Ellipse_48" class="st15" cx="406.82" cy="311.17" r="1.16"/>
	<circle id="Ellipse_49" class="st15" cx="408.28" cy="313.32" r="1.16"/>
	<circle id="Ellipse_50" class="st15" cx="409.81" cy="315.65" r="1.16"/>
	<circle id="Ellipse_51" class="st15" cx="547.01" cy="315.52" r="0.94"/>
	<circle id="Ellipse_52" class="st15" cx="547.15" cy="317.66" r="0.94"/>
	<circle id="Ellipse_53" class="st15" cx="547.28" cy="319.81" r="0.94"/>
	<path id="Path_271" class="st6" d="M472.15,378.88c-0.14-0.17,32.67,41.26,58.14,17.32C530.29,396.21,490.04,401.66,472.15,378.88z
		"/>
	<path id="Path_272" class="st6" d="M453.3,400.43c0,0,19.63,0.53,21.68,6.18v5.88c-1.13,0.63-2.51,0.63-3.65,0
		c-1.98-1.07-13.85-7.1-18.03-4.2V400.43z"/>
	<path id="Path_273" class="st28" d="M453.66,400.43c0,0,18.78,0.51,20.74,5.9v5.59c-1.09,0.6-2.41,0.6-3.49,0
		c-1.89-1.02-13.24-6.77-17.24-4.03V400.43z"/>
	<path id="Path_274" class="st6" d="M464.01,357.79c2.01,4.64,4.56,9.03,7.61,13.06c3.32,4.46,7.35,8.35,11.93,11.51
		C483.55,382.37,464.33,360.49,464.01,357.79z"/>
	<path id="Path_275" class="st6" d="M457.59,334.98c0,0,3.28,14.14,11.72,18.95L457.59,334.98z"/>
	<path id="Path_276" class="st6" d="M452.56,336.41c-0.08-0.26-2.9,11.18,10.88,17.52C463.48,353.93,457.59,351.93,452.56,336.41z"
		/>
	<path id="Path_277" class="st6" d="M538.29,326.93c-0.22,0,6.81,4.47,8.71,6.54C547.01,333.47,542.44,326.64,538.29,326.93z"/>
	<path id="Path_278" class="st25" d="M493.87,317.16c0.14,0.92,0.62,1.76,1.36,2.34c0.5,0.24,1.06,0.36,1.61,0.36
		c5.28,0.32,10.78,0.56,15.66-1.48c0.92-0.32,1.76-0.86,2.42-1.57c0.87-1.07,1.03-2.51,1.39-3.83c0.68-2.59,2.14-4.9,3.23-7.36
		c1.77-4.16,2.36-8.73,1.71-13.21c-0.13-1.37-0.58-2.7-1.32-3.86c-1.4-2-3.95-2.81-5.81-4.4s-3.04-4.03-5.2-5.23
		c-1.95-1.08-4.33-0.95-6.54-0.58c-4.35,0.73-8.52,2.28-12.28,4.58c-1.25,0.77-2.63,1.65-4.03,1.39c-1.27-0.24-2.19-1.31-3-2.3
		c-1.03,2.37-1.47,4.96-1.29,7.54c0.06,0.38,0.06,0.76,0,1.14c-0.18,0.45-0.46,0.86-0.81,1.2c-1.31,1.51-2.12,3.91-0.81,5.43
		c0.56,0.67,1.42,1.03,1.97,1.71c0.98,1.22,0.65,2.96,0.62,4.53c-0.06,0.54,0.08,1.08,0.39,1.53c0.57,0.53,1.39,0.73,2.14,0.51
		c0.74-0.22,1.51-0.29,2.28-0.22c0.81,0.27,1.51,0.81,1.98,1.52C491.91,310.01,492.85,313.42,493.87,317.16z"/>
	<g id="Group_19" class="st2">
		<path id="Path_279" d="M515.48,315.47c-0.66,0.73-1.49,1.29-2.42,1.61c-4.84,2.03-10.38,1.8-15.66,1.47
			c-0.56,0.01-1.11-0.12-1.61-0.36c-0.73-0.58-1.22-1.42-1.36-2.34c-1.02-3.73-1.97-7.14-4.41-10.24c-0.47-0.72-1.16-1.26-1.98-1.52
			c-0.77-0.08-1.54-0.01-2.28,0.22c-0.75,0.2-1.54,0.01-2.11-0.51c-0.31-0.45-0.44-1-0.39-1.54c0-1.56,0.36-3.31-0.62-4.52
			c-0.55-0.69-1.4-1.04-1.97-1.71c-0.74-1.01-0.87-2.34-0.34-3.48c-0.92,1.47-1.32,3.36-0.24,4.64c0.56,0.67,1.42,1.03,1.97,1.71
			c0.98,1.22,0.65,2.96,0.62,4.53c-0.06,0.54,0.08,1.08,0.39,1.53c0.57,0.53,1.39,0.73,2.14,0.51c0.74-0.22,1.51-0.29,2.28-0.22
			c0.81,0.27,1.51,0.81,1.98,1.52c2.42,3.1,3.39,6.51,4.41,10.25c0.01,1.51,1.25,2.73,2.76,2.71c0.08,0,0.15,0,0.23-0.01
			c5.28,0.32,10.78,0.56,15.66-1.48c0.92-0.32,1.76-0.86,2.42-1.57c0.33-0.42,0.58-0.9,0.75-1.4
			C515.63,315.34,515.56,315.41,515.48,315.47L515.48,315.47z"/>
		<path id="Path_280" d="M481.78,290.23c0.24-0.25,0.42-0.55,0.53-0.87c0.06-0.38,0.06-0.76,0-1.14c-0.15-2.12,0.13-4.25,0.81-6.27
			l-0.1-0.11c-1.03,2.37-1.48,4.96-1.29,7.54C481.77,289.66,481.79,289.95,481.78,290.23z"/>
	</g>
	<path id="Path_281" class="st6" d="M490.78,327.65c0,0,21.64,2.86,23.58-0.39"/>
	<path id="Path_282" class="st6" d="M532.87,318.7c0,0,12.01,0,14.66,4.53"/>
	<path id="Path_283" class="st4" d="M791.67,307.83c0,0,1.5,1.96-0.69,4.93s-4.03,5.48-3.28,7.33c0,0,3.32-5.51,6.01-5.59
		C796.4,314.41,794.63,311.1,791.67,307.83z"/>
	<path id="Path_284" class="st6" d="M791.67,307.83c0.13,0.19,0.23,0.4,0.31,0.61c2.63,3.1,4.03,5.98,1.5,6.05
		c-2.36,0.07-5.18,4.28-5.86,5.35c0.01,0.08,0.04,0.17,0.08,0.24c0.03,0.08,3.32-5.51,6.01-5.59
		C796.4,314.41,794.63,311.1,791.67,307.83z"/>
	<path id="Path_285" class="st21" d="M794.46,310.29c0,0.69-0.07,1.26-0.17,1.26s-0.18-0.56-0.18-1.26c0-0.69,0.1-0.36,0.19-0.36
		C794.4,309.93,794.46,309.6,794.46,310.29z"/>
	<path id="Path_286" class="st21" d="M795.42,311.12c-0.61,0.33-1.14,0.53-1.18,0.44c-0.04-0.09,0.4-0.42,1.02-0.75
		c0.61-0.33,0.36-0.09,0.41,0S796.03,310.79,795.42,311.12z"/>
	<path id="Path_287" class="st4" d="M783.73,307.83c0,0-1.51,1.96,0.69,4.93s4.03,5.48,3.28,7.33c0,0-3.32-5.51-6.02-5.59
		S780.76,311.1,783.73,307.83z"/>
	<path id="Path_288" class="st6" d="M783.73,307.83c-0.13,0.19-0.24,0.4-0.31,0.61c-2.63,3.1-4.03,5.98-1.5,6.05
		c2.36,0.07,5.19,4.28,5.87,5.35c-0.01,0.08-0.04,0.17-0.08,0.24c-0.03,0.08-3.32-5.51-6.02-5.59
		C778.97,314.41,780.76,311.1,783.73,307.83z"/>
	<path id="Path_289" class="st21" d="M780.93,310.29c0,0.69,0.08,1.26,0.18,1.26c0.16-0.4,0.22-0.83,0.17-1.26
		c0-0.69-0.1-0.36-0.19-0.36S780.93,309.6,780.93,310.29z"/>
	<path id="Path_290" class="st21" d="M779.97,311.12c0.61,0.33,1.14,0.53,1.19,0.44c0.05-0.09-0.41-0.42-1.02-0.75
		c-0.61-0.33-0.37-0.09-0.42,0S779.36,310.79,779.97,311.12z"/>
	<path id="Path_291" class="st29" d="M781.39,319.79c0,0,4.2-0.13,5.47-1.03s6.45-1.98,6.79-0.53c0.33,1.44,6.32,7.2,1.61,7.26
		c-4.7,0.06-11.03-0.73-12.3-1.51C781.69,323.2,781.39,319.79,781.39,319.79z"/>
	<path id="Path_292" class="st30" d="M795.31,324.96c-4.74,0-11.03-0.74-12.29-1.51c-0.97-0.59-1.35-2.69-1.48-3.66h-0.16
		c0,0,0.27,3.4,1.53,4.16s7.54,1.55,12.3,1.51c1.37,0,1.84-0.5,1.82-1.22C796.85,324.68,796.34,324.95,795.31,324.96z"/>
</g>
</svg>
