<?xml version="1.0" encoding="utf-8"?>
<!-- Generator: Adobe Illustrator 24.1.2, SVG Export Plug-In . SVG Version: 6.00 Build 0)  -->
<svg version="1.1" id="Layer_1" xmlns="http://www.w3.org/2000/svg" xmlns:xlink="http://www.w3.org/1999/xlink" x="0px" y="0px"
	 viewBox="0 0 79 47" style="enable-background:new 0 0 79 47;" xml:space="preserve">
<style type="text/css">
	.st0{fill:#6C63FF;}
	.st1{fill:#C5CEDD;}
</style>
<g id="layer101">
	<path class="st0" d="M0,23.5V0h39.5H79v23.5V47H39.5H0V23.5z"/>
</g>
<g id="layer102">
	<path class="st1" d="M17,36.7c0-0.7,1-3,2.1-5.2c1.2-2.2,2.8-5.4,3.5-7.1l1.3-3.1L20.2,22c-2,0.4-4.5,1.1-5.6,1.5
		c-1.4,0.6-1.7,0.4-1.4-0.6c0.5-1.5,3.8-2.7,8.4-2.8c2.7-0.1,3.2-0.6,4.2-3.9c0.6-2.1,1-4.8,0.8-5.9c-0.3-1.2,0.2-2.7,1.1-3.4
		C29.9,5,32,8.3,32,13.6c0,2.5,0.6,4.9,1.6,5.8c0.8,0.9,1.1,1.6,0.5,1.6c-1.4,0,1.4,7.1,3.2,8.2c1.6,1,0.2,2.2-1.8,1.5
		c-0.8-0.4-2-2.7-2.7-5.2c-1.1-4.3-1.5-4.6-4.2-4.3c-2.6,0.3-3.3,1.1-6.5,8.6C18.8,37.4,17,39.9,17,36.7z M30.4,16.3
		c-0.9-5.1-1-5.1-2.8-0.8c-2,4.7-2.1,4.5,0.9,4.5C30.9,20,31.1,19.8,30.4,16.3z"/>
	<path class="st1" d="M45,27.5c-0.8-1-1.7-1.2-2.3-0.6c-1.3,1.3-3.7,0.2-3.7-1.8c0-2.5,1.8-3.9,4.5-3.4c1.7,0.4,2.4,1.3,2.8,3.6
		C46.9,29.2,46.7,29.5,45,27.5z M42.5,24.9c1.1-1.7-0.1-2.1-1.5-0.4c-0.8,0.9-0.8,1.5-0.2,1.5C41.4,26,42.2,25.5,42.5,24.9z"/>
	<path class="st1" d="M66.7,28.3c-0.4-0.3-0.7-1.8-0.8-3.2c0-2.6,0-2.6-1.1-0.3c-1.5,3-2.8,2.8-2.8-0.6c0-2.5,0.4-2.9,3-3
		c2.8-0.1,3,0.1,3,3.9C68,29.1,67.8,29.5,66.7,28.3z"/>
	<path class="st1" d="M49.9,27.5c-1-1.6-2.1-7.1-1.3-6.2c0.4,0.4,1.5,0,2.5-0.9c1-0.9,2.3-1.3,2.9-0.9c0.8,0.5,0.5,1.2-0.9,2.1
		c-1.1,0.8-2.1,2.7-2.3,4.2C50.6,27.3,50.2,28.1,49.9,27.5z"/>
	<path class="st1" d="M55.4,26.6c-1-2.6,0.1-5.1,2.3-5.4c1.4-0.2,2.3,0.3,2.8,1.8C61.7,26.7,56.7,30.1,55.4,26.6z M59,24.4
		c0-1.4-0.3-1.4-1.5-0.4c-0.8,0.7-1.5,1.4-1.5,1.6s0.7,0.4,1.5,0.4S59,25.3,59,24.4z"/>
</g>
</svg>
