<?xml version="1.0" encoding="utf-8"?>
<!-- Generator: Adobe Illustrator 24.1.2, SVG Export Plug-In . SVG Version: 6.00 Build 0)  -->
<svg version="1.1" id="Layer_1" xmlns="http://www.w3.org/2000/svg" xmlns:xlink="http://www.w3.org/1999/xlink" x="0px" y="0px"
	 viewBox="0 0 589 611" style="enable-background:new 0 0 589 611;" xml:space="preserve">
<style type="text/css">
	.st0{fill:#3F3D56;}
	.st1{opacity:5.000000e-02;enable-background:new    ;}
	.st2{fill:#D0CDE1;}
	.st3{opacity:0.1;enable-background:new    ;}
	.st4{fill:#2F2E41;}
	.st5{fill:#FFB8B8;}
	.st6{fill:#6C63FF;}
</style>
<ellipse id="Ellipse_68" class="st0" cx="231.1" cy="570.6" rx="225.8" ry="39.9"/>
<circle id="Ellipse_69" class="st0" cx="368.3" cy="220.4" r="220.7"/>
<circle id="Ellipse_70" class="st1" cx="368.3" cy="220.4" r="182.2"/>
<circle id="Ellipse_71" class="st1" cx="368.3" cy="220.4" r="149.3"/>
<circle id="Ellipse_72" class="st1" cx="368.3" cy="220.4" r="107"/>
<path id="Path_380" class="st2" d="M149.6,240.2c0,0-17.3,48.8-9.6,66.2s19.9,34.1,19.9,34.1S155.4,243.4,149.6,240.2z"/>
<path id="Path_381" class="st3" d="M149.6,240.2c0,0-17.3,48.8-9.6,66.2s19.9,34.1,19.9,34.1S155.4,243.4,149.6,240.2z"/>
<path id="Path_382" class="st4" d="M161.8,353.2c0,0-1.3,12.2-1.9,12.9c-0.6,0.6,0.6,1.9,0,3.9c-0.6,1.9-1.3,4.5,0,5.1
	s-7.1,57.2-7.1,57.2s-20.6,27-12.2,69.4l2.6,43c0,0,19.9,1.3,19.9-5.8c0,0-1.3-8.4-1.3-12.2s3.2-3.9,1.3-5.8
	c-1.9-1.9-1.9-3.2-1.9-3.2s3.2-2.6,2.6-3.2c-0.6-0.6,5.8-46.3,5.8-46.3s7.1-7.1,7.1-10.9v-3.9c0,0,3.2-8.4,3.2-9
	s17.3-39.8,17.3-39.8l7.1,28.3l7.7,40.5c0,0,3.9,36.6,11.6,50.8c0,0,13.5,46.3,13.5,45c0-1.3,22.5-4.5,21.8-10.3
	c-0.6-5.8-13.5-86.7-13.5-86.7l3.2-120.2L161.8,353.2z"/>
<path id="Path_383" class="st4" d="M144.5,541.5c0,0-17.3,34.1-5.8,35.3s16.1,1.3,21.2-3.9c2.8-2.8,8.5-6.6,13.1-9.4
	c5.5-3.4,8.7-9.6,8-16.1c-0.3-3.1-1.5-5.7-4.4-6c-7.7-0.6-16.7-7.7-16.7-7.7L144.5,541.5z"/>
<path id="Path_384" class="st4" d="M240.2,566.6c0,0-17.3,34.1-5.8,35.3c11.6,1.3,16.1,1.3,21.2-3.9c2.8-2.8,8.5-6.6,13.1-9.4
	c5.5-3.4,8.7-9.6,8-16.1c-0.3-3.1-1.5-5.7-4.4-6c-7.7-0.6-16.7-7.7-16.7-7.7L240.2,566.6z"/>
<circle id="Ellipse_73" class="st5" cx="221.9" cy="157.4" r="27"/>
<path id="Path_385" class="st5" d="M204.5,166.3c0,0-19.3,35.5-20.8,35.5s34.7,11.6,34.7,11.6s10-34,11.6-37L204.5,166.3z"/>
<path id="Path_386" class="st2" d="M234.1,205.1c0,0-38.6-21.2-42.4-20.6c-3.9,0.6-45,36.6-44.3,51.4c0.6,14.8,5.8,39.2,5.8,39.2
	s1.9,68.1,5.8,68.8s-0.6,12.2,0.6,12.2c1.3,0,90,0,90.6-1.9C250.8,352.3,234.1,205.1,234.1,205.1z"/>
<path id="Path_387" class="st5" d="M255.6,357.7c0,0,12.2,37.3,1.9,36c-10.3-1.3-14.8-32.1-14.8-32.1L255.6,357.7z"/>
<path id="Path_388" class="st2" d="M222.9,202.9c0,0-23.8,5.1-19.9,37.3c3.9,32.1,10.9,64.3,10.9,64.3l23.8,52l2.6,9.6l17.3-4.5
	l-12.9-74.5c0,0-4.5-79.7-10.3-82.2C230.8,203.3,226.8,202.6,222.9,202.9L222.9,202.9z"/>
<path id="Path_389" class="st3" d="M208.4,303.5l29.6,52.7l-24.9-55.5L208.4,303.5z"/>
<path id="Path_390" class="st4" d="M248.8,149.5l0.1-2.1l4.1,1c-0.1-1.3-0.8-2.6-1.8-3.4l4.4-0.2c-7.4-10.5-18.8-17.6-31.6-19.5
	c-9.5-1.4-20,0.6-26.5,7.6c-3.1,3.4-5.1,7.7-6.5,12.2c-2.6,8.1-3.1,17.8,2.3,24.5c5.5,6.7,15.1,8,23.7,8.9c3,0.3,6.2,0.6,9-0.6
	c0.3-3.2-0.1-6.5-1.2-9.5c-0.5-0.9-0.7-2-0.6-3c0.4-2.6,3.8-3.2,6.4-2.9c2.6,0.3,5.7,0.9,7.4-1.1c1.2-1.4,1.1-3.3,1.3-5.1
	C239.6,151.3,248.7,150.5,248.8,149.5z"/>
<circle id="Ellipse_74" class="st6" cx="414.4" cy="544.6" r="31.5"/>
<circle id="Ellipse_75" class="st6" cx="44.8" cy="533.7" r="31.5"/>
<circle id="Ellipse_76" class="st6" cx="44.8" cy="491.9" r="22.7"/>
<circle id="Ellipse_77" class="st6" cx="44.8" cy="456.8" r="16.1"/>
</svg>
