<?xml version="1.0" encoding="utf-8"?>
<!-- Generator: Adobe Illustrator 24.1.2, SVG Export Plug-In . SVG Version: 6.00 Build 0)  -->
<svg version="1.1" id="Layer_1" xmlns="http://www.w3.org/2000/svg" xmlns:xlink="http://www.w3.org/1999/xlink" x="0px" y="0px"
	 viewBox="0 0 79 47" style="enable-background:new 0 0 79 47;" xml:space="preserve">
<style type="text/css">
	.st0{fill:#6C63FF;}
	.st1{clip-path:url(#o_1_);fill:none;stroke:#FFFFFF;stroke-width:3;stroke-miterlimit:10;}
	.st2{clip-path:url(#r_1_);fill:none;stroke:#FFFFFF;stroke-width:3;stroke-miterlimit:10;}
	.st3{clip-path:url(#r_1_);fill:#FFFFFF;stroke:#FFFFFF;stroke-width:3;stroke-miterlimit:10;}
	.st4{clip-path:url(#a_1_);fill:none;stroke:#FFFFFF;stroke-width:4;stroke-miterlimit:10;}
	.st5{clip-path:url(#a_1_);fill:none;stroke:#FFFFFF;stroke-width:3;stroke-miterlimit:10;}
	.st6{clip-path:url(#A_1_);fill:none;stroke:#FFFFFF;stroke-width:5;stroke-miterlimit:10;}
	.st7{clip-path:url(#A_1_);fill:none;stroke:#FFFFFF;stroke-width:3;stroke-miterlimit:10;}
	.st8{clip-path:url(#n_1_);fill:none;stroke:#FFFFFF;stroke-width:3;stroke-miterlimit:10;}
</style>
<g id="layer101">
	<path class="st0" d="M0,23.5V0h39.5H79v23.5V47H39.5H0V23.5z"/>
</g>
<g id="o_x5F_mask">
	<defs>
		<path id="o" d="M55.4,26.6c-1-2.6,0.1-5.1,2.3-5.4c1.4-0.2,2.3,0.3,2.8,1.8C61.7,26.7,56.7,30.1,55.4,26.6z M59,24.4
			c0-1.4-0.3-1.4-1.5-0.4c-0.8,0.7-1.5,1.4-1.5,1.6s0.7,0.4,1.5,0.4S59,25.3,59,24.4z"/>
	</defs>
	<clipPath id="o_1_">
		<use xlink:href="#o"  style="overflow:visible;"/>
	</clipPath>
	<polyline id="oS1" class="st1" points="57.9,22.7 56.7,23.4 55.9,24.2 55.7,25.6 56.4,27.1 57,27.2 57.9,27.2 59,26.5 59.5,25.4 
		59.7,24.2 59.7,23.1 59.2,22.7 58.6,22.1 57.7,22.1 56.7,22.4 56,23 	"/>
</g>
<g id="r_x5F_mask">
	<defs>
		<path id="r" d="M49.9,27.5c-1-1.6-2.1-7.1-1.3-6.2c0.2,0.2,0.5,0.2,0.8,0.1c0.5-0.1,1.1-0.5,1.7-1c1-0.9,2.3-1.3,2.9-0.9
			c0.8,0.5,0.5,1.2-0.9,2.1c-1.1,0.8-2.1,2.7-2.3,4.2C50.6,27.3,50.2,28.1,49.9,27.5z"/>
	</defs>
	<clipPath id="r_1_">
		<use xlink:href="#r"  style="overflow:visible;"/>
	</clipPath>
	<polyline id="rS2" class="st2" points="50.1,27.8 50.5,22.2 54.7,19.3 	"/>
	<line id="rS1" class="st3" x1="49.5" y1="21.2" x2="50.1" y2="28.1"/>
</g>
<g id="a_x5F_mask">
	<defs>
		<path id="a" d="M45,27.5c-0.8-1-1.7-1.2-2.3-0.6c-1.3,1.3-3.7,0.2-3.7-1.8c0-2.5,1.8-3.9,4.5-3.4c1.7,0.4,2.4,1.3,2.8,3.6
			C46.9,29.2,46.7,29.5,45,27.5z M42.5,24.9c1.1-1.7-0.1-2.1-1.5-0.4c-0.8,0.9-0.8,1.5-0.2,1.5C41.4,26,42.2,25.5,42.5,24.9z"/>
	</defs>
	<clipPath id="a_1_">
		<use xlink:href="#a"  style="overflow:visible;"/>
	</clipPath>
	<polyline id="aS2" class="st4" points="42.1,22.4 43.2,22.6 43.8,22.8 44.3,23.4 46.6,29.3 	"/>
	<polyline id="aS1" class="st5" points="42.5,22.4 41.2,22.8 40.4,23.9 39.7,26 40.4,26.8 41.7,26.8 42.2,26 42.2,24.7 42.5,22.7 	
		"/>
</g>
<g id="A_x5F_mask">
	<defs>
		<path id="A" d="M17,36.7c0-0.7,1-3,2.1-5.2c1.2-2.2,2.8-5.4,3.5-7.1l1.3-3.1L20.2,22c-2,0.4-4.5,1.1-5.6,1.5
			c-1.4,0.6-1.7,0.4-1.4-0.6c0.5-1.5,3.8-2.7,8.4-2.8c2.7-0.1,3.2-0.6,4.2-3.9c0.6-2.1,1-4.8,0.8-5.9c-0.3-1.2,0.2-2.7,1.1-3.4
			C29.9,5,32,8.3,32,13.6c0,2.5,0.6,4.9,1.6,5.8c0.8,0.9,1.1,1.6,0.5,1.6c-1.4,0,1.4,7.1,3.2,8.2c1.6,1,0.2,2.2-1.8,1.5
			c-0.8-0.4-2-2.7-2.7-5.2c-1.1-4.3-1.5-4.6-4.2-4.3c-2.6,0.3-3.3,1.1-6.5,8.6C18.8,37.4,17,39.9,17,36.7z M30.4,16.3
			c-0.9-5.1-1-5.1-2.8-0.8c-2,4.7-2.1,4.5,0.9,4.5C30.9,20,31.1,19.8,30.4,16.3z"/>
	</defs>
	<clipPath id="A_1_">
		<use xlink:href="#A"  style="overflow:visible;"/>
	</clipPath>
	<polyline id="AS4" class="st6" points="12.3,23.3 19.1,21.2 24.7,20.4 27.2,20.7 35,20.4 	"/>
	<polyline id="AS3" class="st7" points="32.6,21.6 34.6,27.7 37.4,31.5 	"/>
	<polyline id="AS2" class="st7" points="25.2,19.3 27.7,13 27.7,10.2 27.7,7.9 29.2,7.4 30.5,8.5 30.8,9.9 29.2,9.2 29.2,11 
		30.8,11.2 30.8,12.6 31.3,15.3 31.3,17.8 31.8,18.7 	"/>
	<line id="AS1" class="st7" x1="16.9" y1="38.6" x2="24.7" y2="21.6"/>
</g>
<g id="n_x5F_mask">
	<defs>
		<path id="n" d="M66.7,28.3c-0.4-0.3-0.7-1.8-0.8-3.2c0-2.6,0-2.6-1.1-0.3c-1.5,3-2.8,2.8-2.8-0.6c0-2.5,0.4-2.9,3-3
			c2.8-0.1,3,0.1,3,3.9C68,29.1,67.8,29.5,66.7,28.3z"/>
	</defs>
	<clipPath id="n_1_">
		<use xlink:href="#n"  style="overflow:visible;"/>
	</clipPath>
	<polyline id="nS1" class="st8" points="64.1,21 63.5,21.9 63.2,23 62.9,24 62.8,25 62.8,27.1 63.5,25.8 64,24.6 64.2,23.3 
		64.6,22.6 65.3,22.2 66.4,22.3 66.8,22.6 66.8,23.5 66.9,25 67.1,26.8 67.4,28.2 67.7,29.2 	"/>
</g>
</svg>
