<?xml version="1.0" encoding="utf-8"?>
<!-- Generator: Adobe Illustrator 24.1.2, SVG Export Plug-In . SVG Version: 6.00 Build 0)  -->
<svg version="1.1" id="_x33_0" xmlns="http://www.w3.org/2000/svg" xmlns:xlink="http://www.w3.org/1999/xlink" x="0px" y="0px"
	 viewBox="0 0 512 512" style="enable-background:new 0 0 512 512;" xml:space="preserve">
<style type="text/css">
	.st0{fill:url(#SVGID_1_);}
</style>
<linearGradient id="SVGID_1_" gradientUnits="userSpaceOnUse" x1="-340.75" y1="562.125" x2="-340.75" y2="624.125" gradientTransform="matrix(8 0 0 -8 2982 5001)">
	<stop  offset="0" style="stop-color:#9F2FFF"/>
	<stop  offset="1" style="stop-color:#6B63FF"/>
</linearGradient>
<path class="st0" d="M32,456c-13.2,0-24,10.8-24,24s10.8,24,24,24s24-10.8,24-24S45.2,456,32,456z M32,488c-4.4,0-8-3.6-8-8
	s3.6-8,8-8s8,3.6,8,8S36.4,488,32,488z M96,456c-13.2,0-24,10.8-24,24s10.8,24,24,24s24-10.8,24-24S109.2,456,96,456z M96,488
	c-4.4,0-8-3.6-8-8s3.6-8,8-8s8,3.6,8,8S100.4,488,96,488z M176,248c0,6.8,3.8,13,9.9,16l1.7,0.8l-7.2,14.3l-1.7-0.8
	c-11.6-5.8-18.7-17.4-18.7-30.3c0-2.6,0.4-5.2,1-7.7c-4.1-5.2-10.3-8.3-17-8.3v-16c9.3,0,18,3.4,24.8,9.3c2.8-3.1,6.1-5.7,9.9-7.6
	l1.7-0.8l7.2,14.3l-1.7,0.8C179.8,235,176,241.2,176,248z M376,72h84l12.9-17.2c2.3,0.7,4.6,1.2,7.1,1.2c13.2,0,24-10.8,24-24
	S493.2,8,480,8s-24,10.8-24,24c0,4.9,1.5,9.5,4,13.3L452,56h-76V24c0-8.8-7.2-16-16-16H152c-8.8,0-16,7.2-16,16v32H60l-8-10.7
	c2.5-3.8,4-8.4,4-13.3C56,18.8,45.2,8,32,8S8,18.8,8,32s10.8,24,24,24c2.5,0,4.8-0.5,7.1-1.2L52,72h84v32H54.5
	C51.2,94.7,42.4,88,32,88C18.8,88,8,98.8,8,112s10.8,24,24,24c10.4,0,19.2-6.7,22.5-16H136v32H52l-12.9,17.2
	c-2.3-0.7-4.6-1.2-7.1-1.2c-13.2,0-24,10.8-24,24s10.8,24,24,24s24-10.8,24-24c0-4.9-1.5-9.5-4-13.3l8-10.7h76v9.4
	c-42.1,17.1-73.2,56.1-78.9,103.1C29.5,283.9,8,307.5,8,336c0,30.9,25.1,56,56,56h108.4c-2.8,4.7-4.4,10.1-4.4,16
	c0,17.6,14.4,32,32,32h128c8.8,0,16,7.2,16,16s-7.2,16-16,16H136v16h192c17.6,0,32-14.4,32-32s-14.4-32-32-32H200
	c-8.8,0-16-7.2-16-16s7.2-16,16-16h248c30.9,0,56-25.1,56-56c0-23.5-14.6-43.7-35.2-51.9c-10.6-47.6-47-84.1-92.8-96V168h76l8,10.7
	c-2.5,3.8-4,8.4-4,13.3c0,13.2,10.8,24,24,24s24-10.8,24-24s-10.8-24-24-24c-2.5,0-4.8,0.5-7.1,1.2L460,152h-84v-32h81.5
	c3.3,9.3,12.1,16,22.5,16c13.2,0,24-10.8,24-24s-10.8-24-24-24c-10.4,0-19.2,6.7-22.5,16H376V72z M480,24c4.4,0,8,3.6,8,8
	s-3.6,8-8,8s-8-3.6-8-8S475.6,24,480,24z M24,32c0-4.4,3.6-8,8-8s8,3.6,8,8s-3.6,8-8,8S24,36.4,24,32z M32,120c-4.4,0-8-3.6-8-8
	s3.6-8,8-8s8,3.6,8,8S36.4,120,32,120z M32,200c-4.4,0-8-3.6-8-8s3.6-8,8-8s8,3.6,8,8S36.4,200,32,200z M488,192c0,4.4-3.6,8-8,8
	s-8-3.6-8-8s3.6-8,8-8S488,187.6,488,192z M480,104c4.4,0,8,3.6,8,8s-3.6,8-8,8s-8-3.6-8-8S475.6,104,480,104z M273.7,204.9
	C249.8,181.5,217.6,168,184,168V56h144v129C308.4,187.4,289.9,194.3,273.7,204.9z M264,40V24h16v16H264z M248,40h-16V24h16V40z
	 M216,40h-16V24h16V40z M296,40V24h16v16H296z M152,24h32v16h-16v129.1c-5.4,0.7-10.8,1.7-16,3.1V24z M451.4,280.2
	c-1.1-0.1-2.2-0.2-3.4-0.2c-12.3,0-23.6,4-32.8,10.7c-8.6-13-21.9-22.7-37.2-26.5l-3.9,15.5c12.4,3.1,23.1,11.4,29.4,22.4
	c-7.2,9.4-11.5,21.1-11.5,33.8v8h16v-8c0-22.1,17.9-40,40-40s40,17.9,40,40s-17.9,40-40,40H248c-17.6,0-32-14.4-32-32s14.4-32,32-32
	s32,14.4,32,32h16c0-26.5-21.5-48-48-48s-48,21.5-48,48c0,12.3,4.7,23.5,12.3,32H64c-22.1,0-40-17.9-40-40s17.9-40,40-40
	s40,17.9,40,40v8h16v-8c0-14.1-5.3-27-13.9-36.8c5.7-13.5,17.5-23.8,31.8-27.4l-3.9-15.5c-17.6,4.4-32.3,16.4-40.6,32.2
	c-6.1-3.8-13-6.5-20.4-7.7C80.6,226,127.8,184,184,184c28.6,0,56.2,11.2,76.9,30.7c-7,6-13.5,12.8-19.3,20.5l12.8,9.6
	c21.4-28.5,54-44.8,89.6-44.8C394.1,200,437.5,233.1,451.4,280.2L451.4,280.2z M344,184V40h-16V24h32v161.1
	C354.7,184.5,349.4,184,344,184z"/>
</svg>
