<?xml version="1.0" encoding="utf-8"?>
<!-- Generator: Adobe Illustrator 24.1.2, SVG Export Plug-In . SVG Version: 6.00 Build 0)  -->
<svg version="1.1" id="Layer_1" xmlns="http://www.w3.org/2000/svg" xmlns:xlink="http://www.w3.org/1999/xlink" x="0px" y="0px"
	 viewBox="0 0 445.9 372.1" style="enable-background:new 0 0 445.9 372.1;" xml:space="preserve">
<style type="text/css">
	.st0{fill:url(#SVGID_1_);}
	.st1{fill:url(#SVGID_2_);}
	.st2{fill:url(#SVGID_3_);}
	.st3{fill:url(#SVGID_4_);}
	.st4{fill:url(#SVGID_5_);}
	.st5{fill:url(#SVGID_6_);}
	.st6{fill:url(#SVGID_7_);}
</style>
<linearGradient id="SVGID_1_" gradientUnits="userSpaceOnUse" x1="130.8909" y1="-33.9765" x2="130.8909" y2="398.3195" gradientTransform="matrix(1 0 0 -1 0 374.047)">
	<stop  offset="0" style="stop-color:#9F2FFF"/>
	<stop  offset="1" style="stop-color:#6B63FF"/>
</linearGradient>
<path class="st0" d="M171.6,141.5c-12,1.3-24.1,1.9-36.1,1.9c-15.1,0-30.2-1-45.1-3c-3.3-0.5-6.3,1.8-6.8,5.1
	c-0.5,3.3,1.8,6.3,5.1,6.8c0,0,0,0,0.1,0c15.5,2.1,31.1,3.1,46.8,3.1c12.5,0,25-0.6,37.4-1.9c3.3-0.4,5.7-3.3,5.3-6.6
	C177.9,143.6,174.9,141.2,171.6,141.5L171.6,141.5L171.6,141.5z"/>
<linearGradient id="SVGID_2_" gradientUnits="userSpaceOnUse" x1="210.925" y1="-33.9765" x2="210.925" y2="398.3195" gradientTransform="matrix(1 0 0 -1 0 374.047)">
	<stop  offset="0" style="stop-color:#9F2FFF"/>
	<stop  offset="1" style="stop-color:#6B63FF"/>
</linearGradient>
<path class="st1" d="M210.9,122.8c-9,0-16.3,7.3-16.3,16.3s7.3,16.3,16.3,16.3s16.3-7.3,16.3-16.3
	C227.2,130.1,219.9,122.8,210.9,122.8z M210.9,143.4c-2.4,0-4.3-1.9-4.3-4.3s1.9-4.3,4.3-4.3s4.3,1.9,4.3,4.3
	C215.3,141.5,213.3,143.4,210.9,143.4L210.9,143.4z"/>
<linearGradient id="SVGID_3_" gradientUnits="userSpaceOnUse" x1="130.9367" y1="-33.9765" x2="130.9367" y2="398.3195" gradientTransform="matrix(1 0 0 -1 0 374.047)">
	<stop  offset="0" style="stop-color:#9F2FFF"/>
	<stop  offset="1" style="stop-color:#6B63FF"/>
</linearGradient>
<path class="st2" d="M88.7,240.2c15.5,2.1,31.1,3.1,46.8,3.1c12.5,0,25-0.6,37.4-1.9c3.3-0.3,5.7-3.3,5.4-6.6
	c-0.3-3.3-3.3-5.7-6.6-5.4c0,0-0.1,0-0.1,0c-12,1.3-24.1,1.9-36.1,1.9c-15.1,0-30.2-1-45.1-3c-3.3-0.4-6.3,1.8-6.8,5.1
	S85.5,239.7,88.7,240.2L88.7,240.2z"/>
<linearGradient id="SVGID_4_" gradientUnits="userSpaceOnUse" x1="210.925" y1="-33.9765" x2="210.925" y2="398.3195" gradientTransform="matrix(1 0 0 -1 0 374.047)">
	<stop  offset="0" style="stop-color:#9F2FFF"/>
	<stop  offset="1" style="stop-color:#6B63FF"/>
</linearGradient>
<path class="st3" d="M210.9,243.2c9,0,16.3-7.3,16.3-16.3s-7.3-16.3-16.3-16.3s-16.3,7.3-16.3,16.3l0,0
	C194.6,235.9,201.9,243.2,210.9,243.2z M210.9,222.6c2.4,0,4.3,1.9,4.3,4.3s-1.9,4.3-4.3,4.3s-4.3-1.9-4.3-4.3
	C206.6,224.5,208.5,222.6,210.9,222.6L210.9,222.6z"/>
<linearGradient id="SVGID_5_" gradientUnits="userSpaceOnUse" x1="130.9184" y1="-33.9765" x2="130.9184" y2="398.3195" gradientTransform="matrix(1 0 0 -1 0 374.047)">
	<stop  offset="0" style="stop-color:#9F2FFF"/>
	<stop  offset="1" style="stop-color:#6B63FF"/>
</linearGradient>
<path class="st4" d="M171.6,317.2c-12,1.3-24.1,1.9-36.1,1.9c-15.1,0-30.2-1-45.1-3c-3.3-0.5-6.3,1.8-6.8,5.1s1.8,6.3,5.1,6.8
	c0,0,0,0,0.1,0c15.5,2.1,31.1,3.1,46.8,3.1c12.5,0,25-0.6,37.4-1.9c3.3-0.3,5.7-3.3,5.4-6.6c-0.3-3.3-3.3-5.7-6.6-5.4
	C171.7,317.2,171.7,317.2,171.6,317.2L171.6,317.2z"/>
<linearGradient id="SVGID_6_" gradientUnits="userSpaceOnUse" x1="210.924" y1="-33.9765" x2="210.924" y2="398.3195" gradientTransform="matrix(1 0 0 -1 0 374.047)">
	<stop  offset="0" style="stop-color:#9F2FFF"/>
	<stop  offset="1" style="stop-color:#6B63FF"/>
</linearGradient>
<path class="st5" d="M210.9,298.4c-9,0-16.3,7.3-16.3,16.3c0,9,7.3,16.3,16.3,16.3c9,0,16.3-7.3,16.3-16.3c0,0,0,0,0,0
	C227.2,305.7,219.9,298.4,210.9,298.4z M210.9,319.1c-2.4,0-4.3-1.9-4.3-4.3s1.9-4.3,4.3-4.3c2.4,0,4.3,1.9,4.3,4.3c0,0,0,0,0,0
	C215.3,317.1,213.3,319.1,210.9,319.1L210.9,319.1z"/>
<linearGradient id="SVGID_7_" gradientUnits="userSpaceOnUse" x1="224.9634" y1="-33.9765" x2="224.9634" y2="398.3195" gradientTransform="matrix(1 0 0 -1 0 374.047)">
	<stop  offset="0" style="stop-color:#9F2FFF"/>
	<stop  offset="1" style="stop-color:#6B63FF"/>
</linearGradient>
<path class="st6" d="M394.2,32c2.7,11,13,20,25.3,20c14.4,0.2,26.2-11.2,26.4-25.6c0.2-14.4-11.2-26.2-25.6-26.4c-0.3,0-0.6,0-0.9,0
	c-12.1-0.2-22.7,8.2-25.3,20h-78.7c-3.3,0-6.5,2.6-6.5,5.9V180h-43V63.1c0-14.8-14.2-28.2-40.3-37.6c-24.2-8.8-56.2-13.6-90.3-13.6
	S69,16.7,44.8,25.5C18.6,34.9,4,48.3,4,63.1v257.7c0,14.8,14.7,28.2,40.8,37.6c24.2,8.8,56.5,13.6,90.6,13.6s66-4.8,90.2-13.6
	c26.2-9.5,40.4-22.8,40.4-37.6V192h43V346c0,3.3,3.2,6.1,6.5,6.1h78.7c2.7,11,13,20,25.3,20c14.4,0.2,26.2-11.2,26.4-25.6
	s-11.2-26.2-25.6-26.4c-0.3,0-0.6,0-0.9,0c-12.1-0.2-22.7,8.2-25.3,20H321V192h73.2c2.7,11,13,20,25.3,20
	c14.4,0.2,26.2-11.2,26.4-25.6c0.2-14.4-11.2-26.2-25.6-26.4c-0.3,0-0.6,0-0.9,0c-12.1-0.2-22.7,8.2-25.3,20H321V32H394.2z
	 M419.5,12c7.7,0,14,6.3,14,14s-6.3,14-14,14s-14-6.3-14-14C405.5,18.2,411.8,12,419.5,12z M254,148.8c0,18.6-48.9,39.2-119,39.2
	S16,167.4,16,148.8V85.3c7,5.8,16.7,11.1,28.8,15.5c24.2,8.8,56.5,13.6,90.6,13.6s66-4.8,90.2-13.6c12.1-4.4,22.4-9.6,28.4-15.5
	V148.8z M16,232.7V171c7,5.8,16.7,11.1,28.8,15.5c24.2,8.8,56.5,13.6,90.6,13.6s66-4.8,90.2-13.6c12.1-4.4,22.4-9.6,28.4-15.5v63.5
	c0,18.6-48.9,39.2-119,39.2S16,253.1,16,234.5V232.7z M135.5,23.9c70.1,0,119,20.7,119,39.2s-48.9,39.2-119,39.2s-119-20.7-119-39.2
	S65.4,23.9,135.5,23.9z M135,360.1c-70.1,0-119-20.7-119-39.2v-64.1c7,5.8,16.7,11.1,28.8,15.5c24.2,8.8,56.5,13.6,90.6,13.6
	s66-4.8,90.2-13.6c12.1-4.4,22.4-9.6,28.4-15.5v64.1C254,339.4,205.1,360.1,135,360.1z M419.5,332c7.7,0,14,6.3,14,14s-6.3,14-14,14
	s-14-6.3-14-14C405.5,338.2,411.8,332,419.5,332L419.5,332z M419.5,172c7.7,0,14,6.3,14,14c0,7.7-6.3,14-14,14s-14-6.3-14-14
	C405.5,178.2,411.8,172,419.5,172L419.5,172z"/>
</svg>
