<?xml version="1.0" encoding="utf-8"?>
<!-- Generator: Adobe Illustrator 24.1.2, SVG Export Plug-In . SVG Version: 6.00 Build 0)  -->
<svg version="1.1" id="Layer_5" xmlns="http://www.w3.org/2000/svg" xmlns:xlink="http://www.w3.org/1999/xlink" x="0px" y="0px"
	 viewBox="0 0 512 512" style="enable-background:new 0 0 512 512;" xml:space="preserve">
<style type="text/css">
	.st0{fill:url(#SVGID_1_);}
</style>
<linearGradient id="SVGID_1_" gradientUnits="userSpaceOnUse" x1="-340.75" y1="562.125" x2="-340.75" y2="624.125" gradientTransform="matrix(8 0 0 -8 2982 5001)">
	<stop  offset="0" style="stop-color:#9F2FFF"/>
	<stop  offset="1" style="stop-color:#6B63FF"/>
</linearGradient>
<path class="st0" d="M368,56c-48.5,0-88,39.5-88,88s39.5,88,88,88s88-39.5,88-88S416.5,56,368,56z M368,216c-39.7,0-72-32.3-72-72
	s32.3-72,72-72s72,32.3,72,72S407.7,216,368,216z M474.8,89.3l10.5-20.4l-42.2-42.2l-20.4,10.5c-5.7-2.9-11.7-5.4-17.8-7.4l-7-21.9
	h-59.7l-7,21.9c-6.2,2-12.2,4.4-17.8,7.4l-20.4-10.5l-42.2,42.2l9.8,19.1H32C18.8,88,8,98.8,8,112v336c0,13.2,10.8,24,24,24h285.5
	c9,18.9,28.2,32,50.5,32c30.9,0,56-25.1,56-56c0-28.2-20.9-51.5-48-55.4V296h-16v96.6c-27.1,3.9-48,27.2-48,55.4
	c0,2.7,0.3,5.4,0.6,8H32c-4.4,0-8-3.6-8-8V200h236.6l-9.8,19.1l42.2,42.2l20.4-10.5c5.7,2.9,11.7,5.4,17.8,7.4l7,21.9h59.7l7-21.9
	c6.2-2,12.2-4.4,17.8-7.4l20.4,10.5l42.2-42.2l-10.5-20.4c2.9-5.7,5.4-11.6,7.4-17.8l21.9-7v-59.7l-21.9-7
	C480.1,101,477.7,95,474.8,89.3L474.8,89.3z M368,408c22.1,0,40,17.9,40,40s-17.9,40-40,40s-40-17.9-40-40S345.9,408,368,408z
	 M24,112c0-4.4,3.6-8,8-8h223c-0.4,1.1-0.8,2.1-1.2,3.2l-21.9,7v59.7l21.9,7c0.3,1.1,0.8,2.1,1.2,3.2H24L24,112z M488,162.2l-18.8,6
	l-1.2,4.1c-2.2,7.9-5.3,15.4-9.2,22.4l-2.1,3.8l9,17.6L440,241.7l-17.6-9l-3.7,2.1c-7,3.9-14.5,7-22.4,9.2l-4.1,1.2l-6,18.8h-36.3
	l-6-18.8l-4.1-1.2c-7.9-2.2-15.4-5.3-22.4-9.2l-3.7-2.1l-17.6,9L270.3,216l9-17.6l-2.1-3.8c-3.9-6.9-7-14.5-9.2-22.4l-1.2-4.1
	l-18.8-6v-36.3l18.8-6l1.2-4.1c2.2-7.9,5.3-15.4,9.2-22.4l2.1-3.7l-9-17.6L296,46.3l17.6,9l3.7-2.1c7-3.9,14.5-7,22.4-9.2l4.1-1.2
	l6-18.8h36.3l6,18.8l4.1,1.2c7.9,2.2,15.4,5.3,22.4,9.2l3.7,2.1l17.6-9L465.7,72l-9,17.6l2.1,3.7c3.9,7,7,14.5,9.2,22.4l1.2,4.1
	l18.8,6V162.2z M398.4,107.2L426,144l-27.6,36.8l-12.8-9.6L406,144l-20.4-27.2L398.4,107.2z M350.4,116.8L330,144l20.4,27.2
	l-12.8,9.6L310,144l27.6-36.8L350.4,116.8z M368.1,86.9l15.8,2.3l-16,112l-15.8-2.3L368.1,86.9z M136,120H56c-8.8,0-16,7.2-16,16v16
	c0,8.8,7.2,16,16,16h80c8.8,0,16-7.2,16-16v-16C152,127.2,144.8,120,136,120z M104,136v16H88v-16H104z M56,136h16v16H56V136z
	 M120,152v-16h16l0,16H120z M368,472c13.2,0,24-10.8,24-24s-10.8-24-24-24s-24,10.8-24,24S354.8,472,368,472z M368,440
	c4.4,0,8,3.6,8,8s-3.6,8-8,8s-8-3.6-8-8S363.6,440,368,440z M424,272v67.3l32,32v22.2c-9.3,3.3-16,12.1-16,22.5
	c0,13.2,10.8,24,24,24s24-10.8,24-24c0-10.4-6.7-19.2-16-22.5v-28.8l-32-32V272H424z M464,424c-4.4,0-8-3.6-8-8s3.6-8,8-8s8,3.6,8,8
	S468.4,424,464,424z M312,339.3V272h-16v60.7l-32,32v28.8c-9.3,3.3-16,12.1-16,22.5c0,13.2,10.8,24,24,24s24-10.8,24-24
	c0-10.4-6.7-19.2-16-22.5v-22.2L312,339.3z M272,424c-4.4,0-8-3.6-8-8s3.6-8,8-8s8,3.6,8,8S276.4,424,272,424z M72,240
	c0,6.2-2.4,11.7-6.2,16c3.8,4.3,6.2,9.8,6.2,16c0,4.4,3.6,8,8,8h8v16h-8c-13.2,0-24-10.8-24-24c0-4.4-3.6-8-8-8h-8v-16h8
	c4.4,0,8-3.6,8-8c0-13.2,10.8-24,24-24h8v16h-8C75.6,232,72,235.6,72,240z M200,232h-96v-16h96V232z M104,248h96v16h-96V248z
	 M184,296v-16h16v16H184z M104,280h64v16h-64V280z M192,424h-8v-16h8c4.4,0,8-3.6,8-8c0-6.2,2.4-11.7,6.2-16
	c-3.8-4.3-6.2-9.8-6.2-16c0-4.4-3.6-8-8-8h-8v-16h8c13.2,0,24,10.8,24,24c0,4.4,3.6,8,8,8h8v16h-8c-4.4,0-8,3.6-8,8
	C216,413.2,205.2,424,192,424z M72,408h96v16H72V408z M168,392h-64v-16h64V392z M88,376v16H72v-16H88z M168,360H72v-16h96V360z
	 M200,328H40v-16h160V328z"/>
</svg>
