<?xml version="1.0" encoding="utf-8"?>
<!-- Generator: Adobe Illustrator 24.1.2, SVG Export Plug-In . SVG Version: 6.00 Build 0)  -->
<svg version="1.1" id="Layer_5" xmlns="http://www.w3.org/2000/svg" xmlns:xlink="http://www.w3.org/1999/xlink" x="0px" y="0px"
	 viewBox="0 0 512 512" style="enable-background:new 0 0 512 512;" xml:space="preserve">
<style type="text/css">
	.st0{fill:url(#SVGID_1_);}
</style>
<linearGradient id="SVGID_1_" gradientUnits="userSpaceOnUse" x1="-340.75" y1="562.125" x2="-340.75" y2="624.125" gradientTransform="matrix(8 0 0 -8 2982 5001)">
	<stop  offset="0" style="stop-color:#9F2FFF"/>
	<stop  offset="1" style="stop-color:#6B63FF"/>
</linearGradient>
<path class="st0" d="M8,504h496V8H8V504z M24,96h32v32H24V96z M24,144h32v32H24V144z M24,192h32v32H24V192z M24,240h32v32H24V240z
	 M24,288h32v32H24V288z M24,336h32v32H24V336z M24,384h32v32H24V384z M67.3,456H80v32H35.3L67.3,456z M440,72v368H72V72H440z
	 M96,456h32v32H96V456z M144,456h32v32h-32V456z M192,456h32v32h-32V456z M240,456h32v32h-32V456z M288,456h32v32h-32V456z M336,456
	h32v32h-32V456z M384,456h32v32h-32V456z M432,456h12.7l32,32H432V456z M488,416h-32v-32h32V416z M488,368h-32v-32h32V368z M488,320
	h-32v-32h32V320z M488,272h-32v-32h32V272z M488,224h-32v-32h32V224z M488,176h-32v-32h32V176z M488,128h-32V96h32V128z M456,444.7
	V432h32v44.7L456,444.7z M488,80h-32V67.3l32-32V80z M444.7,56H432V24h44.7L444.7,56z M416,56h-32V24h32V56z M368,56h-32V24h32V56z
	 M320,56h-32V24h32V56z M272,56h-32V24h32V56z M224,56h-32V24h32V56z M176,56h-32V24h32V56z M128,56H96V24h32V56z M80,56H67.3
	l-32-32H80V56z M56,67.3V80H24V35.3L56,67.3z M24,432h32v12.7l-32,32V432z M104,424h304c8.8,0,16-7.2,16-16V104c0-8.8-7.2-16-16-16
	H104c-8.8,0-16,7.2-16,16v304C88,416.8,95.2,424,104,424z M104,104h304l0,304H104V104z M232,296h48c8.8,0,16-7.2,16-16v-48
	c0-8.8-7.2-16-16-16h-48c-8.8,0-16,7.2-16,16v48C216,288.8,223.2,296,232,296z M232,232h48l0,48h-48V232z M328,312h32v-16h-32v-16
	h32v-16h-32v-16h32v-16h-32v-16h32v-16h-32v-16h-16v-32h-16v32h-16v-32h-16v32h-16v-32h-16v32h-16v-32h-16v32h-16v16h-32v16h32v16
	h-32v16h32v16h-32v16h32v16h-32v16h32v16h16v32h16v-32h16v32h16v-32h16v32h16v-32h16v32h16v-32h16V312z M312,312H200V200h112V312z
	 M144,168c13.2,0,24-10.8,24-24s-10.8-24-24-24s-24,10.8-24,24S130.8,168,144,168z M144,136c4.4,0,8,3.6,8,8s-3.6,8-8,8s-8-3.6-8-8
	S139.6,136,144,136z M144,344c-13.2,0-24,10.8-24,24s10.8,24,24,24s24-10.8,24-24S157.2,344,144,344z M144,376c-4.4,0-8-3.6-8-8
	s3.6-8,8-8s8,3.6,8,8S148.4,376,144,376z M368,120c-13.2,0-24,10.8-24,24s10.8,24,24,24s24-10.8,24-24S381.2,120,368,120z M368,152
	c-4.4,0-8-3.6-8-8s3.6-8,8-8s8,3.6,8,8S372.4,152,368,152z M368,344c-13.2,0-24,10.8-24,24s10.8,24,24,24s24-10.8,24-24
	S381.2,344,368,344z M368,376c-4.4,0-8-3.6-8-8s3.6-8,8-8s8,3.6,8,8S372.4,376,368,376z M248,248h16v16h-16V248z"/>
</svg>
