<?xml version="1.0" encoding="utf-8"?>
<!-- Generator: Adobe Illustrator 24.1.2, SVG Export Plug-In . SVG Version: 6.00 Build 0)  -->
<svg version="1.1" id="Layer_1" xmlns="http://www.w3.org/2000/svg" xmlns:xlink="http://www.w3.org/1999/xlink" x="0px" y="0px"
	 viewBox="0 0 856 495" style="enable-background:new 0 0 856 495;" xml:space="preserve">
<style type="text/css">
	.st0{fill:#3F3D56;}
	.st1{fill:#2F2E41;}
	.st2{fill:#FFFFFF;}
	.st3{fill:#E6E6E6;}
	.st4{fill:#FFB8B8;}
	.st5{fill:#6C63FF;}
	.st6{fill:none;}
	.st7{font-family:'ArialMT';}
	.st8{font-size:12px;}
	.st9{font-size:11px;}
	.st10{font-size:8px;}
</style>
<rect x="0.08" y="338.89" class="st0" width="856" height="2"/>
<path class="st1" d="M619.06,480.09H48.37c-10.57,0-19.14-8.57-19.14-19.14l0,0l0,0c206.88-24.04,409.86-24.04,608.96,0l0,0
	C638.2,471.53,629.63,480.09,619.06,480.09L619.06,480.09z"/>
<path class="st0" d="M638.2,462.08l-608.96-1.13L99.82,342.2l0.34-0.56V79.92c0-13.36,10.83-24.19,24.19-24.19l0,0h415.38
	c13.36,0,24.19,10.83,24.19,24.19l0,0v263.52L638.2,462.08z"/>
<path class="st2" d="M123.78,72.62c-4.35,0-7.87,3.53-7.88,7.88v238.63c0.01,4.35,3.53,7.87,7.88,7.88h419.86
	c4.35-0.01,7.87-3.53,7.88-7.88V80.5c-0.01-4.35-3.53-7.87-7.88-7.88H123.78z"/>
<path class="st1" d="M125.54,358.53c-1.32,0-2.51,0.77-3.07,1.97l-21.75,47.28c-0.78,1.69-0.04,3.7,1.66,4.48
	c0.44,0.2,0.92,0.31,1.41,0.31h457.33c1.86,0,3.38-1.51,3.38-3.38c0-0.52-0.12-1.04-0.36-1.51L540.5,360.4
	c-0.57-1.15-1.74-1.87-3.02-1.87H125.54z"/>
<circle class="st2" cx="332.03" cy="63.61" r="5.07"/>
<path class="st1" d="M287.07,421.56c-1.53,0-2.86,1.03-3.26,2.5l-5.45,20.26c-0.49,1.8,0.58,3.65,2.38,4.14
	c0.29,0.08,0.58,0.12,0.88,0.12h103.74c1.86,0,3.38-1.51,3.38-3.38c0-0.38-0.06-0.75-0.19-1.11l-7.01-20.26
	c-0.47-1.36-1.75-2.27-3.19-2.27L287.07,421.56L287.07,421.56z"/>
<polygon class="st1" points="563.9,337.7 563.9,342.21 99.81,342.21 100.16,341.64 100.16,337.7 "/>
<path class="st3" d="M498.17,128.45v142.47c0.05,3.42-2.68,6.23-6.11,6.29h-316.7c-3.42-0.06-6.15-2.87-6.11-6.29V128.45
	c-0.04-3.42,2.69-6.23,6.11-6.28h316.7C495.49,122.22,498.22,125.03,498.17,128.45z"/>
<path class="st0" d="M182.96,173.74c-0.56,0-1.02-0.46-1.02-1.02v-68.23c0-0.56,0.46-1.02,1.02-1.02h78.41
	c0.56,0,1.02,0.46,1.02,1.02s-0.46,1.02-1.02,1.02h-77.39v67.21C183.98,173.28,183.53,173.74,182.96,173.74z"/>
<path class="st0" d="M484.39,174.76c-0.56,0-1.02-0.46-1.02-1.02l0,0v-67.21h-77.39c-0.56,0-1.02-0.45-1.02-1.02
	s0.45-1.02,1.02-1.02c0,0,0,0,0.01,0h78.41c0.56,0,1.02,0.46,1.02,1.02l0,0v68.23C485.41,174.3,484.95,174.76,484.39,174.76
	L484.39,174.76z"/>
<path class="st0" d="M261.38,294.92h-78.41c-0.56,0-1.02-0.46-1.02-1.02l0,0v-68.23c0-0.56,0.46-1.02,1.02-1.02s1.02,0.46,1.02,1.02
	v67.21h77.39c0.56,0,1.02,0.46,1.02,1.02S261.94,294.92,261.38,294.92z"/>
<path class="st0" d="M484.39,295.94h-78.41c-0.56,0-1.02-0.45-1.02-1.02s0.45-1.02,1.02-1.02c0,0,0,0,0.01,0h77.39v-67.21
	c0-0.56,0.46-1.02,1.02-1.02s1.02,0.46,1.02,1.02l0,0v68.23C485.41,295.48,484.95,295.94,484.39,295.94L484.39,295.94z"/>
<path class="st4" d="M813.67,280.63L813.67,280.63c6.31,0.62,11.93-4,12.55-10.32c0.04-0.37,0.05-0.74,0.05-1.12v-24.48l-16.01-1.92
	l-6.54,23.3c-1.71,6.11,1.85,12.45,7.96,14.17C812.33,280.44,813,280.57,813.67,280.63z"/>
<path class="st4" d="M675.2,292.02L675.2,292.02c6.31-0.62,10.93-6.25,10.3-12.56c-0.04-0.37-0.09-0.74-0.16-1.1l-4.76-24.01
	l-16.08,1.23l-1.88,24.12c-0.49,6.33,4.24,11.85,10.56,12.35C673.85,292.09,674.53,292.08,675.2,292.02z"/>
<path class="st1" d="M720.61,473.34l18.71,0.8c-4-75.62-2.75-139.59,8.19-182.03c13.62,48.46,18.3,112.04,18.66,182.95l20.4-1.73
	c8.72-83.97,13.14-161.6,3.84-219.01c-29.18-16.96-61.5-17.01-97.34,1.92C692.27,320.56,703.3,394.42,720.61,473.34z"/>
<path class="st1" d="M724.03,469.45l-7.94,2.65c0,0-16.76-4.41-12.35,7.06s16.76,9.7,16.76,9.7s14.99,11.47,21.17,2.65l-3.53-18.52
	L724.03,469.45z"/>
<path class="st1" d="M779.95,469.45l7.94,2.65c0,0,16.76-4.41,12.35,7.06s-16.76,9.7-16.76,9.7s-14.99,11.47-21.17,2.65l3.53-18.52
	L779.95,469.45z"/>
<circle class="st4" cx="716.13" cy="32.75" r="26.26"/>
<path class="st4" d="M712.93,85.26l39.7-10.89c-10.05-12.32-13.69-26.24-11.53-41.62h-28.18v52.51H712.93z"/>
<path class="st5" d="M690.51,262.01c35.48-13.08,70.22-15.52,103.74,0c-9.69-63.73-12.76-121.23-2.4-161.22
	c2.1-8-1.91-16.34-9.47-19.69l-35.53-15.69l-33.94,5.12l-28.65,20.8c-6.22,4.51-8.59,12.66-5.76,19.8
	C693.61,149.16,696.38,200.81,690.51,262.01z"/>
<path class="st5" d="M809.62,244.72l18.57,1.92l-18.93-133.62c-2.13-15.01-12.67-27.47-27.12-32.05l-2.61-0.83l3.84,71.72
	L809.62,244.72z"/>
<path class="st5" d="M681.7,257.41l-18.03,4.84l-2.48-134.93c-0.28-15.16,8.16-29.13,21.7-35.95l2.45-1.23l7.57,71.43L681.7,257.41z
	"/>
<path class="st1" d="M741.98,52.61c0,0,21.53-26.1,1.51-45.18c-13.89-13.24-33.58-6.64-44.34-1.36
	c-5.91,2.81-10.06,8.34-11.09,14.79c-0.72,4.94,0.47,9.37,8.07,7.34c15.2-4.06,10.64,9.37,10.64,9.37s10.81-0.17,10.64,9.37
	C717.24,56.5,741.98,52.61,741.98,52.61z"/>
<path class="st5" d="M271.98,183h-38.96c-11.06,0-20.02-8.96-20.02-20.02v-2.96c0-11.06,8.96-20.02,20.02-20.02h38.96
	c11.06,0,20.02,8.96,20.02,20.02v2.96C292,174.04,283.04,183,271.98,183z"/>
<path class="st5" d="M360.98,241h-38.96c-11.06,0-20.02-8.96-20.02-20.02v-2.96c0-11.06,8.96-20.02,20.02-20.02h38.96
	c11.06,0,20.02,8.96,20.02,20.02v2.96C381,232.04,372.04,241,360.98,241z"/>
<path class="st5" d="M360.98,183h-38.96c-11.06,0-20.02-8.96-20.02-20.02v-2.96c0-11.06,8.96-20.02,20.02-20.02h38.96
	c11.06,0,20.02,8.96,20.02,20.02v2.96C381,174.04,372.04,183,360.98,183z"/>
<path class="st5" d="M271.98,241h-38.96c-11.06,0-20.02-8.96-20.02-20.02v-2.96c0-11.06,8.96-20.02,20.02-20.02h38.96
	c11.06,0,20.02,8.96,20.02,20.02v2.96C292,232.04,283.04,241,271.98,241z"/>
<path class="st5" d="M450.98,184h-38.96c-11.06,0-20.02-8.96-20.02-20.02v-2.96c0-11.06,8.96-20.02,20.02-20.02h38.96
	c11.06,0,20.02,8.96,20.02,20.02v2.96C471,175.04,462.04,184,450.98,184z"/>
<path class="st5" d="M452.98,241h-38.96c-11.06,0-20.02-8.96-20.02-20.02v-2.96c0-11.06,8.96-20.02,20.02-20.02h38.96
	c11.06,0,20.02,8.96,20.02,20.02v2.96C473,232.04,464.04,241,452.98,241z"/>
<path class="st5" d="M292,275.02v2.19h-79v-2.19c0-11.06,8.96-20.02,20.02-20.02h38.96C283.04,255,292,263.96,292,275.02z"/>
<path class="st5" d="M381,276.02v1.19h-79v-1.19c0-11.06,8.96-20.02,20.02-20.02h38.96C372.04,256,381,264.96,381,276.02z"/>
<path class="st5" d="M471,275.02v2.19h-79v-2.19c0-11.06,8.96-20.02,20.02-20.02h38.96C462.04,255,471,263.96,471,275.02z"/>
<rect x="236.17" y="158.04" class="st6" width="40" height="27.69"/>
<text transform="matrix(1 0 0 1 236.1675 166.5562)" class="st7 st8">HTML</text>
<rect x="326.87" y="158.33" class="st6" width="40" height="27.69"/>
<text transform="matrix(1 0 0 1 326.8672 166.8538)" class="st7 st8">CSS</text>
<rect x="425.77" y="158.37" class="st6" width="40" height="27.69"/>
<text transform="matrix(1 0 0 1 425.7681 166.8858)" class="st7 st8">C</text>
<rect x="414.63" y="215.79" class="st6" width="40" height="27.69"/>
<text transform="matrix(1 0 0 1 414.6259 224.315)" class="st7 st8">JQUERY</text>
<rect x="321.63" y="216.79" class="st6" width="40" height="27.69"/>
<text transform="matrix(1 0 0 1 321.6259 224.605)" class="st7 st9">PYTHON</text>
<rect x="231.56" y="216.82" class="st6" width="40" height="27.69"/>
<text transform="matrix(1 0 0 1 231.5569 222.5018)" class="st7 st10">JAVAS</text>
<text transform="matrix(1 0 0 1 252.7169 222.5018)" class="st7 st10">-</text>
<text transform="matrix(1 0 0 1 231.5569 232.1018)" class="st7 st10">CRIPT</text>
<rect x="236.66" y="270.47" class="st6" width="40" height="27.69"/>
<text transform="matrix(1 0 0 1 236.6598 278.988)" class="st7 st8">JAVA</text>
<rect x="326.66" y="270.47" class="st6" width="40" height="27.69"/>
<text transform="matrix(1 0 0 1 326.6598 278.988)" class="st7 st8">SCALA</text>
<rect x="417.75" y="270.29" class="st6" width="40" height="27.69"/>
<text transform="matrix(1 0 0 1 417.7512 278.8086)" class="st7 st8">C++</text>
<rect x="232.77" y="277.21" class="st2" width="34" height="5"/>
<rect x="325" y="277.21" class="st2" width="43.48" height="4"/>
<rect x="415" y="277.21" class="st2" width="28" height="5"/>
</svg>
