<?xml version="1.0" encoding="utf-8"?>
<!-- Generator: Adobe Illustrator 24.1.2, SVG Export Plug-In . SVG Version: 6.00 Build 0)  -->
<svg version="1.1" id="Layer_1" xmlns="http://www.w3.org/2000/svg" xmlns:xlink="http://www.w3.org/1999/xlink" x="0px" y="0px"
	 viewBox="0 0 816 621" style="enable-background:new 0 0 816 621;" xml:space="preserve">
<style type="text/css">
	.st0{fill:#6C63FF;}
	.st1{fill:#F2F2F2;}
	.st2{fill:#3F3D56;}
	.st3{fill:#2F2E41;}
	.st4{fill:#FFB8B8;}
	.st5{fill:#D0CDE1;}
</style>
<path class="st0" d="M699.1,333.6c0,94.7-55.5,178.5-140.7,229.5C503.9,595.8,437.1,615,365.1,615c-96,0-169.3-36.3-224.4-91.9
	C89.9,471.9,54.6,404.3,31,333.6C-74.2,17.8,101.5-68.3,365.1,52.1C532.8,128.9,699.1,178.2,699.1,333.6z"/>
<path class="st1" d="M558.5,168.3v395.6c-54.6,32.7-121.3,51.9-193.4,51.9c-96,0-169.3-36.3-224.4-91.9V168.3L558.5,168.3z"/>
<path class="st2" d="M180.9,361c21.9-7,44.6-11,67.5-12c11.5-0.5,23,0,34.4,1.3c11.3,1.5,22.5,3.9,33.4,7.2
	c10.8,3.1,21.4,6.7,32.2,10c10.9,3.3,22,6,33.3,8.1c11.2,2,22.5,3.4,33.8,4c11.2,0.7,22.6,0.8,33.8-0.4c10.5-1,20.7-3.6,30.4-7.7
	c9-3.9,17.4-9.3,24.7-15.9c1.8-1.6,3.6-3.3,5.3-5.1c1-1-0.6-2.6-1.6-1.6c-14.3,15-33.1,24.2-53.5,27.3c-11.1,1.7-22.5,1.8-33.7,1.4
	c-11.5-0.4-22.9-1.6-34.2-3.5c-11.2-1.9-22.3-4.4-33.1-7.5c-10.7-3.1-21.2-6.7-31.9-9.9c-10.8-3.4-21.7-6-32.9-7.8
	c-11.2-1.7-22.4-2.5-33.7-2.3c-22.5,0.4-44.9,3.7-66.6,9.9c-2.7,0.8-5.4,1.6-8.1,2.4C178.9,359.3,179.5,361.5,180.9,361L180.9,361z"
	/>
<path class="st2" d="M180.9,417.9c21.9-7,44.6-11,67.5-12c11.5-0.5,23,0,34.4,1.3c11.3,1.5,22.5,3.9,33.4,7.2
	c10.8,3.1,21.4,6.7,32.2,10c10.9,3.3,22,6,33.3,8.1c11.2,2,22.5,3.4,33.8,4c11.2,0.7,22.6,0.8,33.8-0.4c10.5-1,20.7-3.6,30.4-7.7
	c9-3.9,17.4-9.3,24.7-15.9c1.8-1.6,3.6-3.3,5.3-5.1c1-1-0.6-2.6-1.6-1.6c-14.3,15-33.1,24.2-53.5,27.3c-11.1,1.7-22.5,1.8-33.7,1.4
	c-11.5-0.4-22.9-1.6-34.2-3.5c-11.2-1.9-22.3-4.4-33.1-7.5c-10.7-3.1-21.2-6.7-31.9-9.9c-10.8-3.4-21.7-6-32.9-7.8
	c-11.2-1.7-22.4-2.5-33.7-2.3c-22.5,0.4-44.9,3.7-66.6,9.9c-2.7,0.8-5.4,1.6-8.1,2.4C178.9,416.2,179.5,418.4,180.9,417.9
	L180.9,417.9z"/>
<path class="st2" d="M180.9,309.4c21.9-7,44.6-11,67.5-12c11.5-0.5,23,0,34.4,1.3c11.3,1.5,22.5,3.9,33.4,7.2
	c10.8,3.1,21.4,6.7,32.2,10c10.9,3.3,22,6,33.3,8.1c11.2,2,22.5,3.4,33.8,4c11.2,0.7,22.6,0.8,33.8-0.4c10.5-1,20.7-3.6,30.4-7.7
	c9-3.9,17.4-9.3,24.7-15.9c1.8-1.6,3.6-3.3,5.3-5.1c1-1-0.6-2.6-1.6-1.6c-14.3,15-33.1,24.2-53.5,27.3c-11.1,1.7-22.5,1.8-33.7,1.4
	c-11.5-0.4-22.9-1.6-34.2-3.5c-11.2-1.9-22.3-4.4-33.1-7.5c-10.7-3.1-21.2-6.7-31.9-9.9c-10.8-3.4-21.7-6-32.9-7.8
	c-11.2-1.7-22.4-2.5-33.7-2.3c-22.5,0.4-44.9,3.7-66.6,9.9c-2.7,0.8-5.4,1.6-8.1,2.4C178.9,307.6,179.5,309.8,180.9,309.4
	L180.9,309.4z"/>
<path class="st2" d="M178.2,211.7c5.4-2.4,11.7-2,17.3-0.6c6.1,1.5,11.8,4.1,17.8,5.9c10.7,3.2,22.1,3.4,32.9,0.6
	c6.1-1.6,11.9-4,17.2-7.4c1.2-0.8,0.1-2.7-1.1-1.9c-9.5,5.9-20.5,9.1-31.7,9c-5.6,0-11.2-0.8-16.6-2.4c-5.9-1.8-11.6-4.4-17.6-5.9
	c-6.4-1.6-13.2-2-19.3,0.7C175.8,210.3,176.9,212.3,178.2,211.7L178.2,211.7z"/>
<circle class="st2" cx="345.1" cy="521.6" r="34.4"/>
<circle class="st1" cx="159.4" cy="79.2" r="18.7"/>
<circle class="st1" cx="323.4" cy="132.3" r="12.7"/>
<circle class="st1" cx="116.7" cy="254.4" r="12.7"/>
<rect x="64.1" y="159.8" class="st2" width="1.4" height="251"/>
<ellipse class="st2" cx="65.1" cy="326.8" rx="27.4" ry="62.5"/>
<ellipse class="st2" cx="65.1" cy="184.4" rx="27.4" ry="62.5"/>
<path class="st2" d="M65.7,133.4l-1.3-0.4c0.1-0.3,8.3-28.6-5.2-46.8c-7.7-10.3-20.8-15.5-39-15.5v-1.4c18.7,0,32.2,5.4,40.2,16.1
	C74.3,104.1,65.8,133.1,65.7,133.4z"/>
<circle class="st2" cx="20.2" cy="70" r="17.5"/>
<path class="st3" d="M577.1,467.7L564,588.4h90.6l3.9-9.2l5.3,9.2H749c0,0-6.6-124.7-18.4-128.6
	C718.8,455.9,577.1,467.7,577.1,467.7z"/>
<circle class="st4" cx="654.5" cy="156.6" r="45.9"/>
<path class="st4" d="M628.3,185.5c0,0,3.9,42,0,44.6c-3.9,2.6,63,1.3,63,1.3s-9.2-38.1,0-56.4L628.3,185.5z"/>
<path class="st5" d="M651.9,220.9c0,0,33.8,5.3,36.6-5.2l17.2,23.6l1.3,236.3c0,0-140.4,17.1-145.7-10.5
	c-5.3-27.6,53.8-245.5,53.8-245.5l14.9-1C630,218.6,649.3,220.9,651.9,220.9z"/>
<path class="st2" d="M629.8,207.9l-22.5,7.8L543,231.4l2.6,157.5c0,0-55.1,157.5-30.2,169.3c24.9,11.8,60.4-15.8,70.9-35.4
	c10.5-19.7,47.3-292.7,47.3-298C633.5,219.6,629.8,207.9,629.8,207.9z"/>
<path class="st2" d="M687.6,207.9l8.9,7.8l63,28.9L728,403.4c0,0,42,144.4,26.3,152.3c-15.8,7.9-39.4,30.2-44.6,17.1
	S673.5,222.4,687.6,207.9z"/>
<path class="st4" d="M724.1,417.8c0,0-59.1-24.9-60.4-2.6c-1.3,22.3,66.9,38.1,66.9,31.5C730.7,440.1,724.1,417.8,724.1,417.8z"/>
<path class="st4" d="M579.7,408.6c0,0,68.3,51.2,42,64.3c-26.3,13.1-60.4-45.9-60.4-45.9L579.7,408.6z"/>
<path class="st3" d="M674.9,89.3c0.4-0.9,1.4-1.5,2.4-1.4c-21-1.3-43.2,1.2-60.8,12.8c-4.9,3.2-9.5,7.2-15.1,9l4.6,3.6l-5.4,1.7
	l8,5.2c-1.6,1.9-4.2,2.7-6.6,2.2c3.5,1,6,4.1,7.3,7.5c1.3,3.4,1.5,7.1,1.8,10.7c1.3-5.2,7-8.3,12.4-8.6s10.6,1.5,15.9,2.7
	c11.4,2.8,23.3,3.2,34.8,1.3c-3.9,7.9-0.6,17.3,2.7,25.5l6.7,16.3c3.7,0.4,6.3-3.3,9.1-5.8c2.5-2.2-7.6,17.5-6,16.8
	c2-0.9,23.5-24.7,24.5-26.7c4.6-9.1,7.3-19.3,6.9-29.6c-0.4-10.2-4.2-20.5-11.2-27.9c-4.8-5-11.4-5.9-16.3-10.1
	c-1.9-1.6-1.9-2.9-4.6-3.9C685.2,90.3,675.1,89,674.9,89.3z"/>
<path class="st2" d="M552.1,235.4l-9.2-3.9l-73.5,120.8c0,0-13.1,31.5,10.5,45.9c23.6,14.4,78.8,57.8,78.8,57.8l31.5-48.6
	c0,0-64.3-30.2-60.4-42c3.9-11.8,24.9-43.3,24.9-43.3L552.1,235.4z"/>
<path class="st2" d="M742.5,241.9l17.1,2.6c0,0,70.9,139.1,53.8,165.4c-17.1,26.3-86.6,63-86.6,63s-1.3-43.3-13.1-59.1l40.7-15.8
	L732,311.5L742.5,241.9z"/>
</svg>
