<?xml version="1.0" encoding="utf-8"?>
<!-- Generator: Adobe Illustrator 24.1.2, SVG Export Plug-In . SVG Version: 6.00 Build 0)  -->
<svg version="1.1" id="Layer_1" xmlns="http://www.w3.org/2000/svg" xmlns:xlink="http://www.w3.org/1999/xlink" x="0px" y="0px"
	 viewBox="0 0 512 512" style="enable-background:new 0 0 512 512;" xml:space="preserve">
<style type="text/css">
	.st0{fill:url(#SVGID_1_);}
	.st1{fill:url(#SVGID_2_);}
	.st2{fill:url(#SVGID_3_);}
	.st3{fill:url(#SVGID_4_);}
	.st4{fill:url(#SVGID_5_);}
</style>
<linearGradient id="SVGID_1_" gradientUnits="userSpaceOnUse" x1="256" y1="66.5243" x2="256" y2="460.5243">
	<stop  offset="0" style="stop-color:#6B63FF"/>
	<stop  offset="1" style="stop-color:#9F2FFF"/>
</linearGradient>
<path class="st0" d="M490,162.2V97.5C490,76,473.2,59,452.5,59H59.4C38.8,59,22,76,22,97.5v316.9C22,436,38.8,453,59.4,453h393.1
	c20.7,0,37.5-17,37.5-38.5V162.4C490,162.3,490,162.3,490,162.2C490,162.2,490,162.2,490,162.2z M59.4,71h393.1
	c14,0,25.5,11.7,25.5,26.5V156H34V97.5C34,82.7,45.4,71,59.4,71z M452.5,441H59.4c-14,0-25.4-11.7-25.4-26.5V168h444v246.5
	C478,429.3,466.6,441,452.5,441z"/>
<linearGradient id="SVGID_2_" gradientUnits="userSpaceOnUse" x1="140.0411" y1="494.0455" x2="144.0411" y2="29.0455">
	<stop  offset="0" style="stop-color:#6B63FF"/>
	<stop  offset="1" style="stop-color:#9F2FFF"/>
</linearGradient>
<path class="st1" d="M143.3,142c14.9,0,27-12.6,27-28s-12.1-28-27-28s-27,12.6-27,28S128.4,142,143.3,142z M143.3,98
	c8.3,0,15,7.2,15,16s-6.7,16-15,16s-15-7.2-15-16S135.1,98,143.3,98z"/>
<linearGradient id="SVGID_3_" gradientUnits="userSpaceOnUse" x1="208.1762" y1="494.3878" x2="212.1762" y2="29.3877">
	<stop  offset="0" style="stop-color:#6B63FF"/>
	<stop  offset="1" style="stop-color:#9F2FFF"/>
</linearGradient>
<path class="st2" d="M211.4,142c14.9,0,27-12.6,27-28s-12.1-28-27-28s-27,12.6-27,28S196.6,142,211.4,142z M211.4,98
	c8.3,0,15,7.2,15,16s-6.7,16-15,16s-15-7.2-15-16S203.2,98,211.4,98z"/>
<linearGradient id="SVGID_4_" gradientUnits="userSpaceOnUse" x1="71.9082" y1="493.4594" x2="75.9082" y2="28.4594">
	<stop  offset="0" style="stop-color:#6B63FF"/>
	<stop  offset="1" style="stop-color:#9F2FFF"/>
</linearGradient>
<path class="st3" d="M75.2,142c14.9,0,27-12.6,27-28S90,86,75.2,86s-27,12.6-27,28S60.3,142,75.2,142z M75.2,98c8.3,0,15,7.2,15,16
	s-6.7,16-15,16s-15-7.2-15-16S66.9,98,75.2,98z"/>
<linearGradient id="SVGID_5_" gradientUnits="userSpaceOnUse" x1="254.6917" y1="495.0318" x2="258.6917" y2="30.0318">
	<stop  offset="0" style="stop-color:#6B63FF"/>
	<stop  offset="1" style="stop-color:#9F2FFF"/>
</linearGradient>
<path class="st4" d="M343,281h-15v-2.1c0.1-23.6-19.1-42.9-42.7-42.9c-0.1,0-0.1,0-0.2,0H276v-14.3c0.1-7,5.8-12.6,12.8-12.7h10.5
	c3.3,0,6-2.7,6-6s-2.7-6-6-6h-10.5c-13.6,0-24.7,11-24.8,24.7V236h-16v-14.3c-0.1-13.6-11.2-24.6-24.8-24.7h-10.5c-3.3,0-6,2.7-6,6
	s2.7,6,6,6h10.5c7,0,12.7,5.7,12.8,12.7V236h-9.1c-23.6-0.1-42.9,19.1-42.9,42.7c0,0.1,0,0.1,0,0.2v2.1h-15c-13.5,0-25,10.7-25,24.2
	v10.5c0,3.3,2.7,6,6,6s6-2.7,6-6v-10.5c0-6.9,6.1-12.2,13-12.2h15v53h-15c-13.5,0-25,10.7-25,24.2v10.5c0,3.3,2.7,6,6,6s6-2.7,6-6
	v-10.5c0-6.9,6.1-12.2,13-12.2h15v13.8c-0.1,23.8,19.1,43.1,42.9,43.2h58.2c23.8-0.1,43-19.4,42.9-43.2V358h15c6.9,0,13,5.3,13,12.2
	v10.5c0,3.3,2.7,6,6,6s6-2.7,6-6v-10.5c0-13.5-11.5-24.2-25-24.2h-15v-53h15c6.9,0,13,5.3,13,12.2v10.5c0,3.3,2.7,6,6,6s6-2.7,6-6
	v-10.5C368,291.7,356.5,281,343,281z M226.9,248h58.2c17-0.1,30.8,13.7,30.9,30.7c0,0.1,0,0.2,0,0.2V301H196v-22.1
	c-0.1-17,13.7-30.9,30.7-30.9C226.7,248,226.8,248,226.9,248z M196,371.8V313h54v90h-23.1C209.8,402.9,195.9,388.9,196,371.8
	C196,371.8,196,371.8,196,371.8z M285.1,403H262v-90h54v58.8C316.1,388.9,302.3,402.9,285.1,403C285.1,403,285.1,403,285.1,403z"/>
</svg>
