<?xml version="1.0" encoding="utf-8"?>
<!-- Generator: Adobe Illustrator 24.1.2, SVG Export Plug-In . SVG Version: 6.00 Build 0)  -->
<svg version="1.1" id="Layer_1" xmlns="http://www.w3.org/2000/svg" xmlns:xlink="http://www.w3.org/1999/xlink" x="0px" y="0px"
	 viewBox="0 0 512 512" style="enable-background:new 0 0 512 512;" xml:space="preserve">
<style type="text/css">
	.st0{fill:url(#SVGID_1_);}
	.st1{fill:url(#SVGID_2_);}
	.st2{fill:url(#SVGID_3_);}
	.st3{fill:url(#SVGID_4_);}
	.st4{fill:url(#SVGID_5_);}
	.st5{fill:url(#SVGID_6_);}
	.st6{fill:url(#SVGID_7_);}
	.st7{fill:url(#SVGID_8_);}
	.st8{fill:url(#SVGID_9_);}
	.st9{fill:url(#SVGID_10_);}
	.st10{fill:url(#SVGID_11_);}
	.st11{fill:url(#SVGID_12_);}
	.st12{fill:url(#SVGID_13_);}
	.st13{fill:url(#SVGID_14_);}
	.st14{fill:url(#SVGID_15_);}
	.st15{fill:url(#SVGID_16_);}
	.st16{fill:url(#SVGID_17_);}
	.st17{fill:url(#SVGID_18_);}
	.st18{fill:url(#SVGID_19_);}
	.st19{fill:url(#SVGID_20_);}
	.st20{fill:url(#SVGID_21_);}
	.st21{fill:url(#SVGID_22_);}
	.st22{fill:url(#SVGID_23_);}
	.st23{fill:url(#SVGID_24_);}
</style>
<g id="Golbal-computer-network-laptop-smartphone">
	
		<linearGradient id="SVGID_1_" gradientUnits="userSpaceOnUse" x1="-340.75" y1="626.526" x2="-340.75" y2="557.6" gradientTransform="matrix(8 0 0 -8 2982 5001)">
		<stop  offset="0" style="stop-color:#6B63FF"/>
		<stop  offset="1" style="stop-color:#9F2FFF"/>
	</linearGradient>
	<path class="st0" d="M256,136c-66.3,0-120,53.7-120,120s53.7,120,120,120s120-53.7,120-120C375.9,189.8,322.2,136.1,256,136z
		 M359.6,248h-55.8c-0.4-18.6-2.6-37.1-6.7-55.3c9.8-3.6,19.1-8.5,27.6-14.6C345,196,357.5,221.1,359.6,248z M311.2,168
		c-5.8,3.7-12,6.8-18.5,9.3c-2.4-7.5-5.6-14.8-9.6-21.6C293,158.4,302.5,162.5,311.2,168L311.2,168z M256,152
		c6.7,0,15,10.7,21.4,29.7c-14.1,3.1-28.6,3.1-42.7,0C241,162.7,249.3,152,256,152L256,152z M256,200c8.7,0,17.3-1,25.8-2.9
		c3.7,16.7,5.8,33.8,6.1,50.9h-63.7c0.3-17.1,2.4-34.2,6.1-50.9C238.7,199,247.3,200,256,200z M228.9,155.7
		c-4,6.8-7.2,14.1-9.6,21.6c-6.5-2.5-12.6-5.6-18.5-9.3C209.5,162.5,219,158.4,228.9,155.7z M187.3,178.2c8.5,6,17.8,10.9,27.6,14.6
		c-4.1,18.2-6.4,36.7-6.7,55.3h-55.8C154.5,221.1,167,196,187.3,178.2L187.3,178.2z M152.4,264h55.8c0.4,18.6,2.6,37.1,6.7,55.3
		c-9.8,3.6-19.1,8.5-27.6,14.6C167,316,154.5,290.9,152.4,264L152.4,264z M200.8,344c5.8-3.7,12-6.8,18.5-9.3
		c2.4,7.5,5.6,14.8,9.6,21.6C219,353.6,209.5,349.5,200.8,344z M256,360c-6.7,0-15-10.7-21.4-29.7c14.1-3.1,28.6-3.1,42.7,0
		C271,349.3,262.7,360,256,360z M256,312c-8.7,0-17.3,1-25.8,2.9c-3.7-16.7-5.8-33.8-6.1-50.9h63.7c-0.3,17.1-2.4,34.2-6.1,50.9
		C273.3,313,264.7,312,256,312L256,312z M283.1,356.3c4-6.8,7.2-14.1,9.6-21.6c6.5,2.5,12.6,5.6,18.5,9.3
		C302.5,349.5,293,353.6,283.1,356.3L283.1,356.3z M324.7,333.8c-8.5-6-17.8-10.9-27.6-14.6c4.1-18.2,6.4-36.7,6.7-55.3h55.8
		C357.5,290.9,345,316,324.7,333.8z"/>
	
		<linearGradient id="SVGID_2_" gradientUnits="userSpaceOnUse" x1="-320.75" y1="626.526" x2="-320.75" y2="557.6" gradientTransform="matrix(8 0 0 -8 2982 5001)">
		<stop  offset="0" style="stop-color:#6B63FF"/>
		<stop  offset="1" style="stop-color:#9F2FFF"/>
	</linearGradient>
	<path class="st1" d="M472,16H360c-13.2,0-24,10.8-24,24v64c0,13.2,10.8,24,24,24h32v16h-16v16h80v-16h-16v-16h32
		c13.2,0,24-10.8,24-24V40C496,26.8,485.2,16,472,16z M424,144h-16v-16h16V144z M480,104c0,4.4-3.6,8-8,8H360c-4.4,0-8-3.6-8-8v-8
		h128V104z M480,80H352V40c0-4.4,3.6-8,8-8h112c4.4,0,8,3.6,8,8V80z"/>
	
		<linearGradient id="SVGID_3_" gradientUnits="userSpaceOnUse" x1="-361.75" y1="626.526" x2="-361.75" y2="557.6" gradientTransform="matrix(8 0 0 -8 2982 5001)">
		<stop  offset="0" style="stop-color:#6B63FF"/>
		<stop  offset="1" style="stop-color:#9F2FFF"/>
	</linearGradient>
	<path class="st2" d="M136,384h-8v-8c0-13.2-10.8-24-24-24H40c-13.2,0-24,10.8-24,24v96c0,13.2,10.8,24,24,24h96
		c13.2,0,24-10.8,24-24v-64C160,394.8,149.2,384,136,384z M81.4,480H40c-4.4,0-8-3.6-8-8v-96c0-4.4,3.6-8,8-8h64c4.4,0,8,3.6,8,8v8
		h-8c-13.2,0-24,10.8-24,24v64C80,474.7,80.5,477.4,81.4,480z M144,472c0,4.4-3.6,8-8,8h-32c-4.4,0-8-3.6-8-8v-64c0-4.4,3.6-8,8-8
		h32c4.4,0,8,3.6,8,8V472z"/>
	
		<linearGradient id="SVGID_4_" gradientUnits="userSpaceOnUse" x1="-320.75" y1="626.526" x2="-320.75" y2="557.6" gradientTransform="matrix(8 0 0 -8 2982 5001)">
		<stop  offset="0" style="stop-color:#6B63FF"/>
		<stop  offset="1" style="stop-color:#9F2FFF"/>
	</linearGradient>
	<path class="st3" d="M488,448v-56c0-13.2-10.8-24-24-24h-96c-13.2,0-24,10.8-24,24v56c-4.4,0-8,3.6-8,8v16c0,13.2,10.8,24,24,24
		h112c13.2,0,24-10.8,24-24v-16C496,451.6,492.4,448,488,448z M360,392c0-4.4,3.6-8,8-8h96c4.4,0,8,3.6,8,8v56H360V392z M480,472
		c0,4.4-3.6,8-8,8H360c-4.4,0-8-3.6-8-8v-8h128V472z"/>
	
		<linearGradient id="SVGID_5_" gradientUnits="userSpaceOnUse" x1="-360.75" y1="626.526" x2="-360.75" y2="557.6" gradientTransform="matrix(8 0 0 -8 2982 5001)">
		<stop  offset="0" style="stop-color:#6B63FF"/>
		<stop  offset="1" style="stop-color:#9F2FFF"/>
	</linearGradient>
	<path class="st4" d="M168,96V40c0-13.2-10.8-24-24-24H48c-13.2,0-24,10.8-24,24v56c-4.4,0-8,3.6-8,8v16c0,13.2,10.8,24,24,24h112
		c13.2,0,24-10.8,24-24v-16C176,99.6,172.4,96,168,96z M40,40c0-4.4,3.6-8,8-8h96c4.4,0,8,3.6,8,8v56H40V40z M160,120
		c0,4.4-3.6,8-8,8H40c-4.4,0-8-3.6-8-8v-8h128V120z"/>
	
		<linearGradient id="SVGID_6_" gradientUnits="userSpaceOnUse" x1="-346.75" y1="626.526" x2="-346.75" y2="557.6" gradientTransform="matrix(8 0 0 -8 2982 5001)">
		<stop  offset="0" style="stop-color:#6B63FF"/>
		<stop  offset="1" style="stop-color:#9F2FFF"/>
	</linearGradient>
	<path class="st5" d="M200,56h16v16h-16V56z"/>
	
		<linearGradient id="SVGID_7_" gradientUnits="userSpaceOnUse" x1="-338.75" y1="626.526" x2="-338.75" y2="557.6" gradientTransform="matrix(8 0 0 -8 2982 5001)">
		<stop  offset="0" style="stop-color:#6B63FF"/>
		<stop  offset="1" style="stop-color:#9F2FFF"/>
	</linearGradient>
	<path class="st6" d="M264,56h16v16h-16V56z"/>
	
		<linearGradient id="SVGID_8_" gradientUnits="userSpaceOnUse" x1="-342.75" y1="626.526" x2="-342.75" y2="557.6" gradientTransform="matrix(8 0 0 -8 2982 5001)">
		<stop  offset="0" style="stop-color:#6B63FF"/>
		<stop  offset="1" style="stop-color:#9F2FFF"/>
	</linearGradient>
	<path class="st7" d="M232,56h16v16h-16V56z"/>
	
		<linearGradient id="SVGID_9_" gradientUnits="userSpaceOnUse" x1="-334.75" y1="626.526" x2="-334.75" y2="557.6" gradientTransform="matrix(8 0 0 -8 2982 5001)">
		<stop  offset="0" style="stop-color:#6B63FF"/>
		<stop  offset="1" style="stop-color:#9F2FFF"/>
	</linearGradient>
	<path class="st8" d="M296,56h16v16h-16V56z"/>
	
		<linearGradient id="SVGID_10_" gradientUnits="userSpaceOnUse" x1="-346.75" y1="626.526" x2="-346.75" y2="557.6" gradientTransform="matrix(8 0 0 -8 2982 5001)">
		<stop  offset="0" style="stop-color:#6B63FF"/>
		<stop  offset="1" style="stop-color:#9F2FFF"/>
	</linearGradient>
	<path class="st9" d="M200,440h16v16h-16V440z"/>
	
		<linearGradient id="SVGID_11_" gradientUnits="userSpaceOnUse" x1="-338.75" y1="626.526" x2="-338.75" y2="557.6" gradientTransform="matrix(8 0 0 -8 2982 5001)">
		<stop  offset="0" style="stop-color:#6B63FF"/>
		<stop  offset="1" style="stop-color:#9F2FFF"/>
	</linearGradient>
	<path class="st10" d="M264,440h16v16h-16V440z"/>
	
		<linearGradient id="SVGID_12_" gradientUnits="userSpaceOnUse" x1="-342.75" y1="626.526" x2="-342.75" y2="557.6" gradientTransform="matrix(8 0 0 -8 2982 5001)">
		<stop  offset="0" style="stop-color:#6B63FF"/>
		<stop  offset="1" style="stop-color:#9F2FFF"/>
	</linearGradient>
	<path class="st11" d="M232,440h16v16h-16V440z"/>
	
		<linearGradient id="SVGID_13_" gradientUnits="userSpaceOnUse" x1="-334.75" y1="626.526" x2="-334.75" y2="557.6" gradientTransform="matrix(8 0 0 -8 2982 5001)">
		<stop  offset="0" style="stop-color:#6B63FF"/>
		<stop  offset="1" style="stop-color:#9F2FFF"/>
	</linearGradient>
	<path class="st12" d="M296,440h16v16h-16V440z"/>
	<g>
		
			<linearGradient id="SVGID_14_" gradientUnits="userSpaceOnUse" x1="-320.75" y1="626.526" x2="-320.75" y2="557.6" gradientTransform="matrix(8 0 0 -8 2982 5001)">
			<stop  offset="0" style="stop-color:#6B63FF"/>
			<stop  offset="1" style="stop-color:#9F2FFF"/>
		</linearGradient>
		<path class="st13" d="M408,176h16v16h-16V176z"/>
		
			<linearGradient id="SVGID_15_" gradientUnits="userSpaceOnUse" x1="-320.75" y1="626.526" x2="-320.75" y2="557.6" gradientTransform="matrix(8 0 0 -8 2982 5001)">
			<stop  offset="0" style="stop-color:#6B63FF"/>
			<stop  offset="1" style="stop-color:#9F2FFF"/>
		</linearGradient>
		<path class="st14" d="M408,208h16v16h-16V208z"/>
		
			<linearGradient id="SVGID_16_" gradientUnits="userSpaceOnUse" x1="-320.75" y1="626.526" x2="-320.75" y2="557.6" gradientTransform="matrix(8 0 0 -8 2982 5001)">
			<stop  offset="0" style="stop-color:#6B63FF"/>
			<stop  offset="1" style="stop-color:#9F2FFF"/>
		</linearGradient>
		<path class="st15" d="M408,240h16v16h-16V240z"/>
		
			<linearGradient id="SVGID_17_" gradientUnits="userSpaceOnUse" x1="-320.75" y1="626.526" x2="-320.75" y2="557.6" gradientTransform="matrix(8 0 0 -8 2982 5001)">
			<stop  offset="0" style="stop-color:#6B63FF"/>
			<stop  offset="1" style="stop-color:#9F2FFF"/>
		</linearGradient>
		<path class="st16" d="M408,272h16v16h-16V272z"/>
		
			<linearGradient id="SVGID_18_" gradientUnits="userSpaceOnUse" x1="-320.75" y1="626.526" x2="-320.75" y2="557.6" gradientTransform="matrix(8 0 0 -8 2982 5001)">
			<stop  offset="0" style="stop-color:#6B63FF"/>
			<stop  offset="1" style="stop-color:#9F2FFF"/>
		</linearGradient>
		<path class="st17" d="M408,304h16v16h-16V304z"/>
		
			<linearGradient id="SVGID_19_" gradientUnits="userSpaceOnUse" x1="-320.75" y1="626.526" x2="-320.75" y2="557.6" gradientTransform="matrix(8 0 0 -8 2982 5001)">
			<stop  offset="0" style="stop-color:#6B63FF"/>
			<stop  offset="1" style="stop-color:#9F2FFF"/>
		</linearGradient>
		<path class="st18" d="M408,336h16v16h-16V336z"/>
	</g>
	
		<linearGradient id="SVGID_20_" gradientUnits="userSpaceOnUse" x1="-361.75" y1="626.526" x2="-361.75" y2="557.6" gradientTransform="matrix(8 0 0 -8 2982 5001)">
		<stop  offset="0" style="stop-color:#6B63FF"/>
		<stop  offset="1" style="stop-color:#9F2FFF"/>
	</linearGradient>
	<path class="st19" d="M80,168h16v16H80V168z"/>
	
		<linearGradient id="SVGID_21_" gradientUnits="userSpaceOnUse" x1="-361.75" y1="626.526" x2="-361.75" y2="557.6" gradientTransform="matrix(8 0 0 -8 2982 5001)">
		<stop  offset="0" style="stop-color:#6B63FF"/>
		<stop  offset="1" style="stop-color:#9F2FFF"/>
	</linearGradient>
	<path class="st20" d="M80,200h16v16H80V200z"/>
	
		<linearGradient id="SVGID_22_" gradientUnits="userSpaceOnUse" x1="-361.75" y1="626.526" x2="-361.75" y2="557.6" gradientTransform="matrix(8 0 0 -8 2982 5001)">
		<stop  offset="0" style="stop-color:#6B63FF"/>
		<stop  offset="1" style="stop-color:#9F2FFF"/>
	</linearGradient>
	<path class="st21" d="M80,232h16v16H80V232z"/>
	
		<linearGradient id="SVGID_23_" gradientUnits="userSpaceOnUse" x1="-361.75" y1="626.526" x2="-361.75" y2="557.6" gradientTransform="matrix(8 0 0 -8 2982 5001)">
		<stop  offset="0" style="stop-color:#6B63FF"/>
		<stop  offset="1" style="stop-color:#9F2FFF"/>
	</linearGradient>
	<path class="st22" d="M80,264h16v16H80V264z"/>
	
		<linearGradient id="SVGID_24_" gradientUnits="userSpaceOnUse" x1="-361.75" y1="626.526" x2="-361.75" y2="557.6" gradientTransform="matrix(8 0 0 -8 2982 5001)">
		<stop  offset="0" style="stop-color:#6B63FF"/>
		<stop  offset="1" style="stop-color:#9F2FFF"/>
	</linearGradient>
	<path class="st23" d="M80,296h16v16H80V296z"/>
</g>
</svg>
