<?xml version="1.0" encoding="utf-8"?>
<!-- Generator: Adobe Illustrator 24.1.2, SVG Export Plug-In . SVG Version: 6.00 Build 0)  -->
<svg version="1.1" id="Capa_1" xmlns="http://www.w3.org/2000/svg" xmlns:xlink="http://www.w3.org/1999/xlink" x="0px" y="0px"
	 viewBox="0 0 568 568" style="enable-background:new 0 0 568 568;" xml:space="preserve">
<style type="text/css">
	.st0{fill:#FFFFFF;}
	.st1{fill:url(#SVGID_1_);}
	.st2{fill:#3D568D;}
</style>
<path class="st0" d="M566.4,568V14.7c0-8.1-6.6-14.7-14.7-14.7h-34.6H56.3H17.8C9.7,0,3.1,6.6,3.1,14.7v538.7
	c0,8.1,6.6,14.7,14.7,14.7h177.5v0h266.3C511.9,568,566.4,568,566.4,568z"/>
<g>
	<path class="st0" d="M567.1,538.6c0,14.4-11.5,26.1-25.7,26.1H28.9c-14.2,0-25.7-11.7-25.7-26.1V27.2c0-14.4,11.5-26.1,25.7-26.1
		h512.4c14.2,0,25.7,11.7,25.7,26.1V538.6z"/>
	<g>
		<linearGradient id="SVGID_1_" gradientUnits="userSpaceOnUse" x1="285.1626" y1="3.9715" x2="285.1626" y2="567.6619">
			<stop  offset="0" style="stop-color:#4D69A1"/>
			<stop  offset="1" style="stop-color:#3C5A98"/>
		</linearGradient>
		<path class="st1" d="M567.1,538.6V27.2c0-14.4-11.5-26.1-25.7-26.1h-45.9H74.8H28.9c-14.2,0-25.6,11.6-25.7,26V492l0,46.7
			c0,14.4,11.5,26.1,25.7,26.1h284.6V338.5h-73.5v-78h73.5v-84.7c0-50.7,45.3-84.8,81.8-84.8h82.2v70.9h-37.9
			c-18.7,0-43.6,15.4-43.6,34.4v64.2h74.1v78h-74.1v226.3h99.4h45.9C555.6,564.8,567.1,553.1,567.1,538.6z"/>
		<path class="st2" d="M541.4,568H392.8V335.2h74.1v-71.4h-74.1v-67.5c0-20.3,25.7-37.6,46.8-37.6h34.7V94.2h-79
			c-32.9,0-78.6,31-78.6,81.6v87.9h-73.5v71.4h73.5V568H28.9C13,568,0,554.9,0,538.7L0,27.1c0.1-16.1,13-29.3,28.9-29.3h512.4
			c15.9,0,28.9,13.2,28.9,29.4v511.4C570.3,554.8,557.3,568,541.4,568z M399.3,561.5h142.1c12.4,0,22.5-10.3,22.5-22.9V27.2
			c0-12.6-10.1-22.9-22.5-22.9H28.9C16.6,4.3,6.5,14.6,6.4,27.1l0,511.6c0,12.6,10.1,22.8,22.5,22.8h281.4V341.7h-73.5v-84.5h73.5
			v-81.4c0-50.4,44.9-88.1,85.1-88.1h85.4v77.5h-41.2c-17.8,0-40.4,14.6-40.4,31.1v60.9h74.1v84.5h-74.1V561.5z"/>
	</g>
</g>
</svg>
