<?xml version="1.0" encoding="utf-8"?>
<!-- Generator: Adobe Illustrator 24.1.2, SVG Export Plug-In . SVG Version: 6.00 Build 0)  -->
<svg version="1.1" id="Capa_1" xmlns="http://www.w3.org/2000/svg" xmlns:xlink="http://www.w3.org/1999/xlink" x="0px" y="0px"
	 viewBox="0 0 512 512" style="enable-background:new 0 0 512 512;" xml:space="preserve">
<style type="text/css">
	.st0{fill:url(#SVGID_1_);}
	.st1{fill:url(#SVGID_2_);}
	.st2{fill:url(#SVGID_3_);}
	.st3{fill:url(#SVGID_4_);}
	.st4{fill:url(#SVGID_5_);}
	.st5{fill:url(#SVGID_6_);}
	.st6{fill:url(#SVGID_7_);}
	.st7{fill:url(#SVGID_8_);}
	.st8{fill:url(#SVGID_9_);}
	.st9{fill:url(#SVGID_10_);}
</style>
<g>
	
		<linearGradient id="SVGID_1_" gradientUnits="userSpaceOnUse" x1="217.3086" y1="356.1599" x2="378.6056" y2="9.8879" gradientTransform="matrix(1.0039 0 0 -1.0039 1.6706 516.5138)">
		<stop  offset="0" style="stop-color:#E3E5E4"/>
		<stop  offset="1" style="stop-color:#CBD0E4"/>
	</linearGradient>
	<path class="st0" d="M464.2,461.1H47.8c-16.4,0-29.7-13.3-29.7-29.7L0,80.6c0-16.4,13.3-29.7,29.7-29.7h452.6
		c16.4,0,29.7,13.3,29.7,29.7l-18.1,350.7C493.9,447.8,480.6,461.1,464.2,461.1z"/>
	
		<linearGradient id="SVGID_2_" gradientUnits="userSpaceOnUse" x1="205.379" y1="132.8492" x2="288.689" y2="49.5392" gradientTransform="matrix(1.0039 0 0 -1.0039 1.6706 516.5138)">
		<stop  offset="0" style="stop-color:#EBEFF0"/>
		<stop  offset="1" style="stop-color:#E3E5E4"/>
	</linearGradient>
	<path class="st1" d="M482.3,461.1H29.7C13.3,461.1,0,447.8,0,431.4c0-8.3,3.4-16.2,9.5-21.9l223.5-210.3c13-12.2,33.2-12.2,46.2,0
		l223.5,210.3c6,5.7,9.5,13.6,9.5,21.9C512,447.8,498.7,461.1,482.3,461.1L482.3,461.1z"/>
	
		<linearGradient id="SVGID_3_" gradientUnits="userSpaceOnUse" x1="253.3359" y1="119.3991" x2="253.3359" y2="33.8511" gradientTransform="matrix(1.0039 0 0 -1.0039 1.6706 516.5138)">
		<stop  offset="0" style="stop-color:#CBD0E4;stop-opacity:0"/>
		<stop  offset="1" style="stop-color:#6A7D83"/>
	</linearGradient>
	<path class="st2" d="M4.3,354.3v77c0,16.4,13.1,29.7,29.2,29.7h445c16.1,0,29.2-13.3,29.2-29.7v-77H4.3z"/>
	
		<linearGradient id="SVGID_4_" gradientUnits="userSpaceOnUse" x1="15.6689" y1="259.4961" x2="56.3579" y2="259.4961" gradientTransform="matrix(1.0039 0 0 -1.0039 1.6706 516.5138)">
		<stop  offset="0" style="stop-color:#FF637B"/>
		<stop  offset="1" style="stop-color:#F90217"/>
	</linearGradient>
	<path class="st3" d="M0,80.6v350.7c0,16.4,13.3,29.7,29.7,29.7H49V50.9H29.7C13.3,50.9,0,64.2,0,80.6z"/>
	
		<linearGradient id="SVGID_5_" gradientUnits="userSpaceOnUse" x1="418.2951" y1="260.4443" x2="355.6281" y2="326.4443" gradientTransform="matrix(1.0039 0 0 -1.0039 1.6706 516.5138)">
		<stop  offset="0" style="stop-color:#CBD0E4;stop-opacity:0"/>
		<stop  offset="1" style="stop-color:#6A7D83"/>
	</linearGradient>
	<path class="st4" d="M10.5,102.5l383.1,358.5h88.7c16.4,0,29.7-13.3,29.7-29.7V80.6c0-16.4-13.3-27.7-29.7-27.7H29.7
		C13.3,52.9,1,64.2,1,80.6C1,88.9,4.4,96.9,10.5,102.5L10.5,102.5z"/>
	
		<linearGradient id="SVGID_6_" gradientUnits="userSpaceOnUse" x1="481.6689" y1="259.4961" x2="513.0029" y2="259.4961" gradientTransform="matrix(1.0039 0 0 -1.0039 1.6706 516.5138)">
		<stop  offset="0" style="stop-color:#FF637B"/>
		<stop  offset="1" style="stop-color:#F90217"/>
	</linearGradient>
	<path class="st5" d="M512,80.6v350.7c0,16.4-13.3,29.7-29.7,29.7H463V50.9h19.2C498.7,50.9,512,64.2,512,80.6z"/>
	
		<linearGradient id="SVGID_7_" gradientUnits="userSpaceOnUse" x1="499.103" y1="344.9482" x2="457.103" y2="392.4482" gradientTransform="matrix(1.0039 0 0 -1.0039 1.6706 516.5138)">
		<stop  offset="0" style="stop-color:#F90217;stop-opacity:0"/>
		<stop  offset="0.2669" style="stop-color:#E7010F;stop-opacity:0.267"/>
		<stop  offset="0.7232" style="stop-color:#CE0004;stop-opacity:0.723"/>
		<stop  offset="1" style="stop-color:#C50000"/>
	</linearGradient>
	<path class="st6" d="M482.3,52.9H463v181.7h49v-152C512,66.2,498.7,52.9,482.3,52.9z"/>
	
		<linearGradient id="SVGID_8_" gradientUnits="userSpaceOnUse" x1="111.6641" y1="344.9481" x2="69.6641" y2="392.4481" gradientTransform="matrix(-1.0039 0 0 -1.0039 121.3712 516.5138)">
		<stop  offset="0" style="stop-color:#F90217;stop-opacity:0"/>
		<stop  offset="0.2669" style="stop-color:#E7010F;stop-opacity:0.267"/>
		<stop  offset="0.7232" style="stop-color:#CE0004;stop-opacity:0.723"/>
		<stop  offset="1" style="stop-color:#C50000"/>
	</linearGradient>
	<path class="st7" d="M29.7,52.9H49v181.7H0v-152C0,66.2,13.3,52.9,29.7,52.9z"/>
	
		<linearGradient id="SVGID_9_" gradientUnits="userSpaceOnUse" x1="232.7413" y1="460.4346" x2="344.5243" y2="324.8046" gradientTransform="matrix(1.0039 0 0 -1.0039 1.6706 516.5138)">
		<stop  offset="0" style="stop-color:#EBEFF0"/>
		<stop  offset="1" style="stop-color:#E3E5E4"/>
	</linearGradient>
	<path class="st8" d="M482.3,50.9H29.7C13.3,50.9,0,64.2,0,80.6c0,8.3,3.4,13.2,9.5,18.9l223.5,210.3c13,12.2,33.2,12.2,46.2,0
		L502.5,99.5c6-5.7,9.5-10.6,9.5-18.9C512,64.2,498.7,50.9,482.3,50.9L482.3,50.9z"/>
	
		<linearGradient id="SVGID_10_" gradientUnits="userSpaceOnUse" x1="259.3629" y1="423.9227" x2="388.6969" y2="205.9227" gradientTransform="matrix(1.0039 0 0 -1.0039 1.6706 516.5138)">
		<stop  offset="0" style="stop-color:#FF637B"/>
		<stop  offset="1" style="stop-color:#F90217"/>
	</linearGradient>
	<path class="st9" d="M481.7,50.9c-1.2,0-2.3,0.5-3.2,1.3L279.1,239.8c-13,12.2-33.2,12.2-46.2,0L33.5,52.2c-0.9-0.8-2-1.3-3.2-1.3
		C15.2,50.9,2,62,0.2,77.1c-1.1,9.5,2.4,18.9,9.3,25.4l223.5,210.3c13,12.2,33.2,12.2,46.2,0l223.5-210.3
		c6.9-6.5,10.4-15.9,9.3-25.4C510,62,496.8,50.9,481.7,50.9L481.7,50.9z"/>
</g>
</svg>
