<?xml version="1.0" encoding="utf-8"?>
<!-- Generator: Adobe Illustrator 24.1.2, SVG Export Plug-In . SVG Version: 6.00 Build 0)  -->
<svg version="1.1" id="Capa_1" xmlns="http://www.w3.org/2000/svg" xmlns:xlink="http://www.w3.org/1999/xlink" x="0px" y="0px"
	 viewBox="0 0 512 512" style="enable-background:new 0 0 512 512;" xml:space="preserve">
<style type="text/css">
	.st0{fill:url(#SVGID_1_);}
	.st1{fill:url(#SVGID_2_);}
	.st2{fill:url(#SVGID_3_);}
	.st3{fill:url(#SVGID_4_);}
	.st4{fill:url(#SVGID_5_);}
	.st5{fill:url(#SVGID_6_);}
	.st6{fill:url(#SVGID_7_);}
	.st7{fill:url(#SVGID_8_);}
	.st8{fill:url(#SVGID_9_);}
	.st9{fill:url(#SVGID_10_);}
</style>
<g>
	
		<linearGradient id="SVGID_1_" gradientUnits="userSpaceOnUse" x1="210.502" y1="370.7723" x2="398.053" y2="-31.8617" gradientTransform="matrix(1.0039 0 0 -1.0039 1.6706 516.5138)">
		<stop  offset="0" style="stop-color:#E3E5E4"/>
		<stop  offset="1" style="stop-color:#CBD0E4"/>
	</linearGradient>
	<path class="st0" d="M464.2,512H47.8c-16.4,0-29.7-16.6-29.7-37.1L0,37.1C0,16.6,13.3,0,29.7,0h452.6C498.7,0,512,16.6,512,37.1
		l-18.1,437.8C493.9,495.4,480.6,512,464.2,512z"/>
	
		<linearGradient id="SVGID_2_" gradientUnits="userSpaceOnUse" x1="200.8999" y1="113.4444" x2="291.991" y2="22.3533" gradientTransform="matrix(1.0039 0 0 -1.0039 1.6706 516.5138)">
		<stop  offset="0" style="stop-color:#EBEFF0"/>
		<stop  offset="1" style="stop-color:#E3E5E4"/>
	</linearGradient>
	<path class="st1" d="M482.3,512H29.7C13.3,512,0,495.4,0,474.9c0-10.3,3.4-20.2,9.5-27.3l223.5-262.5c13-15.2,33.2-15.2,46.2,0
		l223.5,262.5c6,7.1,9.5,17,9.5,27.3C512,495.4,498.7,512,482.3,512L482.3,512z"/>
	
		<linearGradient id="SVGID_3_" gradientUnits="userSpaceOnUse" x1="253.3359" y1="84.6167" x2="253.3359" y2="-22.1707" gradientTransform="matrix(1.0039 0 0 -1.0039 1.6706 516.5138)">
		<stop  offset="0" style="stop-color:#CBD0E4;stop-opacity:0"/>
		<stop  offset="1" style="stop-color:#6A7D83"/>
	</linearGradient>
	<path class="st2" d="M4.3,378.8v96.1c0,20.5,13.1,37.1,29.2,37.1h445c16.1,0,29.2-16.6,29.2-37.1v-96.1H4.3z"/>
	
		<linearGradient id="SVGID_4_" gradientUnits="userSpaceOnUse" x1="15.6689" y1="259.4961" x2="56.3579" y2="259.4961" gradientTransform="matrix(1.0039 0 0 -1.0039 1.6706 516.5138)">
		<stop  offset="0" style="stop-color:#FF637B"/>
		<stop  offset="1" style="stop-color:#F90217"/>
	</linearGradient>
	<path class="st3" d="M0,37.1v437.8C0,495.4,13.3,512,29.7,512H49V0H29.7C13.3,0,0,16.6,0,37.1z"/>
	
		<linearGradient id="SVGID_5_" gradientUnits="userSpaceOnUse" x1="437.7612" y1="261.0971" x2="367.9661" y2="334.6042" gradientTransform="matrix(1.0039 0 0 -1.0039 1.6706 516.5138)">
		<stop  offset="0" style="stop-color:#CBD0E4;stop-opacity:0"/>
		<stop  offset="1" style="stop-color:#6A7D83"/>
	</linearGradient>
	<path class="st4" d="M10.5,64.4L393.5,512h88.7c16.4,0,29.7-16.6,29.7-37.1V37.1c0-20.5-13.3-34.6-29.7-34.6H29.7
		C13.3,2.5,1,16.6,1,37.1C1,47.5,4.4,57.3,10.5,64.4L10.5,64.4z"/>
	
		<linearGradient id="SVGID_6_" gradientUnits="userSpaceOnUse" x1="481.6689" y1="259.4961" x2="513.0029" y2="259.4961" gradientTransform="matrix(1.0039 0 0 -1.0039 1.6706 516.5138)">
		<stop  offset="0" style="stop-color:#FF637B"/>
		<stop  offset="1" style="stop-color:#F90217"/>
	</linearGradient>
	<path class="st5" d="M512,37.1v437.8c0,20.5-13.3,37.1-29.7,37.1H463V0h19.2C498.7,0,512,16.6,512,37.1z"/>
	
		<linearGradient id="SVGID_7_" gradientUnits="userSpaceOnUse" x1="502.5158" y1="367.7531" x2="452.0945" y2="424.7772" gradientTransform="matrix(1.0039 0 0 -1.0039 1.6706 516.5138)">
		<stop  offset="0" style="stop-color:#F90217;stop-opacity:0"/>
		<stop  offset="0.2669" style="stop-color:#E7010F;stop-opacity:0.267"/>
		<stop  offset="0.7232" style="stop-color:#CE0004;stop-opacity:0.723"/>
		<stop  offset="1" style="stop-color:#C50000"/>
	</linearGradient>
	<path class="st6" d="M482.3,2.5H463v226.8h49V39.6C512,19.1,498.7,2.5,482.3,2.5z"/>
	
		<linearGradient id="SVGID_8_" gradientUnits="userSpaceOnUse" x1="115.0769" y1="367.7531" x2="64.6557" y2="424.7772" gradientTransform="matrix(-1.0039 0 0 -1.0039 121.3712 516.5138)">
		<stop  offset="0" style="stop-color:#F90217;stop-opacity:0"/>
		<stop  offset="0.2669" style="stop-color:#E7010F;stop-opacity:0.267"/>
		<stop  offset="0.7232" style="stop-color:#CE0004;stop-opacity:0.723"/>
		<stop  offset="1" style="stop-color:#C50000"/>
	</linearGradient>
	<path class="st7" d="M29.7,2.5H49v226.8H0V39.6C0,19.1,13.3,2.5,29.7,2.5z"/>
	
		<linearGradient id="SVGID_9_" gradientUnits="userSpaceOnUse" x1="241.9902" y1="493.0811" x2="368.7691" y2="339.256" gradientTransform="matrix(1.0039 0 0 -1.0039 1.6706 516.5138)">
		<stop  offset="0" style="stop-color:#EBEFF0"/>
		<stop  offset="1" style="stop-color:#E3E5E4"/>
	</linearGradient>
	<path class="st8" d="M482.3,0H29.7C13.3,0,0,16.6,0,37.1c0,10.3,3.4,16.5,9.5,23.6l223.5,262.5c13,15.2,33.2,15.2,46.2,0
		L502.5,60.7c6-7.1,9.5-13.2,9.5-23.6C512,16.6,498.7,0,482.3,0L482.3,0z"/>
	
		<linearGradient id="SVGID_10_" gradientUnits="userSpaceOnUse" x1="269.0656" y1="450.8773" x2="418.7701" y2="198.5417" gradientTransform="matrix(1.0039 0 0 -1.0039 1.6706 516.5138)">
		<stop  offset="0" style="stop-color:#FF637B"/>
		<stop  offset="1" style="stop-color:#F90217"/>
	</linearGradient>
	<path class="st9" d="M481.7,0c-1.2,0-2.3,0.6-3.2,1.6L279.1,235.8c-13,15.2-33.2,15.2-46.2,0L33.5,1.6c-0.9-1-2-1.6-3.2-1.6
		C15.2,0,2,13.9,0.2,32.7c-1.1,11.9,2.4,23.7,9.3,31.7l223.5,262.5c13,15.2,33.2,15.2,46.2,0L502.5,64.4c6.9-8.1,10.4-19.8,9.3-31.7
		C510,13.9,496.8,0,481.7,0L481.7,0z"/>
</g>
</svg>
