<?xml version="1.0" encoding="utf-8"?>
<!-- Generator: Adobe Illustrator 24.1.2, SVG Export Plug-In . SVG Version: 6.00 Build 0)  -->
<svg version="1.1" id="Capa_1" xmlns="http://www.w3.org/2000/svg" xmlns:xlink="http://www.w3.org/1999/xlink" x="0px" y="0px"
	 viewBox="0 0 568 568" style="enable-background:new 0 0 568 568;" xml:space="preserve">
<style type="text/css">
	.st0{fill:#1976D2;}
	.st1{fill:#FFFFFF;}
</style>
<path class="st0" d="M551.7,0h-34.6H56.3H24.1h-6.3C9.7,0,3.1,6.6,3.1,14.7V21v526.2v6.3c0,8.1,6.6,14.7,14.7,14.7h6.3h171.2h266.3
	c50.3-0.1,104.8-0.1,104.8-0.1V14.7C566.4,6.6,559.8,0,551.7,0z"/>
<g>
	<rect x="57.9" y="235.3" class="st1" width="108.2" height="332.7"/>
	<path class="st1" d="M460.8,239.2c-1.1-0.4-2.2-0.8-3.4-1.1c-1.5-0.3-2.9-0.6-4.4-0.8c-5.7-1.1-12-2-19.4-2l0,0l0,0
		c-63.1,0-103.1,45.9-116.3,63.6v-63.6H209.1V568h108.2V386.5c0,0,81.8-113.9,116.3-30.2c0,74.7,0,211.7,0,211.7h108.2V343.5
		C541.7,293.3,507.3,251.4,460.8,239.2z"/>
	<circle class="st1" cx="110.8" cy="137.1" r="52.9"/>
</g>
</svg>
