<?xml version="1.0" encoding="utf-8"?>
<!-- Generator: Adobe Illustrator 24.1.2, SVG Export Plug-In . SVG Version: 6.00 Build 0)  -->
<svg version="1.1" id="Layer_1" xmlns="http://www.w3.org/2000/svg" xmlns:xlink="http://www.w3.org/1999/xlink" x="0px" y="0px"
	 viewBox="0 0 910 686" style="enable-background:new 0 0 910 686;" xml:space="preserve">
<style type="text/css">
	.st0{fill:#D0CDE1;}
	.st1{fill:#3F3D56;}
	.st2{fill:#FFB8B8;}
	.st3{fill:#2F2E41;}
	.st4{fill:#575A89;}
	.st5{fill:#6C63FF;}
</style>
<g id="Group_1" transform="translate(0 0.003)">
	<path id="Path_1" class="st0" d="M747.14,311.38c-1.79-4.61,0.77-6.92,1.79-11.02s-2.31-16.91-2.31-16.91s-10.76-44.33-14.09-53.05
		c-1.41-3.69-4.47-6.22-7.53-7.93c-0.21-1.13-0.51-1.86-0.92-2.07c-2.97-1.48-10.36-4.71-15.29-5.6c-0.92-1.58-2.01-3.06-3.26-4.41
		c0.86-1.66,1.27-3.52,1.16-5.39c-0.31-4.83-3.98-9.17-3.5-13.99c0.36-3.66,3.03-6.66,4.07-10.19c0.87-3.2,0.38-6.62-1.36-9.45
		l2.27,2.42c2.12-3.18,1.86-7.38-0.63-10.27c-2.4-2.65-6.41-3.65-8.28-6.7c-1.91-3.14-0.89-7.4-2.7-10.6
		c-4.43-7.84-15.78-2.28-22.58-5.02c-2.79-1.12-4.92-2.36-8.06-2.27c-2.67,0.15-5.31,0.65-7.86,1.47c-3.65,1.06-6.83,3.34-9.01,6.46
		c0.21-0.24,0.45-0.47,0.7-0.67c1.65-1.29,4.54-1.18,5.41,0.72c0.21,0.48,0.29,1,0.25,1.52c-0.14,2.29-2.15,4.01-4.14,5.16
		s-4.23,2.11-5.53,4.01c-2.15,3.13-0.88,7.33-0.88,11.12c-0.04,4.88-2.28,9.49-6.11,12.52l7.23-2.96
		c-3.45,6.04-5.72,12.69-6.68,19.58l9.78-8.08c-3.62,5.76-5.82,12.3-6.42,19.08l7.85-8.04c0.36,0.63,0.54,1.34,0.52,2.06l-0.82,3.16
		c-0.29,0.63-0.61,1.24-0.96,1.83c-1.26,2.17-2.57,4.84-1.39,7.05h0.01c-1.24,4.18-3.12,8.37-7.29,10.4
		c4.63,0.48,9.46-1.83,11.55-5.51c0.34,0.66,0.75,1.29,1.23,1.86l0.4,0.5l-1.15,0.77l-3.09,2.06c0,0-20.24,4.1-18.96,11.79
		c0.05,0.32,0.12,0.69,0.19,1.12l-5.83,9.9l-8.46,28.7c0,0-4.36,9.23-3.59,13.07s0,5.38,0,12.3s-3.33,9.74,0,15.38
		s13.33,22.04,13.33,22.04l2.2,1.65c-0.11,0.99-0.07,1.99,0.11,2.97c2.05,10.25,21.27,108.4,21.27,108.4s-9.74,77.65,9.99,82.52
		c2.47,0.61,4.91,1.16,7.27,1.66l2.98,19.61l-1.79,24.86c0,0-13.58,30.75,11.28,32.54s13.58-26.65,13.58-26.65
		c1.31-2.43,1.85-5.2,1.54-7.94c-0.25-2.28-2.39-14.15-4.48-25.57c9.43-1.13,7.67-11.14,6.41-15.54c0.54-0.32,0.95-0.83,1.14-1.42
		c0.28-1.02-0.38-5.04-1.58-10.68c-0.98-5.6-2.65-14.67-3.79-20.81l6.13,1l25.88-151.71c0,0,0.17-2.42,0.09-5.95
		c3.54-1.83,7.19-3.44,10.93-4.82c8.46-3.33,11.79-15.63,14.61-20.76S748.94,315.98,747.14,311.38z M655.24,214.78
		c0.84-0.58,1.82-0.91,2.84-0.96c-0.22,1.19-2.27,1.54-3.99,2.16C654.41,215.53,654.8,215.12,655.24,214.78L655.24,214.78z
		 M642.33,291.13c2.08,3.41-1.68,12.65-5.07,19.99c-1.94-1.67-3.97-1.14-1.59-5.89c1.62-3.01,2.58-6.33,2.82-9.74
		c0-0.59,0.3-4.89,2.83-6.68C641.58,289.61,641.92,290.39,642.33,291.13L642.33,291.13z M634.55,320.57
		c1.17-0.48,2.95-1.21,5.36-2.03c-1.15,1.51-2.47,3.31-3.79,5.28C635.11,323.05,634.53,321.84,634.55,320.57z M717.67,323.93
		c-1.56-1.65-2.82-3.14-3.85-4.46c1.93,0.51,3.9,1.06,5.9,1.64c1,0.15,2.02,0.08,2.99-0.2c0.09,1.77,0.09,4.3,0.09,4.3l-2.81,1.94
		C719.35,325.99,718.57,324.91,717.67,323.93L717.67,323.93z M725.62,315.05l-0.09,0.08c-0.14-1.01-0.37-2.01-0.68-2.98
		c-1.68-5.3-2.58-14.69-3.05-22.71l4.85,16.31C726.64,305.74,726.9,313.94,725.62,315.05L725.62,315.05z"/>
	<path id="Path_2" class="st0" d="M626.08,247.69c0,0-26.29-45.19-27.11-50.12S585,183.61,585,183.61
		c-4.49-4.49-11.86-5.91-19.61-5.84c2.92-2.42-7.51-4.04-8.32-5.66c-0.82-1.64-3.29-1.64-6.57-4.11s-11.49-0.41-11.49-0.41
		c-1.23-2.59-2.09-5.35-2.55-8.19c3.5-4.14,5.42-9.39,5.41-14.82c0-0.06,0-0.12,0-0.18c0.21,0.32,0.42,0.65,0.63,0.99
		c1.54-9.22,4.26-16.88-0.92-25.29c-3.67-5.96-9.42-10.35-16.13-12.33l-4.93,3.95l1.92-4.6c-1.61-0.25-3.24-0.34-4.87-0.28
		l-4.44,5.71l1.84-5.51c-7.78,0.97-14.81,5.15-19.37,11.52c-5.65,8.14-5.27,19.46,0.28,27.67c0.02-0.06,0.03-0.11,0.05-0.17
		c0.5,7.8,4.93,14.82,11.75,18.62l1.4,11.16l0,0c-1.26,1.17-2.87,1.88-4.57,2.02c-2.47,0-4.93,6.57-4.93,6.57s-1.4,0.7-2.9,4.03
		c-3.88,2.64-15.71,10.93-20.1,16.73c-2.6,1.28-5.39,4.12-4.93,10.46c0.82,11.5,0,64.9,0,64.9s-7.39,45.19-4.93,48.47
		s-0.82,13.97-0.82,13.97l2.47,0.55v2.75c0,0-7.41,34.37,4.11,32.86c18.9-2.46,4.93-30.4,4.93-30.4v-3.2l3.29,0.73
		c0,0,1.64-11.5,4.93-12.32c1.14-0.29,2.48-3.36,3.75-7.24c0.74,6.05,1.18,9.7,1.18,9.7l5.14-1.14l1.43,5.25
		c0.35,0.2,0.72,0.36,1.1,0.5l-1.1,6.07c0,0-0.82,6.57,0,10.68c0.41,2.07,15.66,46.35,30.68,89.74l-0.28,10.49
		c0,0-7.39,8.22-5.75,13.97s-4.11,53.4-4.11,53.4l-4.93,23.83l1.24,0.38l-1.14,4.17c-0.98,0.5-1.85,1.18-2.57,2.02
		c-6.57,7.39-14.79,28.76-14.79,28.76s-14.79,22.18,8.22,21.36s24.65-9.04,24.65-9.04s3.29-21.36,3.29-22.18s-1.64-9.27-1.64-9.27
		l-0.64-0.7l0.45-10.25l4.3,1.32c0,0,4.11-21.36,7.39-23.83c1.15-0.86,4.2-10.46,7.69-22.78c3.57,10.27,7.02,45.77,8.14,49
		c-0.4,0.54-0.75,1.12-1.04,1.72c-3.69,7.09-7.81,13.95-12.32,20.54c0,0-26.29,15.61,0,19.72c0,0,14.79,0.82,22.18-4.11
		s27.11-12.32,27.11-13.97s-4.93-25.8-9.86-23.17l0,0l-3.3-7.59l3.3-1.28l-20.8-93.36c0.49-1.99,0.85-4.01,1.08-6.05
		c0-4.3,10.64-88.08,13.34-109.33c11.91,3.38,22.8-21.3,22.8-21.3l2.7-4.86l3.87,2.4c0,0,3.29-8.22,8.22-9.04
		s13.97-44.36,13.97-50.12C628.48,254.68,627.63,251.04,626.08,247.69z M587.8,312.06c-0.81-1.28-1.75-2.48-2.8-3.57
		c2.15-5.59,3.8-11.37,4.93-17.25c1.64-9.04-2.47-38.61-2.47-38.61l-0.07-2.01c4.03,5.29,9.11,12.35,9.11,14.33
		c0,1.94,0.91,3.77,2.47,4.93l-4.93,17.25c0,0-3.29,8.22-4.11,12.32c-0.49,2.44-0.77,4.91-0.82,7.39l1.16,0.72L587.8,312.06z"/>
	<path id="Path_3" class="st0" d="M249.96,262.9l4.38-0.99l-18.08-50.94l-39.02-14.38c0,0-0.15,0.17-0.42,0.45
		c-3.33-3.22-4.74-7.9-5.33-11.58c11.78-4.76,17.47-18.16,12.71-29.94c-0.54-1.34-1.2-2.62-1.99-3.83c3.22-0.77,4.36-3.69,5.44-7.17
		c-0.67-0.2-1.35-0.35-2.04-0.44l1.52-3.4l-2.67-0.24l0.68-3.18l-3.4,2.35c0.78-2.26,0.35-4.77-1.16-6.63
		c-1.51-1.82-3.47-3.2-5.69-4.01c-8.85-3.48-18.89-1.72-26.04,4.55l-0.25-0.96c-6.94,5.33-11.48,13.2-12.62,21.87
		c-1.09,8.57,3.03,17.3,8.38,24.09c-0.05-0.3-0.09-0.59-0.14-0.89c0.23,0.32,0.47,0.63,0.72,0.94l0.66,25.01l-1.65,1.41
		c0,0-27.65,12.51-28.73,27.45v0.01c-1.66,7.27-2.48,45.07-2.48,45.07h2.27l-2.27,14.79l-14.79,57.51c0,0-18.9,24.65-2.46,29.58
		c10.21,3.06,13.12-8.78,13.87-18.19c0.59,2.33,2.36,3.91,5.85,4.23c0.27,0.02,0.57,0.05,0.85,0.07
		c-7.77,20.08-2.49,85.37-2.49,85.37c-4.11,8.22,44.36,64.9,44.36,64.9l2.92-1.56l0.63,1.26c-1.62,0.16-2.73,0.29-2.73,0.29v25.47
		c0,0-7.39,25.47,2.46,30.4c2.55,1.28,5.21,0.35,7.76-1.72c-0.49,7.86-1.18,19.59-1.18,22.26c0,4.11,10.68,11.5,10.68,11.5
		s2.46,9.04,22.18,9.04s4.93-23.83,4.93-23.83l-10.68-23.83c0,0-0.8,0.39-3.22-1.58l0.87-9.53l4.82,0.42l6.57-96.12
		c0,0,5.75-85.44,6.57-98.59c0.19-4.21,0.09-8.44-0.3-12.64l24.12-49.8L249.96,262.9z M232.16,294.77l-2.46,8.59v-19L232.16,294.77z
		 M129.59,355.7c0.02-3.01-0.13-5.06-0.13-5.06l16.06-32.12l-0.45,9.94C145.08,328.46,132.21,344.73,129.59,355.7z M167.26,448.41
		l15.61-55.05l9.04,66.55l-0.65,24.19c-1.1-2.22-1.98-4.55-2.64-6.94C186.15,467.3,167.26,448.41,167.26,448.41L167.26,448.41z"/>
	<path id="Path_4" class="st0" d="M389.59,579.17c-7.7-3.17-22.64-9.96-24.45-13.58s-10.87-31.7-10.87-31.7l-2.33,0.17
		c-0.3-12.75-1.58-62.18-3.55-68.09c0,0,9.51-78.34-9.51-109.58l-3.43-13.84c1.12-5.55,0.98-18.4,0.26-20.57
		c-0.91-2.72,10.42-11.32,7.24-16.75s-11.77-24-11.77-24s0.91-11.77-11.32-22.64c0,0-3.57-20.23-19.67-20.53
		c-2.18-3.8-5.22-9.84-4.33-12.53c0.96-2.88,4.63-11.86,6.7-16.88c1.1-0.5,2.16-1.09,3.16-1.76c12.8-5.74,21.83-19.53,21.83-35.64
		c0-17.25-10.34-31.84-24.59-36.74c2.39-6.31-0.78-13.37-7.09-15.76c-6.31-2.39-13.37,0.78-15.76,7.09
		c-0.52,1.37-0.79,2.82-0.79,4.28c-2.62-6.22,0.3-13.38,6.51-16c2.25-0.95,4.73-1.2,7.12-0.73c-6.09-2.9-13.38-0.32-16.28,5.77
		c-2.4,5.03-1.08,11.05,3.19,14.63c0.14,0.45,0.31,0.89,0.5,1.31c-13.41,5.41-22.97,19.55-22.97,36.13
		c0,15.39,8.23,28.66,20.12,34.82c-0.06,5.01-1.3,13.44-8.21,18.58c-3.57-1.63-8.51-3.42-11.69-2.61c-1.64-1.28-4.12-1.7-7.49,1.67
		c-6.79,6.79-12.68,24.45-12.68,35.32c0,10.87,1.36,73.81,1.36,73.81s-7.24,2.72-2.26,6.79c1.03,0.86,2.32,1.34,3.66,1.36
		l4.95,36.68c0,0-3.17,35.32,9.06,35.77c0.96,0.05,1.91-0.18,2.74-0.67l-9.08,40.97c0,0-20.83,13.58-37.13,40.3
		c-8.4,13.76-12.58,22.23-14.67,27.21l-2.99-1.85l-10.42,19.92c0,0-23.09,14.04-18.11,24.45s9.51,13.13,9.51,13.13l3.17-1.36
		l5.89,10.87c0,0,15.4,22.19,40.3,10.87c2.4-3.22,2.4-7.64,0-10.87c-4.08-5.89-14.49-18.57-14.49-18.57l6.79-34.41l-1.4-0.87
		l43.07-52.11c0,0,12.68-7.7,17.21-14.49s32.61-76.98,32.61-76.98l15.85,73.36c0,0-0.91,26.72,3.17,43.92
		c2.22,9.65,3.67,19.47,4.33,29.35l-1.16,0.09l2.71,20.38c0,0-11.77,28.98-3.62,31.24c5.8,1.5,11.7,2.56,17.66,3.17l0.91-3.17
		c0,0,34.87,19.02,47.55,4.98C394.57,592.3,397.29,582.34,389.59,579.17z M265.52,356.83c1.36,1.36,0.91,7.7,0.91,7.7l-2.72,17.66
		l-2.71,12.25c-0.38-5.79-1.13-11.54-2.27-17.23l-1.25-33.84c0.25,0.16,0.52,0.27,0.8,0.33c0.91,0,0.45-7.7,0.45-7.7
		s0.53-1.38,1.19-3.54c1.76,5.27,3.91,8.71,6.51,9.43l0.45,5.89c0,0-5.89,2.72-0.45,2.72c0.32-0.01,0.63-0.06,0.93-0.14l-0.48,2.4
		C266.88,352.76,264.16,355.48,265.52,356.83z"/>
	<ellipse id="Ellipse_1" class="st1" cx="381.85" cy="594.26" rx="364" ry="6"/>
	<ellipse id="Ellipse_2" class="st1" cx="509.25" cy="609.76" rx="400.4" ry="15.5"/>
	<ellipse id="Ellipse_3" class="st1" cx="435.35" cy="632.76" rx="196.5" ry="15.5"/>
	<ellipse id="Ellipse_4" class="st1" cx="719.35" cy="651.26" rx="87.5" ry="8"/>
	<ellipse id="Ellipse_5" class="st1" cx="599.35" cy="678.26" rx="41.5" ry="8"/>
	<ellipse id="Ellipse_6" class="st1" cx="261.35" cy="644.26" rx="41.5" ry="8"/>
	<path id="Path_5" class="st2" d="M466.35,553.76l4,28l20-2l-2-29L466.35,553.76z"/>
	<path id="Path_6" class="st2" d="M371.35,553.76l-4,28l-20-2l2-29L371.35,553.76z"/>
	<path id="Path_7" class="st3" d="M342.35,263.76c0,0-18,21-14,54s11,108,11,108l5,133l32-2l5-113l16-91l43,106c0,0,21,99,22,99
		s30-3,30-3l-14-117c0,0-22-170-35-173S342.35,263.76,342.35,263.76z"/>
	<path id="Path_8" class="st3" d="M492.35,575.76c0,0-18-12-25,2s-1,24-1,24s6,4,3,8s-4,30,22,26s13-31,13-31L492.35,575.76z"/>
	<path id="Path_9" class="st3" d="M345.35,575.76c0,0,18-12,25,2s1,24,1,24s-6,4-3,8s4,30-22,26s-13-31-13-31L345.35,575.76z"/>
	<path id="Path_10" class="st2" d="M366.85,69.26c0,0,9,25,2,39s11,30,11,30s47-24,41-36s-16-28-14-38L366.85,69.26z"/>
	<circle id="Ellipse_7" class="st2" cx="384.35" cy="46.76" r="32"/>
	<path id="Path_11" class="st0" d="M361.35,106.76c0,0,32.11,26.72,56.05-11.14l24.95,14.14l13,152c0,0-73,42-108,6l5-141
		L361.35,106.76z"/>
	<path id="Path_12" class="st4" d="M371.43,91.79l-45.08,29.97l16,74l-21,115l34-51L371.43,91.79z"/>
	<path id="Path_13" class="st4" d="M411.28,83.45l11.07,7.31l45,16l-7,124l19,80l-27,14c0,0-5-38-36-57S404.2,89.14,411.28,83.45z"
		/>
	<path id="Path_14" class="st2" d="M336.35,277.76l13,9c0,0-16.5,17.5-19.5,14.5c-1.76-1.69-2.67-4.07-2.5-6.5l-3-7L336.35,277.76z"
		/>
	<path id="Path_15" class="st2" d="M422.77,275.82l-4.42,6.95c0,0-13,6-10,10s28,13,33,4l5-9L422.77,275.82z"/>
	<path id="Path_16" class="st4" d="M332.35,120.76l-7,1l-11.5,74.5c0,0-4.5,13.5,0.5,45.5s9.95,52.84,9.95,52.84l22.05-15.84l-10-26
		l13-95L332.35,120.76z"/>
	<path id="Path_17" class="st4" d="M451.35,104.76l16,2c0,0,18,19,21,39s2,77,2,77l-46,73l-25-18l35-62l-17-74L451.35,104.76z"/>
	<path id="Path_18" class="st3" d="M414.86,17.82c-4.84-7.86-12.41-13.65-21.27-16.26l-6.5,5.2l2.53-6.07
		c-2.13-0.32-4.28-0.45-6.43-0.37l-5.85,7.52l2.42-7.26c-10.26,1.28-19.52,6.78-25.54,15.19c-7.45,10.74-8.7,25.67-1.38,36.49
		c2.01-6.18,4.45-11.97,6.46-18.15c1.58,0.22,3.18,0.22,4.76,0.02l2.45-5.71l0.68,5.46c7.58-0.66,18.82-2.11,26.01-3.44l-0.7-4.19
		l4.18,3.48c2.2-0.51,3.51-0.97,3.4-1.32c5.34,8.62,10.64,14.12,15.98,22.74C418.11,39.01,421.69,28.91,414.86,17.82z"/>
	<ellipse id="Ellipse_8" class="st2" cx="413.09" cy="45.76" rx="2.17" ry="4.33"/>
	<path id="Path_19" class="st5" d="M759.22,611.34c0.92,31.56-17.52,43.12-40.66,43.8c-0.54,0.02-1.07,0.03-1.6,0.03
		c-1.07,0.01-2.14-0.01-3.19-0.05c-20.93-0.87-37.49-11.98-38.35-41.33c-0.89-30.37,36.81-69.84,39.64-72.76h0.01l0.16-0.17
		C715.22,540.87,758.29,579.78,759.22,611.34z"/>
	<path id="Path_20" class="st1" d="M716.89,650.36l14.7-21.86l-14.67,24.21l0.03,2.46c-1.07,0.01-2.14-0.01-3.19-0.05l0.73-31.62
		l-0.02-0.24l0.03-0.05l0.07-2.99l-16.1-23.37l16.08,21.14l0.06,0.63l0.55-23.89l-13.9-24.23l13.94,20.03l-0.15-49.49v-0.16v0.16
		l0.92,39.01l12.67-15.84l-12.63,19.21l0.28,21.37l11.66-20.85l-11.62,24l0.15,11.88l16.96-29.05l-16.91,33.2L716.89,650.36z"/>
	<path id="Path_21" class="st5" d="M223.22,564.34c0.92,31.56-17.52,43.12-40.66,43.8c-0.54,0.02-1.07,0.03-1.61,0.03
		c-1.07,0.01-2.14-0.01-3.19-0.05c-20.93-0.87-37.49-11.98-38.35-41.33c-0.89-30.37,36.81-69.84,39.64-72.76h0.01l0.16-0.17
		C179.22,493.87,222.29,532.78,223.22,564.34z"/>
	<path id="Path_22" class="st1" d="M180.89,603.36l14.7-21.86l-14.67,24.21l0.03,2.46c-1.07,0.01-2.14-0.01-3.19-0.05l0.73-31.62
		l-0.02-0.24l0.03-0.05l0.07-2.99l-16.1-23.37l16.08,21.14l0.06,0.63l0.55-23.89l-13.9-24.23l13.94,20.03l-0.15-49.49v-0.16v0.16
		l0.92,39.01l12.67-15.84l-12.63,19.21l0.28,21.37l11.66-20.85l-11.62,24l0.15,11.88l16.96-29.05l-16.91,33.2L180.89,603.36z"/>
	<path id="Path_23" class="st5" d="M623.73,655.83c0.54,18.52-10.28,25.31-23.87,25.71c-0.32,0.01-0.63,0.01-0.94,0.02
		c-0.63,0-1.25-0.01-1.87-0.03c-12.28-0.51-22.01-7.03-22.51-24.26c-0.52-17.83,21.61-40.99,23.27-42.71l0,0l0.1-0.1
		C597.91,614.46,623.19,637.31,623.73,655.83z"/>
	<path id="Path_24" class="st1" d="M598.89,678.73l8.63-12.83l-8.61,14.21l0.02,1.44c-0.63,0-1.25-0.01-1.87-0.03l0.43-18.56
		l-0.01-0.14l0.02-0.03l0.04-1.75l-9.45-13.72l9.44,12.41l0.03,0.37l0.32-14.02l-8.16-14.22l8.18,11.76l-0.09-29.05v-0.1v0.1
		l0.54,22.9l7.44-9.3l-7.41,11.27l0.16,12.54l6.84-12.24l-6.82,14.09l0.09,6.97l9.95-17.05l-9.92,19.48L598.89,678.73z"/>
	<path id="Path_25" class="st3" d="M959.63,51.49c0.03-0.09,0.06-0.18,0.09-0.27c-0.01,0.04-0.03,0.08-0.04,0.12L959.63,51.49z"/>
	<path id="Path_26" class="st1" d="M819.89,582.11l74.07-110.15l-73.92,122l0.16,12.39c-5.41,0.04-10.76-0.05-16.06-0.27
		l3.67-159.32l-0.1-1.23l0.14-0.24l0.35-15.05l-81.12-117.77l81.02,106.5l0.29,3.18l2.78-120.37l-70.06-122.1l70.26,100.95
		l-0.73-249.38v-0.83l0.02,0.82l4.65,196.54l63.85-79.84l-63.64,96.77l1.39,107.67l58.76-105.08l-58.54,120.91l0.78,59.87
		l85.45-146.38l-85.19,167.27L819.89,582.11z"/>
	<path id="Path_27" class="st1" d="M63.59,577.84l50.4-74.95l-50.3,83.02l0.1,8.43c-3.68,0.03-7.32-0.03-10.93-0.18l2.5-108.41
		l-0.07-0.84l0.09-0.16l0.24-10.24l-55.2-80.14l55.13,72.47l0.2,2.16l1.89-81.91L9.98,304.01l47.81,68.69L57.29,203v-0.57l0.02,0.55
		l3.16,133.74l43.45-54.32l-43.31,65.85l0.95,73.27l39.98-71.51L61.71,432.3l0.53,40.74l58.14-99.61L62.41,487.25L63.59,577.84z"/>
</g>
</svg>
