<?xml version="1.0" encoding="utf-8"?>
<!-- Generator: Adobe Illustrator 24.1.2, SVG Export Plug-In . SVG Version: 6.00 Build 0)  -->
<svg version="1.1" id="Layer_1" xmlns="http://www.w3.org/2000/svg" xmlns:xlink="http://www.w3.org/1999/xlink" x="0px" y="0px"
	 viewBox="0 0 435 387" style="enable-background:new 0 0 435 387;" xml:space="preserve">
<style type="text/css">
	.st0{fill:#6161C1;}
	.st1{fill:#4B4BAA;}
	.st2{fill:#CCE5E8;}
	.st3{fill:#FFFFFF;}
	.st4{fill:#EDF4F9;}
	.st5{fill:none;}
	.st6{font-family:'ArialMT';}
	.st7{font-size:12px;}
	.st8{font-family:'Apple-Chancery';}
	.st9{font-size:13px;}
	.st10{fill:#CBE6ED;stroke:#CBE6ED;stroke-width:15;stroke-miterlimit:10;}
	.st11{fill:#F4BD6C;}
	.st12{fill:#F7D548;}
	.st13{fill:#0F0902;}
</style>
<g id="book">
	<g>
		<path class="st0" d="M417,303H16c-6.6,0-12-5.4-12-12V30c0-6.6,5.4-12,12-12h401c6.6,0,12,5.4,12,12v261
			C429,297.6,423.6,303,417,303z"/>
	</g>
	<g>
		<rect x="207" y="18" class="st1" width="32" height="285"/>
	</g>
	<g>
		<path class="st2" d="M392,284H42c-6.6,0-12-5.4-12-12V52c0-6.6,5.4-12,12-12h350c6.6,0,12,5.4,12,12v220
			C404,278.6,398.6,284,392,284z"/>
	</g>
	<g>
		<path class="st3" d="M219,271c-22.2-7.1-54.7-14.9-94.5-14.9c-23.2,0-56.5,2.6-94.5,14.9c0-84.6,0-169.1,0-253.7
			c23.2-6.4,54.9-12,92-12.3c39.9-0.3,72.8,5.6,97,12.3C219,101.9,219,186.4,219,271z"/>
	</g>
	<g>
		<path class="st4" d="M404,271.4c-21.7-7.2-53.6-14.9-92.5-14.9c-22.7,0-55.3,2.6-92.5,14.9c0-84.7,0-169.4,0-254.1
			c22.7-6.4,53.7-12,90.1-12.3c39.1-0.3,71.3,5.6,94.9,12.3C404,102.1,404,186.8,404,271.4z"/>
	</g>
</g>
<path id="journey_x5F_1_x5F_" class="st5" d="M229.5,241.2c17.8-3.7,44-7.8,76.2-8.1c39-0.3,70.1,5.2,89.3,9.7"/>
<text transform="matrix(0.9831 -0.1831 0.1831 0.9831 235.9399 239.9007)" class="st6 st7"> </text>
<text transform="matrix(0.9848 -0.1739 0.1739 0.9848 239.2172 239.2893)" class="st8 st9"> </text>
<text transform="matrix(0.9864 -0.1644 0.1644 0.9864 242.7741 238.6613)" class="st8 st9"> </text>
<text transform="matrix(0.9879 -0.1549 0.1549 0.9879 246.3368 238.0676)" class="st8 st9"> </text>
<text transform="matrix(0.9894 -0.1455 0.1455 0.9894 249.905 237.5081)" class="st8 st9"> </text>
<text transform="matrix(0.9907 -0.1361 0.1361 0.9907 253.4788 236.9831)" class="st8 st9"> </text>
<text transform="matrix(0.9919 -0.1267 0.1267 0.9919 257.0571 236.4917)" class="st8 st9"> </text>
<text transform="matrix(0.9934 -0.1144 0.1144 0.9934 260.6388 236.0267)" class="st8 st9">I</text>
<text transform="matrix(0.9949 -0.1009 0.1009 0.9949 266.5355 235.3523)" class="st8 st9">t</text>
<text transform="matrix(0.9958 -9.155948e-02 9.155948e-02 0.9958 271.1145 234.8924)" class="st8 st9">’</text>
<text transform="matrix(0.9966 -8.223443e-02 8.223443e-02 0.9966 273.7881 234.6422)" class="st8 st9">s</text>
<text transform="matrix(0.9974 -7.174958e-02 7.174958e-02 0.9974 278.3938 234.2649)" class="st8 st9"> </text>
<text transform="matrix(0.9983 -5.868226e-02 5.868226e-02 0.9983 281.9956 233.9956)" class="st8 st9">a</text>
<text transform="matrix(0.9991 -4.223277e-02 4.223277e-02 0.9991 288.6555 233.6055)" class="st8 st9">b</text>
<text transform="matrix(0.9996 -2.720567e-02 2.720567e-02 0.9996 294.9536 233.3422)" class="st8 st9">o</text>
<text transform="matrix(0.9999 -1.096096e-02 1.096096e-02 0.9999 300.5246 233.1835)" class="st8 st9">u</text>
<text transform="matrix(1 3.982355e-03 -3.982355e-03 1 307.8116 233.1138)" class="st8 st9">t</text>
<text transform="matrix(0.9999 1.433167e-02 -1.433167e-02 0.9999 312.4138 233.1347)" class="st8 st9"> </text>
<text transform="matrix(0.9997 2.468892e-02 -2.468892e-02 0.9997 316.0252 233.1838)" class="st8 st9">t</text>
<text transform="matrix(0.9992 3.923202e-02 -3.923202e-02 0.9992 320.6265 233.2892)" class="st8 st9">h</text>
<text transform="matrix(0.9985 5.408641e-02 -5.408641e-02 0.9985 327.5399 233.5685)" class="st8 st9">e</text>
<text transform="matrix(0.9979 6.477702e-02 -6.477702e-02 0.9979 332.3631 233.8328)" class="st8 st9"> </text>
<text transform="matrix(0.9973 7.374510e-02 -7.374510e-02 0.9973 335.9674 234.0671)" class="st8 st9">j</text>
<text transform="matrix(0.9964 8.522148e-02 -8.522148e-02 0.9964 339.4178 234.3161)" class="st8 st9">o</text>
<text transform="matrix(0.9948 0.1016 -0.1016 0.9948 344.9718 234.7841)" class="st8 st9">u</text>
<text transform="matrix(0.993 0.1179 -0.1179 0.993 352.2202 235.532)" class="st8 st9">r</text>
<text transform="matrix(0.9909 0.1343 -0.1343 0.9909 357.5982 236.162)" class="st8 st9">n</text>
<text transform="matrix(0.9887 0.1501 -0.1501 0.9887 364.8683 237.1575)" class="st8 st9">e</text>
<text transform="matrix(0.9862 0.1656 -0.1656 0.9862 369.6462 237.874)" class="st8 st9">y</text>
<text transform="matrix(0.9837 0.1797 -0.1797 0.9837 376.5923 239.0528)" class="st8 st9"> </text>
<text transform="matrix(0.9822 0.1881 -0.1881 0.9822 380.1451 239.7037)" class="st8 st9">.</text>
<text id="journey" class="st6 st7"> </text>
<path id="destination_x5F_1_x5F_" class="st5" d="M228.5,209.2c17.8-3.7,44-7.8,76.2-8.1c39-0.3,70.1,5.2,89.3,9.7"/>
<text transform="matrix(0.9797 -0.2006 0.2006 0.9797 228.519 209.1861)" class="st6 st7"> </text>
<text transform="matrix(0.9821 -0.1882 0.1882 0.9821 231.7839 208.5093)" class="st8 st9">I</text>
<text transform="matrix(0.9847 -0.1742 0.1742 0.9847 237.614 207.3971)" class="st8 st9">t</text>
<text transform="matrix(0.9864 -0.1646 0.1646 0.9864 242.1461 206.5997)" class="st8 st9">’</text>
<text transform="matrix(0.9879 -0.155 0.155 0.9879 244.7943 206.1533)" class="st8 st9">s</text>
<text transform="matrix(0.9895 -0.1443 0.1443 0.9895 249.3597 205.4395)" class="st8 st9"> </text>
<text transform="matrix(0.9915 -0.13 0.13 0.9915 252.9318 204.9052)" class="st8 st9">n</text>
<text transform="matrix(0.9935 -0.1134 0.1134 0.9935 260.2088 203.9587)" class="st8 st9">o</text>
<text transform="matrix(0.995 -0.1003 0.1003 0.995 265.7466 203.3297)" class="st8 st9">t</text>
<text transform="matrix(0.996 -8.983369e-02 8.983369e-02 0.996 270.3255 202.8705)" class="st8 st9"> </text>
<text transform="matrix(0.9971 -7.671982e-02 7.671982e-02 0.9971 273.9219 202.5358)" class="st8 st9">a</text>
<text transform="matrix(0.9982 -6.022274e-02 6.022274e-02 0.9982 280.5741 202.0259)" class="st8 st9">b</text>
<text transform="matrix(0.999 -4.516068e-02 4.516068e-02 0.999 286.8661 201.649)" class="st8 st9">o</text>
<text transform="matrix(0.9996 -2.888439e-02 2.888439e-02 0.9996 292.4336 201.3903)" class="st8 st9">u</text>
<text transform="matrix(0.9999 -1.386299e-02 1.386299e-02 0.9999 299.7179 201.19)" class="st8 st9">t</text>
<text transform="matrix(1 -3.540202e-03 3.540202e-03 1 304.3197 201.1287)" class="st8 st9"> </text>
<text transform="matrix(1 6.803581e-03 -6.803581e-03 1 307.9316 201.1134)" class="st8 st9">t</text>
<text transform="matrix(0.9998 2.132499e-02 -2.132499e-02 0.9998 312.5338 201.1363)" class="st8 st9">h</text>
<text transform="matrix(0.9993 3.615217e-02 -3.615217e-02 0.9993 319.4511 201.2916)" class="st8 st9">e</text>
<text transform="matrix(0.9989 4.681927e-02 -4.681927e-02 0.9989 324.2785 201.4695)" class="st8 st9"> </text>
<text transform="matrix(0.9982 5.983022e-02 -5.983022e-02 0.9982 327.8869 201.6287)" class="st8 st9">d</text>
<text transform="matrix(0.9972 7.441250e-02 -7.441250e-02 0.9972 334.5459 202.0343)" class="st8 st9">e</text>
<text transform="matrix(0.9963 8.642345e-02 -8.642345e-02 0.9963 339.363 202.3944)" class="st8 st9">s</text>
<text transform="matrix(0.9952 9.817480e-02 -9.817480e-02 0.9952 343.9668 202.7936)" class="st8 st9">t</text>
<text transform="matrix(0.994 0.109 -0.109 0.994 348.5465 203.2475)" class="st8 st9">i</text>
<text transform="matrix(0.9924 0.1233 -0.1233 0.9924 352.3719 203.6542)" class="st8 st9">n</text>
<text transform="matrix(0.99 0.1414 -0.1414 0.99 359.6536 204.5621)" class="st8 st9">a</text>
<text transform="matrix(0.9877 0.1561 -0.1561 0.9877 366.2572 205.5132)" class="st8 st9">t</text>
<text transform="matrix(0.9859 0.1672 -0.1672 0.9859 370.8019 206.2332)" class="st8 st9">i</text>
<text transform="matrix(0.9837 0.1796 -0.1796 0.9837 374.5959 206.8711)" class="st8 st9">o</text>
<text transform="matrix(0.9804 0.1969 -0.1969 0.9804 380.0801 207.8643)" class="st8 st9">n</text>
<text transform="matrix(0.9776 0.2104 -0.2104 0.9776 387.2714 209.3246)" class="st8 st9">,</text>
<text id="destination" class="st6 st7"> </text>
<path id="ninth-line" class="st10" d="M228.9,167.1c17.8-3.7,44-7.8,76.2-8.1c39-0.3,70.1,5.2,89.3,9.7"/>
<path id="eighth-line" class="st10" d="M228.9,130.1c17.8-3.7,44-7.8,76.2-8.1c39-0.3,70.1,5.2,89.3,9.7"/>
<path id="senventh-line" class="st10" d="M228.9,89.1c17.8-3.7,44-7.8,76.2-8.1c39-0.3,70.1,5.2,89.3,9.7"/>
<path id="sixth-line" class="st10" d="M228.9,48.1c17.8-3.7,44-7.8,76.2-8.1c39-0.3,70.1,5.2,89.3,9.7"/>
<path id="fifth-line" class="st10" d="M41.8,241.1c17.8-3.7,44-7.8,76.2-8.1c39-0.3,70.1,5.2,89.3,9.7"/>
<path id="fourth-line" class="st10" d="M41.8,203.1c17.8-3.7,44-7.8,76.2-8.1c39-0.3,70.1,5.2,89.3,9.7"/>
<path id="third-line" class="st10" d="M41.8,164.1c17.8-3.7,44-7.8,76.2-8.1c39-0.3,70.1,5.2,89.3,9.7"/>
<path id="sencond-line" class="st10" d="M41.8,125.1c17.8-3.7,44-7.8,76.2-8.1c39-0.3,70.1,5.2,89.3,9.7"/>
<path id="first-line" class="st10" d="M41.8,84.1c17.8-3.7,44-7.8,76.2-8.1c39-0.3,70.1,5.2,89.3,9.7"/>
<path id="my-name_x5F_1_x5F_" class="st5" d="M44.5,57.4c17.8-3.7,44-7.8,76.2-8.1c39-0.3,70.1,5.2,89.3,9.7"/>
<text transform="matrix(0.9938 -0.1113 0.1113 0.9938 78.1537 51.9573)" class="st6 st7"> </text>
<text transform="matrix(0.9947 -0.1024 0.1024 0.9947 81.4668 51.5854)" class="st8 st9"> </text>
<text transform="matrix(0.9957 -9.316029e-02 9.316029e-02 0.9957 85.0598 51.2156)" class="st8 st9"> </text>
<text transform="matrix(0.9965 -8.393719e-02 8.393719e-02 0.9965 88.656 50.8791)" class="st8 st9"> </text>
<text transform="matrix(0.9972 -7.473322e-02 7.473322e-02 0.9972 92.2552 50.5762)" class="st8 st9"> </text>
<text transform="matrix(0.9978 -6.554586e-02 6.554586e-02 0.9978 95.8569 50.3062)" class="st8 st9"> </text>
<text transform="matrix(0.9984 -5.637312e-02 5.637312e-02 0.9984 99.4607 50.0691)" class="st8 st9"> </text>
<text transform="matrix(0.9992 -3.997715e-02 3.997715e-02 0.9992 103.0658 49.8422)" class="st8 st9">A</text>
<text transform="matrix(0.9998 -1.974851e-02 1.974851e-02 0.9998 112.3838 49.483)" class="st8 st9">a</text>
<text transform="matrix(1 -4.532482e-03 4.532482e-03 1 119.0543 49.3563)" class="st8 st9">r</text>
<text transform="matrix(1 9.305262e-03 -9.305262e-03 1 124.469 49.3312)" class="st8 st9">o</text>
<text transform="matrix(0.9997 2.558294e-02 -2.558294e-02 0.9997 130.0422 49.3758)" class="st8 st9">n</text>
<text transform="matrix(0.9992 3.940560e-02 -3.940560e-02 0.9992 137.3772 49.5762)" class="st8 st9"> </text>
<text transform="matrix(0.9983 5.873543e-02 -5.873543e-02 0.9983 140.9886 49.6799)" class="st8 st9">W</text>
<text transform="matrix(0.9968 7.966650e-02 -7.966650e-02 0.9968 152.6395 50.4011)" class="st8 st9">e</text>
<text transform="matrix(0.9959 9.070431e-02 -9.070431e-02 0.9959 157.4543 50.7886)" class="st8 st9">i</text>
<text id="my-name" class="st6 st7"> </text>
<g id="pencil">
	<polyline class="st11" points="425.9,291.7 427.8,287.4 416.8,282.5 415.1,286.6 	"/>
	<polygon class="st12" points="416.8,282.5 416.9,286.9 420.2,284 420.4,288.5 423.9,285.7 424.2,290.2 427.8,287.4 385.8,382.5 
		374.8,377.7 	"/>
	<polyline points="432.4,262.1 428.5,267.3 431.2,268.8 	"/>
	<path class="st11" d="M430,267.6c-0.4-0.2-0.9-0.4-1.2-0.7l-11.9,15.6l11,4.9l3.4-18.9l0.1-0.5C430.9,267.9,430.4,267.8,430,267.6z
		"/>
	
		<ellipse transform="matrix(0.4041 -0.9147 0.9147 0.4041 -120.5303 574.252)" class="st11" cx="380.5" cy="379.6" rx="2.5" ry="6"/>
	<path class="st11" d="M425.1,305.6"/>
	<ellipse transform="matrix(0.4041 -0.9147 0.9147 0.4041 -121.0681 574.3315)" class="st13" cx="380.3" cy="380.1" rx="1" ry="2"/>
</g>
</svg>
